<?xml version="1.0" encoding="UTF-8"?>
<svg id="Camada_1" data-name="Camada 1" xmlns="http://www.w3.org/2000/svg" viewBox="0 0 47.21 44.2">
  <defs>
    <style>
      .cls-1 {
        fill: #8e66a9;
      }
    </style>
  </defs>
  <path class="cls-1" d="m34.36,3.84c.58.05.81.55.68,1.52-.08.13-.08.26,0,.39s0,.29-.13.37c-.11.05-.24.03-.32-.05l-1.1-1.16c-.05-.05-.11-.05-.16,0v.03l-.05.08c-.05.08-.05.13.03.16.5.32.81.6.95.84.55,1.13,1.44,2,2,2.99,1.13,2.02,2.44,3.91,3.97,5.67.26.29.81.39.71,1.02-.03.11.03.16.13.16l.53.08c.05,0,.08.03.11.05,1.37,1.29,3.86.24,5.33-.34.13-.05.18,0,.18.13-.11,1.71-.79,3.1-2.08,4.18-.05.05-.11.13-.13.21-.32.79-.87,1.29-1.63,1.47-.89.21-1.39.71-2,1.31-.08.08-.16.11-.24.13-.32.08-.45.29-.42.63.03.24-.16.45-.39.47h-.08c-.34-.03-.58.13-.68.47-.18.58-.47,1.13-.81,1.6-.05.08-.05.16,0,.24.26.34.24.71-.05,1.02-.08.08-.05.16,0,.24.92.84,1.63,3.39.21,3.91-.08.03-.13.11-.13.21l-.03.53c0,.08-.05.13-.11.16-.63.21-1.21.53-1.71.97-.76.66-1.21.95-.87,1.97.13.39.03.71-.32.92-.08.05-.13.13-.18.24-.18.63-.6,1-1.29,1.08-.11,0-.21.11-.24.21l-.16.92c-.03.11-.05.16-.13.21l-.29.21c-.08.05-.13.11-.16.18-.6,1.34-1.5,2.47-2.65,3.34-.58.42-1.18.34-1.81.76-.29.18-.58.16-.87-.08-.08-.05-.13-.05-.21,0-.29.18-.58.29-.89.37-.74.18-1.18-.34-1.97.26-.05.05-.16.08-.24.05-.66-.13-1.1-.5-1.29-1.16-.03-.11-.03-.24.05-.34.26-.42.21-.76-.21-1.08-.08-.05-.11-.13-.13-.21-.24-1.13-1-1.44-1.29-2.39-.32-1.05-.5-2.15-.5-3.26,0-.08-.05-.16-.13-.18l-.37-.08c-.05-.03-.11-.05-.13-.11l-1.08-1.89s-.03-.08-.03-.11l.5-2.5c.03-.11.08-.18.16-.24l.5-.34c.08-.05.13-.13.13-.24.03-.74,0-1.47-.05-2.18-.11-1.29-1.81-2.97-2.73-3.81-.05-.05-.11-.13-.11-.21-.03-1,.21-1.92.63-2.78.05-.08.03-.16-.03-.24l-.71-.71c-.08-.08-.16-.08-.24-.05-.58.16-1.16.24-1.73.16-.08,0-.13-.05-.18-.13l-.39-.89c-.03-.08-.08-.13-.16-.16-1.81-.97-3.23,1.23-5.02.89-.92-.18-1.84-.13-2.76.13-1.21.34-3.68-1.58-4.41-2.52-.63-.81-1.39-1.47-2.31-1.97-.11-.05-.13-.13-.13-.26l.11-.58c.03-.08,0-.13-.08-.18l-.45-.32c-.05-.03-.08-.11-.11-.16-.03-.29.11-.45.39-.5.11-.03.16-.11.16-.21-.05-.55.13-1,.55-1.34.08-.05.08-.16.03-.24l-.42-.58s-.03-.05-.03-.08c.03-.42-.11-.76-.39-1.05-.05-.05-.08-.16-.03-.24.95-1.5,2.31-3.55,4.07-4.31.95-.39,1.16-.53,1.1-1.55-.05-1.08,1.29-1.65,2.05-2.05.11-.05.16-.13.18-.21l.24-.63c.03-.11.13-.16.24-.13.18.05.37.13.53.29.03.03.08.05.13.05l2.18-.03c.08,0,.16-.03.24-.11.95-.89,2.47-.95,3.78-.79.05,0,.11,0,.18-.03.55-.24,1.08-.26,1.6-.05.08.03.18.03.26,0,.53-.24,1.08-.37,1.65-.34.16,0,.21.08.18.24l-.18.58c-.03.05,0,.11.03.16.21.32.16.6-.13.84-.08.05-.16.11-.26.11h-.11s-.05.03-.05.05.03.03.03.05c.66.24,1.1.53,1.84.66.6.11,1.16.34,1.65.68.87.6,1.87.76,2.84,1.08.11.03.21,0,.29-.08.24-.29.34-.6.29-1,0-.08.05-.18.13-.21l1.34-.42c.08-.03.16,0,.21.08.11.21.21.32.45.37,1.21.21,2.42.47,3.62.79.29.08.74-.05,1.39-.39.08-.05.16-.05.26-.05l1.84.32Z"/>
  <path class="cls-1" d="m42.03,34.39c-.39-1.13-.03-1.87,1.1-2.18,1.13-.32,1.87-1.02,2.26-2.13.03-.08.11-.11.16-.08.03,0,.05.03.05.05.34.47.55,1,.63,1.58,0,.11,0,.18-.08.26-.34.42-.63,1.02-.84,1.79-.18.68-.79,2.1-1.76,4.26-.03.05-.05.08-.13.08l-1.65-.08c-.05,0-.11-.03-.13-.05-.6-.55-.81-1.23-.6-2.02,0-.03.03-.05.05-.08l.84-1.02c.13-.16.13-.26.11-.37Z"/>
</svg>