<?xml version="1.0" encoding="UTF-8"?>
<svg id="Camada_1" data-name="Camada 1" xmlns="http://www.w3.org/2000/svg" viewBox="0 0 49.31 35.49">
  <defs>
    <style>
      .cls-1 {
        fill: #fff;
      }

      .cls-2 {
        fill: #54acd1;
      }
    </style>
  </defs>
  <path class="cls-2" d="m32.59,3.17l.19-.86c.01-.09.11-.15.2-.13.01,0,.04.01.05.03.35.23.58.54.68.94,0,.03.03.04.05.03.03,0,.04-.03.03-.05l-.11-.44c-.01-.05.01-.09.07-.11h.01l.87-.12c.07,0,.12-.07.12-.15,0-.07-.07-.12-.15-.12-.25,0-.5.04-.74.12-.04.01-.08.01-.12,0-.34-.16-.68-.24-1.03-.27-.04-.03-.04-.08.04-.15.11-.09.34-.11.47-.13.04,0,.05-.03.03-.07l-.03-.04s-.01-.01-.01-.01l-.32-.05c-.05-.01-.08-.05-.08-.11h0c.08-.27.03-.44-.19-.55-.03-.01-.04-.05-.03-.08.01-.01.03-.03.04-.03.16-.04.25-.15.31-.29.01-.04.05-.08.11-.08h.7c.05,0,.09.03.12.07.15.21.36.28.56.11.04-.03.05-.08.05-.12,0-.21.08-.38.25-.47.04-.03.09-.01.12.01l.34.28s.08.05.13.04c.17,0,.29-.09.35-.28.01-.04.05-.08.11-.07l.8.05s.07.01.11.04c.24.2.47.13.7.17.28.05.56.12.84.17.47.11,1.23.68,1.01,1.25-.03.07-.11.11-.17.11-.39-.04-.71.07-.98.34-.01.01-.03.01-.03.01l-.44.09c-.05.01-.09.07-.08.12h0s.03.11.03.11c.01.04,0,.07-.05.07l-.75.07c-.05,0-.09.03-.13.07-.19.21-.4.39-.66.51-.39.2-.68.46-1.19.38-.07-.01-.11.01-.11.08l-.08.63s-.01.04-.04.05c-.12.08-.2.2-.2.35,0,.04-.04.07-.08.07h0c-.39-.07-.66.08-.8.42-.01.04-.04.07-.08.09-.39.28-.62.11-1.01.01-.08-.03-.09,0-.05.07.13.19.28.36.47.5.07.05.08.15.03.21-.03.03-.05.05-.09.05-.36.07-.68-.03-.94-.28-.04-.04-.09-.04-.13-.01l-.21.17s-.07.03-.09.01c-.38-.17-.78-.28-1.19-.34-.08-.01-.13-.08-.12-.15h0s.03-.16.03-.16c.01-.05.04-.08.09-.08.43-.04.94-.16.87-.72,0-.05.01-.08.07-.04l.64.34c.07.03.15.01.17-.05.01-.01.01-.04.01-.05v-.29c0-.05-.04-.11-.11-.11h-.01l-.28.04c-.07.01-.08-.01-.05-.07.25-.56.68-.76,1.29-.63.04.01.08-.01.11-.05s-.01-.08-.05-.11c-.17-.05-.25-.17-.23-.34Z"/>
  <path class="cls-2" d="m32.58,2.07c.07.28.01.5-.15.66-.04.04-.05.08-.04.12l.08.28c0,.12-.04.2-.12.24-.11.05-.21,0-.34-.01-.04,0-.08.03-.09.07v.03c.01.13-.04.21-.17.23-.05,0-.09.03-.13.07-.16.16-.35.28-.58.36-.04.01-.09.01-.13,0l-.38-.13s-.07-.05-.08-.09l-.11-.51c-.01-.05.01-.09.05-.12l.16-.08c.05-.03.07-.07.07-.12l.03-.86s.01-.07.05-.07l.31-.07c.07-.01.08-.04.04-.11l-.07-.16c-.04-.05-.03-.13.03-.17.03-.01.05-.03.08-.03l.35.04s.09-.03.09-.08v-.03c-.08-.28.03-.42.31-.39.05,0,.07-.01.08-.07v-.15s.03-.05.07-.05c.01,0,.03,0,.03.01.19.12.29.31.32.55,0,.04-.01.07-.04.08-.04.01-.07.04-.09.08-.01.03-.03.04-.03.08-.03.29.11.43.4.4Z"/>
  <path class="cls-2" d="m48.27,4.6c-.15-.07-.29-.09-.44-.09-.05,0-.07.03-.07.08,0,.39-.07.76-.21,1.13-.01.04-.04.07-.08.11-.03.03-.07.05-.09.08-.04.03-.05.07-.05.12.05.28-.01.51-.21.7-.03.03-.03.07,0,.09t.03.01l.28.08s.07.04.07.08l.07.5s-.03.08-.07.08h-.01c-.07,0-.12-.03-.17-.08-.03-.03-.07-.04-.11-.04-.19.04-.29.17-.32.4,0,.05.01.09.04.13l.29.34s.03.08.01.11c-.09.15-.24.2-.42.19-.07-.01-.13.04-.15.11,0,.04.01.08.04.11l.12.12s.04.09,0,.13c-.12.15-.28.23-.47.23-.04,0-.08.04-.08.08,0,.03.01.05.04.07l.21.12s.04.07.03.09c-.01.01-.03.03-.05.04-.15.04-.31.03-.46-.01-.13-.04-.19.01-.15.15l.17.62s-.01.05-.03.07h-.04l-.55-.32s-.05-.01-.07.01l-.04.04s-.01.03,0,.04h0c.11.07.19.15.25.25.01.03.04.04.05.05.2.12.38.27.54.46.01.03.01.07-.01.08,0,0-.01,0-.01.01l-.12.07s-.05.05-.05.09v.27c.01.05-.01.09-.07.11-.2.03-.38,0-.54-.11.01-.2-.03-.35-.09-.47-.05-.08-.08-.07-.08.03,0,.15.04.29.09.46-.11.15-.21.17-.32.11-.03-.01-.04-.04-.05-.08l-.03-.31s-.04-.05-.07-.05-.04.01-.05.04l-.15.47s.01.08.04.09h.03c.32-.01.62.04.91.17.03.01.04.05.03.08-.01.01-.03.03-.04.03l-.56.17s-.01,0-.01.01c-.55.42-1.17.58-1.86.48-.17-.03-.35.09-.38.28h0s-.05.48-.05.48c0,.04-.03.05-.07.05h-.68c-.07.01-.09.05-.07.11l.05.17c.01.05,0,.09-.05.11-.29.11-.54.03-.7-.23-.04-.05-.08-.05-.12-.01-.08.07-.09.15-.07.25.01.05,0,.11-.04.15-.08.08-.19.12-.32.09-.04-.01-.08,0-.12.03l-.6.52s-.04.05-.05.08l-.11.48c-.01.05-.05.08-.09.08-.28.03-.35.19-.23.47.03.04.01.11-.03.15l-.63.74s-.07.04-.11.04c-.16-.03-.27-.12-.31-.28-.01-.04-.05-.08-.11-.08l-.23-.03c-.64-.03-.91-.94-1.18-1.43-.03-.05-.01-.08.03-.12.16-.11.2-.27.12-.48-.01-.04-.04-.08-.07-.11-.12-.12-.15-.27-.09-.44.01-.03.01-.04,0-.07l-.15-.56s0-.09.03-.13l.42-.51s.04-.03.07-.04l.28-.05c.05-.01.09-.05.09-.11v-.38c0-.07-.03-.09-.09-.11l-.39-.04c-.12-.01-.2-.12-.19-.24,0-.01,0-.03.01-.04l.19-.63s.04-.07.08-.07c.28-.03.74,0,.88-.28.03-.04,0-.09-.04-.12-.01,0-.03-.01-.04-.01l-.86-.05c-.08,0-.13-.07-.12-.15,0-.03.01-.05.03-.07l.34-.48s.01-.08-.01-.09c0,0-.01,0-.01-.01l-.09-.04c-.05-.03-.09-.09-.07-.15.01-.03.03-.05.05-.07l.13-.07c.05-.03.08-.07.08-.12l.07-1.14s-.03-.09-.07-.11c-.25-.11-.29-.28-.11-.5.03-.04.04-.09.03-.15-.13-.52-1.34-.39-1.78-.44-.04,0-.08,0-.12.01l-.23.08c-.07.03-.11,0-.12-.07-.03-.15-.11-.27-.21-.38-.03-.03-.04-.08-.03-.12l.07-.13s0-.09-.04-.11h0l-.16-.05c-.07-.03-.11-.11-.08-.17.01-.03.03-.05.05-.07.39-.21.56-.05.9-.11.12-.01.23-.04.35-.08.04-.01.07-.07.05-.11s-.04-.07-.08-.07h-.83c-.08,0-.11-.04-.05-.11l.09-.13s.03-.09-.01-.12h0l-.35-.23s-.04-.05-.03-.09c.01-.01.03-.03.04-.03.28-.04.52-.16.74-.35.25-.23.84-.08,1.19-.12.04,0,.07-.03.09-.05l.31-.47s.03-.03.05-.04l.23-.07s.05-.04.04-.07c0-.01-.01-.03-.03-.03-.05-.03-.11-.05-.16-.05s-.09-.03-.11-.08l-.04-.15c-.03-.07,0-.11.08-.11.29,0,.51-.13.64-.39.03-.04.08-.07.12-.04l.24.11s.08.01.12,0c.28-.11.46-.31.55-.58.01-.04.05-.07.09-.05.01,0,.03.01.03.01l.24.21s.05.04.09.03c.16-.01.27-.09.32-.27v-.03l-.05-.31c-.01-.05.03-.11.08-.12h.03l1.22.08c.09,0,.12.05.07.13l-.25.38s-.01.08.03.11h.01l.38.17s.09,0,.12-.04l.4-.71c.03-.05.11-.08.16-.04.01.01.04.03.04.04.24.43.03.93.62,1.07.09.03.21-.01.27-.08.05-.05.04-.12-.03-.15l-.34-.16s-.08-.05-.09-.09c-.13-.23-.21-.47-.24-.74,0-.04.03-.08.07-.08.03,0,.04,0,.05.03l.23.24s.08.04.12.01l.43-.27c.07-.04.16-.03.21.04,0,.01.01.03.01.04l.23.68s.07.07.11.05c0,0,.01,0,.01-.01.04-.03.07-.05.08-.09.05-.19-.12-.34-.01-.63.01-.04,0-.08-.03-.11l-.32-.24s-.03-.04,0-.05l.04-.04s.01-.01.03,0c.17.08.35.13.54.13.05,0,.09-.04.09-.08.05-.64,1.8-.27,2.14-.05.04.03.05.08.03.12-.01.03-.05.05-.09.04-.27-.04-.54-.04-.82,0-.01,0-.03.01-.03.03s.01.03.03.03c.32.05.76.07,1.34.04.05,0,.16.03.31.08.05.01.08.05.09.11.03.09,0,.16-.07.2-.03.03-.04.07-.01.09h.01s.28.2.28.2c.08.05.11.17.05.25-.03.05-.08.08-.15.08l-1.03.05s-.08.01-.11.04l-.12.12s-.04.12,0,.16c.03.03.08.04.12.03.23-.11.4-.07.52.12.03.04.08.07.12.07l.52-.04c.08-.01.15.05.16.13,0,.03,0,.05-.01.08-.2.35-.7.36-.72.76,0,.05.01.07.07.04.35-.24.71-.51,1.07-.66.39-.17,1.56-.51,1.62.15,0,.04,0,.08-.03.12-.23.36-.56.52-1.03.51-.03,0-.04.01-.05.04,0,.01,0,.03.03.03l.43.04s.07.04.05.07c0,.03-.03.05-.05.05l-.38.08Z"/>
  <ellipse class="cls-2" cx="29.99" cy="1.88" rx=".16" ry=".21" transform="translate(10.52 24.77) rotate(-53.2)"/>
  <path class="cls-1" d="m32.72,2.04c.35.03.7.11,1.03.27.04.01.08.03.12,0,.24-.08.48-.12.74-.12.07,0,.13.05.15.12,0,.07-.05.13-.12.15l-.87.12c-.05,0-.08.05-.08.11h0s.11.46.11.46c0,.03-.01.04-.03.05-.03,0-.04-.01-.05-.03-.11-.4-.34-.71-.68-.94-.08-.05-.19-.03-.23.05-.01.01-.01.04-.03.05l-.19.86s-.04,0-.07.01c-.01.01-.03,0-.03-.01s-.01-.03-.03-.04l-.08-.28c-.01-.05,0-.09.04-.12.16-.15.21-.36.15-.66.04.01.09,0,.15-.05Z"/>
  <path class="cls-2" d="m28.11,2.68l-.05-.5c0-.05.03-.09.08-.11h.01c.55.05.84.35.88.9,0,.05-.01.09-.04.13-.13.21-.32.6-.6.59-.05,0-.08-.03-.08-.08,0-.38-.2-.54-.59-.5-.04,0-.08-.03-.08-.07h0v-.36s.01-.05.04-.05.04.01.05.03c.07.13.16.17.29.12.05-.01.08-.05.08-.11Z"/>
  <path class="cls-2" d="m26.54,2.51c-.01.11-.07.13-.16.11l-.52-.17c-.05-.01-.09-.08-.08-.15.01-.05.05-.08.11-.08h.62s.05.04.05.08v.21Z"/>
  <path class="cls-2" d="m25.18,2.82h-.13c-.07.01-.12-.03-.12-.09,0-.04.03-.08.05-.11.07-.04.13-.04.2-.01.04.01.08.01.12.01.39-.08.71.03.98.31.04.04.03.08-.01.11-.21.12-.91.58-1.1.31-.03-.04-.03-.08-.03-.12l.08-.31c.04-.07.01-.09-.04-.09Z"/>
  <path class="cls-2" d="m23.21,3.34c-.23.27-.48.44-.76.54-.07.01-.11.01-.15-.01-.01-.01-.03-.04-.05-.07-.01-.04-.05-.07-.09-.07-.15,0-.27-.04-.38-.15-.03-.03-.04-.08,0-.12t.03-.01c.58-.27,1.15-.25,1.69-.7.04-.03.08-.04.13-.03.11.03.19.07.27.15.03.03.07.04.11.03l.25-.08s.05,0,.07.03l.04.07s.03.09,0,.13c-.25.34-.59.56-.99.7-.03.01-.04.03-.04.04v.05s-.07.05-.11.04c-.01,0-.01-.01-.03-.01l-.03-.03s-.03-.05-.01-.08l.2-.29s.01-.09-.03-.12c-.04-.05-.09-.04-.12,0Z"/>
  <path class="cls-2" d="m29.31,3.92s-.05-.03-.07-.05v-.11c-.05-.42.05-.76.2-.78h.03c.16-.01.31.31.35.72h0v.11s-.01.07-.04.07h0l-.47.04Z"/>
  <ellipse class="cls-2" cx="27.9" cy="3.6" rx=".13" ry=".17" transform="translate(2 14.57) rotate(-30.3)"/>
  <ellipse class="cls-2" cx="26.99" cy="3.7" rx=".25" ry=".09" transform="translate(13.65 27.46) rotate(-68.5)"/>
  <path class="cls-2" d="m24.33,3.64s-.05,0-.07-.01c-.05-.01-.05-.03-.01-.05.05-.04.12-.05.19-.04.03,0,.05.03.05.07,0,.01,0,.03-.01.03-.04.04-.08.05-.15.01Z"/>
  <path class="cls-2" d="m22.98,4.55l.35-.46s.09-.05.13-.03l.13.09s.07.01.09-.01h0c.04-.07.05-.13.05-.21s.05-.15.15-.15c.05,0,.11.03.13.07.17.25.27.54.29.86.01.15.13.24.28.23.08-.01.16-.05.2-.13.08-.16.09-.34.03-.48-.01-.04,0-.08.04-.09.01,0,.03-.01.04,0,.17.03.29-.04.36-.2.01-.04.05-.07.09-.07h.07s.08.04.08.08h0s-.11.51-.11.51c-.05.21.03.29.24.21l.09-.03c.09-.04.2.01.24.11.03.08,0,.16-.07.21l-.78.59s-.09.03-.13,0c-.75-.55-1.62.52-2.01-.2-.03-.04,0-.09.04-.12.01,0,.03-.01.04-.01l.97-.04c.13,0,.13-.03.01-.08-.38-.13-.76-.16-1.15-.09-.04,0-.08,0-.11-.03l-.25-.21s-.04-.09-.01-.12h0c.09-.11.21-.15.34-.11.04-.01.09-.04.12-.08Z"/>
  <ellipse class="cls-2" cx="22.62" cy="4.16" rx=".36" ry=".11" transform="translate(.91 11.75) rotate(-29.7)"/>
  <path class="cls-2" d="m29.41,4.36l-.36-.04s-.04-.03-.04-.05c0-.04.03-.07.07-.07.17-.01.34-.01.51.01.08.01.13.04.16.08.05.07.05.13,0,.23-.03.04-.05.04-.09.01l-.12-.12s-.07-.05-.12-.05Z"/>
  <path class="cls-2" d="m27.21,5.45l-.55-.17s-.08-.05-.08-.11l-.03-.42c0-.08.05-.16.15-.16.03,0,.05,0,.08.01l.34.16s.08,0,.09-.03h0s.08-.24.08-.24c.01-.05.07-.08.12-.05,0,0,.01,0,.01.01l.6.35s.05.07.05.11c-.04.27-.67.94-.86,1.11-.03.03-.07.04-.11.04-.12-.01-.17-.08-.16-.2,0-.01.01-.03.03-.04l.28-.25s.03-.07,0-.09c-.03-.01-.04-.03-.05-.03Z"/>
  <path class="cls-2" d="m29.21,5.41c-.36-.05-.54-.28-.51-.67,0-.11.09-.19.2-.19.08,0,.16.07.19.15.08.24.24.36.52.36.05,0,.08.03.09.07l.15.47s0,.04-.03.05c-.01,0-.03,0-.04-.01l-.12-.09s-.05-.01-.08.01c-.01.01-.01.03-.01.04.09.76.58.72,1.26.72.31,0,.63.03.98.09.09.01.15.11.13.2-.01.08-.08.13-.16.13h-.16c-.05,0-.09.03-.09.09v.25s-.04.07-.07.08c-.16.07-.28.03-.38-.12-.03-.03-.07-.04-.09-.03-.46.17-2-.09-2.23-.58-.03-.04-.01-.09.01-.12.11-.13.17-.28.21-.44.01-.04.03-.08.04-.12.04-.09.11-.16.21-.2.04-.01.05-.05.04-.09-.04-.05-.05-.07-.08-.07Z"/>
  <ellipse class="cls-2" cx="30.27" cy="4.76" rx=".19" ry=".16" transform="translate(7.37 25.13) rotate(-50.6)"/>
  <path class="cls-2" d="m24.2,35.26c-.03.15-.16.24-.31.23-.04,0-.07-.01-.11-.04-.31-.2-.63-.27-.98-.2-.07.01-.09-.01-.11-.08l-.05-.25c-.01-.05-.04-.09-.09-.09l-.21-.04c-.05-.01-.07-.04-.07-.09v-.13s-.01-.07-.05-.09c-.38-.2-.58-.7-1.01-.7-.52,0-1.01-.13-1.45-.39-.38-.21-.47-.75-1.06-.32-.04.03-.08.03-.12.01-.84-.27-1.6-.68-2.43-.94-.01,0-.04-.01-.05-.03l-.54-.64s-.03-.07-.03-.11l.04-.17s0-.08-.04-.12c-.74-.6-1.05-1.5-1.56-2.28-.21-.34-.42-.83-.75-1.18-.01-.03-.05-.03-.08,0h-.01s-.29.5-.29.5c-.01.03-.01.05,0,.07.11.13.2.28.28.43.16.29.5.6.56.91.08.34.24.64.47.93.03.04.03.09-.01.13-.03.03-.08.03-.11,0-.36-.25-.62-.59-.74-1.01-.01-.04-.04-.08-.08-.12l-.62-.48c-.05-.04-.05-.09-.01-.15l.12-.12s.04-.08.01-.12c-.31-.54-.54-1.1-.68-1.69-.01-.04-.04-.08-.08-.09-.42-.2-1.23-.52-1.21-1.01.03-.55-.05-1.09-.24-1.61-.01-.04-.01-.08,0-.12.15-.5.21-1.01.2-1.53,0-.04.01-.08.03-.11.23-.39.43-.78.6-1.18.09-.21.08-.46.12-.7.01-.05.07-.09.12-.08.03,0,.05.03.07.05.11.21.28.28.52.21.09-.03.15-.12.12-.21,0-.01-.01-.03-.01-.04l-.64-1.09s-.05-.07-.09-.09l-.43-.29s-.07-.08-.07-.12c-.01-.31.11-.87-.24-.99-.08-.03-.12-.11-.09-.19,0-.01.01-.03.01-.04.29-.4.35-.86.13-1.34-.09-.2-.16-.24-.38-.25-.05,0-.09-.04-.11-.09l-.11-.58s-.03-.08-.05-.12l-.62-.72s-.04-.07-.04-.11l.04-.59c0-.07-.03-.11-.08-.12l-1.39-.47s-.05-.03-.07-.05c-.23-.43-.71-.36-1.11-.76-.01-.01-.05-.01-.07,0s-.01.01-.01.03l-.04.47c0,.05-.04.09-.09.09l-.99.23c-.05.01-.12-.03-.13-.08,0-.03,0-.05.01-.07.16-.31.4-.51.72-.62.07-.03.11-.11.08-.17s-.08-.11-.15-.09l-.84.16s-.07.04-.07.08l.03.36c0,.05-.03.09-.08.12l-.55.16s-.07.04-.08.08c-.11.32-.27.52-.51.63-1.41.59-2.61,1.21-4.14,1.49-.01,0-.03-.01-.03-.03s0-.03.01-.03l1.74-.66c.05-.03.09-.07.11-.12l.04-.13s.03-.05.07-.07c.6-.24,1.15-.29,1.51-.88.03-.04.01-.08-.03-.11-.13-.11-.29-.13-.44-.09-.04.01-.08,0-.11-.04-.12-.21-.29-.27-.54-.19-.07.03-.13-.01-.16-.08-.01-.04-.01-.08.01-.11.17-.24.28-.5.32-.79.01-.07-.01-.08-.08-.05l-.46.21c-.12.05-.17.01-.19-.11l-.03-.43c0-.07.03-.09.09-.09h.29s.05-.03.05-.05c0-.01-.01-.04-.03-.04l-.24-.17s-.05-.08-.04-.12l.16-.42c.01-.05.07-.09.11-.11.24-.07.44-.19.6-.36.03-.03.07-.05.12-.05.66-.09,1.69.01,1.85-.88.03-.15-.04-.21-.17-.19-.29.04-1.45.08-1.45-.35,0-.15.08-.21.27-.2.08.01.15-.05.15-.12s-.04-.12-.09-.15c-.05-.01-.09-.03-.15-.03-.08,0-.15-.07-.16-.15,0-.08.05-.15.12-.16l1.33-.29c.09-.03.2.04.21.13v.05c-.01.21.09.35.31.4h.04l.47-.24s.07-.05.07-.11c-.01-.19-.11-.34-.25-.43-.04-.03-.07-.07-.05-.12.07-.42.04-.84-.08-1.26-.03-.08.03-.16.11-.17h.04c.87-.01,1.66-.27,2.37-.75.03-.03.08-.03.11-.01l.4.21c.05.03.11.01.13-.04,0-.01.01-.03.01-.04l.03-.35s.04-.07.08-.07h0c.4.07.78.01,1.13-.16.04-.01.08,0,.09.03.01.01.01.04,0,.07l-.09.24c-.03.07,0,.13.07.16h.01l.74.23s.07.04.08.08l.07.38c.01.05.05.08.11.08l.38-.04c.05-.01.11.03.12.08l.05.31c.01.05.04.08.09.09.29.03.56.13.79.31.04.03.09.04.13.03l.13-.04c.05-.01.08,0,.11.04.23.35.39.75.86.79.04,0,.08.03.11.08.11.28.28.52.55.7.04.03.08.03.12-.01l.44-.38s.07-.03.09-.03c.36.07.7,0,1.01-.21.03-.01.07-.03.09-.01l.12.04c.05.01.08.08.07.13-.01.03-.03.04-.05.05-.21.12-.44.17-.68.16-.05,0-.09.03-.12.08l-.08.19c-.03.05-.01.07.05.07.66-.08,1.26-.32,1.78-.72.04-.03.08-.04.13-.03.12.03.19.09.21.21,0,.03,0,.05-.01.07l-.29.35s-.03.11.01.15h.01c.16.09.32.12.51.09h.03l.79.2s.07.04.08.07l.07.15c.03.05.05.08.11.08.44.09.79.32,1.05.71.03.04.01.08-.03.09-.12.05-.2.15-.24.27-.01.04.01.09.05.11h0l.87.24s.04,0,.07-.01c.54-.42.66.42.8.7.03.07.07.07.09,0l.32-.66s.05-.05.09-.04c.13.04.27.04.4-.03.05-.01.08-.08.05-.12-.01-.04-.05-.07-.09-.07h-.27c-.05,0-.07-.03-.07-.07,0-.03.03-.05.07-.07.21-.04.42,0,.59.13.01.01.03.03.03.04l.12.4s.04.07.08.08c.23.05.42.17.54.36.03.04.08.05.12.03h0c.2-.15.4-.15.58,0,.04.03.09.03.12-.01h0c.15-.23.35-.35.6-.38.04,0,.07.01.09.04l.2.24s.03.07,0,.09c-.12.15-.16.31-.12.48.01.05.05.07.11.05.17-.05.28-.16.29-.35,0-.04.03-.08.07-.09l.44-.17c.05-.03.08-.05.09-.11l.11-.6s-.03-.08-.07-.09h0l-.24-.04s-.07-.03-.07-.08v-.56s.01-.08.05-.09c.19-.04.25-.16.21-.36,0-.03,0-.05.03-.07l.74-.32c.13-.05.29,0,.35.13.01.04.03.08.03.11-.01.24-.12.4-.34.47-.11.03-.16.13-.13.24.01.05.05.11.12.12.16.07.21.17.17.35-.01.04,0,.08.01.12.11.19.16.38.16.59,0,.08.04.09.11.07.15-.08.29-.08.46-.03.04.01.07.04.07.09.01.11-.04.19-.13.24-.04.01-.07.04-.07.08l-.19.63s.01.07.04.08c.03.01.05,0,.07-.01l.4-.46s.03-.01.04-.03c.24-.03.31-.17.23-.46-.01-.05.01-.12.07-.15l.7-.31s.09,0,.11.04h0l.05.15c.01.05.05.09.12.09l.39.03c.05,0,.09.04.08.09,0,.03-.01.04-.03.07l-.47.44s-.04.07-.04.11v.48c.01.07-.04.13-.11.15-.31.07-.51.25-.58.55-.01.05-.07.08-.11.07-.03-.01-.05-.04-.07-.07l-.08-.38c-.03-.12-.15-.19-.25-.16-.05.01-.09.04-.12.08-.15.21-.34.24-.56.08-.04-.03-.09-.03-.12.01-.01.03-.03.07-.01.09.07.13.03.25-.13.36-.03.01-.05.03-.09.01l-.32-.07s-.05.01-.07.04c0,.03,0,.04.03.05l.13.09c.07.04.08.13.04.2-.03.03-.07.05-.11.05-.23.03-.32.16-.28.39.01.11-.05.2-.16.21-.04,0-.09,0-.13-.03l-.15-.09c-.05-.03-.09-.03-.13,0-.2.13-.42.17-.67.11-.04-.01-.09,0-.13.01-.03.01-.05.03-.07.05-.04.04-.03.07.03.07.19.03.34.11.44.25.03.03.01.08-.01.09h-.01l-.56.25s-.09.01-.13,0c-.35-.15-.76.31-.87.58-.01.04-.04.07-.08.09l-.24.17s-.04.04-.04.07l-.08.8s.03.07.05.07h0c.29.01.46.19.47.51,0,.04-.01.08-.04.11l-.2.21s-.04.09,0,.12c.03.03.05.03.09.03.31-.09.58-.05.78.12.35.29.7.51,1.1.72.24.12.47.08.74.11.05,0,.09.05.09.11,0,.04-.03.07-.05.08l-.16.08c-.05.03-.05.05-.01.09.16.12.24.29.25.5,0,.05-.01.09-.05.12l-.09.07s-.05.07-.04.11l.19.68s.04.07.08.09c.43.13.58-.19.59-.56.01-.35.08-.68.2-1.02.01-.04.05-.08.11-.08l.2-.04c.05-.01.09-.05.11-.09.05-.24.23-.34.5-.28.08.01.16-.03.17-.12v-.05c-.04-.29.04-.54.23-.75.04-.04.04-.08,0-.11l-.39-.43s-.03-.07,0-.09h.01s.68-.46.68-.46c.04-.03.04-.05.03-.09-.11-.23-.11-.47.01-.68.01-.03.01-.07,0-.09l-.11-.28s0-.08.04-.09h.03c.34.03.67.04,1.01.05.28.01.46.16.68.29.05.03.07.07.07.13l-.04.27c0,.05.03.09.08.09h.38c.05.01.09.05.09.11,0,.01,0,.03-.01.04-.2.42-.23.86-.09,1.31.01.05.05.08.11.05.35-.12.68-.28,1.01-.48.04-.03.07-.07.09-.11l.28-.5s.05-.04.09-.03c.01,0,.01.01.01.01l.25.31s.03.08,0,.12l-.17.17s-.03.08,0,.12h0l.19.16s.05.07.05.11v1.23s.04.08.08.09l.17.08s.05.04.08.07c.13.2.62.43.66.54.01.03-.01.05-.03.05h-.01l-.4-.03c-.07,0-.08.03-.04.08l.04.05s.04.04.07.03c.5-.11.8.08.91.59-.11.01-.17.05-.2.12-.01.03-.01.05,0,.08l.09.19c.03.05.01.08-.05.08h-.67c-.05.01-.09.03-.12.07-.59.55-1.42.38-2.31.27-.42-.05-1.29.68-1.58.94-.03.01-.03.05-.01.07s.04.03.05.01c.5-.25,1.03-.4,1.6-.42.08,0,.15.07.15.15,0,.04-.01.08-.04.11l-.38.36s-.04.11,0,.15t.03.03c.12.05.2.15.24.28.01.04.04.08.08.09.16.09.36.15.59.19.03,0,.04.03.04.05s-.01.04-.04.05c-.42.01-.75.16-1.02.48-.08.09-.16.09-.27.01-.07-.05-.08-.15-.03-.21l.04-.04.21-.12s.03-.04.01-.05-.03-.01-.04-.01c-.31.01-.56.12-.76.32-.04.04-.08.05-.15.05-.54.01-1.21.07-1.01.83.01.05-.01.11-.07.13-.29.15-.6.17-.94.11-.05-.01-.11.01-.13.07l-.09.16s-.07.07-.12.07c-.2-.01-.28.08-.25.29.01.05-.01.11-.05.13-.12.08-.23.08-.35-.03-.03-.03-.07-.03-.09,0-.01.03-.03.05-.01.08.12.24.04.38-.24.4-.05,0-.08.05-.08.09h0s.12.4.12.4c.04.12.01.24-.07.34-.47.55-1.35.97-1.98,1.3-.04.03-.07.05-.08.09-.24.76.44,1.45.11,2.02-.08.13-.17.2-.28.21-.05,0-.11-.03-.12-.07-.21-.47-.27-1.09-.56-1.47-.03-.03-.05-.05-.09-.05l-1.84-.17s-.08.03-.08.07h0s.03.2.03.2c.01.08-.04.15-.11.16-.04,0-.07,0-.09-.01-.13-.08-.28-.11-.43-.08-.05.01-.09,0-.13-.01-.59-.29-1.09-.2-1.49.28-.03.04-.08.07-.12.08-.44.09-.62.38-.54.84.01.04,0,.09-.03.13l-.47.98s-.03.09,0,.13c.48,1.03,1.07,1.49,2.27,1.26.04-.01.07-.04.08-.08l.04-.25c.01-.05.03-.09.05-.13l.48-.63s.07-.05.11-.04l.74.07c.05,0,.09.05.09.11h0c-.12.6-.36,1.15-.72,1.64-.04.04-.03.07.03.07h.68c.46,0,.84.19,1.3.25.11.01.12.05.03.12l-.17.15s-.04.07-.01.11l.16.2s.03.07,0,.11c-.24.23-.28.52-.12.87.01.03.04.05.07.07l.76.28s.05,0,.07-.01c.27-.2.54-.23.79-.09-.01.04-.03.07-.07.09"/>
  <path class="cls-2" d="m20.36,6.79c-.29.29-.63.55-.99.76-.03.01-.07.03-.11.01l-.43-.19c-.05-.03-.07-.05-.04-.11.39-.79.42-1.42,1.34-1.74.04-.01.08-.04.11-.08.24-.35.95-.05,1.25-.03.05,0,.09.03.13.05l.36.25s.07.08.05.13l-.09.36c-.01.05-.05.08-.11.09-.5.04-1.1.11-1.47.47Z"/>
  <ellipse class="cls-2" cx="25.8" cy="5.49" rx=".09" ry=".15" transform="translate(17.07 30.38) rotate(-82.7)"/>
  <path class="cls-2" d="m28.29,6.37c0,.07-.07.12-.13.12h-.03c-.16-.04-.31-.13-.42-.25-.04-.04-.04-.08,0-.12l.32-.32c.07-.07.16-.07.23,0,.03.03.05.08.04.12v.46Z"/>
  <path class="cls-2" d="m22.15,6.85c.17-.12.34-.09.47.05.03.04.04.09.01.12l-.19.25c-.04.05-.03.12.03.15.03.01.05.03.07.03l.47-.04s.07.03.07.05h0v.34c0,.07.05.12.12.12.05,0,.11-.04.11-.09.07-.28.04-.58-.08-.84-.01-.05,0-.08.04-.09.35-.09.5.2.82.28.04.01.08.05.08.09.05.32-.07.51-.38.58-.05.01-.09.05-.08.12l.07.86s.03.08.07.09c.2.08.32.23.36.46.01.09-.04.17-.13.2h-.03c-.19.01-.29.11-.32.31,0,.04-.04.08-.08.09l-.4.09s-.07,0-.08-.03l-.21-.35s-.09-.05-.13-.03c-.01,0-.01.01-.01.01l-.21.27s-.09.04-.13.01h-.01s-.19-.27-.19-.27c-.03-.03-.05-.04-.09-.03-.16.04-.28.15-.35.29-.01.03-.05.05-.09.05-.36-.03-1.61.15-1.34-.55.01-.04,0-.08-.04-.09l-.42-.16c-.05-.03-.09-.08-.07-.15l.16-.6s.05-.07.11-.07h.01c.39.15.8.21,1.22.2.05,0,.07-.03.05-.08-.07-.34-.7-.31-.94-.29-.08,0-.16-.04-.21-.11-.07-.09-.08-.17-.05-.24.03-.04.08-.07.17-.07.2-.01.4-.03.6-.03.04,0,.07-.03.07-.07v-.04s-.01-.05-.04-.05l-.43-.16c-.08-.04-.12-.13-.09-.21s.11-.12.19-.09c.16.04.27-.01.29-.16.01-.05.05-.09.11-.11l1.07-.34c.05-.01.09,0,.11.05v.07c.03.05.01.08-.05.08-.05,0-.09.03-.11.08,0,.01.01.03.03.04t.04-.01Z"/>
  <path class="cls-2" d="m24.22,6.58s.03-.07.07-.07h.07c.24,0,.44.09.44.2h0v.03c0,.11-.2.19-.44.19h-.07s-.07-.03-.07-.07h0v-.28Z"/>
  <path class="cls-2" d="m25.42,8.26l-.16-.08s-.07-.07-.04-.11c.03-.08.09-.12.17-.11.11.01.12-.01.05-.09-.03-.04-.08-.05-.13-.04-.04.01-.09-.01-.11-.07v-.03l.03-.5c0-.05.04-.09.09-.08.01,0,.04.01.05.01l.34.24s.08.01.11-.01c.01-.01.01-.04.01-.05v-.36s0-.05.03-.07c.28-.16.59-.17.9-.03.04.01.07.07.05.11-.09.31-.29.48-.6.52-.04.01-.07.04-.07.09,0,.01.01.04.03.04l.32.27s.03.07,0,.09t-.03.01l-.47.19c-.05.03-.09.07-.09.12-.03.19-.15.29-.35.29-.03,0-.07-.03-.07-.05h0v-.23s-.03-.08-.07-.09Z"/>
  <path class="cls-2" d="m27.62,7.3c.04-.24.17-.36.43-.38.05,0,.09.01.12.05.13.16.31.27.51.34.07.03.11.09.08.16-.01.05-.05.08-.11.09h-.16s-.08.04-.11.07c-.27.32-.6.43-1.02.34-.09-.03-.19.03-.2.12v.08c.04.15-.03.24-.19.29-.13.04-.28-.04-.32-.17-.01-.05-.01-.09,0-.15.04-.13.11-.24.19-.32.04-.03.07-.07.08-.11l.29-.62c.04-.08.08-.08.13,0l.13.24s.05.04.09.03c.01-.03.03-.05.04-.07Z"/>
  <path class="cls-2" d="m33.19,10.74l.38.08s.05.03.05.07v.05c0,.07-.03.11-.11.11h-.17s-.07.03-.07.07c0,.03.01.05.04.07l.15.04c.05.01.07.05.07.11l-.03.16c-.01.05-.04.07-.09.04l-.21-.11s-.08,0-.11.04c-.01.01-.01.04,0,.05l.12.5c.01.05.05.08.09.11.29.08.48.28.56.58.01.04.04.07.08.08l.25.05c.13.03.17.11.15.23-.08.31-.27.5-.58.56-.05.01-.08.04-.11.09l-.04.13c-.01.05-.05.07-.09.03-.19-.13-.23-.32-.12-.54.01-.03,0-.07-.03-.09-.01-.01-.03-.01-.04,0-.12.03-.21,0-.29-.08-.12-.12-.32-.13-.44-.01-.07.07-.11.15-.09.24.01.34.15.6.42.78.03.03.05.05.05.09l.04.46c0,.07-.03.12-.09.15-.09.03-.15.09-.16.2,0,.04-.04.07-.08.05-.01,0-.03-.01-.04-.03l-.52-.59s-.07-.04-.09-.03l-.08.03s-.03.01-.01.04c0,0,0,.01.01.01.28.19.39.47.34.82,0,.04-.04.07-.07.07-.19,0-.29-.09-.32-.28,0-.04-.04-.08-.08-.08-.39-.07-.75-.15-.74-.64,0-.04-.03-.07-.07-.08-.25-.05-.34-.2-.25-.43.03-.05,0-.09-.07-.09h-1.3c-.05.01-.09-.03-.09-.08v-.03l.13-.47c.03-.09.12-.15.2-.12.04.01.08.04.09.08l.15.24s.05.04.07-.01c.03-.05.05-.09.11-.12.11-.05.5-.01.7-.08.03-.01.05-.05.04-.08,0-.01-.01-.03-.03-.03l-.12-.07c-.08-.04-.08-.09,0-.13l.35-.17s.05-.04.07-.08c.04-.15.15-.21.32-.21.07,0,.13-.05.13-.13l.03-.78s-.01-.07-.04-.09c-.2-.16-.42-.2-.67-.11-.03.01-.07,0-.08-.04h0c0-.05.01-.09.05-.12s.07-.07.07-.12c.01-.39-.12-.7-.4-.95-.08-.07-.12-.05-.09.05l.04.25s0,.05-.03.08c-.07.07-.16.09-.28.07-.04-.01-.08-.03-.11-.07l-.04-.07s-.07-.07-.11-.08c-.13-.03-.27-.05-.42-.09-.32-.08-.66.01-.99-.01-.05,0-.09-.03-.11-.08-.09-.27-.28-.47-.55-.6-.04-.03-.07-.08-.04-.12,0,0,0-.01.01-.01l.03-.04s.07-.04.09-.01h.01c.08.07.16.11.24.11.07,0,.12-.05.11-.12,0-.05-.04-.11-.11-.11l-.36-.05s-.07-.04-.07-.08c0-.01.01-.03.03-.04l.23-.2s.03-.05.03-.08c-.11-.48.58-.8.86-1.06.29-.25.52-.25.88-.21.05.01.09.05.08.11,0,.03-.03.05-.05.07-.4.2-.68.5-.87.9-.01.04-.03.07-.01.11l.07.7s.03.08.07.09c.08.03.13.03.17-.03.03-.03.03-.08.01-.13-.03-.13-.05-.28-.08-.43-.01-.05,0-.09.05-.12l.25-.19s.04-.07.01-.09h0l-.11-.13s-.01-.03-.01-.05c.04-.13.12-.17.25-.16.04,0,.07-.01.08-.05.07-.31.79-.29,1.01-.31.05,0,.09.03.11.08.07.24.01.44-.15.6-.03.04-.05.08-.05.12l-.03.27s.01.05.04.04c.47-.11.95-.13,1.42-.08.07.01.08.04.03.08l-.16.16c-.05.05-.04.09.03.11l.24.04s.05.04.05.07t-.01.01l-.09.15c-.04.05-.01.13.04.16.03.01.05.01.08.01.15-.01.29,0,.43.04.05.03.08.08.05.13-.01.04-.07.07-.11.07-.05-.01-.12,0-.17.03-.07.04-.07.08,0,.11s.15.04.23.03c.04,0,.08.01.11.04.05.07.05.13,0,.2-.03.03-.01.07.01.08s.05.01.07,0c.2-.11.39-.08.56.08.03.03.03.07,0,.09-.01.01-.03.01-.04.01h-.21s-.05.04-.04.07c.08.11.09.12.12.13Z"/>
  <path class="cls-2" d="m24.84,9.76c.05-.08.16-.11.25-.05.01,0,.01.01.03.01.25.21.38.47.38.78,0,.05-.03.08-.07.11-.47.27-.47-.32-.91-.17-.03.01-.05-.01-.05-.03v-.04l.38-.6Z"/>
  <path class="cls-2" d="m30.51,10.98s0,.03-.01.03h-.03c-.34.19-.63.29-.66.24h-.01c-.03-.07.23-.25.56-.43h.03s.03-.01.03,0l.09.16Z"/>
  <ellipse class="cls-2" cx="30.4" cy="11.96" rx=".36" ry=".24" transform="translate(-2.25 13) rotate(-23.3)"/>
  <path class="cls-2" d="m30.9,11.89l.08-.07c.05-.05.15-.04.2.03,0,0,0,.01.01.01.08.13.01.21-.2.24-.07.01-.12-.04-.13-.09-.01-.04.01-.09.04-.12Z"/>
  <path class="cls-2" d="m27.76,13.29c.32.21.54.51.63.9.01.04-.01.07-.04.08-.03,0-.05,0-.07-.01-.11-.12-.25-.17-.42-.15-.05,0-.09-.03-.11-.08h0c0-.08-.03-.11-.08-.13-.04-.01-.09,0-.13.01-.15.08-.31.11-.48.08-.04,0-.07.01-.08.05l-.08.24s-.04.04-.07.04c-.03-.01-.04-.03-.04-.05v-.16s-.01-.08-.07-.11l-.27-.15s-.04-.05-.03-.08c.01-.01.03-.03.04-.03l.24-.07s.07-.03.08-.07c.11-.24.19-.78.5-.78.04,0,.07.03.05.07l-.05.19s.01.05.04.07h.04l.16-.09s.05,0,.07.03l.07.12s.05.05.09.08Z"/>
  <ellipse class="cls-2" cx="29.04" cy="14.42" rx=".2" ry=".09" transform="translate(12.33 42.21) rotate(-85.4)"/>
  <path class="cls-2" d="m27.35,14.45s.07-.04.12-.03.09.05.12.12c.01.04,0,.07-.04.08l-.42.13s-.04-.01-.05-.03c0-.01,0-.03.01-.04l.25-.24Z"/>
  <ellipse class="cls-2" cx="28.22" cy="14.97" rx=".27" ry=".11" transform="translate(.03 30) rotate(-56)"/>
  <path class="cls-2" d="m25.35,31.45c-.13,0-.23-.05-.27-.19-.01-.04-.05-.08-.11-.08-.48-.07-.94-.2-1.38-.39-.04-.03-.09-.01-.12.01l-.24.19c-.05.04-.09.03-.13-.03l-.03-.07s0-.05.01-.08c.5-.34.72-.13,1.25-.09.13.01.24.04.34.09.48.24,1.19.63,1.74.63.01,0,.03.01.01.03,0,0,0,.01-.01.01-.29.19-.6.29-.94.35-.11.01-.13-.03-.08-.11.03-.05.04-.12.03-.19.01-.07-.01-.09-.07-.09Z"/>
  <path class="cls-2" d="m27.03,31.95l-.24-.2s-.04-.05.01-.08c.27-.13.48.13.68-.07.04-.04.09-.04.15-.01l.6.38c.07.04.08.12.04.19-.03.05-.09.08-.15.07-.31-.07-.59-.03-.84.11-.04.03-.08.03-.12,0-.25-.19-.62-.05-.74-.15-.03-.01-.03-.05-.01-.07s.03-.01.04-.03l.55-.04c.09.01.11-.03.03-.09Z"/>
  <ellipse class="cls-2" cx="25.24" cy="32.25" rx=".17" ry=".36" transform="translate(-14.16 43.44) rotate(-67.8)"/>
  <ellipse class="cls-2" cx="29.13" cy="32.28" rx=".34" ry=".12" transform="translate(-.78 .72) rotate(-1.4)"/>
</svg>