<?xml version="1.0" encoding="UTF-8"?>
<svg id="Camada_1" data-name="Camada 1" xmlns="http://www.w3.org/2000/svg" viewBox="0 0 40.26 47.34">
  <defs>
    <style>
      .cls-1 {
        fill: #f6da64;
      }
    </style>
  </defs>
  <path class="cls-1" d="m30.95,26.63c-.63.55-1.23,1.07-1.75,1.61-1.04,1.04-1.75,3.28-3.75,1.75-.08-.08-.22-.05-.3.03-.05.08-.05.16,0,.25.68,1.01,1.26,2.13.11,3.09-.05.05-.14.08-.25.08l-2-.11c-.11,0-.22.08-.22.22v.03c.05.55,0,1.07-.16,1.59-.03.08-.14.14-.22.11h0l-.49-.22c-.25-.11-.52-.03-.66.19-.27.41-.25.68.11.87.05.03.14.03.19,0,.16-.08.36-.14.55-.11.14,0,.16.05.05.16l-1.09,1.09c-.05.05-.11.16-.08.25.05.55-.14.9-.66,1.01-.08.03-.16.08-.19.16-.38.93.82,1.26,1.42,1.45.14.05.22.19.19.36,0,.03-.03.05-.05.08l-1.23,1.56c-.05.05-.08.14-.08.22,0,.49-.11.93-.36,1.37-.05.08-.05.16,0,.22l1.29,1.7c.05.05.11.11.19.14l1.59.6c.08.03.11.11.08.19-.03.05-.08.08-.14.08l-2.35.03c-.05,0-.11.05-.11.11h0c0,.05.03.08.03.11,0,0,1.39.08,1.56.11.08,0,.14.08.14.19,0,.08-.08.14-.14.14-.77.05-1.48-.08-2.16-.44-.11-.05-.16-.19-.11-.33,0,0,0-.03.03-.03l.33-.46c.05-.08.05-.16-.05-.22-.6-.36-1.26-.57-1.94-.6-.08,0-.16-.03-.22-.08l-1.45-1.34c-.08-.08-.14-.16-.14-.27l-.6-3.55c-.03-.08-.05-.16-.16-.19-.33-.14-.46-.36-.46-.68,0-.11.11-.22.22-.22h0l.33.03c.11,0,.19-.05.22-.14l.33-.82c.05-.11.03-.22-.03-.3-.33-.46-.27-.9.14-1.31.05-.05.05-.16,0-.25-.03-.03-.05-.05-.11-.05l-.71-.03c-.05,0-.11-.03-.16-.11l-.63-1.2c-.05-.08-.05-.16,0-.25.44-.79.33-1.48-.33-1.97-.08-.05-.08-.14,0-.19l.36-.27c.08-.05.14-.14.16-.22l.63-2.32c.03-.08,0-.14-.03-.22l-.46-.85c-.05-.08-.05-.16,0-.25l.36-.71c.05-.08.05-.19.05-.3-.05-.49.03-.98.27-1.42.05-.08.08-.19.05-.27-.05-1.12-.25-2.21-.6-3.25-.27-.87,0-1.53.41-2.27.16-.27.05-.63-.22-.77-1.29-.74-2.54-1.59-3.75-2.52-1.18-.9-1.94-2.19-2.87-3.34-.05-.05-.05-.14-.05-.22l.05-.36c.03-.11-.03-.19-.14-.25-.63-.25-1.09-.68-1.37-1.31v-.08l.71-3.86s.03-.05.03-.05c.6-.52,2.19-1.67,1.91-2.54-.14-.44-.11-.6-.03-1.01.03-.08-.03-.16-.11-.19l-.52-.22c-.11-.05-.14-.11-.11-.22.08-.33.08-.6,0-.87.08-.05.11-.11.14-.19l1.29.52c.11.05.19,0,.25-.11l.68-1.45c.05-.08.11-.14.22-.14l1.53-.14c.08,0,.14-.05.16-.11l.25-.44c.05-.14.16-.14.25-.03l.16.16c.08.08.08.16,0,.25-.36.38-.49.85-.41,1.39,0,.05.08.11.14.11.03,0,.05-.03.05-.03.44-.44.68-.93.77-1.53,0-.05.05-.11.11-.08.74.11,1.37.38,1.91.87.08.05.16.11.27.11.6.03,1.18.08,1.75.22.27.05.63,0,.82-.16.19-.19.52-.22.74-.08,1.5.96,2.82,2.19,4.43,2.93.08.03.16.03.25-.03.71-.57,1.64.16,2.52.52.08.03.16.11.22.16.27.38.66.55,1.15.44.08-.03.19.03.22.14l.38,1.01s0,.08,0,.11l-.87,1.86c-.03.08,0,.19.08.22.05.03.14.03.16-.03.41-.33.87-.52,1.42-.49.08,0,.16.08.16.16s-.05.14-.11.16c-.71.25-.87.71-.52,1.37.05.11.11.11.14-.03.38-1.45,1.61-1.67,2.68-.74.41.36.87.6,1.42.71.08.03.16,0,.25-.03.71-.27,1.29-.36,1.67-.19,1.39.57,2.73,1.18,4.02,1.86.22.11.33.38.27.63l-.87,2.9c-.03.08-.08.16-.16.22-2.38,1.29-1.64,1.61-1.7,3.94,0,.08-.03.16-.08.22-.44.49-.82,1.2-1.12,2.11-.22.66-.87.74-1.56.68-.6-.03-1.18.08-1.72.3-.08.03-.14.08-.19.16-1.12,1.39-2.21,1.61-1.89,4.05Z"/>
  <path class="cls-1" d="m.9,8.31s.03.03.03.05l-.03.03-.68.14c-.11.03-.19-.05-.22-.14v-.08l.03-.16c.03-.11.08-.14.19-.11l.68.27Z"/>
  <ellipse class="cls-1" cx="15.12" cy="37.04" rx=".3" ry=".6" transform="translate(-10.65 6.44) rotate(-17.9)"/>
  <path class="cls-1" d="m25.67,43.52c-.08-.03-.14-.08-.11-.16v-.03c.05-.16.16-.27.36-.25.27,0,.55.27.82.36.05.03.14,0,.19-.03l.6-.55c.05-.05.16-.05.22,0,.05.05.05.16,0,.22l-.6.66s-.08.05-.14.05l-1.34-.27Z"/>
  <path class="cls-1" d="m17.94,45.98c-.3.05-.52-.03-.68-.27-.05-.08-.03-.16.03-.22.05-.03.14-.03.19,0l.49.3c.19.08.16.14-.03.19Z"/>
  <ellipse class="cls-1" cx="18.9" cy="45.92" rx=".33" ry=".25" transform="translate(-27.04 27.05) rotate(-45.3)"/>
</svg>