<?xml version="1.0" encoding="UTF-8"?>
<svg id="Camada_1" data-name="Camada 1" xmlns="http://www.w3.org/2000/svg" viewBox="0 0 48.55 42.55">
  <defs>
    <style>
      .cls-1 {
        fill: #ed6c57;
      }

      .cls-2 {
        fill: #a28e86;
      }
    </style>
  </defs>
  <path class="cls-1" d="m13.06.56c.1.07.13.2.06.3h-.01c-.29.42-.75.59-1.03.37h-.01c-.29-.22-.3-.7-.01-1.12h.01c.07-.11.2-.14.3-.07l.7.52Z"/>
  <path class="cls-1" d="m13.91,1.29l.03-.26s.03-.06.07-.04c.24.13.39.32.45.59,0,.03.01.04.03.06l.29.26s.06.07.04.13c-.03.22-.17.3-.4.26-.36-.06-.68-.09-.96-.07-.03,0-.06-.01-.09-.03l-.32-.27s-.03-.03-.03-.04c-.16-.42-.04-.75.34-.96.04-.01.07-.01.11,0,.16.07.23.2.24.39,0,.04.04.07.09.07.06-.01.09-.04.1-.07Z"/>
  <path class="cls-1" d="m29.01,1.72s.03.01.03.03c.07.06.07.14.03.22-.03.04-.07.06-.13.06-.45-.01-.7-.26-.78-.72-.01-.04.01-.07.06-.06l.73.1c.06,0,.09.06.07.1,0,.01-.01.04-.03.04-.01.01-.03.03-.03.03-.06.07-.06.14.04.2Z"/>
  <path class="cls-1" d="m15.23,1.33s.03-.07.07-.07c.03,0,.06.01.07.04l.07.17s.04.07.1.09l.96.19c.06.01.09.06.09.11-.04.45-.57.72-.89.96-.1.07-.24.06-.32-.04-.03-.03-.04-.07-.04-.11l-.11-1.34Z"/>
  <path class="cls-1" d="m27.6,1.65l-.03-.29s.03-.1.09-.1h.19c.06,0,.09.03.1.09.09.49.36.73.82.76.03,0,.06.03.06.06,0,.01-.01.03-.01.04-.27.23-.6-.07-.85.45-.01.04-.06.06-.1.07-.75.07-1.22-.62-1.22-1.28,0-.1.07-.17.17-.17.03,0,.07.01.1.03l.59.4s.07.01.1-.01c-.01,0,0-.03,0-.04Z"/>
  <path class="cls-1" d="m30.65,1.69s-.04.06-.07.06h-.01c-.63-.09-1.12-.22-1.12-.32v-.06c0-.1.52-.11,1.15-.03h.03s.06.04.06.07l-.03.27Z"/>
  <path class="cls-1" d="m12.64,1.68s-.06.07-.11.07c-.11-.01-.22-.07-.27-.19-.03-.06-.01-.13.04-.16.01-.01.04-.01.07-.01.26.01.34.11.27.29Z"/>
  <path class="cls-1" d="m20.79,36.11c-.45.45-1.32,1.31-1.39-.1,0-.11-.07-.19-.17-.2-.16-.01-.23-.1-.23-.26,0-.06-.03-.1-.07-.14-.32-.22-.63-1.31-.8-1.72-.01-.04-.01-.1.01-.14.07-.13.04-.2-.11-.22-.06,0-.1-.06-.1-.1l-.09-1.03s-.04-.09-.09-.07c-.03,0-.06.01-.07.04l-.26.42s-.07.06-.11.06c-.29-.04-.52-.17-.72-.39-.03-.04-.03-.07.01-.09l.27-.13s.04-.04.03-.07-.04-.04-.07-.04c-.26.04-.46-.03-.56-.23-.03-.06-.09-.09-.16-.07l-.39.04s-.1-.03-.1-.09h0l-.06-.42s-.03-.07-.09-.07c-.55-.03-1.11-.01-1.65.01-.69.04-1.26-.1-1.93-.2-.06-.01-.1-.04-.1-.1v-.2s-.03-.07-.06-.1c-.16-.09-.32-.1-.49-.06-.63.2-.99-.04-1.6-.14-.04,0-.09-.04-.09-.09-.04-.17-.14-.3-.32-.34-.04-.01-.09-.06-.1-.11-.13-.82-1.11-.23-.6.16.36.29.59.65.69,1.08.01.09.1.14.2.13.04-.01.09-.04.11-.09l.1-.2s.09-.07.13-.04c.01.01.03.01.04.04.1.16.1.33.01.5-.03.06-.01.14.06.17.01,0,.03.01.04.01.65.11,1.08-.13,1.31-.7.03-.07.1-.1.17-.09.04.01.07.04.09.09.04.13.13.23.26.3.03.01.04.03.06.06l.07.23c.01.06.04.09.1.09.45.1,1.14.34.93.95-.01.06-.06.09-.11.11-.26.09-.37.29-.34.57,0,.04-.01.09-.06.11-.4.26-.88.5-1.44.72-.39.16-.72.42-1.01.79-.03.04-.09.06-.13.03l-.27-.11c-.13-.06-.27-.06-.42,0l-1.74.69c-.13.06-.23.01-.29-.11-.32-.78-.76-1.52-1.32-2.21-.27-.34-.69-.34-.66-.93.01-.39-.55-.76-.8-1.01-.37-.34-.49-.83-.92-1.19.07-.52-.06-.8-.37-.83.33-.63.72-.98.53-1.77-.01-.04-.01-.09.01-.13.03-.07,0-.13-.1-.14-.16-.04-.27.01-.34.14-.03.04-.06.06-.1.07-.4.11-.76.06-1.08-.17-.06-.04-.14-.03-.2.03,0,.01-.01.01-.01.03-.07.16-.19.22-.34.2-.37-.04-.36-.39-.86-.23-.03.01-.07,0-.09-.04v-.03c.06-.27-.06-.4-.3-.4-.09,0-.11-.04-.09-.11l.07-.22s0-.07-.01-.09c-.14-.17-.16-.33-.06-.47.06,0,.1-.03.14-.07h.68s.07-.01.09-.06l.11-.2s.06-.06.1-.04c.29.06.55.01.78-.13.52-.32.96-.33,1.52-.06.57.29,1.18.16,1.78.16.96.16,1.24-.19,1.93-.73.04-.03.07-.09.07-.13.04-.33.16-.62.34-.89.03-.06.03-.1-.03-.14-.26-.2-.55-.36-.86-.47-.13-.04-.2-.19-.16-.33.03-.1.11-.16.22-.17l1.19-.11c.06,0,.1-.06.09-.11,0-.01-.01-.04-.03-.06l-.47-.56s-.03-.07-.01-.11c.13-.24.46-.3.34-.65-.01-.06-.01-.1.03-.14.19-.2.29-.45.29-.73,0-.01,0-.04.01-.06l.22-.3s.01-.06,0-.1l-.33-.59c-.04-.07-.01-.17.06-.22.03-.01.07-.03.1-.01.34.06,1.06.32,1.21-.16s.3-.86.45-1.14c.03-.04.03-.1.01-.14-.06-.2-.19-.33-.4-.37-.06-.01-.1-.07-.09-.13l.03-.27s.04-.09.09-.09l.69-.1c.06,0,.1-.06.1-.11.01-.63.3-1.15.3-1.81,0-.36.09-.53.33-.76.09-.07.09-.22.01-.29-.01-.01-.03-.03-.04-.03l-.26-.16s-.07-.09-.07-.14c.03-.19.13-.33.3-.4.04-.03.09-.06.11-.11.1-.2.1-.4-.03-.56l.09-.27s0-.09-.03-.11l-.45-.37s-.09-.04-.14-.03l-.14.03c-.1.03-.16-.01-.16-.11l-.04-.46s-.03-.07-.06-.09c-.32-.13-.4-.4-.24-.82.32-.27.04-.7.14-1.08.01-.04.06-.09.1-.07l.88.04c.13,0,.22.11.22.23,0,.01,0,.03-.01.06-.14.46-.01.83.37,1.11.01.01.03.04.04.06l.1.6s.01.04.03.04c.16.13.26.3.29.5.01.06.04.11.1.14l.39.24c.09.06.13.17.1.26-.03.06-.07.09-.14.09-.04,0-.07,0-.11.03-.04.04-.04.07.01.1l.14.07s.06.07.04.11h-.01c-.11.13-.16.27-.14.45,0,.06-.01.09-.09.1-.23.01-.45-.03-.63-.16-.01-.01-.04-.01-.06.01h0s-.01.04-.01.06c-.01.03,0,.04.03.04l1.02.3c.06.01.1,0,.13-.06.26-.56.29-1.12.09-1.7-.01-.06,0-.09.04-.1.6-.23.7.66,1.51.62.03,0,.04-.03.04-.04s-.01-.03-.03-.04l-.47-.09s-.04-.03-.04-.04v-.22s-.03-.09-.06-.11c-.42-.3-.86-.39-1.35-.27-.06.01-.1,0-.13-.04-.17-.17-.22-.39-.13-.63,0-.01,0-.04-.01-.06l-.56-.78c-.04-.06-.03-.1.01-.14.23-.23.24-.46.04-.73-.01-.03-.01-.06,0-.07s.04-.01.07,0c.5.34.07,1.12,1.24.98.04,0,.06-.03.01-.06-.13-.13-.49-.01-.7-.24-.06-.07-.06-.19.01-.24.04-.04.1-.06.14-.04l.24.06c.07.01.09-.01.06-.07-.1-.16-.23-.23-.42-.22-.09,0-.09-.03-.03-.07l.04-.06s.04-.03.07-.03c.47.01.92.16,1.29.45.04.03.09.04.14.04h.29c.06,0,.09.04.09.09h0l-.03.45s.03.09.07.09.07-.03.09-.06l.04-.14s.06-.07.1-.06c.03,0,.04.03.04.04l.22.5s.06.04.09.03c.03-.01.04-.03.04-.06-.01-.33-.14-.59-.4-.76-.03-.01-.04-.04-.06-.09-.01-.1-.06-.19-.13-.26-.03-.03-.07-.06-.13-.07-.7-.22-1.05-.33-1.28-1.09-.01-.06,0-.09.06-.1l1.47-.33c.06-.01.07-.04.06-.1-.09-.23-.36-.14-.55-.19-.06-.01-.06-.04-.03-.09.1-.14-.03-.29-.39-.42-.01,0-.01-.03-.01-.04s.01-.01.01-.01l.43-.04c.06,0,.09-.04.09-.09l.03-.16s.01-.06.04-.07l.86-.79s.09-.04.13-.06h.16s.03-.01.03-.04c0-.01-.01-.03-.01-.03l-.13-.04c-.14-.06-.14-.1.01-.14.14-.03.29-.04.43-.03.06,0,.07-.01.04-.07l-.04-.07c-.04-.07-.01-.1.07-.11.17,0,.29.07.34.22.01.04.07.07.11.04.01,0,.03-.01.04-.03l.11-.16s.04-.04.09-.04c.09.01.17.04.26.1.03.01.06.01.07,0l.03-.03s.04-.09.01-.13l-.1-.17s-.01-.07.03-.09c.01-.01.03-.01.04-.01.13.01.26,0,.36-.07.06-.04.06-.07,0-.1-.69-.37-.53-1.38.3-1.38.04,0,.07.03.09.07l.06.47c0,.06.06.09.1.09.03,0,.04-.01.06-.03.16-.17.34-.23.57-.17.04.01.07.04.09.09l.03.37s.04.07.09.07c.03,0,.06-.03.07-.06.29-.78,1.09-.6,1.49-.07.03.04.07.04.1.01l.1-.1s.1-.04.14,0l.24.24s.04.09,0,.13l-.04.06s-.01.06.01.09c.01,0,.01.01.03.01h.17c.06.01.09.04.09.1.14.63-.29,1.14-.4,1.74-.06.33-.24.65-.24,1.01,0,.04.03.07.07.07h.06s.06-.03.06-.06l.04-.32s.03-.07.07-.09c.24-.09.4-.24.47-.47.01-.04.04-.09.1-.1l.19-.09s.01-.01.01-.03-.01-.01-.03-.01l-.34.09s-.07-.01-.07-.04,0-.06.03-.07l.34-.26c.06-.04.1-.03.11.04l.04.2s.04.06.07.04c.01,0,.03-.01.03-.01l.11-.13s.13-.06.17,0c.01.01.03.03.03.04.03.1.1.16.2.19.03.01.06,0,.07-.04v-.04c-.06-.1-.04-.2.06-.27.04-.03.09-.06.13-.04.39.03.76-.03,1.12-.2.04-.01.09,0,.1.03,0,.01.01.03,0,.04-.13.79,1.26.22,1.52.03.04-.04.06-.09.03-.13l-.16-.23s-.01-.1.03-.13c.03-.01.06-.03.09-.01l.33.14s.09,0,.11-.04c.26-.46.88.01,1.18.11.06.01.07.06.07.1,0,.2.1.3.33.27.04,0,.09.03.1.09h0l.04.5s.04.07.09.07c.01,0,.03-.01.04-.01l.2-.17s.06-.01.09,0h.01s.1.24.1.24c.01.04.06.07.1.09l.57.16c.09.03.19-.03.22-.11.01-.07,0-.14-.06-.19l-.37-.29s-.04-.07-.01-.1c.01-.03.06-.03.09-.01.4.22,1.02.42,1.19-.2.01-.06.09-.1.16-.09.04.01.07.04.09.09.04.17.16.24.34.22.07-.01.13-.09.11-.16-.01-.06-.04-.1-.1-.11-.04-.01-.07-.04-.09-.09,0-.01.01-.03.01-.03h0l.52.11c.07.01.14-.03.16-.1,0-.03,0-.06-.01-.07-.11-.26-.32-.45-.57-.56-.04-.01-.07-.07-.04-.11,0-.01.01-.03.03-.03l.11-.1s.06-.06.07-.1l.03-.09c.01-.06.06-.07.11-.04l.43.19c.06.03.1.01.11-.04.1-.24.27-.33.53-.27.04.01.07.03.1.07l.22.3c.06.07.09.07.11-.03l.07-.37c.01-.06.04-.1.1-.11.65-.2,1.12-.01,1.41.55.06.11.2.16.32.1.04-.03.07-.06.1-.1.03-.07.09-.11.14-.14s.11,0,.14.06l.11.29s.04.06.09.06c.43,0,.8-.13,1.12-.39.04-.03.09-.06.14-.06h1.09c.06-.01.1.01.13.06l.34.6s.07.07.11.06c.29-.04.55.01.79.17.04.03.09.01.11-.03,0-.01.01-.01.01-.03l.1-.43s.04-.06.09-.06c.43.04.83-.03,1.24-.22.04-.01.06-.06.07-.1v-.27s.04-.06.09-.06c.03,0,.04.01.06.03.29.5.73.73,1.32.68.03,0,.04-.03.04-.06t-.01-.03l-.68-.88c-.07-.09-.04-.13.06-.14.88-.07,1.72-.19,2.62-.09.95.11,1.88.24,2.83.4.06.01.09.04.11.09.14.3.39.49.72.56.06.01.1-.01.1-.07v-.04s-.01-.07-.04-.09c-.57-.2-.27-.88.09-.78.47.13.79.23,1.06.68.03.06.03.1-.01.14l-.29.3s-.03.09,0,.11c.01.01.06.03.09.01.13-.04.22-.01.27.09.04.1.01.23.03.37,0,.03.01.06.06.07l.27.13s.07.09.04.13c0,.01-.01.03-.03.03-.1.1-.23.13-.39.09h-.06l-.53.13s-.09,0-.1-.04l-.19-.27c-.04-.06-.11-.07-.17-.03l-.52.34s-.09.03-.14.01c-.09-.03-.13-.09-.16-.19-.01-.03-.03-.06-.07-.06h-.07s-.07.03-.07.07c.04.33.22.55.52.65.04.01.07.04.09.09.03.17,0,.33-.1.46-.01.03-.03.07-.01.1l.06.14c.03.06,0,.14-.07.17-.01.01-.04.01-.06.01l-.7-.06c-.07,0-.09.03-.06.09.01.04.04.06.07.06.68-.03,1.87.92,2.27,1.44.04.06.03.14-.03.19-.03.03-.07.03-.1.03-.32-.06-.6,0-.88.2-.03.01-.03.06-.03.09l.04.11s0,.1-.06.11h-.01l-.17.04c-.06.01-.1.04-.11.1-.2.5-.29,1.03-.26,1.58,0,.04-.03.07-.07.07-.01,0-.03,0-.03-.01-.52-.26-.99-.52-1.31.23-.03.07-.07.07-.13.03l-.19-.16s-.04-.01-.07-.01c-.53.3-.24,1.26-.17,1.81.01.11.11.19.23.17.03,0,.06-.01.09-.03l.19-.11c.07-.04.11-.03.11.06v.46s.03.07.07.07h.01c.19-.04.33.03.42.19.06.11.03.17-.1.17h-.22c-.06,0-.1.04-.1.1v.03c.11.39.32.69.65.93.04.03.04.07,0,.1-.24.13-.43.32-.59.55-.03.04-.01.09.03.11l.22.14s.06.07.04.13c-.06.14-.17.22-.32.23-.06.01-.1.06-.09.13v.03c.04.13.14.23.27.32.04.01.06.07.03.1,0,0,0,.01-.01.01-.17.17-.27.39-.32.62-.01.04-.04.07-.09.07-.01,0-.04-.01-.06-.03-.33-.46-.56-1.01-.98-1.37-.32-.27-.56-.62-.7-1.01-.14-.4-.46-.69-.23-1.24.01-.03.01-.06,0-.1l-.07-.26s0-.07.04-.1c.26-.16.22-.32.26-.57.1-.5.16-1.02.19-1.54,0-.04.03-.09.06-.11.36-.32.09-.95-.2-1.21-.04-.04-.04-.11,0-.16.01-.01.04-.03.07-.04h.07s.03-.01.03-.04c0-.01-.01-.03-.03-.03l-.16-.06c-.11-.04-.26.01-.3.14-.01.03-.01.07-.01.11.03.17.09.33.22.46.03.03.03.09,0,.11h0c-.22.17-.29.4-.2.68.01.04-.01.09-.06.09h-.04c-.26-.07-.43-.24-.49-.52-.03-.11-.14-.19-.26-.16h-.01l-.72.23s-.07.06-.07.11c.04.42-.01.8-.16,1.19-.01.04-.01.09,0,.13.07.14.2.2.39.17.07-.01.1.01.09.09v.06s-.04.04-.06.04c-.33.1-.62.24-.88.47-.03.03-.07.01-.1-.01-.01-.01-.01-.03-.01-.04v-.24c-.01-.06-.04-.09-.1-.1l-.66-.07s-.09.01-.13.04c-.39.36-.85.53-1.41.49-.01,0-.03,0-.04.01-.16.07-.32.14-.47.22-.04.01-.09.06-.1.09-.32.52-.56,1.08-.7,1.65-.09.34,0,.76-.42,1.02-.03.01-.04.07-.01.1.01.01.03.03.06.03.22.01.32.13.32.34,0,.09.07.14.14.14.04,0,.07-.01.1-.04.09-.1.2-.14.34-.14.03,0,.06.01.07.04l.16.2s.09.04.13.01h0l.22-.22s.07-.04.11-.03c1.15.39,1.37,1.71,1.55,2.76.09.47-.22,1.15-.29,1.65-.01.04-.03.09-.06.13-.29.33-.78,2.03-1.49,1.45-.04-.04-.09-.03-.13,0l-.53.5s-.06.09-.04.13l.07.3c.01.06,0,.1-.03.14l-.46.57c-.04.06-.04.14.03.2,0,0,.01,0,.01.01.49.3,1.29,1.05,1.05,1.71-.1.27-.29.34-.53.22-.04-.03-.07-.01-.1.03l-.09.13c-.03.06-.11.07-.17.04-.04-.03-.06-.07-.06-.13.07-.32-.01-.57-.23-.79-.06-.04-.04-.09.01-.13l.09-.04c.06-.03.06-.07.01-.11-.2-.16-.43-.24-.69-.24-.06,0-.09-.03-.09-.1.11-1.31-.92-.49-1.32-.16-.04.04-.11.03-.16-.01-.01-.03-.03-.04-.03-.07l.06-.72c.01-.09-.06-.17-.16-.19-.04,0-.1.01-.13.04-.36.32-.65.69-.86,1.11-.03.06-.01.1.04.11.17.04.3.14.4.3.03.04.06.06.1.06l1.16-.14c.07-.01.13.04.13.1,0,.03,0,.06-.03.09-.17.23-.7.42-.95.63-.04.03-.06.07-.06.11.01.23.14.36.39.39.03,0,.06.01.07.04l.91,1.39c.04.06.03.11-.03.14l-.19.13s-.03.06-.01.09c.01.01.03.03.04.03.23.03.3.13.26.32-.65,2.1-1.64,2.43-3.56,3.08-.06.01-.09.06-.1.11l-.06.17s-.04.07-.1.04c-.11-.04-.2-.13-.26-.24-.06-.13-.14-.19-.29-.17-.6.06-.93.37-1.01.98,0,.06.03.11.09.13.16.04.24.13.3.29.01.06.06.1.11.13.92.39,1.7,2.07.23,2.41-.06.01-.09.04-.11.09l-.09.17c-.03.06-.06.06-.11.03-.23-.17-.49-.29-.78-.34-.06-.01-.1-.04-.13-.09-.24-.34-.57-.56-.98-.66-.04-.01-.09-.03-.11-.07l-.2-.2s-.09-.04-.11.01c-.13.32-.57,1.24,0,1.32.04,0,.07.03.09.09.14.95,1.49.95,1.22,1.85-.01.04,0,.09.03.11l.32.36s.04.1.01.14c-.1.16-.24.19-.42.09-.55-.3-.91-.73-1.06-1.31-.14-.52-.34-.79-.83-.93-.04-.01-.07-.04-.06-.09.03-.4.26-1.03.11-1.39-.2-.52-.43-1.02-.66-1.52-.01-.04-.07-.06-.11-.04-.01,0-.03.01-.03.03-.19.23-.42.4-.7.49-.04.01-.1-.01-.11-.06l-.33-.82c-.03-.07-.09-.11-.16-.13-.22-.04-.3-.19-.24-.46.01-.06-.03-.11-.09-.13-.32-.07-.49-.27-.55-.59-.03-.13-.14-.22-.27-.2-.03,0-.06.01-.09.03-.13.09-.26.1-.4.06-.04-.01-.09,0-.11.04-.23.33-.62.03-.73.45,0,.01-.01.01-.01.03l-.62.66s-.07.04-.11.03l-.06-.03s-.09-.01-.13.01c-.4.37-.8.76-1.19,1.15-.5.6.09,1.34-.3,1.9Z"/>
  <path class="cls-1" d="m28.74,3.01s-.01-.07.01-.1c.04-.04.1-.04.16,0,.09.1.1.19.01.26-.04.04-.09.04-.11-.03l-.07-.13Z"/>
  <path class="cls-1" d="m29.25,3.42c.27-.52.73-.14,1.06.01.04.03.07.07.04.13-.01.03-.04.04-.07.06l-.78.16c-.33.06-.42-.06-.26-.36Z"/>
  <path class="cls-2" d="m15.24,3.85s.06-.04.1-.01c.06.03.06.06,0,.07l-.22.09c-.07.03-.1.01-.07-.07.03-.04.09-.07.19-.07Z"/>
  <path class="cls-2" d="m15.97,4.22s-.03.04-.06.03c0,0-.01,0-.01-.01l-.13-.1s-.03-.06-.01-.07h.01c.06-.04.11-.04.16,0,.04.04.06.09.04.16Z"/>
  <path class="cls-2" d="m12.38,5.7s-.01.03-.01.04t-.03,0c-.03-.1,0-.19.07-.24.01-.01.06-.01.07,0s.01.03.01.04c-.01.04-.03.07-.07.1-.03.01-.04.03-.04.06Z"/>
  <path class="cls-2" d="m12.37,5.93c.09.01.1.07.07.17-.01.04-.04.06-.09.04-.03-.01-.06-.04-.06-.07v-.1s.03-.06.07-.04Z"/>
  <path class="cls-1" d="m13.59,6.81c-.06-.01-.1-.07-.09-.17,0-.04.04-.07.09-.07.03,0,.04.01.06.03l.14.19s.01.06-.03.06c-.03,0-.06,0-.09-.01-.04,0-.06,0-.09-.01Z"/>
  <path class="cls-1" d="m12.55,8.13s0-.09.04-.11c.03-.01.06-.01.09.01l.19.14s.04.07.01.1c-.01.01-.04.03-.06.03-.13-.01-.22-.06-.27-.17Z"/>
  <ellipse class="cls-1" cx="37.15" cy="16.53" rx=".11" ry=".13" transform="translate(7.37 44.22) rotate(-66.9)"/>
  <path class="cls-1" d="m41.01,20.92c0,.07-.01.14-.04.23-.06.11-.1.11-.13-.01-.19-.7-.5-1.28-.73-2-.22-.65-.63-1.12-.91-1.74-.01-.04-.03-.09-.01-.14.04-.17.01-.33-.1-.49-.03-.04-.01-.09.01-.11.03-.03.07-.01.1,0,.27.26.49.57.63.93.3.76.85,1.38,1.38,2,.01.01.01.04,0,.06-.01.01-.03.01-.06,0l-.39-.23c-.07-.04-.14-.01-.19.04-.01.03-.03.07-.01.1.11.5.36.92.73,1.26.04.03.06.07.07.1.01.06-.01.07-.06.04l-.2-.13s-.07-.01-.09.01c-.01.04-.01.06-.01.07Z"/>
  <path class="cls-1" d="m41.1,23.08l.13.03c.06.01.07.04.09.1,0,.09-.04.14-.14.17-.07.03-.11,0-.14-.07l-.07-.16s-.04-.06-.09-.03l-.17.1s-.04,0-.06-.01v-.03c.07-.26.19-.49.37-.69.03-.04.06-.09.06-.13,0-.27-.06-.52-.19-.76-.04-.07-.01-.11.06-.11h.1s.1.01.13.06c1.03,1.38,1.88-.29,2.7-.76.06-.03.07-.01.03.03-.01.03-.03.04-.04.07s-.03.04-.06.06c-.33.2-.63.52-.91.92-.07.11-.2.19-.37.22-.06.01-.07.04-.06.1.01.07.06.1.13.11.09.01.1.04.03.1-.24.19-.63.3-.6.66,0,.07-.03.09-.09.06l-.47-.3s-.07-.01-.1.01l-.24.22s-.04.04-.01.04Z"/>
  <path class="cls-1" d="m38.61,27.62l-.26-.03c-.06,0-.09-.06-.09-.11h0c.06-.27.59-.75.78-.96.03-.04.07-.07.13-.07.19-.03.34-.1.47-.2.04-.04.1-.04.16-.03l.19.04c.06.01.1,0,.11-.06l.19-.39s.01-.07.01-.1c-.01-.09.01-.17.09-.24.03-.03.09-.03.13,0,.01.01.01.03.03.04l.04.16s.06.07.1.06c.01,0,.01-.01.03-.01.5-.4.66-.89.46-1.49-.11-.34-.06-.6.27-.75.06-.03.09-.01.11.04.19.39.5.82.45,1.25-.09.6-.06.98.09,1.52.01.06,0,.09-.06.11l-1.09.26s-.09.03-.11.07l-.27.33c-.09.1-.23.13-.34.06-.07-.06-.11-.14-.09-.23.03-.07.01-.16-.03-.23-.03-.06-.09-.07-.14-.04-.01.01-.03.03-.04.04-.09.17-.04.29.14.33.04.01.07.07.06.11,0,.01-.01.01-.01.03l-.09.1s-.09.06-.13.04c-.19-.06-.3,0-.32.17-.01.1-.06.11-.13.04s-.13-.17-.17-.29c-.03-.1.03-.22.13-.24.04-.01.09-.01.13,0,.09.03.16.03.2,0,.04-.03.03-.06-.01-.06-.33-.07-.65,0-.93.17-.06.03-.04.06.01.07.13.03.22.1.29.2.03.04.03.07.03.13l-.14.68s-.04.07-.09.06c-.32-.04-.34-.29-.23-.55.01-.01,0-.03-.04-.04Z"/>
  <ellipse class="cls-1" cx="37.07" cy="27.38" rx=".09" ry=".17" transform="translate(6.81 62.14) rotate(-85.4)"/>
  <path class="cls-2" d="m38.67,29.44c.01.06,0,.11-.06.19-.17.2-.3.4-.39.6-.01.03-.03.03-.06.03-.01,0-.01-.01-.01-.01-.01-.01-.01-.03-.01-.04s0-.03.01-.04c.16-.23.3-.47.45-.7.03-.07.04-.07.07-.01Z"/>
  <path class="cls-1" d="m35.94,32s-.01.01-.01.01h-.01c-.17,0-.3-.29-.29-.62h0v-.16c.01-.33.16-.6.33-.59h0s.01.01.01.01h0l-.03,1.34Z"/>
  <path class="cls-2" d="m36.97,31.05c.1-.1.23-.14.39-.14.03,0,.04.01.04.04s-.01.04-.04.04h0l-.39.07s-.01,0,0-.01Z"/>
  <path class="cls-1" d="m31.54,33.31s-.04-.01-.04-.04c-.01-.37.17-.55.56-.55.07,0,.11.03.11.11v.39c.01.06-.03.11-.09.11h-.01l-.53-.03Z"/>
  <path class="cls-1" d="m36.7,34.72c.3-.03.55.09.73.34.11.17.09.4-.09.53-.03.03-.07.04-.11.06-.17.04-.32.14-.43.29-.04.06-.07.06-.07-.03v-.2c0-.06.03-.09.09-.09h.26c.06,0,.1-.03.11-.09.07-.23.03-.43-.13-.59-.04-.04-.09-.06-.14-.03-.17.06-.29.07-.34.06-.82-.27-1.03-.79-.65-1.57.23-.46.79.09.86.4.01.04,0,.1-.04.14l-.29.3c-.1.11-.1.29,0,.39.09.04.17.07.24.07Z"/>
  <path class="cls-2" d="m25.66,35.93s.01.06,0,.07-.03.03-.06.03c-.01,0-.03-.01-.03-.04l.06-.86s.03-.06.06-.04.04.03.04.04c-.04.23-.09.47-.1.7.01.04.01.07.03.1Z"/>
  <ellipse class="cls-1" cx="36.28" cy="35.18" rx=".1" ry=".16" transform="translate(-8.1 59.36) rotate(-72.7)"/>
  <path class="cls-1" d="m36.97,36.39s-.07-.06-.06-.1c0-.01.01-.03.01-.03.23-.23.5-.4.82-.47.09-.01.13-.1.11-.19-.01-.03-.03-.06-.04-.09-.06-.04-.09-.1-.11-.17-.01-.07,0-.07.06-.03.11.09.19.2.24.34.01.06,0,.09-.04.11l-.75.4s-.06.09-.04.13c0,.01.01.01.01.03l.11.11c.06.06.04.07-.03.06l-.3-.11Z"/>
  <path class="cls-1" d="m35.85,35.44c.03-.07.06-.1.11-.07.03.01.03.04.03.06-.2.52-.55.93-1.01,1.25-.03.01-.04.01-.06-.01,0-.01-.01-.03-.01-.03,0,0,0-.01.01-.01.45-.27.76-.68.92-1.18Z"/>
  <path class="cls-1" d="m38.14,37.23v.27s-.04.09-.09.09c-.43.03-.42-.37-.5-.66-.01-.06-.06-.07-.1-.03-.1.07-.22.1-.34.09-.04,0-.09.01-.13.04l-.11.11s-.04.01-.04-.01c0-.04,0-.09.03-.11.11-.13.27-.24.5-.36.04-.01.09-.01.11.01l.09.09s.11.04.17,0h.01s.37-.62.37-.62c.01-.03.06-.04.1-.01.01.01.03.03.03.04.03.34.14.66.32.95.01.03.01.07-.03.1h-.01l-.14.06s-.04,0-.06-.01l-.07-.07c-.07-.04-.1-.03-.1.04Z"/>
  <path class="cls-1" d="m21.52,37.48c-.79.4-.76-.57-.57-.99.01-.06.04-.1.04-.1.06-.03.13-.03.17.03.33.39.45.73.36,1.06Z"/>
  <path class="cls-1" d="m33.32,38.57l.09-.14s.07-.07.13-.07c.19,0,.29-.09.32-.27,0-.06.04-.09.09-.1.34-.06.6-.26.75-.57.03-.04.06-.07.11-.07h.32c.06,0,.1.04.11.1.03.19.14.26.33.22.06-.01.11.03.13.09s-.03.11-.09.13h0c-.27.07-.47.24-.59.5-.01.04-.01.07.01.11.09.14.13.3.11.46,0,.06.03.1.09.11l.23.04s.06.04.06.07c0,.01-.01.04-.04.04-.36.16-.57.43-.65.83,0,.03-.03.07-.06.09l-.2.16s-.06.07-.04.11c.06.36-.1.53-.46.55-.01,0-.04,0-.06-.01l-.39-.3s-.07-.03-.11,0l-.2.19s-.09.03-.11,0l-.23-.17s-.09-.06-.14-.07c-.45-.11-.66-.42-.65-.93,0-.06-.03-.09-.07-.1l-.17-.07c-.06-.03-.09-.07-.06-.13.13-.36.37-.45.7-.26.06.03.11.01.14-.04l.24-.42s.07-.06.11-.04l.11.03c.07,0,.1-.01.13-.04Z"/>
  <path class="cls-1" d="m30.52,40.55l.16.14s.04.06.04.11l-.07.57c-.01.06-.04.09-.11.09-1.58-.17-1.88-1.84-2.92-2.82-.26-.26-.53-.5-.82-.75-.06-.04-.09-.1-.09-.16s.04-.11.1-.11c.01,0,.04,0,.06.01.45.2.89.42,1.32.65.47.24.82.69,1.34.95.04.01.07.06.07.09.03.11.11.17.23.2.04.01.07.03.07.07l.06.26s.06.09.1.07l.3-.04s.07.03.09.06h0s.03.55.03.55c.01.01.03.04.04.06Z"/>
  <path class="cls-1" d="m39.06,40.04c-.03.06-.09.09-.16.09-.09-.01-.1-.04-.03-.11l.13-.11s.04-.06.03-.1c-.03-.2-.11-.4-.24-.62-.03-.06-.03-.11.03-.16.03-.03.09-.01.1.01h0c.06.09.14.11.23.07.06-.01.1,0,.11.04.09.19.04.3-.11.37-.06.03-.07.06-.03.11l.03.03s.01.03.03.04c.01.11-.01.2-.1.26.01.03,0,.04-.01.07Z"/>
  <path class="cls-1" d="m36.33,40.47s-.04-.04-.07-.03c-.01,0-.03.01-.03.04l-.14.82c-.01.07-.06.1-.11.07l-.19-.06s-.06-.04-.04-.09c.11-.46-.17-.8.04-1.35.01-.04.04-.07.07-.09.1-.07.14-.17.11-.29-.01-.1.04-.19.13-.22.34-.11.7-.1,1.05.01.06.03.13.01.19,0l.49-.22s.07,0,.09.03v.04c-.04.22-.22.34-.45.3-.46-.07-.88-.07-1.26.04-.11.03-.19.14-.16.27.03.09.1.16.19.16.32.04.62-.01.89-.17.09-.06.22-.01.26.07.03.04.03.1.01.14l-.07.22c-.01.06-.07.09-.13.07-.01,0-.04-.01-.06-.04-.07-.11-.19-.13-.34-.03-.1.06-.13.19-.07.29.01.03.04.06.07.07.19.1.3.26.37.46.01.03,0,.03-.03.04l-.45.06s-.07-.01-.1-.06l-.26-.59Z"/>
  <ellipse class="cls-2" cx="40.24" cy="39.59" rx=".06" ry=".16" transform="translate(-2.78 76.15) rotate(-84.9)"/>
  <path class="cls-1" d="m44,40.35l-.04,2.17c-.19.03-.32-.03-.37-.2-.01-.04-.04-.06-.09-.06h-.57s-.09-.06-.09-.1v-.03c.04-.11.13-.19.26-.22.04-.01.09-.06.07-.1,0-.01-.01-.04-.03-.04-.36-.3-1.64-1.21-2.14-.92-.04.03-.09.01-.11-.01l-.27-.23s-.03-.06,0-.07c0-.01.01-.01.03-.01l.5-.13s.04-.03.03-.06c0-.01-.01-.03-.04-.03l-.49-.09c-.13-.03-.2-.14-.19-.27,0-.01.01-.04.01-.06.24-.5,1.08-.22,1.08.42,0,.04.01.09.04.11l.22.24s.09.04.11.01l.8-.57c.06-.04.11-.04.17-.03l1.11.27Z"/>
  <ellipse class="cls-1" cx="28.15" cy="40.08" rx=".07" ry=".11" transform="translate(-9.52 8.78) rotate(-15.2)"/>
  <path class="cls-2" d="m37.82,40.21s-.03.01-.03.01h-.01l-.03-.06s0-.03.01-.04h.01l.42.04s.06.03.06.07v.04s-.01.04-.04.03c-.11-.04-.23-.07-.34-.1-.01-.01-.03-.01-.04,0Z"/>
  <path class="cls-1" d="m31.12,40.54s.01.03,0,.04h-.01c-.07.07-.22.04-.33-.07l-.03-.03c-.11-.11-.14-.26-.07-.33h0s.03-.03.04-.01h0l.4.4Z"/>
  <path class="cls-1" d="m28.58,40.6s-.04-.1-.03-.17.04-.07.07,0l.06.13s0,.06-.03.07c-.03,0-.06,0-.07-.03Z"/>
  <ellipse class="cls-1" cx="31.56" cy="40.56" rx=".1" ry=".16" transform="translate(-17.56 55.65) rotate(-69.2)"/>
  <ellipse class="cls-1" cx="39.21" cy="40.58" rx=".1" ry=".22" transform="translate(-7.72 71.9) rotate(-79.7)"/>
  <ellipse class="cls-1" cx="39.87" cy="40.7" rx=".07" ry=".32" transform="translate(-6.74 73.47) rotate(-80.7)"/>
  <ellipse class="cls-1" cx="38.52" cy="40.71" rx=".22" ry=".09" transform="translate(-.77 .75) rotate(-1.1)"/>
  <path class="cls-1" d="m34.37,42.37c.4,0,.79,0,1.18-.03.09,0,.13.03.11.09-.01.09-.09.13-.17.13h0c-.65-.11-1.31-.14-2-.09-.13.01-.3-.01-.53-.09-.52-.16-.99-.13-1.52-.36-.04-.01-.09-.03-.14-.03-.19.01-.37-.01-.55-.09-.1-.04-.16-.17-.11-.27.03-.09.11-.13.2-.13h.7s.07.04.07.09v.14c0,.07.03.1.1.1l1.14-.06s.07.01.1.04c.22.22.47.34.79.4.04,0,.07.01.1.04.03.03.07.04.13.01.03-.01.07-.03.1-.03.07,0,.11.03.16.07.04.01.09.03.14.04Z"/>
  <path class="cls-2" d="m36.2,41.68s-.04.04-.09.03c-.01,0-.01-.01-.01-.01-.06-.06-.06-.11,0-.17.03-.03.09-.03.11,0s.03.06.01.09l-.03.07Z"/>
</svg>