<?xml version="1.0" encoding="UTF-8"?>
<svg id="Camada_1" data-name="Camada 1" xmlns="http://www.w3.org/2000/svg" viewBox="0 0 49.09 44.73">
  <defs>
    <style>
      .cls-1 {
        fill: #31b297;
      }
    </style>
  </defs>
  <path class="cls-1" d="m41.09,10.51l-.46,2.16c-.03.08,0,.18.03.25.18.38.3.76.36,1.17,0,.08.05.15.13.2.41.28.71.66.91,1.17.03.08,0,.18-.1.23-.03,0-.05.03-.1,0l-1.45-.25c-.1-.03-.18-.08-.2-.18-.18-.51-.51-.63-1.01-.46-.08.03-.18.03-.25-.05l-.43-.43c-.08-.08-.08-.18,0-.25l.46-.53c.05-.08.08-.15.05-.25-.23-.76-.1-1.47.3-2.16.05-.08.05-.15.03-.23-.13-.33-.71-1.12-.08-1.32.33-.1.48-.18.58-.51.36-.74.68-1.19,1.52-1.45.79-.25,1.39-.33,1.85-1.22.03-.08.1-.13.18-.15.43-.18.79-.15,1.07.08.28.23.23.51-.13.79-1.42,1.12-2.31,1.5-3.25,3.4Z"/>
  <g>
    <path class="cls-1" d="m36.55,1.66c-.15.08-.23.2-.23.38,0,.08-.05.13-.13.13-.03,0-.05,0-.08-.03l-.25-.15c-.1-.08-.1-.1.03-.13.2-.03.36-.13.48-.3.05-.08.13-.1.2-.1.51.05.74-.18.68-.68,0-.08.03-.13.13-.13l.18-.03c.08,0,.15-.08.13-.15,0-.03,0-.05-.03-.08-.15-.23-.33-.23-.48-.03-.03.03-.08.05-.1.03-.03-.03-.03-.05-.03-.08,0-.18.08-.28.23-.3.08-.03.15,0,.23.05l.38.36c.05.05.05.1,0,.18l-.1.1c-.1.1-.08.18.05.23.05.03.1.03.15.05.1.03.15.15.1.25-.03.08-.13.13-.2.13-.58-.13-.94.1-1.04.63,0,.05-.05.08-.1.05-.03,0-.05-.05-.05-.08l.03-.23c0-.05-.03-.1-.08-.1-.05.03-.08.03-.1.03Z"/>
    <path class="cls-1" d="m19.53,4.14l3.98,3.14c.08.05.08.15.03.23v.03c-.33.36-.74.58-1.22.68-.1.03-.18-.03-.2-.13v-.08l.18-1.04c0-.05,0-.1-.05-.13l-.86-.61c-.08-.05-.2-.05-.25.05-.03.03-.03.05-.03.08l-.36,3.04c-.03.13-.13.2-.23.18-.05,0-.1-.03-.15-.08l-1.19-1.6c-.05-.05-.03-.15.03-.2.03-.03.05-.03.08-.03h.28c.05,0,.08-.03.08-.08,0-.03-.03-.08-.05-.08l-.41-.1c-.08-.03-.13-.05-.18-.1-.58-.58-1.04-1.24-1.37-1.98-.28-.63-.08-.96.61-1.01.1,0,.18.05.2.15l.05.23c.03.05.08.08.13.08h0l.2-.08c.1-.03.2-.03.28.03.15.08.23.23.18.43-.03.1.03.18.1.23l.08.08c.13.1.15.08.13-.08-.15-.58-.15-1.01-.05-1.27Zm-.53,2.89l.96-.48s.03-.05.03-.05v-.03c-.08-.15-.36-.18-.63-.05l-.08.05c-.28.13-.43.38-.33.53v.03s.05,0,.05,0Z"/>
    <path class="cls-1" d="m48.9,17.64c.23.3.25.63.05.99-.05.08-.1.15-.2.2-.3.15-.48.38-.53.71,0,.1.03.2.13.25l.46.28c.18.1.23.33.1.51-.03.03-.03.05-.05.08-.43.41-.58.71-.58,1.34,0,1.17-.51,2.05-.53,3.2,0,.1-.08.18-.18.2l-1.22.18c-.08,0-.15.08-.15.15l-.05.48c-.03.1.05.2.15.23.38.1.61.33.71.66.03.08.03.18-.03.25-.28.51-.53,1.17-.79,2-.25.84-1.52.38-2.13.28-.15-.03-.3.08-.33.23,0,.05,0,.13.03.18l.58,1.04c.03.05.03.13,0,.18l-.38.53s-.03.08-.03.1c0,.51-.18.94-.51,1.29-.08.08-.08.15-.05.25.23.61-.38.71-.61,1.14-.03.08-.03.15.03.2l.84.99c.05.08.05.18-.03.25-.03.03-.05.03-.1.05l-2.1.2c-.25.03-.43.23-.41.48.03.18.13.33.3.38.56.2,1.07.48,1.52.84.08.08.1.15.05.25-.3.48-.51,1.01-.61,1.57-.03.1-.08.18-.13.23-1.22.96-1.7,1.55-3.4,1.29l.08-1.12c0-.08-.03-.15-.13-.18-.96-.36-1.88-.81-2.74-1.39-.05-.05-.13-.08-.2-.08-.58-.03-1.14.13-1.62.41-.18.1-.41.05-.53-.13-.03-.03-.03-.05-.03-.08-.18-.51-.48-.94-.94-1.29-.18-.15-.46-.1-.61.08h0l-.84,1.12c-.03.05-.08.08-.13.1-.23.1-.36.28-.38.53,0,.1-.03.2-.08.28l-.38.63c-.05.08-.08.18-.05.28.1.38.3.63.66.76.05.03.1.08.08.15-.03.05-.08.08-.13.08-.38-.05-.71.08-.99.36-.08.08-.15.1-.25.13-.18-.89-1.24-.23-1.55.15-.05.08-.18.1-.25.08l-.48-.18c-.05-.03-.08,0-.1.05v.05c.18.61.48,1.09.94,1.47.05.05.08.13.03.18-.03.03-.05.05-.1.05l-.41.03c-.08,0-.15.08-.15.15-.03.2-.15.36-.3.48-.18.13-.41.1-.53-.08-.1-.13-.1-.33-.03-.46l.15-.23c.05-.1.03-.13-.08-.15-.33-.03-.61-.18-.81-.46-.05-.05-.08-.13-.08-.2-.03-.41-.25-.66-.66-.74-.08-.03-.13-.08-.13-.15l-.05-.79c0-.08-.03-.15-.1-.2-1.09-1.12-2.61-1.5-3.78-2.59-.05-.05-.13-.08-.2-.05-.28.05-.48.2-.63.46-.08.1-.05.2.05.28.41.33.81.63,1.22.96.84.71,1.83,1.17,2.74,1.78.08.05.1.1.13.13v.1c-.03.05-.08.1-.15.08l-.41-.13c-.13-.03-.18,0-.15.13l.1.68c0,.1,0,.18-.05.25-.18.25-.41.41-.71.48-.13.03-.15-.03-.1-.13.28-.68.13-1.14-.56-1.47-1.34-.63-2.51-1.52-3.53-2.61-.05-.08-.13-.1-.23-.08-.56.05-1.04.28-1.45.66-.23.2-.53.25-.81.13-.41-.18-.81-.23-1.24-.13-.08.03-.13.08-.15.15l-.13.99c0,.08-.05.13-.13.13l-.94.23c-.08.03-.1.08-.13.13-.03.28-.15.48-.41.63-.1.05-.13.13-.1.23.25,1.19-1.24,2.26-2.33,1.83-.08-.03-.15,0-.23.05-.38.41-.84.51-1.37.33-.08-.03-.15-.08-.2-.15l-.05-.1c-.05-.08-.1-.13-.2-.13l-.91-.08c-.2-.03-.36-.2-.33-.41v-.03c.05-.3-.05-.48-.36-.53-.1-.03-.18-.13-.18-.23t.03-.05c.2-.48.46-.86.48-1.39.03-.48.05-.91.1-1.29.05-.33.33-.56.66-.53l3.6.25c.08,0,.15-.03.2-.1.84-1.24.18-1.72-.53-2.69-.05-.08-.13-.1-.2-.13-.48-.1-1.12-.05-1.01-.76,0-.1.08-.15.15-.15l1.8-.18c.08-.1.15-.15.23-.13,1.24-.51,2.18-1.34,3.07-2.54.56-.74,1.78-.84,2.66-.91.08,0,.13-.08.13-.13s-.03-.08-.05-.1l-.51-.41c-.08-.05-.1-.13-.08-.2.1-.36.08-.71-.05-1.07-.03-.08,0-.15.08-.2h.03l.3-.05c.05,0,.08-.05.08-.13,0-.03-.03-.05-.05-.08l-.25-.13c-.05-.03-.08-.1-.05-.15.03-.05.08-.08.13-.08.3.03.56-.03.81-.18.05-.03.1-.03.15.03.03.03.03.05,0,.08-.08.28-.03.53.13.76.03.05.03.13-.03.15-.03.03-.05.03-.08.03l-.2-.03c-.1-.03-.18.03-.2.13-.28.96.79,1.6,1.62,1.32.48-.18.86-.18.89.41,0,.08.08.15.15.13h.03c.15-.05.25-.15.3-.3.03-.05.08-.1.13-.13l1.9-.74c.05-.03.13,0,.18.03l.38.33s.08.05.1.05l1.83-.15c.13,0,.2-.13.2-.25,0-.05-.03-.13-.08-.15-.2-.15-.43-.23-.71-.23-.23,0-.41-.15-.43-.38-.03-.48.51-1.7,1.17-1.45.13.05.18.13.18.28,0,.08.03.13.1.18.2.13.36.08.43-.13.08-.18.1-.41.08-.71,0-.08-.05-.13-.1-.13l-.46-.1c-.23-.05-.36-.28-.3-.48.03-.13.13-.23.25-.28.66-.25,1.34-.33,2-.23.13.03.25.13.3.23.03.08-.03.15-.1.15h-.08c-.1.03-.15.08-.13.18.05.33.23.58.51.76.05.05.13.03.18-.03.03-.05.03-.1,0-.15-.61-.74,0-1.17.3-1.8.08-.15,0-.33-.15-.41-.05-.03-.13-.03-.18-.03-.86.13-1.65.28-2.38.48-1.7.43-2.23-1.47-2.08-2.76,0-.03.03-.08.05-.08l1.6-1.04c.08-.05.1-.13.08-.2-.03-.15-.03-.28,0-.41.13-.74-.71-.79-1.19-.76-.1,0-.15.05-.15.15l-.05.33c-.03.08-.05.15-.13.18l-.33.2c-.08.05-.08.13-.05.2.03.03.03.05.05.05l.18.1c.1.05.1.1.03.18l-1.37,1.12c-.08.05-.13.15-.13.23-.05.36-.25.56-.61.61-.1.03-.15.1-.15.2l.1.96c0,.1.05.18.13.23.33.23.56.56.61.99.03.13-.03.15-.15.13-.08-.03-.15-.03-.2.03-.03,0-.03.05-.03.08s.03.03.05.03l.53.05c.05,0,.1.05.1.1,0,.03-.03.08-.08.08-.53.2-.81.58-.91,1.17v.08l.25.43c.05.08.03.15-.03.2l-.68.86c-.05.05-.13.08-.2.03-.33-.23-.56-.15-.68.23-.03.08-.08.13-.15.18-.36.18-.63.13-.86-.18-.03-.05-.1-.05-.15-.03-.03.03-.05.05-.05.1.03.23-.1.33-.33.36-.15,0-.28-.1-.28-.25,0-.03,0-.08.03-.1.08-.23.25-.36.53-.33.2,0,.36-.15.38-.36,0-.15-.08-.28-.2-.33l-.28-.13c-.08-.03-.1-.08-.13-.15l-.66-1.67c-.03-.08-.08-.08-.13-.05-.58.2-1.07.56-1.39,1.07-.03.05-.1.08-.18.08-.81-.05-1.9-.91-1.27-1.75.05-.05.05-.15,0-.2l-.36-.56c-.03-.05-.03-.13.03-.15.03-.03.05-.03.08-.03.25.05.48.05.68-.05.08-.03.1-.13.08-.18s-.05-.08-.1-.08l-.74-.18c-.1-.03-.18-.13-.15-.25t.03-.05c.15-.36.38-.56.66-.58.58.05.91-.13.99-.48.38-.36,1.32-.3,1.39-.41.05-.05.03-.1-.05-.13l-.3-.08c-.05-.03-.1-.08-.08-.13,0-.03.03-.03.03-.05l1.24-1.27c.05-.05.08-.13.1-.18.13-.66.96-2.92,1.8-2.69.08.03.18-.03.2-.1.05-.1.03-.2-.08-.36.03-.05.03-.1,0-.15.18-.36.13-.58-.13-.74-.1-.05-.1-.13-.03-.2l.08-.08c.1-.1.18-.08.2.05l.08.18c.03.08.08.1.15.1.13,0,.2-.03.23-.13.91-.15,1.47-.53,1.67-1.09l.53.36c.1.05.15.05.2-.05l.51-1.01c.05-.1.13-.15.23-.2l.66-.2c.08-.03.15.03.18.1.03.05,0,.1-.03.15l-.28.25c-.08.05-.08.13-.03.2.1.18.23.18.36.05.05-.05.1-.13.13-.2.08-.33.28-.53.58-.66.08-.03.18,0,.23.1.03.05.03.1,0,.15l-.25.46c-.03.05-.03.15.05.18.03,0,.05.03.08.03h.36c.13,0,.18-.05.18-.18,0-.2.13-.3.38-.3.41.03.76.15,1.04.38.05.05.05.13.03.18-.03.03-.05.03-.08.05l-1.04.25c-.05.03-.1.08-.08.13,0,.03.03.05.08.08.53.23,1.07.23,1.6,0,.08-.03.15-.03.2.05l.25.33c.08.08.15.1.25.08,1.6-.38,2.84.81,4.16,1.32.08.03.13.08.15.18.08.2.2.38.38.51.05.03.08.1.03.15h0l-.53.81c-.05.05-.1.1-.18.1-1.17.25-2.23.1-3.25-.48-.18-.1-.33-.08-.43.08-.05.1-.03.2.08.25.03.03.05.03.08.03.71.08,1.19,1.7,1.5,2.28.03.08.1.1.18.1h1.5c.28,0,.3-.08.05-.23l-1.07-.63c-.1-.05-.13-.18-.08-.3.03-.05.08-.08.13-.1.38-.13.68-.03.86.28.05.08.1.15.2.18.33.18.61.15.86-.05.1-.08.1-.15.05-.25l-.28-.58c-.03-.08,0-.18.08-.2l.96-.61s.08-.03.13-.03l.66.2c.13.03.18,0,.2-.13.03-.46-.1-.89-.36-1.27-.03-.05-.05-.1-.03-.15l.08-.48c0-.08-.03-.13-.05-.18l-.38-.3c-.05-.05-.05-.13,0-.18.03-.03.05-.03.08-.05.61-.1,1.12.08,1.55.48.1.1.13.28,0,.38t-.05.05l-.23.15c-.1.08-.15.23-.08.36.03.03.05.05.08.08.36.2.74.2,1.09,0,.08-.05.13-.13.13-.23,0-.36.15-.53.51-.56.08,0,.15-.05.23-.1.46-.48.99-.86,1.57-1.12.25-.1.46-.38.84-.23.05.03.05.05.05.1,0,.03-.03.05-.05.05-.05,0-.08.03-.13.03-.15.03-.25.18-.23.36.03.15.18.25.36.23h0c.25-.05.46-.18.56-.41.05-.08.13-.13.2-.13.46.03.89-.08,1.27-.28h.2c.05.2.13.36.25.46.08.05.18.05.23-.03h0l.36-.53c.05-.08.03-.13-.03-.18-.18-.18-.25-.41-.23-.66,0-.08-.05-.13-.1-.15h-.43s-.05,0-.05-.03c-.23-.3-.41-.36-.51-.13h-.08l-.15-.28c-.08-.13-.03-.3.1-.38.08-.05.2-.05.28,0l.81.51s.05.03.08.03l1.14-.08c.1,0,.2.03.28.08.36.28.76.38,1.24.28.08-.03.15,0,.23.03.15.08.28.18.38.33.05.08.1.13.18.15l1.29.91Zm-14.48,20.54c.28.15.58.18.86.08h.1l.46.18c.1.05.2,0,.25-.1h0l.3-.89c.03-.1-.03-.23-.13-.25-.05-.03-.08-.03-.13,0-.46.13-1.62.33-1.83.76-.03.08.03.18.1.23Z"/>
    <path class="cls-1" d="m1.43,22.12c.15-.1.25-.25.33-.41.05-.08.1-.15.2-.18l.63-.23c.08-.03.18-.03.23.05l.38.33c.08.08.15.08.23-.03l.36-.38s.05-.03.08-.03l.94-.03c.08,0,.13.05.15.13.05.28.23.48.51.61.08.03.1.13.1.2-.33,1.12-1.65,1.67-2.66,1.83-.68.1-1.34-.25-2.13-.2-.1,0-.2,0-.25-.05-.1-.08-.13-.18-.08-.3.03-.1.1-.15.2-.13s.2-.03.3-.1c.18-.13.15-.23-.05-.28l-.53-.15c-.08-.03-.1-.08-.08-.15,0-.05.05-.08.08-.08l.61-.2c.08-.03.1-.1.08-.15,0-.03-.03-.05-.05-.08-.25-.13-.51-.18-.79-.1-.1.03-.2-.03-.2-.13-.03-.08.03-.15.08-.2l.84-.51c.13-.08.28-.03.36.08.03.03.03.05.03.1l.13.79c-.08,0-.05,0,0-.03Z"/>
  </g>
</svg>