<?xml version="1.0" encoding="UTF-8"?>
<svg id="Camada_1" data-name="Camada 1" xmlns="http://www.w3.org/2000/svg" viewBox="0 0 47.96 40.03">
  <defs>
    <style>
      .cls-1 {
        fill: #a28e86;
      }
    </style>
  </defs>
  <path class="cls-1" d="m32.47.63c-.33.03-.6-.03-.9-.15-.12-.03-.18-.18-.12-.27s.18-.18.27-.12c.42.12.78.3,1.11.57.06.03.09.09.09.18s.03.15.03.21c0,.09-.03.09-.06.03l-.18-.3c-.06-.09-.15-.15-.24-.15Z"/>
  <path class="cls-1" d="m29.99,2.31c-.12.03-.21,0-.27-.15-.03-.06,0-.12.06-.12h.06c.96.3,1.74.09,2.34-.63.03-.03.09-.06.15,0,.03,0,.03.03.03.06.3,1.23-1.71,1.02-2.37.84Z"/>
  <ellipse class="cls-1" cx="34.96" cy="2.58" rx=".24" ry=".51" transform="translate(7.67 24.58) rotate(-43.1)"/>
  <path class="cls-1" d="m36.3,3.02c.15-.03.24.06.27.27,0,.06-.03.12-.09.12-.03,0-.09,0-.09-.03l-.3-.42s0-.06.03-.06h.06l.12.12s-.03,0,0,0Z"/>
  <path class="cls-1" d="m46.49,31.71c.06.42-.12.66-.54.75-.12.03-.21.09-.27.18-.36.6-.84,1.02-1.5,1.29-.12.06-.24,0-.3-.12-.03-.09,0-.21.09-.27.39-.3.6-.69.54-1.23,0-.06-.03-.15-.09-.18l-.48-.36c-.09-.06-.12-.21-.03-.3.03-.03.06-.06.09-.06l.78-.33c.06-.03.12-.09.15-.18l.3-1.05c.03-.09,0-.15-.03-.24-.33-.57-.18-2.43-.18-3.11,0-.06.06-.12.12-.12s.09.03.09.06c.27.87.36,1.74.3,2.61,0,.12.09.24.21.24.09,0,.18-.03.21-.12l.21-.33c.03-.06.12-.09.21-.03.03.03.06.06.06.12v1.02c0,.09.06.15.15.18l1.08.15c.21.03.33.21.3.39,0,.12-.09.21-.18.27-.24.12-.45.33-.6.57-.06.09-.12.12-.24.09l-.3-.12c-.09-.03-.18,0-.21.09.06.09.06.12.06.15Z"/>
  <g>
    <path class="cls-1" d="m23.67,0c.81.33,1.56.57,2.25.81.84.27,1.32.87,1.95,1.44l.03.03,1.08.42c.06.03.09.09.06.18-.03.03-.06.06-.09.09l-.54.15c-.06.03-.09.06-.06.12,0,.03.03.06.09.06.51.03.75.3.66.87-.03.09.03.21.15.24.63.24,1.14.6,1.53,1.14.06.06.03.09-.06.09-1.5-.03-2.64-.69-3.47-1.92-.06-.09-.12-.15-.21-.18-.48-.27-.9-.18-1.23.21-.06.06-.15.12-.24.15l-.51.12c-.09.03-.12.09-.09.18v.03l.21.42c.03.09,0,.21-.09.24-.03.03-.09.03-.12,0l-1.41-.33.12-4.55Z"/>
    <path class="cls-1" d="m18.16,23.81c-.87.06-1.44.51-1.74,1.29-.03.12-.12.15-.21.06l-.63-.39c-.09-.06-.12-.15-.06-.24l.27-.48c.03-.06.03-.15,0-.24-.3-.63-.72-1.14-1.26-1.56-.09-.06-.18-.09-.27-.09h-1.29c-.09,0-.21-.06-.27-.15-.18-.27-.42-.39-.72-.33-1.47.36-3.2.54-4.55,1.2-.72.36-1.17.75-2.01.78-1.14.03-2.75-.12-3.08.66-.03.09-.12.15-.24.18-.42.03-2.34-.27-1.92-1.14.06-.12.03-.21-.03-.3-.3-.48-.18-.81.36-.99.12-.03.18-.12.18-.24-.03-1.92-.75-3.62-.51-5.54.21-2.01,1.47-3.35,3.53-3.44,1.32-.06,2.22-.57,3.41-.9.6-.18.81-.6.69-1.26-.06-.24.09-.48.33-.54.09-.03.21,0,.3.03l.6.33c.09.06.15.03.21-.06.42-.57,1.08-.99,1.02-1.74,0-.09.06-.21.15-.24.27-.12.51-.3.66-.57.03-.06.09-.09.18-.12,1.65-.36,1.56,2.31,3.5.99.12-.06.15-.21.06-.33-.03-.06-.09-.09-.12-.09l-.36-.12s-.06-.06-.06-.09.03-.06.06-.06c.6-.09.81-.45.66-1.08-.03-.09.03-.18.12-.18h1.14c.12,0,.21-.06.24-.18.06-.15.03-.24-.09-.33-.18-.15-.54-.09-.72-.24-.09-.09-.09-.21-.03-.3s.18-.09.27-.06l1.47.69c.09.06.21.06.33.06.36-.03.63.12.78.48.03.09.15.15.24.12l.75-.27c.09-.03.18,0,.24.12v.06c.03.6-.21,1.02-.72,1.29-.12.06-.15.15-.12.3.42.96,1.14,1.29,2.16,1.05.09-.03.21.03.24.15l.24.78c.03.09.09.15.21.18.9.24,1.47-.12,1.71-1.05.33-1.32.48-2.49.39-3.53,0-.09.03-.15.12-.18.75-.24,1.11.12,1.26.84.15.63.48,1.17.96,1.62.09.09.12.18.15.27l.45,3.11c0,.09.06.15.12.21,2.52,2.25,4.16,4.37,4.52,7.73,0,.09-.03.18-.06.27-.6.69-1.05,1.47-1.35,2.31-.75,1.95-2.55,3.86-4.01,5.3-.06.06-.09.12-.06.21l.06.33c.03.12-.06.21-.15.24h-.03c-.6.03-1.2.12-1.8.3-.03,0-.06.03-.09.06l-.48.6c-.06.09-.18.09-.24.03l-.03-.03c-.66-.87-1.32-.93-2.37-.57-.93.3-2.4-.45-1.71-1.62.06-.12.03-.24-.06-.33-.39-.33-.87-.51-1.38-.6-.15-.03-.18-.09-.15-.24l.12-.33c.03-.06-.03-.15-.09-.18h-.03l-.36-.06c-.12,0-.18-.12-.15-.21,0-.03.03-.09.06-.12l1.14-1.17s.03-.09,0-.12c0,0-.03,0-.06,0Z"/>
    <path class="cls-1" d="m40.53,12.79l2.19,1.86c.09.06.09.21.03.27l-.03.03c-.06.09-.21.09-.27.03l-2.19-1.86c-.09-.06-.09-.21-.03-.27l.03-.03c.06-.09.18-.09.27-.03Z"/>
    <ellipse class="cls-1" cx="21.09" cy="30.16" rx=".27" ry=".21" transform="translate(-15.71 29.75) rotate(-54.4)"/>
    <path class="cls-1" d="m22.26,31.8l1.38-.18c.09,0,.18-.09.18-.18l.24-.93c.03-.06.09-.09.15-.06.06.03.12.12.09.18h0c-.39,1.53-1.23,2.75-2.49,3.68-.12.09-.3.06-.39-.06-.03-.03-.06-.09-.06-.15l-.15-2.22c0-.09-.03-.18-.09-.27l-.18-.21c-.09-.12-.06-.21.09-.27.51-.15.84.03,1.05.51,0,.15.09.18.18.15Z"/>
    <path class="cls-1" d="m42.95,33.48l.36.18c.09.03.12.15.09.24h0c-.15.27-.3.48-.54.69-.09.09-.15.15-.18.27-.36.81-1.2,1.02-1.71,1.5-1.23,1.14-2.46,2.31-3.62,3.47-.06.06-.18.06-.24,0l-.03-.03c-.24-.51-.63-.84-1.17-1.02-.09-.03-.15-.09-.12-.21.57-2.64,3.83-2.28,5.33-4.34.42-.57.9-1.05,1.47-1.44.06-.03.15-.03.18.03,0,.03.03.03.03.06v.36c.03.12.06.21.15.24Z"/>
    <path class="cls-1" d="m36.1,39.44s.06-.06.09-.03c.03,0,.03.03.03.06.03.21-.03.39-.18.54-.03.03-.09.03-.12,0-.03-.03-.03-.06-.03-.12l.21-.45Z"/>
  </g>
</svg>