<?xml version="1.0" encoding="utf-8"?>
<!-- Generator: Adobe Illustrator 27.4.1, SVG Export Plug-In . SVG Version: 6.00 Build 0)  -->
<svg version="1.1" id="Camada_1" xmlns="http://www.w3.org/2000/svg" xmlns:xlink="http://www.w3.org/1999/xlink" x="0px" y="0px"
	 viewBox="0 0 1000 600" style="enable-background:new 0 0 1000 600;" xml:space="preserve">
<style type="text/css">
	.st0{fill:#2AB297;}
	.st1{fill:#F2F2F2;}
	.st2{fill:#EC6B56;}
	.st3{fill:#53ACD1;}
	.st4{fill:#8E65A8;}
	.st5{fill:#FEFEFE;}
	.st6{fill:#A28E85;}
	.st7{fill:#F6DA64;}
</style>
<path class="st0" d="M573.9,105.5c0.1-0.2,0.4-0.3,0.7-0.1c0.1,0.1,0.2,0.2,0.2,0.4v2c0,0.2-0.2,0.4-0.4,0.4c-0.1,0-0.2-0.1-0.3-0.2
	C573.4,107.2,573.3,106.3,573.9,105.5z"/>
<path class="st0" d="M586.1,107.7c-0.5,0.5-0.8,0.4-0.9-0.3l-0.2-1.7c-0.1-0.3,0.2-0.7,0.5-0.7c0.2,0,0.4,0,0.5,0.2
	C587,106,587,106.9,586.1,107.7z"/>
<path class="st0" d="M572.6,113.1l0.2,0.6c0,0.1,0,0.2-0.1,0.2c-0.1,0-0.1,0-0.2-0.1c-0.5-1.1-0.6-2-0.4-2.8
	c0.2-0.6,0.7-0.8,1.4-0.5c0.3,0.1,0.6,0.1,0.9,0l2-1.1c0.6-0.4,0.8-0.2,0.5,0.5l-0.3,0.7c-0.1,0.3-0.4,0.5-0.7,0.5
	c-1.1,0-2.1,0.4-3,1.3C572.5,112.5,572.5,112.8,572.6,113.1z"/>
<path class="st0" d="M565,115.8l-1.4,2.9c-0.1,0.3-0.5,0.4-0.8,0.3c-0.1,0-0.1-0.1-0.2-0.1c-1.4-1.4-1.5-2.8-0.1-4.2l1,0
	c0.3,0,0.6-0.3,0.5-0.6c0,0,0-0.1,0-0.1c-0.2-1.3,0.2-2.1,1.4-2.3c0.6-0.1,1.2,0.2,1.3,0.8c0.1,0.3,0,0.6-0.2,0.9L565,115.8z"/>
<path class="st0" d="M562.6,114.2c-1.2-0.9-3.9-0.7-3.6,1.5c0,0.3-0.1,0.5-0.4,0.6c0,0-0.1,0-0.1,0c-0.3,0-0.8-0.2-1.3-0.4
	c0.1-2.8,2-3.7,5.8-2.6c0.2,0.1,0.4,0.3,0.3,0.5c0,0,0,0.1-0.1,0.1C563,114.2,562.8,114.3,562.6,114.2z"/>
<path class="st0" d="M582.5,115.7c0.2-0.2,0.5-0.2,0.7,0.1c0.2,0.3,0.1,0.6-0.1,0.9l0,0c-0.2,0.2-0.5,0.4-0.7,0.4
	c-0.3,0.1-0.5-0.1-0.6-0.4c0-0.2,0-0.4,0.2-0.5L582.5,115.7z"/>
<path class="st0" d="M565.5,116l4.2,2.8C567.5,119,566.1,118.1,565.5,116z"/>
<path class="st0" d="M528.9,125.4c-0.7,1.4-1.7,2.2-3.4,2c-5-0.4-7.1-0.5-9.6-5.2c0.7-1.2,2.2-1.2,4.7-0.3c0.3,0.1,0.6,0.1,0.9-0.1
	C524.2,120.1,530.2,121.2,528.9,125.4z"/>
<path class="st0" d="M502.9,133.6l-0.5-1c-0.1-0.2,0-0.5,0.2-0.7c0.2-0.1,0.4-0.1,0.6,0.1c0.3,0.3,0.6,0.7,0.8,1.1
	c0.1,0.3,0,0.6-0.3,0.8S503,133.9,502.9,133.6L502.9,133.6z"/>
<path class="st1" d="M509.4,135.2c-0.1,0-0.2,0-0.2-0.1l0-0.1c-0.3-0.6,0.3-1.6,1.3-2.1l0.3-0.2c1.1-0.5,2.2-0.4,2.5,0.2l0,0.1
	c0,0.1,0,0.2-0.1,0.2L509.4,135.2z"/>
<path class="st2" d="M621,153.2c-0.2,0.1-0.4,0-0.6-0.1l0-0.1c-0.5-0.8-0.3-1.8,0.3-2.2l0.3-0.1c0.7-0.4,1.6-0.1,2.1,0.8
	c0,0,0,0,0,0l0,0.1c0.1,0.2,0.1,0.4-0.1,0.6L621,153.2z"/>
<path class="st3" d="M108.6,158.7c-1.7-0.9-2.1-2.2-1.2-3.9c0.5-1.1,1.9-1.5,3-1c0.5,0.3,0.9,0.7,1.1,1.3c0.4,1.2,1.1,2.2,2,3
	c0.2,0.2,0.2,0.4,0.1,0.6c-0.1,0.2-0.4,0.2-0.6,0.1c-1.1-0.6-2.2-0.6-3.3-0.1C109.3,158.9,108.9,158.9,108.6,158.7z"/>
<path class="st1" d="M436.6,172.9c0-0.2-0.2-0.1-0.5,0.1c-0.5-1.2-0.7-2.3-0.7-3.4c0-0.7,0.2-0.7,0.6-0.2
	C436.5,170.2,436.7,171.4,436.6,172.9z"/>
<path class="st1" d="M606.7,176.2c0.2-0.5,0.3-1.1,0.3-1.7c0-0.3-0.2-0.6-0.4-0.8c-0.8-0.7-1.5-1.5-2-2.4c0.4-0.8,1.1-0.6,2,0.5
	c0.1,0.1,0.1,0.1,0.2,0.1h1.6c0.3,0,0.5,0.2,0.5,0.5c0,0,0,0,0,0.1c-0.1,1,0.2,1.9,0.9,2.6c0.2,0.2,0.2,0.4,0.1,0.7l-1.4,2.1
	c-0.2,0.3-0.6,0.3-0.8,0.2c0,0,0,0,0,0C607.2,177.6,606.9,177,606.7,176.2z"/>
<path class="st3" d="M604.3,171.2h0.3c0.5,0.9,1.1,1.7,2,2.4c0.2,0.2,0.4,0.5,0.4,0.8c0.1,0.6,0,1.2-0.3,1.7H606l0.7-1.1
	c0.2-0.3,0.1-0.6-0.2-0.8C605.2,173.8,604.5,172.7,604.3,171.2z"/>
<path class="st3" d="M529.1,173.3c0.2-0.6,0.6-0.9,1.1-1c0.4-0.1,0.7,0.2,0.8,0.6c0,0.3-0.1,0.7-0.5,0.8l-0.7,0.3
	c-0.3,0.1-0.6,0-0.7-0.3C529.1,173.5,529.1,173.4,529.1,173.3z"/>
<path class="st1" d="M528.4,174.9c-0.8,2.3-3,3.7-6.6,4.3C521.2,174.9,525.1,174.6,528.4,174.9z"/>
<ellipse transform="matrix(0.9952 -9.758290e-02 9.758290e-02 0.9952 -14.4192 58.0383)" class="st0" cx="586.1" cy="176.4" rx="1.9" ry="1.6"/>
<path class="st2" d="M860.7,181.7c0.1-0.9,0.6-1.4,1.6-1.4c0.3,0,0.4,0.1,0.4,0.4l-0.2,3.3c0,0.2-0.1,0.3-0.3,0.2
	C861.1,183.5,860.6,182.7,860.7,181.7z"/>
<path class="st3" d="M519.4,182.5c0.1,0.2,0.1,0.4,0,0.6c-0.8-0.3-1.5-0.2-2.3,0.2c-0.3,0.2-0.5,0.1-0.7-0.2l-1.2-1.6
	c-0.2-0.2-0.1-0.4,0.1-0.5l1-0.6c0.4-0.2,0.6-0.1,0.7,0.3C517.3,182.2,518.1,182.8,519.4,182.5z"/>
<ellipse transform="matrix(0.8241 -0.5664 0.5664 0.8241 -14.2142 323.1628)" class="st3" cx="513.3" cy="184.5" rx="1.5" ry="0.4"/>
<g>
	<path class="st0" d="M596.5,148.9l-1.8,8.5c-0.1,0.3,0,0.7,0.1,1c0.7,1.5,1.2,3,1.4,4.6c0,0.3,0.2,0.6,0.5,0.8
		c1.6,1.1,2.8,2.6,3.6,4.6c0.1,0.3,0,0.7-0.4,0.9c-0.1,0-0.2,0.1-0.4,0l-5.7-1c-0.4-0.1-0.7-0.3-0.8-0.7c-0.7-2-2-2.5-4-1.8
		c-0.3,0.1-0.7,0.1-1-0.2l-1.7-1.7c-0.3-0.3-0.3-0.7,0-1l1.8-2.1c0.2-0.3,0.3-0.6,0.2-1c-0.9-3-0.4-5.8,1.2-8.5
		c0.2-0.3,0.2-0.6,0.1-0.9c-0.5-1.3-2.8-4.4-0.3-5.2c1.3-0.4,1.9-0.7,2.3-2c1.4-2.9,2.7-4.7,6-5.7c3.1-1,5.5-1.3,7.3-4.8
		c0.1-0.3,0.4-0.5,0.7-0.6c1.7-0.7,3.1-0.6,4.2,0.3c1.1,0.9,0.9,2-0.5,3.1C603.7,139.9,600.2,141.4,596.5,148.9z"/>
	<g>
		<path class="st0" d="M578.6,114c-0.6,0.3-0.9,0.8-0.9,1.5c0,0.3-0.2,0.5-0.5,0.5c-0.1,0-0.2,0-0.3-0.1l-1-0.6
			c-0.4-0.3-0.4-0.4,0.1-0.5c0.8-0.1,1.4-0.5,1.9-1.2c0.2-0.3,0.5-0.4,0.8-0.4c2,0.2,2.9-0.7,2.7-2.7c0-0.3,0.1-0.5,0.5-0.5l0.7-0.1
			c0.3,0,0.6-0.3,0.5-0.6c0-0.1,0-0.2-0.1-0.3c-0.6-0.9-1.3-0.9-1.9-0.1c-0.1,0.1-0.3,0.2-0.4,0.1c-0.1-0.1-0.1-0.2-0.1-0.3
			c0-0.7,0.3-1.1,0.9-1.2c0.3-0.1,0.6,0,0.9,0.2l1.5,1.4c0.2,0.2,0.2,0.4,0,0.7l-0.4,0.4c-0.4,0.4-0.3,0.7,0.2,0.9
			c0.2,0.1,0.4,0.1,0.6,0.2c0.4,0.1,0.6,0.6,0.4,1c-0.1,0.3-0.5,0.5-0.8,0.5c-2.3-0.5-3.7,0.4-4.1,2.5c0,0.2-0.2,0.3-0.4,0.2
			c-0.1,0-0.2-0.2-0.2-0.3l0.1-0.9c0-0.2-0.1-0.4-0.3-0.4C578.8,114,578.7,114,578.6,114z"/>
		<path class="st0" d="M511.5,123.8l15.7,12.4c0.3,0.2,0.3,0.6,0.1,0.9c0,0,0,0,0,0.1c-1.3,1.4-2.9,2.3-4.8,2.7
			c-0.4,0.1-0.7-0.1-0.8-0.5c0-0.1,0-0.2,0-0.3l0.7-4.1c0-0.2,0-0.4-0.2-0.5l-3.4-2.4c-0.3-0.2-0.8-0.2-1,0.2
			c-0.1,0.1-0.1,0.2-0.1,0.3l-1.4,12c-0.1,0.5-0.5,0.8-0.9,0.7c-0.2,0-0.4-0.1-0.6-0.3l-4.7-6.3c-0.2-0.2-0.1-0.6,0.1-0.8
			c0.1-0.1,0.2-0.1,0.3-0.1h1.1c0.2,0,0.3-0.1,0.3-0.3c0-0.1-0.1-0.3-0.2-0.3l-1.6-0.4c-0.3-0.1-0.5-0.2-0.7-0.4
			c-2.3-2.3-4.1-4.9-5.4-7.8c-1.1-2.5-0.3-3.8,2.4-4c0.4,0,0.7,0.2,0.8,0.6l0.2,0.9c0.1,0.2,0.3,0.3,0.5,0.3c0,0,0,0,0,0l0.8-0.3
			c0.4-0.1,0.8-0.1,1.1,0.1c0.6,0.3,0.9,0.9,0.7,1.7c-0.1,0.4,0.1,0.7,0.4,0.9l0.3,0.3c0.5,0.4,0.6,0.3,0.5-0.3
			C511.1,126.5,511.1,124.8,511.5,123.8z M509.4,135.2l3.8-1.9c0.1,0,0.1-0.2,0.1-0.2l0-0.1c-0.3-0.6-1.4-0.7-2.5-0.2l-0.3,0.2
			c-1.1,0.5-1.7,1.5-1.3,2.1l0,0.1C509.2,135.2,509.4,135.2,509.4,135.2z"/>
		<path class="st0" d="M627.3,177c0.9,1.2,1,2.5,0.2,3.9c-0.2,0.3-0.4,0.6-0.8,0.8c-1.2,0.6-1.9,1.5-2.1,2.8c0,0.4,0.1,0.8,0.5,1
			l1.8,1.1c0.7,0.4,0.9,1.3,0.4,2c-0.1,0.1-0.1,0.2-0.2,0.3c-1.7,1.6-2.3,2.8-2.3,5.3c0,4.6-2,8.1-2.1,12.6c0,0.4-0.3,0.7-0.7,0.8
			l-4.8,0.7c-0.3,0-0.6,0.3-0.6,0.6l-0.2,1.9c-0.1,0.4,0.2,0.8,0.6,0.9c1.5,0.4,2.4,1.3,2.8,2.6c0.1,0.3,0.1,0.7-0.1,1
			c-1.1,2-2.1,4.6-3.1,7.9c-1,3.3-6,1.5-8.4,1.1c-0.6-0.1-1.2,0.3-1.3,0.9c0,0.2,0,0.5,0.1,0.7l2.3,4.1c0.1,0.2,0.1,0.5,0,0.7
			l-1.5,2.1c-0.1,0.1-0.1,0.3-0.1,0.4c0,2-0.7,3.7-2,5.1c-0.3,0.3-0.3,0.6-0.2,1c0.9,2.4-1.5,2.8-2.4,4.5c-0.1,0.3-0.1,0.6,0.1,0.8
			l3.3,3.9c0.2,0.3,0.2,0.7-0.1,1c-0.1,0.1-0.2,0.1-0.4,0.2l-8.3,0.8c-1,0.1-1.7,0.9-1.6,1.9c0.1,0.7,0.5,1.3,1.2,1.5
			c2.2,0.8,4.2,1.9,6,3.3c0.3,0.3,0.4,0.6,0.2,1c-1.2,1.9-2,4-2.4,6.2c-0.1,0.4-0.3,0.7-0.5,0.9c-4.8,3.8-6.7,6.1-13.4,5.1l0.3-4.4
			c0-0.3-0.1-0.6-0.5-0.7c-3.8-1.4-7.4-3.2-10.8-5.5c-0.2-0.2-0.5-0.3-0.8-0.3c-2.3-0.1-4.5,0.5-6.4,1.6c-0.7,0.4-1.6,0.2-2.1-0.5
			c-0.1-0.1-0.1-0.2-0.1-0.3c-0.7-2-1.9-3.7-3.7-5.1c-0.7-0.6-1.8-0.4-2.4,0.3c0,0,0,0,0,0l-3.3,4.4c-0.1,0.2-0.3,0.3-0.5,0.4
			c-0.9,0.4-1.4,1.1-1.5,2.1c0,0.4-0.1,0.8-0.3,1.1l-1.5,2.5c-0.2,0.3-0.3,0.7-0.2,1.1c0.4,1.5,1.2,2.5,2.6,3
			c0.2,0.1,0.4,0.3,0.3,0.6c-0.1,0.2-0.3,0.3-0.5,0.3c-1.5-0.2-2.8,0.3-3.9,1.4c-0.3,0.3-0.6,0.4-1,0.5c-0.7-3.5-4.9-0.9-6.1,0.6
			c-0.2,0.3-0.7,0.4-1,0.3l-1.9-0.7c-0.2-0.1-0.3,0-0.4,0.2c0,0.1,0,0.1,0,0.2c0.7,2.4,1.9,4.3,3.7,5.8c0.2,0.2,0.3,0.5,0.1,0.7
			c-0.1,0.1-0.2,0.2-0.4,0.2l-1.6,0.1c-0.3,0-0.6,0.3-0.6,0.6c-0.1,0.8-0.6,1.4-1.2,1.9c-0.7,0.5-1.6,0.4-2.1-0.3
			c-0.4-0.5-0.4-1.3-0.1-1.8l0.6-0.9c0.2-0.4,0.1-0.5-0.3-0.6c-1.3-0.1-2.4-0.7-3.2-1.8c-0.2-0.2-0.3-0.5-0.3-0.8
			c-0.1-1.6-1-2.6-2.6-2.9c-0.3-0.1-0.5-0.3-0.5-0.6l-0.2-3.1c0-0.3-0.1-0.6-0.4-0.8c-4.3-4.4-10.3-5.9-14.9-10.2
			c-0.2-0.2-0.5-0.3-0.8-0.2c-1.1,0.2-1.9,0.8-2.5,1.8c-0.3,0.4-0.2,0.8,0.2,1.1c1.6,1.3,3.2,2.5,4.8,3.8c3.3,2.8,7.2,4.6,10.8,7
			c0.3,0.2,0.4,0.4,0.5,0.5c0,0.1,0,0.3,0,0.4c-0.1,0.2-0.3,0.4-0.6,0.3l-1.6-0.5c-0.5-0.1-0.7,0-0.6,0.5l0.4,2.7c0,0.4,0,0.7-0.2,1
			c-0.7,1-1.6,1.6-2.8,1.9c-0.5,0.1-0.6-0.1-0.4-0.5c1.1-2.7,0.5-4.5-2.2-5.8c-5.3-2.5-9.9-6-13.9-10.3c-0.2-0.3-0.5-0.4-0.9-0.3
			c-2.2,0.2-4.1,1.1-5.7,2.6c-0.9,0.8-2.1,1-3.2,0.5c-1.6-0.7-3.2-0.9-4.9-0.5c-0.3,0.1-0.5,0.3-0.6,0.6l-0.5,3.9
			c0,0.3-0.2,0.5-0.5,0.5l-3.7,0.9c-0.3,0.1-0.4,0.3-0.5,0.5c-0.1,1.1-0.6,1.9-1.6,2.5c-0.4,0.2-0.5,0.5-0.4,0.9
			c1,4.7-4.9,8.9-9.2,7.2c-0.3-0.1-0.6,0-0.9,0.2c-1.5,1.6-3.3,2-5.4,1.3c-0.3-0.1-0.6-0.3-0.8-0.6l-0.2-0.4
			c-0.2-0.3-0.4-0.5-0.8-0.5l-3.6-0.3c-0.8-0.1-1.4-0.8-1.3-1.6c0,0,0-0.1,0-0.1c0.2-1.2-0.2-1.9-1.4-2.1c-0.4-0.1-0.7-0.5-0.7-0.9
			c0-0.1,0-0.1,0.1-0.2c0.8-1.9,1.8-3.4,1.9-5.5c0.1-1.9,0.2-3.6,0.4-5.1c0.2-1.3,1.3-2.2,2.6-2.1l14.2,1c0.3,0,0.6-0.1,0.8-0.4
			c3.3-4.9,0.7-6.8-2.1-10.6c-0.2-0.3-0.5-0.4-0.8-0.5c-1.9-0.4-4.4-0.2-4-3c0-0.4,0.3-0.6,0.6-0.6l7.1-0.7c0.3-0.4,0.6-0.6,0.9-0.5
			c4.9-2,8.6-5.3,12.1-10c2.2-2.9,7-3.3,10.5-3.6c0.3,0,0.5-0.3,0.5-0.5c0-0.2-0.1-0.3-0.2-0.4l-2-1.6c-0.3-0.2-0.4-0.5-0.3-0.8
			c0.4-1.4,0.3-2.8-0.2-4.2c-0.1-0.3,0-0.6,0.3-0.8c0,0,0.1,0,0.1,0l1.2-0.2c0.2,0,0.3-0.2,0.3-0.5c0-0.1-0.1-0.2-0.2-0.3l-1-0.5
			c-0.2-0.1-0.3-0.4-0.2-0.6c0.1-0.2,0.3-0.3,0.5-0.3c1.2,0.1,2.2-0.1,3.2-0.7c0.2-0.1,0.4-0.1,0.6,0.1c0.1,0.1,0.1,0.2,0,0.3
			c-0.3,1.1-0.1,2.1,0.5,3c0.1,0.2,0.1,0.5-0.1,0.6c-0.1,0.1-0.2,0.1-0.3,0.1l-0.8-0.1c-0.4-0.1-0.7,0.1-0.8,0.5
			c-1.1,3.8,3.1,6.3,6.4,5.2c1.9-0.7,3.4-0.7,3.5,1.6c0,0.3,0.3,0.6,0.6,0.5c0,0,0.1,0,0.1,0c0.6-0.2,1-0.6,1.2-1.2
			c0.1-0.2,0.3-0.4,0.5-0.5l7.5-2.9c0.2-0.1,0.5,0,0.7,0.1l1.5,1.3c0.1,0.1,0.3,0.2,0.4,0.2l7.2-0.6c0.5,0,0.8-0.5,0.8-1
			c0-0.2-0.1-0.5-0.3-0.6c-0.8-0.6-1.7-0.9-2.8-0.9c-0.9,0-1.6-0.6-1.7-1.5c-0.1-1.9,2-6.7,4.6-5.7c0.5,0.2,0.7,0.5,0.7,1.1
			c0,0.3,0.1,0.5,0.4,0.7c0.8,0.5,1.4,0.3,1.7-0.5c0.3-0.7,0.4-1.6,0.3-2.8c0-0.3-0.2-0.5-0.4-0.5l-1.8-0.4
			c-0.9-0.2-1.4-1.1-1.2-1.9c0.1-0.5,0.5-0.9,1-1.1c2.6-1,5.3-1.3,7.9-0.9c0.5,0.1,1,0.5,1.2,0.9c0.1,0.3-0.1,0.6-0.4,0.6l-0.3,0
			c-0.4,0.1-0.6,0.3-0.5,0.7c0.2,1.3,0.9,2.3,2,3c0.2,0.2,0.5,0.1,0.7-0.1c0.1-0.2,0.1-0.4,0-0.6c-2.4-2.9,0-4.6,1.2-7.1
			c0.3-0.6,0-1.3-0.6-1.6c-0.2-0.1-0.5-0.1-0.7-0.1c-3.4,0.5-6.5,1.1-9.4,1.9c-6.7,1.7-8.8-5.8-8.2-10.9c0-0.1,0.1-0.3,0.2-0.3
			l6.3-4.1c0.3-0.2,0.4-0.5,0.3-0.8c-0.1-0.6-0.1-1.1,0-1.6c0.5-2.9-2.8-3.1-4.7-3c-0.4,0-0.6,0.2-0.6,0.6l-0.2,1.3
			c-0.1,0.3-0.2,0.6-0.5,0.7l-1.3,0.8c-0.3,0.2-0.3,0.5-0.2,0.8c0.1,0.1,0.1,0.2,0.2,0.2l0.7,0.4c0.4,0.2,0.4,0.4,0.1,0.7l-5.4,4.4
			c-0.3,0.2-0.5,0.6-0.5,0.9c-0.2,1.4-1,2.2-2.4,2.4c-0.4,0.1-0.6,0.4-0.6,0.8l0.4,3.8c0,0.4,0.2,0.7,0.5,0.9
			c1.3,0.9,2.2,2.2,2.4,3.9c0.1,0.5-0.1,0.6-0.6,0.5c-0.3-0.1-0.6-0.1-0.8,0.1c-0.1,0-0.1,0.2-0.1,0.3c0,0.1,0.1,0.1,0.2,0.1
			l2.1,0.2c0.2,0,0.4,0.2,0.4,0.4c0,0.1-0.1,0.3-0.3,0.3c-2.1,0.8-3.2,2.3-3.6,4.6c0,0.1,0,0.2,0,0.3l1,1.7c0.2,0.3,0.1,0.6-0.1,0.8
			l-2.7,3.4c-0.2,0.2-0.5,0.3-0.8,0.1c-1.3-0.9-2.2-0.6-2.7,0.9c-0.1,0.3-0.3,0.5-0.6,0.7c-1.4,0.7-2.5,0.5-3.4-0.7
			c-0.1-0.2-0.4-0.2-0.6-0.1c-0.1,0.1-0.2,0.2-0.2,0.4c0.1,0.9-0.4,1.3-1.3,1.4c-0.6,0-1.1-0.4-1.1-1c0-0.1,0-0.3,0.1-0.4
			c0.3-0.9,1-1.4,2.1-1.3c0.8,0,1.4-0.6,1.5-1.4c0-0.6-0.3-1.1-0.8-1.3l-1.1-0.5c-0.3-0.1-0.4-0.3-0.5-0.6l-2.6-6.6
			c-0.1-0.3-0.3-0.3-0.5-0.2c-2.3,0.8-4.2,2.2-5.5,4.2c-0.1,0.2-0.4,0.3-0.7,0.3c-3.2-0.2-7.5-3.6-5-6.9c0.2-0.2,0.2-0.6,0-0.8
			l-1.4-2.2c-0.1-0.2-0.1-0.5,0.1-0.6c0.1-0.1,0.2-0.1,0.3-0.1c1,0.2,1.9,0.2,2.7-0.2c0.3-0.1,0.4-0.5,0.3-0.7
			c-0.1-0.2-0.2-0.3-0.4-0.3l-2.9-0.7c-0.4-0.1-0.7-0.5-0.6-1c0-0.1,0-0.1,0.1-0.2c0.6-1.4,1.5-2.2,2.6-2.3c2.3,0.2,3.6-0.5,3.9-1.9
			c1.5-1.4,5.2-1.2,5.5-1.6c0.2-0.2,0.1-0.4-0.2-0.5l-1.2-0.3c-0.2-0.1-0.4-0.3-0.3-0.5c0-0.1,0.1-0.1,0.1-0.2l4.9-5
			c0.2-0.2,0.3-0.5,0.4-0.7c0.5-2.6,3.8-11.5,7.1-10.6c0.3,0.1,0.7-0.1,0.8-0.4c0.2-0.4,0.1-0.8-0.3-1.4c0.1-0.2,0.1-0.4,0-0.6
			c0.7-1.4,0.5-2.3-0.5-2.9c-0.4-0.2-0.4-0.5-0.1-0.8l0.3-0.3c0.4-0.4,0.7-0.3,0.8,0.2l0.3,0.7c0.1,0.3,0.3,0.4,0.6,0.4
			c0.5,0,0.8-0.1,0.9-0.5c3.6-0.6,5.8-2.1,6.6-4.3l2.1,1.4c0.4,0.2,0.6,0.2,0.8-0.2l2-4c0.2-0.4,0.5-0.6,0.9-0.8l2.6-0.8
			c0.3-0.1,0.6,0.1,0.7,0.4c0.1,0.2,0,0.4-0.1,0.6l-1.1,1c-0.3,0.2-0.3,0.5-0.1,0.8c0.4,0.7,0.9,0.7,1.4,0.2
			c0.2-0.2,0.4-0.5,0.5-0.8c0.3-1.3,1.1-2.1,2.3-2.6c0.3-0.1,0.7,0,0.9,0.4c0.1,0.2,0.1,0.4,0,0.6l-1,1.8c-0.1,0.2-0.1,0.6,0.2,0.7
			c0.1,0,0.2,0.1,0.3,0.1h1.4c0.5,0,0.7-0.2,0.7-0.7c0-0.8,0.5-1.2,1.5-1.2c1.6,0.1,3,0.6,4.1,1.5c0.2,0.2,0.2,0.5,0.1,0.7
			c-0.1,0.1-0.2,0.1-0.3,0.2l-4.1,1c-0.2,0.1-0.4,0.3-0.3,0.5c0,0.1,0.1,0.2,0.3,0.3c2.1,0.9,4.2,0.9,6.3,0c0.3-0.1,0.6-0.1,0.8,0.2
			l1,1.3c0.3,0.3,0.6,0.4,1,0.3c6.3-1.5,11.2,3.2,16.4,5.2c0.3,0.1,0.5,0.3,0.6,0.7c0.3,0.8,0.8,1.5,1.5,2c0.2,0.1,0.3,0.4,0.1,0.6
			c0,0,0,0,0,0l-2.1,3.2c-0.2,0.2-0.4,0.4-0.7,0.4c-4.6,1-8.8,0.4-12.8-1.9c-0.7-0.4-1.3-0.3-1.7,0.3c-0.2,0.4-0.1,0.8,0.3,1
			c0.1,0.1,0.2,0.1,0.3,0.1c2.8,0.3,4.7,6.7,5.9,9c0.1,0.3,0.4,0.4,0.7,0.4h5.9c1.1,0,1.2-0.3,0.2-0.9l-4.2-2.5
			c-0.4-0.2-0.5-0.7-0.3-1.2c0.1-0.2,0.3-0.3,0.5-0.4c1.5-0.5,2.7-0.1,3.4,1.1c0.2,0.3,0.4,0.6,0.8,0.7c1.3,0.7,2.4,0.6,3.4-0.2
			c0.4-0.3,0.4-0.6,0.2-1l-1.1-2.3c-0.1-0.3,0-0.7,0.3-0.8l3.8-2.4c0.1-0.1,0.3-0.1,0.5-0.1l2.6,0.8c0.5,0.1,0.7,0,0.8-0.5
			c0.1-1.8-0.4-3.5-1.4-5c-0.1-0.2-0.2-0.4-0.1-0.6l0.3-1.9c0-0.3-0.1-0.5-0.2-0.7l-1.5-1.2c-0.2-0.2-0.2-0.5,0-0.7
			c0.1-0.1,0.2-0.1,0.3-0.2c2.4-0.4,4.4,0.3,6.1,1.9c0.4,0.4,0.5,1.1,0,1.5c-0.1,0.1-0.1,0.1-0.2,0.2l-0.9,0.6
			c-0.4,0.3-0.6,0.9-0.3,1.4c0.1,0.1,0.2,0.2,0.3,0.3c1.4,0.8,2.9,0.8,4.3,0c0.3-0.2,0.5-0.5,0.5-0.9c0-1.4,0.6-2.1,2-2.2
			c0.3,0,0.6-0.2,0.9-0.4c1.8-1.9,3.9-3.4,6.2-4.4c1-0.4,1.8-1.5,3.3-0.9c0.2,0.1,0.2,0.2,0.2,0.4c0,0.1-0.1,0.2-0.2,0.2
			c-0.2,0-0.3,0.1-0.5,0.1c-0.6,0.1-1,0.7-0.9,1.4c0.1,0.6,0.7,1,1.4,0.9l0,0c1-0.2,1.8-0.7,2.2-1.6c0.2-0.3,0.5-0.5,0.8-0.5
			c1.8,0.1,3.5-0.3,5-1.1h0.8c0.2,0.8,0.5,1.4,1,1.8c0.3,0.2,0.7,0.2,0.9-0.1c0,0,0,0,0,0l1.4-2.1c0.2-0.3,0.1-0.5-0.1-0.7
			c-0.7-0.7-1-1.6-0.9-2.6c0-0.3-0.2-0.5-0.4-0.6c0,0,0,0-0.1,0h-1.6c-0.1,0-0.2,0-0.2-0.1c-0.9-1.2-1.6-1.4-2-0.5h-0.3l-0.6-1.1
			c-0.3-0.5-0.1-1.2,0.4-1.5c0.3-0.2,0.8-0.2,1.1,0l3.2,2c0.1,0.1,0.2,0.1,0.3,0.1l4.5-0.3c0.4,0,0.8,0.1,1.1,0.3
			c1.4,1.1,3,1.5,4.9,1.1c0.3-0.1,0.6,0,0.9,0.1c0.6,0.3,1.1,0.7,1.5,1.3c0.2,0.3,0.4,0.5,0.7,0.6L627.3,177z M570.2,258
			c1.1,0.6,2.3,0.7,3.4,0.3c0.1,0,0.3,0,0.4,0l1.8,0.7c0.4,0.2,0.8,0,1-0.4c0,0,0,0,0,0l1.2-3.5c0.1-0.4-0.1-0.9-0.5-1
			c-0.2-0.1-0.3-0.1-0.5,0c-1.8,0.5-6.4,1.3-7.2,3C569.7,257.4,569.9,257.8,570.2,258z"/>
		<path class="st0" d="M440.1,194.7c0.6-0.4,1-1,1.3-1.6c0.2-0.3,0.4-0.6,0.8-0.7l2.5-0.9c0.3-0.1,0.7-0.1,0.9,0.2l1.5,1.3
			c0.3,0.3,0.6,0.3,0.9-0.1l1.4-1.5c0.1-0.1,0.2-0.1,0.3-0.1l3.7-0.1c0.3,0,0.5,0.2,0.6,0.5c0.2,1.1,0.9,1.9,2,2.4
			c0.3,0.1,0.4,0.5,0.4,0.8c-1.3,4.4-6.5,6.6-10.5,7.2c-2.7,0.4-5.3-1-8.4-0.8c-0.4,0-0.8,0-1-0.2c-0.4-0.3-0.5-0.7-0.3-1.2
			c0.1-0.4,0.4-0.6,0.8-0.5s0.8-0.1,1.2-0.4c0.7-0.5,0.6-0.9-0.2-1.1l-2.1-0.6c-0.3-0.1-0.4-0.3-0.3-0.6c0-0.2,0.2-0.3,0.3-0.3
			l2.4-0.8c0.3-0.1,0.4-0.4,0.3-0.6c0-0.1-0.1-0.2-0.2-0.3c-1-0.5-2-0.7-3.1-0.4c-0.4,0.1-0.8-0.1-0.8-0.5c-0.1-0.3,0.1-0.6,0.3-0.8
			l3.3-2c0.5-0.3,1.1-0.1,1.4,0.3c0.1,0.1,0.1,0.2,0.1,0.4l0.5,3.1C439.8,194.8,439.9,194.8,440.1,194.7z"/>
	</g>
</g>
<path class="st2" d="M878.9,198.3c0.2,0.1,0.3,0.2,0.3,0.4c0.1,0.3,0,0.4-0.3,0.2l-3.2-2c-0.2-0.1-0.2-0.3-0.1-0.5
	c0.1-0.1,0.2-0.2,0.3-0.2c1.1,0,2,0.5,2.5,1.6C878.5,198,878.7,198.2,878.9,198.3z"/>
<path class="st3" d="M88.3,204.7c0-0.1,0-0.2,0.1-0.2c0,0,0,0,0,0l0.1-0.1c2.9-1.6,5.3-2.8,5.4-2.6l0.1,0.3c0.1,0.2-2.1,1.7-5,3.4
	l-0.1,0.1c-0.1,0-0.2,0-0.2-0.1L88.3,204.7z"/>
<path class="st3" d="M502.6,204.4c-0.3,1.5-1.6,2.1-3.9,1.9C499.8,204.9,501,204.3,502.6,204.4z"/>
<ellipse transform="matrix(0.9521 -0.3057 0.3057 0.9521 -58.7186 35.7506)" class="st3" cx="84.8" cy="205.4" rx="2.4" ry="0.5"/>
<path class="st4" d="M70.3,207.9c0.1,0.1,0.1,0.2,0,0.3c0,0-0.1,0.1-0.1,0l-2.5-0.3c-0.1,0-0.2-0.2-0.2-0.3c0-0.1,0.1-0.2,0.2-0.2
	C68.7,207,69.6,207.2,70.3,207.9z"/>
<path class="st3" d="M529.7,214.3c-0.2,0.2-0.3,0.2-0.5,0l-0.4-0.5c-0.2-0.2-0.2-0.5,0.1-0.7c0.2-0.1,0.4-0.2,0.6-0.1
	C530,213.4,530,213.8,529.7,214.3z"/>
<path class="st0" d="M535.5,221.4c0,0.1-0.1,0.2-0.1,0.3c0,0.1-0.2,0.2-0.3,0.1c-0.1,0-0.1-0.1-0.1-0.1c-0.5-1.2-0.1-2.1,1.1-2.5
	c0.2-0.1,0.4,0,0.5,0.3c0,0.1,0,0.2,0,0.3c-0.2,0.5-0.5,1-1,1.4C535.6,221.3,535.5,221.4,535.5,221.4z"/>
<path class="st0" d="M477,222.9l2.8,0.3c0.6,0.1,1.1,0.6,1.1,1.3c0,0.3-0.2,0.6-0.4,0.8l-2.1,1.6c-0.4,0.3-0.4,0.6,0,0.9
	c3.1,2.9,5.8,6,8.3,9.5c0.2,0.2,0.4,0.4,0.7,0.5c0.9,0.3,1.8,0.8,2.5,1.5c0.2,0.2,0.2,0.5,0,0.8c0,0,0,0-0.1,0.1
	c-0.8,0.6-1.1,1.3-0.8,2.2c0.2,0.7-0.2,1.3-0.8,1.5c0,0-0.1,0-0.1,0l-14.5,3c-0.2,0-0.3-0.1-0.4-0.2c0-0.1,0-0.2,0.1-0.3
	c1.5-1.6,3.4-2.7,5.8-3.2c0.3-0.1,0.6-0.2,0.6-0.5c0.1-0.3,0-0.4-0.3-0.4l-4.7-0.3c-0.3,0-0.5-0.2-0.4-0.5c0-0.1,0.1-0.3,0.2-0.4
	c1.2-0.8,1.4-1.8,0.8-3.2c-0.2-0.4,0-0.8,0.4-1c0.1,0,0.2-0.1,0.3-0.1l1.9-0.1c0.6,0,1-0.5,1-1.1c0,0,0-0.1,0-0.1
	c-0.4-2.1-1.7-3-4-2.7c-0.3,0-0.6-0.2-0.6-0.5c0,0,0-0.1,0-0.1v-1.7c0-0.3-0.1-0.5-0.3-0.7c-1.6-1.4-2.2-3.1-1.8-5.3
	c0.6-3.1,2.4-4.6,5.6-4.6c0.4,0,0.6,0.2,0.6,0.6c0,0.8-0.4,1.3-1.1,1.7C476.2,222.6,476.3,222.9,477,222.9z"/>
<path class="st2" d="M862,222.1l0.1-1.6c0-0.2,0.2-0.4,0.4-0.3c0.1,0,0.3,0.1,0.3,0.2c0.4,0.7,0.3,1.4-0.2,2
	C862.1,222.9,861.9,222.8,862,222.1z"/>
<path class="st3" d="M470.6,223.9l-0.6-0.3c-0.3-0.1-0.4-0.5-0.3-0.7c0-0.1,0.1-0.1,0.1-0.2l0.8-0.8c0.4-0.4,0.6-0.3,0.6,0.2v1.3
	c0,0.3-0.2,0.5-0.5,0.5C470.7,224,470.6,223.9,470.6,223.9z"/>
<path class="st0" d="M526.6,224.8c-0.1-0.7,0.2-1.3,0.7-1.7c0.2-0.2,0.5-0.1,0.7,0.1c0.1,0.1,0.1,0.3,0.1,0.4l-0.3,1.2
	c-0.1,0.3-0.4,0.5-0.7,0.4C526.8,225.3,526.6,225.1,526.6,224.8z"/>
<path class="st0" d="M462.6,238.4l-0.3-3.9c0-0.3,0.2-0.6,0.5-0.7c1.6-0.2,3-1,4-2.3c0.2-0.3,0.5-0.5,0.9-0.6
	c5.1-1.4,4.9,3.8,3.4,6.7c-1.4,2.8-4.8,3.5-7.7,4.3c-0.6,0.2-1.2-0.2-1.4-0.8c-0.1-0.2,0-0.5,0-0.7l0.3-1
	C462.6,239.1,462.7,238.7,462.6,238.4z"/>
<path class="st3" d="M483.6,249.1c-0.3-0.1-0.6,0.1-0.9,0.5c-0.7-0.7-1.1-1.3-1.2-1.8c-0.1-0.5,0.1-0.6,0.6-0.5
	C482.6,247.5,483.2,248.1,483.6,249.1z"/>
<path class="st5" d="M570.2,258c-0.4-0.2-0.5-0.6-0.3-1c0.8-1.8,5.4-2.5,7.2-3c0.4-0.1,0.9,0.1,1,0.6c0,0.2,0,0.3,0,0.5l-1.2,3.5
	c-0.1,0.4-0.6,0.6-1,0.5c0,0,0,0,0,0l-1.8-0.7c-0.1,0-0.3,0-0.4,0C572.5,258.7,571.3,258.6,570.2,258z"/>
<path class="st5" d="M587.2,270.5c-4.2,0-8.4,0.9-12.4-1.1c-3.9-1.9-7-1.8-10.6,0.4c-1.6,1-3.4,1.3-5.4,0.9c-0.3,0-0.6,0.1-0.7,0.3
	l-0.8,1.4c-0.1,0.2-0.3,0.4-0.6,0.4l-4.7,0c1.1-1.1,2.4-1.6,3.9-1.4c0.2,0,0.5-0.1,0.5-0.4c0-0.2-0.1-0.4-0.3-0.5
	c-1.4-0.6-2.2-1.6-2.6-3c-0.1-0.4,0-0.8,0.2-1.1l1.5-2.5c0.2-0.4,0.3-0.7,0.3-1.1c0-1,0.5-1.7,1.5-2.1c0.2-0.1,0.4-0.2,0.5-0.4
	l3.3-4.4c0.5-0.7,1.6-0.9,2.3-0.4c0,0,0,0,0,0c1.7,1.4,3,3,3.7,5.1c0.3,0.8,1.1,1.2,1.9,0.9c0.1,0,0.2-0.1,0.3-0.2
	c1.9-1.2,4.1-1.7,6.4-1.6c0.3,0,0.6,0.1,0.8,0.3c3.3,2.3,6.9,4.2,10.8,5.5c0.3,0.1,0.5,0.3,0.5,0.7L587.2,270.5z"/>
<ellipse transform="matrix(0.99 -0.1409 0.1409 0.99 -32.7469 74.2184)" class="st0" cx="507.7" cy="268.4" rx="1" ry="1.8"/>
<path class="st0" d="M507.5,271l0.5,0c0.6,0,1.1,0.5,1.1,1.2l-0.1,3.2c0,0.6-0.5,1.1-1.2,1.1l-0.5,0c-0.6,0-1.1-0.5-1.1-1.2l0.1-3.2
	C506.3,271.5,506.8,271,507.5,271z"/>
<path class="st0" d="M516.8,281c-0.4-0.1-0.6-0.5-0.5-0.9c0.1-0.3,0.3-0.5,0.6-0.5l6.1-0.4c0.4,0,0.5,0.1,0.4,0.5l-0.6,2.5
	c-0.1,0.4-0.3,0.5-0.7,0.4L516.8,281z"/>
<path class="st4" d="M451.1,303.7c-0.1,0.7-0.6,1.1-1.4,1.1c-0.4,0-0.5-0.2-0.4-0.6c0.2-0.6,0.6-1,1.2-1.1
	C451,303,451.2,303.2,451.1,303.7z"/>
<path class="st4" d="M445.5,304.5l-2.2,0.4c-0.3,0.1-0.6-0.1-0.6-0.4c0-0.2,0.1-0.5,0.3-0.6c1.3-0.7,2.5-0.6,3.6,0.2
	c0.1,0.1,0.2,0.3,0.1,0.4c0,0-0.1,0.1-0.1,0.1c-0.3,0.1-0.5,0.1-0.8-0.1C445.6,304.5,445.6,304.5,445.5,304.5z"/>
<g>
	<path class="st3" d="M341,110.3l1.4-6.4c0.1-0.7,0.8-1.1,1.5-1c0.1,0,0.3,0.1,0.4,0.2c2.6,1.7,4.3,4,5.1,7c0,0.2,0.2,0.3,0.4,0.2
		c0.2,0,0.3-0.2,0.2-0.4l-0.8-3.3c-0.1-0.4,0.1-0.7,0.5-0.8c0,0,0.1,0,0.1,0l6.5-0.9c0.5,0,0.9-0.5,0.9-1.1c0-0.5-0.5-0.9-1.1-0.9
		c-1.9,0-3.7,0.3-5.5,0.9c-0.3,0.1-0.6,0.1-0.9,0c-2.5-1.2-5.1-1.8-7.7-2c-0.3-0.2-0.3-0.6,0.3-1.1c0.8-0.7,2.5-0.8,3.5-1
		c0.3,0,0.4-0.2,0.2-0.5l-0.2-0.3c0-0.1-0.1-0.1-0.1-0.1l-2.4-0.4c-0.4-0.1-0.6-0.4-0.6-0.8c0,0,0-0.1,0-0.1c0.6-1.9,0.2-3.2-1.4-4
		c-0.2-0.1-0.3-0.4-0.2-0.6c0.1-0.1,0.2-0.2,0.3-0.2c1.2-0.3,1.9-1.1,2.3-2.2c0.1-0.3,0.4-0.6,0.8-0.6l5.2,0c0.4,0,0.7,0.2,0.9,0.5
		c1.1,1.6,2.7,2.1,4.2,0.8c0.3-0.2,0.4-0.6,0.4-0.9c0-1.6,0.6-2.8,1.9-3.5c0.3-0.2,0.7-0.1,0.9,0.1l2.5,2.1c0.3,0.2,0.6,0.4,1,0.3
		c1.3,0,2.2-0.7,2.6-2.1c0.1-0.3,0.4-0.6,0.8-0.5l6,0.4c0.3,0,0.5,0.1,0.8,0.3c1.8,1.5,3.5,1,5.2,1.3c2.1,0.4,4.2,0.9,6.3,1.3
		c3.5,0.8,9.2,5.1,7.5,9.3c-0.2,0.5-0.8,0.8-1.3,0.8c-2.9-0.3-5.3,0.5-7.3,2.5c-0.1,0.1-0.2,0.1-0.2,0.1l-3.3,0.7
		c-0.4,0.1-0.7,0.5-0.6,0.9c0,0,0,0.1,0,0.1l0.2,0.7c0.1,0.3,0,0.5-0.4,0.5l-5.6,0.5c-0.4,0-0.7,0.2-1,0.5c-1.4,1.6-3,2.9-4.9,3.8
		c-2.9,1.5-5.1,3.4-8.9,2.8c-0.5-0.1-0.8,0.1-0.8,0.6l-0.6,4.7c0,0.2-0.1,0.3-0.3,0.4c-0.9,0.6-1.5,1.5-1.5,2.6
		c0,0.3-0.3,0.5-0.6,0.5c0,0,0,0,0,0c-2.9-0.5-4.9,0.6-6,3.1c-0.1,0.3-0.3,0.5-0.6,0.7c-2.9,2.1-4.6,0.8-7.5,0.1
		c-0.6-0.2-0.7,0-0.4,0.5c1,1.4,2.1,2.7,3.5,3.7c0.5,0.4,0.6,1.1,0.2,1.6c-0.2,0.2-0.4,0.4-0.7,0.4c-2.7,0.5-5.1-0.2-7-2.1
		c-0.3-0.3-0.7-0.3-1-0.1l-1.6,1.3c-0.2,0.2-0.5,0.2-0.7,0.1c-2.8-1.3-5.8-2.1-8.9-2.5c-0.6-0.1-1-0.6-0.9-1.1c0,0,0-0.1,0-0.1
		l0.2-1.1c0.1-0.4,0.3-0.6,0.7-0.6c3.2-0.3,7-1.2,6.5-5.4c0-0.4,0.1-0.6,0.5-0.3l4.8,2.5c0.5,0.2,1.1,0.1,1.3-0.4
		c0.1-0.1,0.1-0.3,0.1-0.4l0-2.2c0-0.4-0.3-0.8-0.8-0.8c0,0-0.1,0-0.1,0l-2.1,0.3c-0.5,0.1-0.6-0.1-0.4-0.5c1.9-4.2,5.1-5.7,9.6-4.7
		c0.3,0.1,0.6-0.1,0.8-0.4s-0.1-0.6-0.4-0.8C341.4,112.4,340.8,111.5,341,110.3z"/>
	<path class="st3" d="M340.9,102.1c0.5,2.1,0.1,3.7-1.1,4.9c-0.3,0.3-0.4,0.6-0.3,0.9l0.6,2.1c0,0.9-0.3,1.5-0.9,1.8
		c-0.8,0.4-1.6,0-2.5-0.1c-0.3,0-0.6,0.2-0.7,0.5c0,0.1,0,0.1,0,0.2c0.1,1-0.3,1.6-1.3,1.7c-0.4,0-0.7,0.2-1,0.5
		c-1.2,1.2-2.6,2.1-4.3,2.7c-0.3,0.1-0.7,0.1-1,0l-2.8-1c-0.3-0.1-0.5-0.4-0.6-0.7l-0.8-3.8c-0.1-0.4,0.1-0.7,0.4-0.9l1.2-0.6
		c0.4-0.2,0.5-0.5,0.5-0.9l0.2-6.4c0-0.3,0.1-0.5,0.4-0.5l2.3-0.5c0.5-0.1,0.6-0.3,0.3-0.8L329,100c-0.3-0.4-0.2-1,0.2-1.3
		c0.2-0.1,0.4-0.2,0.6-0.2l2.6,0.3c0.3,0,0.7-0.2,0.7-0.6c0-0.1,0-0.2,0-0.2c-0.6-2.1,0.2-3.1,2.3-2.9c0.4,0,0.5-0.1,0.6-0.5l0-1.1
		c0-0.2,0.2-0.4,0.5-0.4c0.1,0,0.2,0,0.2,0.1c1.4,0.9,2.2,2.3,2.4,4.1c0,0.3-0.1,0.5-0.3,0.6c-0.3,0.1-0.5,0.3-0.7,0.6
		c-0.1,0.2-0.2,0.3-0.2,0.6C337.7,101.3,338.7,102.3,340.9,102.1z"/>
	<path class="st3" d="M458,121c-1.1-0.5-2.2-0.7-3.3-0.7c-0.4,0-0.5,0.2-0.5,0.6c0,2.9-0.5,5.7-1.6,8.4c-0.1,0.3-0.3,0.5-0.6,0.8
		c-0.2,0.2-0.5,0.4-0.7,0.6c-0.3,0.2-0.4,0.5-0.4,0.9c0.4,2.1-0.1,3.8-1.6,5.2c-0.2,0.2-0.2,0.5,0,0.7c0.1,0.1,0.1,0.1,0.2,0.1
		l2.1,0.6c0.3,0.1,0.5,0.3,0.5,0.6l0.5,3.7c0,0.3-0.2,0.6-0.5,0.6c0,0-0.1,0-0.1,0c-0.5,0-0.9-0.2-1.3-0.6c-0.2-0.2-0.5-0.3-0.8-0.3
		c-1.4,0.3-2.2,1.3-2.4,3c0,0.4,0.1,0.7,0.3,1l2.2,2.5c0.2,0.2,0.2,0.6,0.1,0.8c-0.7,1.1-1.8,1.5-3.1,1.4c-0.5-0.1-1,0.3-1.1,0.8
		c0,0.3,0.1,0.6,0.3,0.8l0.9,0.9c0.3,0.3,0.3,0.7,0,1c-0.9,1.1-2.1,1.7-3.5,1.7c-0.3,0-0.6,0.3-0.6,0.6c0,0.2,0.1,0.4,0.3,0.5
		l1.6,0.9c0.3,0.1,0.3,0.5,0.2,0.7c-0.1,0.1-0.2,0.2-0.4,0.3c-1.1,0.3-2.3,0.2-3.4-0.1c-1-0.3-1.4,0.1-1.1,1.1l1.3,4.6
		c0.1,0.2-0.1,0.4-0.2,0.5c-0.1,0-0.2,0-0.3,0l-4.1-2.4c-0.2-0.1-0.4-0.1-0.5,0.1l-0.3,0.3c-0.1,0.1-0.1,0.2,0,0.3c0,0,0,0,0,0
		c0.8,0.5,1.4,1.1,1.9,1.9c0.1,0.2,0.3,0.3,0.4,0.4c1.5,0.9,2.8,2,4,3.4c0.1,0.2,0.1,0.5-0.1,0.6c0,0-0.1,0-0.1,0.1l-0.9,0.5
		c-0.3,0.1-0.4,0.4-0.4,0.7l0.1,2c0,0.4-0.2,0.7-0.6,0.8c-1.5,0.2-2.8,0-4-0.8c0.1-1.5-0.2-2.6-0.7-3.5c-0.4-0.6-0.6-0.5-0.6,0.2
		c0,1.1,0.3,2.2,0.7,3.4c-0.8,1.1-1.6,1.3-2.4,0.8c-0.2-0.1-0.3-0.3-0.4-0.6l-0.2-2.3c0-0.2-0.3-0.4-0.5-0.4c-0.2,0-0.3,0.1-0.4,0.3
		l-1.1,3.5c-0.1,0.3,0.1,0.6,0.3,0.7c0.1,0,0.1,0,0.2,0c2.4-0.1,4.6,0.3,6.8,1.3c0.2,0.1,0.3,0.4,0.2,0.6c-0.1,0.1-0.2,0.2-0.3,0.2
		l-4.2,1.3c0,0-0.1,0-0.1,0.1c-4.1,3.1-8.7,4.3-13.9,3.6c-1.3-0.2-2.6,0.7-2.8,2.1c0,0,0,0,0,0.1l-0.4,3.5c0,0.3-0.2,0.4-0.5,0.4
		l-5.1,0.1c-0.5,0-0.7,0.3-0.5,0.7l0.4,1.3c0.1,0.4,0,0.7-0.4,0.8c-2.2,0.8-4,0.2-5.2-1.7c-0.3-0.4-0.6-0.4-0.9-0.1
		c-0.6,0.5-0.7,1.1-0.5,1.9c0.1,0.4,0,0.8-0.3,1.1c-0.6,0.6-1.4,0.9-2.4,0.7c-0.3-0.1-0.6,0-0.9,0.2l-4.5,3.9
		c-0.2,0.2-0.3,0.4-0.4,0.6l-0.8,3.6c-0.1,0.4-0.4,0.6-0.7,0.6c-2.1,0.2-2.6,1.4-1.7,3.5c0.2,0.3,0.1,0.8-0.2,1.1l-4.7,5.5
		c-0.2,0.2-0.5,0.3-0.8,0.3c-1.2-0.2-2-0.9-2.3-2.1c-0.1-0.3-0.4-0.6-0.8-0.6l-1.7-0.2c-4.8-0.2-6.8-7-8.8-10.7
		c-0.2-0.4-0.1-0.6,0.2-0.9c1.2-0.8,1.5-2,0.9-3.6c-0.1-0.3-0.3-0.6-0.5-0.8c-0.9-0.9-1.1-2-0.7-3.3c0.1-0.2,0.1-0.3,0-0.5l-1.1-4.2
		c-0.1-0.3,0-0.7,0.2-1l3.1-3.8c0.1-0.1,0.3-0.2,0.5-0.3l2.1-0.4c0.4-0.1,0.7-0.4,0.7-0.8v-2.8c0-0.5-0.2-0.7-0.7-0.8l-2.9-0.3
		c-0.9-0.1-1.5-0.9-1.4-1.8c0-0.1,0-0.2,0.1-0.3l1.4-4.7c0.1-0.3,0.3-0.5,0.6-0.5c2.1-0.2,5.5,0,6.6-2.1c0.2-0.3,0-0.7-0.3-0.9
		c-0.1,0-0.2-0.1-0.3-0.1l-6.4-0.4c-0.6,0-1-0.5-0.9-1.1c0-0.2,0.1-0.4,0.2-0.5l2.5-3.6c0.2-0.2,0.1-0.6-0.1-0.7c0,0-0.1,0-0.1-0.1
		l-0.7-0.3c-0.4-0.2-0.7-0.7-0.5-1.1c0.1-0.2,0.2-0.4,0.4-0.5l1-0.5c0.4-0.2,0.6-0.5,0.6-0.9l0.5-8.5c0-0.3-0.2-0.7-0.5-0.8
		c-1.9-0.8-2.2-2.1-0.8-3.7c0.2-0.3,0.3-0.7,0.2-1.1c-1-3.9-10-2.9-13.3-3.3c-0.3,0-0.6,0-0.9,0.1l-1.7,0.6c-0.5,0.2-0.8,0-0.9-0.5
		c-0.2-1.1-0.8-2-1.6-2.8c-0.2-0.2-0.3-0.6-0.2-0.9l0.5-1c0.1-0.3,0-0.7-0.3-0.8c0,0,0,0,0,0l-1.2-0.4c-0.5-0.2-0.8-0.8-0.6-1.3
		c0.1-0.2,0.2-0.4,0.4-0.5c2.9-1.6,4.2-0.4,6.7-0.8c0.9-0.1,1.7-0.3,2.6-0.6c0.3-0.1,0.5-0.5,0.4-0.8c-0.1-0.3-0.3-0.5-0.6-0.5
		l-6.2,0c-0.6,0-0.8-0.3-0.4-0.8l0.7-1c0.2-0.3,0.2-0.7-0.1-0.9c0,0,0,0,0,0l-2.6-1.7c-0.2-0.1-0.3-0.4-0.2-0.7
		c0.1-0.1,0.2-0.2,0.3-0.2c2.1-0.3,3.9-1.2,5.5-2.6c1.9-1.7,6.3-0.6,8.9-0.9c0.3,0,0.5-0.2,0.7-0.4l2.3-3.5c0.1-0.1,0.2-0.2,0.4-0.3
		l1.7-0.5c0.2-0.1,0.4-0.3,0.3-0.5c0-0.1-0.1-0.2-0.2-0.2c-0.4-0.2-0.8-0.4-1.2-0.4c-0.4,0-0.7-0.2-0.8-0.6l-0.3-1.1
		c-0.2-0.5,0-0.8,0.6-0.8c2.2,0,3.8-1,4.8-2.9c0.2-0.3,0.6-0.5,0.9-0.3l1.8,0.8c0.3,0.1,0.6,0.1,0.9,0c2.1-0.8,3.4-2.3,4.1-4.3
		c0.1-0.3,0.4-0.5,0.7-0.4c0.1,0,0.2,0.1,0.2,0.1l1.8,1.6c0.2,0.2,0.4,0.3,0.7,0.2c1.2-0.1,2-0.7,2.4-2c0-0.1,0-0.1,0-0.2l-0.4-2.3
		c-0.1-0.4,0.2-0.8,0.6-0.9c0.1,0,0.1,0,0.2,0l9.1,0.6c0.7,0,0.9,0.4,0.5,1l-1.9,2.8c-0.2,0.2-0.1,0.6,0.2,0.8c0,0,0.1,0,0.1,0
		l2.8,1.3c0.3,0.2,0.7,0,0.9-0.3l3-5.3c0.2-0.4,0.8-0.6,1.2-0.3c0.1,0.1,0.3,0.2,0.3,0.3c1.8,3.2,0.2,6.9,4.6,8
		c0.7,0.2,1.6-0.1,2-0.6c0.4-0.4,0.3-0.9-0.2-1.1l-2.5-1.2c-0.3-0.2-0.6-0.4-0.7-0.7c-1-1.7-1.6-3.5-1.8-5.5c0-0.3,0.2-0.6,0.5-0.6
		c0.2,0,0.3,0,0.4,0.2l1.7,1.8c0.2,0.3,0.6,0.3,0.9,0.1l3.2-2c0.5-0.3,1.2-0.2,1.6,0.3c0,0.1,0.1,0.2,0.1,0.3l1.7,5.1
		c0.1,0.3,0.5,0.5,0.8,0.4c0,0,0.1,0,0.1-0.1c0.3-0.2,0.5-0.4,0.6-0.7c0.4-1.4-0.9-2.5-0.1-4.7c0.1-0.3,0-0.6-0.2-0.8l-2.4-1.8
		c-0.2-0.1-0.2-0.3,0-0.4l0.3-0.3c0,0,0.1-0.1,0.2,0c1.3,0.6,2.6,1,4,1c0.4,0,0.7-0.3,0.7-0.6c0.4-4.8,13.4-2,16-0.4
		c0.3,0.2,0.4,0.6,0.2,0.9c-0.1,0.2-0.4,0.4-0.7,0.3c-2-0.3-4-0.3-6.1,0c-0.1,0-0.2,0.1-0.2,0.2c0,0.1,0.1,0.2,0.2,0.2
		c2.4,0.4,5.7,0.5,10,0.3c0.4,0,1.2,0.2,2.3,0.6c0.4,0.1,0.6,0.4,0.7,0.8c0.2,0.7,0,1.2-0.5,1.5c-0.2,0.2-0.3,0.5-0.1,0.7
		c0,0,0.1,0.1,0.1,0.1l2.1,1.4c0.6,0.4,0.8,1.3,0.4,1.9c-0.2,0.4-0.6,0.6-1.1,0.6l-7.7,0.4c-0.3,0-0.6,0.1-0.8,0.3l-0.9,0.9
		c-0.3,0.3-0.3,0.9,0,1.2c0.2,0.2,0.6,0.3,0.9,0.2c1.7-0.8,3-0.5,3.9,0.9c0.2,0.3,0.6,0.5,0.9,0.5l3.9-0.3c0.6-0.1,1.1,0.4,1.2,1
		c0,0.2,0,0.4-0.1,0.6c-1.5,2.6-5.2,2.7-5.4,5.7c0,0.4,0.1,0.5,0.5,0.3c2.6-1.8,5.3-3.8,8-4.9c2.9-1.3,11.6-3.8,12.1,1.1
		c0,0.3,0,0.6-0.2,0.9c-1.7,2.7-4.2,3.9-7.7,3.8c-0.2,0-0.3,0.1-0.4,0.3c0,0.1,0,0.2,0.2,0.2l3.2,0.3c0.3,0,0.5,0.3,0.4,0.5
		c0,0.2-0.2,0.4-0.4,0.4L458,121z"/>
	<ellipse transform="matrix(0.599 -0.8007 0.8007 0.599 48.3484 297.8895)" class="st3" cx="321.6" cy="100.7" rx="1.2" ry="1.6"/>
	<path class="st5" d="M342,101.9c2.6,0.2,5.2,0.8,7.7,2c0.3,0.1,0.6,0.2,0.9,0c1.8-0.6,3.6-0.9,5.5-0.9c0.5,0,1,0.4,1.1,0.9
		c0,0.5-0.4,1-0.9,1.1l-6.5,0.9c-0.4,0-0.6,0.4-0.6,0.8c0,0,0,0.1,0,0.1l0.8,3.3c0,0.2-0.1,0.3-0.2,0.4c-0.2,0-0.3-0.1-0.4-0.2
		c-0.8-3-2.5-5.3-5.1-7c-0.6-0.4-1.4-0.2-1.7,0.4c-0.1,0.1-0.1,0.3-0.2,0.4l-1.4,6.4c-0.2-0.1-0.3,0-0.5,0.1c-0.1,0.1-0.2,0-0.2-0.1
		c0-0.1-0.1-0.2-0.2-0.3l-0.6-2.1c-0.1-0.4,0-0.7,0.3-0.9c1.2-1.1,1.6-2.7,1.1-4.9C341.2,102.4,341.6,102.3,342,101.9z"/>
	<path class="st3" d="M307.6,106.7l-0.4-3.7c0-0.4,0.2-0.7,0.6-0.8c0,0,0.1,0,0.1,0c4.1,0.4,6.3,2.6,6.6,6.7c0,0.4-0.1,0.7-0.3,1
		c-1,1.6-2.4,4.5-4.5,4.4c-0.4,0-0.6-0.2-0.6-0.6c0-2.8-1.5-4-4.4-3.7c-0.3,0-0.6-0.2-0.6-0.5c0,0,0,0,0,0l-0.1-2.7
		c0-0.2,0.2-0.4,0.4-0.4c0.2,0,0.3,0.1,0.4,0.2c0.5,1,1.2,1.3,2.2,0.9C307.4,107.4,307.6,107.1,307.6,106.7z"/>
	<path class="st3" d="M295.9,105.4c-0.1,0.8-0.5,1-1.2,0.8l-3.9-1.3c-0.4-0.1-0.7-0.6-0.6-1.1c0.1-0.4,0.4-0.6,0.8-0.6l4.6,0.1
		c0.3,0,0.4,0.2,0.4,0.5L295.9,105.4z"/>
	<path class="st3" d="M285.7,107.7l-1,0.1c-0.5,0-0.9-0.3-0.9-0.8c0-0.3,0.2-0.6,0.4-0.8c0.5-0.3,1-0.3,1.5-0.1
		c0.3,0.1,0.6,0.1,0.9,0.1c2.9-0.6,5.3,0.2,7.3,2.3c0.3,0.3,0.2,0.6-0.1,0.8c-1.6,0.9-6.8,4.3-8.2,2.3c-0.2-0.3-0.2-0.6-0.2-0.9
		l0.6-2.3C286.3,107.9,286.1,107.7,285.7,107.7z"/>
	<path class="st3" d="M271,111.6c-1.7,2-3.6,3.3-5.7,4c-0.5,0.1-0.8,0.1-1.1-0.1c-0.1-0.1-0.2-0.3-0.4-0.5c-0.1-0.3-0.4-0.5-0.7-0.5
		c-1.1,0-2-0.3-2.8-1.1c-0.2-0.2-0.3-0.6,0-0.9c0.1-0.1,0.1-0.1,0.2-0.1c4.3-2,8.6-1.9,12.6-5.2c0.3-0.2,0.6-0.3,1-0.2
		c0.8,0.2,1.4,0.5,2,1.1c0.2,0.2,0.5,0.3,0.8,0.2l1.9-0.6c0.2-0.1,0.4,0,0.5,0.2l0.3,0.5c0.2,0.3,0.2,0.7,0,1
		c-1.9,2.5-4.4,4.2-7.4,5.2c-0.2,0.1-0.3,0.2-0.3,0.3l-0.1,0.4c-0.1,0.3-0.4,0.4-0.7,0.3c-0.1,0-0.1-0.1-0.2-0.1l-0.2-0.2
		c-0.2-0.2-0.2-0.4-0.1-0.6l1.5-2.2c0.2-0.3,0.1-0.7-0.2-0.9C271.6,111.2,271.2,111.3,271,111.6z"/>
	<path class="st3" d="M316.5,115.9c-0.2,0-0.4-0.2-0.5-0.4l-0.1-0.8c-0.3-3.1,0.5-5.7,1.6-5.8l0.2,0c1.2-0.1,2.3,2.3,2.6,5.4
		c0,0,0,0,0,0l0.1,0.8c0,0.2-0.2,0.5-0.4,0.5c0,0,0,0,0,0L316.5,115.9z"/>
	<ellipse transform="matrix(0.8634 -0.5045 0.5045 0.8634 -15.4565 169.8937)" class="st3" cx="306" cy="113.5" rx="1" ry="1.3"/>
	<ellipse transform="matrix(0.3665 -0.9304 0.9304 0.3665 83.246 350.7831)" class="st3" cx="299.2" cy="114.3" rx="1.9" ry="0.7"/>
	<path class="st3" d="M279.4,113.8c-0.2,0-0.4,0-0.5-0.1c-0.4-0.1-0.4-0.2-0.1-0.4c0.4-0.3,0.9-0.4,1.4-0.3c0.2,0,0.4,0.2,0.4,0.5
		c0,0.1,0,0.2-0.1,0.2C280.2,114,279.9,114.1,279.4,113.8z"/>
	<path class="st3" d="M269.3,120.6l2.6-3.4c0.2-0.3,0.7-0.4,1-0.2l1,0.7c0.2,0.1,0.5,0.1,0.7-0.1c0,0,0,0,0,0c0.3-0.5,0.4-1,0.4-1.6
		c0-0.6,0.4-1.1,1.1-1.1c0.4,0,0.8,0.2,1,0.5c1.3,1.9,2,4,2.2,6.4c0.1,1.1,1,1.8,2.1,1.7c0.6-0.1,1.2-0.4,1.5-1
		c0.6-1.2,0.7-2.5,0.2-3.6c-0.1-0.3,0-0.6,0.3-0.7c0.1,0,0.2-0.1,0.3,0c1.3,0.2,2.2-0.3,2.7-1.5c0.1-0.3,0.4-0.5,0.7-0.5h0.5
		c0.3,0,0.6,0.3,0.6,0.6c0,0,0,0.1,0,0.1l-0.8,3.7c-0.4,1.6,0.2,2.2,1.8,1.6l0.7-0.2c0.7-0.3,1.5,0.1,1.8,0.8c0.2,0.6,0,1.2-0.5,1.6
		l-5.8,4.4c-0.3,0.2-0.7,0.2-1,0c-5.6-4.1-12.1,3.9-15-1.5c-0.2-0.3,0-0.7,0.3-0.9c0.1,0,0.2-0.1,0.3-0.1l7.2-0.3c1,0,1-0.2,0.1-0.6
		c-2.8-1-5.7-1.2-8.6-0.7c-0.3,0-0.6,0-0.8-0.2l-1.9-1.6c-0.3-0.2-0.3-0.7-0.1-0.9c0,0,0,0,0,0c0.7-0.8,1.6-1.1,2.5-0.8
		C268.7,121.1,269.1,120.9,269.3,120.6z"/>
	
		<ellipse transform="matrix(0.8686 -0.4955 0.4955 0.8686 -23.2923 147.5725)" class="st3" cx="266.6" cy="117.7" rx="2.7" ry="0.8"/>
	<path class="st3" d="M317.3,119.2l-2.7-0.3c-0.2,0-0.3-0.2-0.3-0.4c0-0.3,0.2-0.5,0.5-0.5c1.3-0.1,2.5-0.1,3.8,0.1
		c0.6,0.1,1,0.3,1.2,0.6c0.4,0.5,0.4,1,0,1.7c-0.2,0.3-0.4,0.3-0.7,0.1l-0.9-0.9C318,119.4,317.7,119.2,317.3,119.2z"/>
	<path class="st3" d="M300.9,127.3l-4.1-1.3c-0.3-0.1-0.6-0.4-0.6-0.8l-0.2-3.1c0-0.6,0.4-1.2,1.1-1.2c0.2,0,0.4,0,0.6,0.1l2.5,1.2
		c0.3,0.1,0.6,0,0.7-0.2c0,0,0,0,0-0.1l0.6-1.7c0.1-0.4,0.5-0.6,0.9-0.4c0,0,0.1,0,0.1,0.1l4.5,2.6c0.3,0.2,0.4,0.5,0.4,0.8
		c-0.3,2-5,7-6.4,8.3c-0.2,0.2-0.5,0.3-0.8,0.3c-0.9-0.1-1.3-0.6-1.2-1.5c0-0.1,0.1-0.2,0.2-0.3l2.1-1.9c0.2-0.2,0.2-0.5,0-0.7
		C301.1,127.4,301,127.3,300.9,127.3z"/>
	<path class="st3" d="M315.8,127c-2.7-0.4-4-2.1-3.8-5c0-0.8,0.7-1.4,1.5-1.4c0.6,0,1.2,0.5,1.4,1.1c0.6,1.8,1.8,2.7,3.9,2.7
		c0.4,0,0.6,0.2,0.7,0.5l1.1,3.5c0.1,0.2,0,0.3-0.2,0.4c-0.1,0-0.2,0-0.3-0.1l-0.9-0.7c-0.2-0.1-0.4-0.1-0.6,0.1
		c-0.1,0.1-0.1,0.2-0.1,0.3c0.7,5.7,4.3,5.4,9.4,5.4c2.3,0,4.7,0.2,7.3,0.7c0.7,0.1,1.1,0.8,1,1.5c-0.1,0.6-0.6,1-1.2,1l-1.2,0
		c-0.4,0-0.7,0.2-0.7,0.7l-0.1,1.9c0,0.3-0.2,0.5-0.4,0.6c-1.2,0.5-2.1,0.2-2.8-0.9c-0.2-0.2-0.5-0.3-0.7-0.2
		c-3.4,1.3-14.9-0.7-16.6-4.3c-0.2-0.3-0.1-0.7,0.1-0.9c0.8-1,1.3-2.1,1.6-3.3c0.1-0.3,0.2-0.6,0.3-0.9c0.3-0.7,0.8-1.2,1.6-1.5
		c0.3-0.1,0.4-0.4,0.3-0.7C316.1,127.1,316,127,315.8,127z"/>
	
		<ellipse transform="matrix(0.6347 -0.7727 0.7727 0.6347 23.8056 294.7812)" class="st3" cx="323.7" cy="122.2" rx="1.4" ry="1.2"/>
	<g>
		<path class="st3" d="M278.4,349.7c-0.2,1.1-1.2,1.8-2.3,1.7c-0.3,0-0.5-0.1-0.8-0.3c-2.3-1.5-4.7-2-7.3-1.5
			c-0.5,0.1-0.7-0.1-0.8-0.6l-0.4-1.9c-0.1-0.4-0.3-0.7-0.7-0.7l-1.6-0.3c-0.4-0.1-0.5-0.3-0.5-0.7v-1c0-0.3-0.1-0.5-0.4-0.7
			c-2.8-1.5-4.3-5.2-7.5-5.2c-3.9,0-7.5-1-10.8-2.9c-2.8-1.6-3.5-5.6-7.9-2.4c-0.3,0.2-0.6,0.2-0.9,0.1c-6.3-2-11.9-5.1-18.1-7
			c-0.1,0-0.3-0.1-0.4-0.2l-4-4.8c-0.2-0.2-0.2-0.5-0.2-0.8l0.3-1.3c0.1-0.3,0-0.6-0.3-0.9c-5.5-4.5-7.8-11.2-11.6-17
			c-1.6-2.5-3.1-6.2-5.6-8.8c-0.1-0.2-0.4-0.2-0.6,0c0,0-0.1,0.1-0.1,0.1l-2.2,3.6c-0.1,0.2-0.1,0.4,0,0.5c0.8,1,1.5,2.1,2.1,3.2
			c1.2,2.2,3.7,4.5,4.2,6.8c0.6,2.5,1.8,4.8,3.5,6.9c0.2,0.3,0.2,0.7-0.1,1c-0.2,0.2-0.6,0.2-0.8,0c-2.7-1.9-4.6-4.4-5.5-7.5
			c-0.1-0.3-0.3-0.6-0.6-0.9l-4.6-3.6c-0.4-0.3-0.4-0.7-0.1-1.1l0.9-0.9c0.3-0.3,0.3-0.6,0.1-0.9c-2.3-4-4-8.2-5.1-12.6
			c-0.1-0.3-0.3-0.6-0.6-0.7c-3.1-1.5-9.2-3.9-9-7.5c0.2-4.1-0.4-8.1-1.8-12c-0.1-0.3-0.1-0.6,0-0.9c1.1-3.7,1.6-7.5,1.5-11.4
			c0-0.3,0.1-0.6,0.2-0.8c1.7-2.9,3.2-5.8,4.5-8.8c0.7-1.6,0.6-3.4,0.9-5.2c0.1-0.4,0.5-0.7,0.9-0.6c0.2,0,0.4,0.2,0.5,0.4
			c0.8,1.6,2.1,2.1,3.9,1.6c0.7-0.2,1.1-0.9,0.9-1.6c0-0.1-0.1-0.2-0.1-0.3l-4.8-8.1c-0.2-0.3-0.4-0.5-0.7-0.7l-3.2-2.2
			c-0.3-0.2-0.5-0.6-0.5-0.9c-0.1-2.3,0.8-6.5-1.8-7.4c-0.6-0.2-0.9-0.8-0.7-1.4c0-0.1,0.1-0.2,0.1-0.3c2.2-3,2.6-6.4,1-10
			c-0.7-1.5-1.2-1.8-2.8-1.9c-0.4,0-0.7-0.3-0.8-0.7l-0.8-4.3c-0.1-0.3-0.2-0.6-0.4-0.9l-4.6-5.4c-0.2-0.2-0.3-0.5-0.3-0.8l0.3-4.4
			c0-0.5-0.2-0.8-0.6-0.9l-10.4-3.5c-0.2-0.1-0.4-0.2-0.5-0.4c-1.7-3.2-5.3-2.7-8.3-5.7c-0.1-0.1-0.4-0.1-0.5,0
			c-0.1,0.1-0.1,0.1-0.1,0.2l-0.3,3.5c0,0.4-0.3,0.7-0.7,0.7l-7.4,1.7c-0.4,0.1-0.9-0.2-1-0.6c0-0.2,0-0.4,0.1-0.5
			c1.2-2.3,3-3.8,5.4-4.6c0.5-0.2,0.8-0.8,0.6-1.3c-0.2-0.5-0.6-0.8-1.1-0.7l-6.3,1.2c-0.3,0.1-0.5,0.3-0.5,0.6l0.2,2.7
			c0,0.4-0.2,0.7-0.6,0.9l-4.1,1.2c-0.3,0.1-0.5,0.3-0.6,0.6c-0.8,2.4-2,3.9-3.8,4.7c-10.5,4.4-19.5,9-30.9,11.1
			c-0.1,0-0.2-0.1-0.2-0.2c0-0.1,0-0.2,0.1-0.2l13-4.9c0.4-0.2,0.7-0.5,0.8-0.9l0.3-1c0.1-0.3,0.2-0.4,0.5-0.5
			c4.5-1.8,8.6-2.2,11.3-6.6c0.2-0.3,0.1-0.6-0.2-0.8c-1-0.8-2.2-1-3.3-0.7c-0.3,0.1-0.6,0-0.8-0.3c-0.9-1.6-2.2-2-4-1.4
			c-0.5,0.2-1-0.1-1.2-0.6c-0.1-0.3-0.1-0.6,0.1-0.8c1.3-1.8,2.1-3.7,2.4-5.9c0.1-0.5-0.1-0.6-0.6-0.4l-3.4,1.6
			c-0.9,0.4-1.3,0.1-1.4-0.8l-0.2-3.2c0-0.5,0.2-0.7,0.7-0.7h2.2c0.2,0,0.4-0.2,0.4-0.4c0-0.1-0.1-0.3-0.2-0.3l-1.8-1.3
			c-0.3-0.2-0.4-0.6-0.3-0.9l1.2-3.1c0.1-0.4,0.5-0.7,0.8-0.8c1.8-0.5,3.3-1.4,4.5-2.7c0.2-0.2,0.5-0.4,0.9-0.4
			c4.9-0.7,12.6,0.1,13.8-6.6c0.2-1.1-0.3-1.6-1.3-1.4c-2.2,0.3-10.8,0.6-10.8-2.6c0-1.1,0.6-1.6,2-1.5c0.6,0.1,1.1-0.4,1.1-0.9
			c0-0.5-0.3-0.9-0.7-1.1c-0.4-0.1-0.7-0.2-1.1-0.2c-0.6,0-1.1-0.5-1.2-1.1c0-0.6,0.4-1.1,0.9-1.2l9.9-2.2c0.7-0.2,1.5,0.3,1.6,1
			c0,0.1,0,0.2,0,0.4c-0.1,1.6,0.7,2.6,2.3,3c0.1,0,0.2,0,0.3,0l3.5-1.8c0.3-0.2,0.5-0.4,0.5-0.8c-0.1-1.4-0.8-2.5-1.9-3.2
			c-0.3-0.2-0.5-0.5-0.4-0.9c0.5-3.1,0.3-6.3-0.6-9.4c-0.2-0.6,0.2-1.2,0.8-1.3c0.1,0,0.2,0,0.3,0c6.5-0.1,12.4-2,17.7-5.6
			c0.2-0.2,0.6-0.2,0.8-0.1l3,1.6c0.4,0.2,0.8,0.1,1-0.3c0-0.1,0.1-0.2,0.1-0.3l0.2-2.6c0-0.3,0.3-0.5,0.6-0.5c0,0,0,0,0,0
			c3,0.5,5.8,0.1,8.4-1.2c0.3-0.1,0.6,0,0.7,0.2c0.1,0.1,0.1,0.3,0,0.5l-0.7,1.8c-0.2,0.5,0,1,0.5,1.2c0,0,0,0,0.1,0l5.5,1.7
			c0.3,0.1,0.5,0.3,0.6,0.6l0.5,2.8c0.1,0.4,0.4,0.6,0.8,0.6l2.8-0.3c0.4-0.1,0.8,0.2,0.9,0.6l0.4,2.3c0.1,0.4,0.3,0.6,0.7,0.7
			c2.2,0.2,4.2,1,5.9,2.3c0.3,0.2,0.7,0.3,1,0.2l1-0.3c0.4-0.1,0.6,0,0.8,0.3c1.7,2.6,2.9,5.6,6.4,5.9c0.3,0,0.6,0.2,0.8,0.6
			c0.8,2.1,2.1,3.9,4.1,5.2c0.3,0.2,0.6,0.2,0.9-0.1l3.3-2.8c0.2-0.2,0.5-0.2,0.7-0.2c2.7,0.5,5.2,0,7.5-1.6
			c0.2-0.1,0.5-0.2,0.7-0.1l0.9,0.3c0.4,0.1,0.6,0.6,0.5,1c-0.1,0.2-0.2,0.3-0.4,0.4c-1.6,0.9-3.3,1.3-5.1,1.2
			c-0.4,0-0.7,0.2-0.9,0.6l-0.6,1.4c-0.2,0.4-0.1,0.5,0.4,0.5c4.9-0.6,9.4-2.4,13.3-5.4c0.3-0.2,0.6-0.3,1-0.2
			c0.9,0.2,1.4,0.7,1.6,1.6c0,0.2,0,0.4-0.1,0.5l-2.2,2.6c-0.3,0.3-0.2,0.8,0.1,1.1c0,0,0.1,0.1,0.1,0.1c1.2,0.6,2.4,0.8,3.8,0.6
			c0.1,0,0.1,0,0.2,0l5.9,1.5c0.3,0.1,0.5,0.3,0.6,0.5l0.5,1.1c0.2,0.4,0.4,0.6,0.8,0.6c3.3,0.7,5.9,2.4,7.8,5.3
			c0.2,0.3,0.1,0.6-0.2,0.7c-0.9,0.4-1.5,1.1-1.8,2c-0.1,0.3,0.1,0.7,0.4,0.8c0,0,0,0,0,0l6.5,1.8c0.2,0.1,0.3,0,0.5-0.1
			c4-3.1,4.9,3.1,6,5.2c0.2,0.5,0.5,0.5,0.7,0l2.4-4.9c0.1-0.3,0.4-0.4,0.7-0.3c1,0.3,2,0.3,3-0.2c0.4-0.1,0.6-0.6,0.4-0.9
			c-0.1-0.3-0.4-0.5-0.7-0.5h-2c-0.4,0-0.5-0.2-0.5-0.5c0-0.2,0.2-0.4,0.5-0.5c1.6-0.3,3.1,0,4.4,1c0.1,0.1,0.2,0.2,0.2,0.3l0.9,3
			c0.1,0.3,0.3,0.5,0.6,0.6c1.7,0.4,3.1,1.3,4,2.7c0.2,0.3,0.6,0.4,0.9,0.2c0,0,0,0,0,0c1.5-1.1,3-1.1,4.3,0
			c0.3,0.2,0.7,0.2,0.9-0.1c0,0,0,0,0-0.1c1.1-1.6,2.6-2.5,4.5-2.7c0.3,0,0.5,0.1,0.7,0.3l1.5,1.8c0.2,0.2,0.2,0.5,0,0.7
			c-0.9,1.1-1.2,2.3-0.9,3.6c0.1,0.4,0.4,0.5,0.8,0.4c1.3-0.4,2.1-1.2,2.2-2.6c0-0.3,0.2-0.6,0.5-0.7l3.3-1.3
			c0.4-0.2,0.6-0.4,0.7-0.8l0.8-4.5c0.1-0.3-0.2-0.6-0.5-0.7c0,0,0,0,0,0l-1.8-0.3c-0.3-0.1-0.5-0.2-0.5-0.6l-0.1-4.2
			c0-0.3,0.2-0.6,0.5-0.7c1.4-0.3,1.9-1.2,1.6-2.7c0-0.2,0-0.4,0.2-0.5l5.5-2.4c1-0.4,2.2,0,2.6,1c0.1,0.3,0.2,0.6,0.2,0.8
			c-0.1,1.8-0.9,3-2.5,3.5c-0.8,0.2-1.2,1-1,1.8c0.1,0.4,0.4,0.8,0.9,0.9c1.2,0.5,1.6,1.3,1.3,2.6c-0.1,0.3,0,0.6,0.1,0.9
			c0.8,1.4,1.2,2.8,1.2,4.4c0,0.6,0.3,0.7,0.8,0.5c1.1-0.6,2.2-0.6,3.4-0.2c0.3,0.1,0.5,0.3,0.5,0.7c0.1,0.8-0.3,1.4-1,1.8
			c-0.3,0.1-0.5,0.3-0.5,0.6l-1.4,4.7c-0.1,0.3,0.1,0.5,0.3,0.6c0.2,0.1,0.4,0,0.5-0.1l3-3.4c0.1-0.1,0.2-0.1,0.3-0.2
			c1.8-0.2,2.3-1.3,1.7-3.4c-0.1-0.4,0.1-0.9,0.5-1.1l5.2-2.3c0.3-0.1,0.7,0,0.8,0.3c0,0,0,0,0,0l0.4,1.1c0.1,0.4,0.4,0.7,0.9,0.7
			l2.9,0.2c0.4,0,0.7,0.3,0.6,0.7c0,0.2-0.1,0.3-0.2,0.5l-3.5,3.3c-0.2,0.2-0.3,0.5-0.3,0.8l0.1,3.6c0,0.5-0.4,1-0.9,1.1
			c-2.3,0.5-3.8,1.9-4.3,4.1c-0.1,0.4-0.5,0.6-0.8,0.5c-0.2-0.1-0.4-0.3-0.5-0.5l-0.6-2.8c-0.2-0.9-1.1-1.4-1.9-1.2
			c-0.4,0.1-0.7,0.3-0.9,0.6c-1.1,1.6-2.5,1.8-4.2,0.6c-0.3-0.2-0.7-0.2-0.9,0.1c-0.1,0.2-0.2,0.5-0.1,0.7c0.5,1,0.2,1.9-1,2.7
			c-0.2,0.1-0.4,0.2-0.7,0.1l-2.4-0.5c-0.2,0-0.4,0.1-0.5,0.3c0,0.2,0,0.3,0.2,0.4l1,0.7c0.5,0.3,0.6,1,0.3,1.5
			c-0.2,0.2-0.5,0.4-0.8,0.4c-1.7,0.2-2.4,1.2-2.1,2.9c0.1,0.8-0.4,1.5-1.2,1.6c-0.3,0-0.7,0-1-0.2l-1.1-0.7c-0.4-0.2-0.7-0.2-1,0
			c-1.5,1-3.1,1.3-5,0.8c-0.3-0.1-0.7,0-1,0.1c-0.2,0.1-0.4,0.2-0.5,0.4c-0.3,0.3-0.2,0.5,0.2,0.5c1.4,0.2,2.5,0.8,3.3,1.9
			c0.2,0.2,0.1,0.6-0.1,0.7c0,0-0.1,0-0.1,0l-4.2,1.9c-0.3,0.1-0.7,0.1-1,0c-2.6-1.1-5.7,2.3-6.5,4.3c-0.1,0.3-0.3,0.5-0.6,0.7
			l-1.8,1.3c-0.2,0.1-0.3,0.3-0.3,0.5l-0.6,6c0,0.3,0.2,0.5,0.4,0.5c0,0,0,0,0,0c2.2,0.1,3.4,1.4,3.5,3.8c0,0.3-0.1,0.6-0.3,0.8
			l-1.5,1.6c-0.3,0.3-0.3,0.7,0,0.9c0.2,0.2,0.4,0.2,0.7,0.2c2.3-0.7,4.3-0.4,5.8,0.9c2.6,2.2,5.2,3.8,8.2,5.4
			c1.8,0.9,3.5,0.6,5.5,0.8c0.4,0,0.7,0.4,0.7,0.8c0,0.3-0.2,0.5-0.4,0.6l-1.2,0.6c-0.4,0.2-0.4,0.4-0.1,0.7
			c1.2,0.9,1.8,2.2,1.9,3.7c0,0.4-0.1,0.7-0.4,0.9l-0.7,0.5c-0.2,0.2-0.4,0.5-0.3,0.8l1.4,5.1c0.1,0.3,0.3,0.5,0.6,0.7
			c3.2,1,4.3-1.4,4.4-4.2c0.1-2.6,0.6-5.1,1.5-7.6c0.1-0.3,0.4-0.6,0.8-0.6l1.5-0.3c0.4-0.1,0.7-0.4,0.8-0.7
			c0.4-1.8,1.7-2.5,3.7-2.1c0.6,0.1,1.2-0.2,1.3-0.9c0-0.1,0-0.3,0-0.4c-0.3-2.2,0.3-4,1.7-5.6c0.3-0.3,0.3-0.6,0-0.8l-2.9-3.2
			c-0.2-0.2-0.2-0.5,0-0.7c0,0,0,0,0.1-0.1l5.1-3.3c0.3-0.2,0.3-0.4,0.2-0.7c-0.8-1.7-0.8-3.5,0.1-5.1c0.1-0.2,0.1-0.5,0-0.7
			l-0.8-2.1c-0.1-0.3,0-0.6,0.3-0.7c0.1,0,0.1,0,0.2,0c2.5,0.2,5,0.3,7.5,0.4c2.1,0.1,3.4,1.2,5.1,2.2c0.4,0.2,0.5,0.5,0.5,1l-0.3,2
			c0,0.4,0.2,0.7,0.6,0.7c0,0,0,0,0.1,0l2.7,0.1c0.4,0,0.7,0.3,0.7,0.7c0,0.1,0,0.2-0.1,0.3c-1.5,3.1-1.7,6.4-0.7,9.8
			c0.1,0.4,0.4,0.6,0.8,0.4c2.6-0.9,5.1-2.1,7.5-3.6c0.3-0.2,0.5-0.5,0.7-0.8l2.1-3.7c0.1-0.2,0.4-0.3,0.7-0.2
			c0.1,0,0.1,0.1,0.1,0.1l1.9,2.3c0.2,0.3,0.2,0.6,0,0.9l-1.3,1.3c-0.2,0.2-0.2,0.6,0,0.9c0,0,0,0,0,0l1.4,1.2
			c0.2,0.2,0.4,0.5,0.4,0.8l0.1,9.2c0,0.3,0.2,0.6,0.5,0.7l1.3,0.6c0.2,0.1,0.4,0.3,0.6,0.5c1,1.5,4.6,3.2,4.9,4
			c0.1,0.2-0.1,0.4-0.2,0.4c0,0-0.1,0-0.1,0l-3-0.2c-0.5,0-0.6,0.2-0.3,0.6l0.3,0.4c0.1,0.2,0.3,0.3,0.5,0.2c3.7-0.8,6,0.6,6.8,4.4
			c-0.8,0.1-1.3,0.4-1.5,0.9c-0.1,0.2-0.1,0.4,0,0.6l0.7,1.4c0.2,0.4,0.1,0.6-0.4,0.6l-5,0.1c-0.4,0-0.7,0.1-0.9,0.4
			c-4.4,4.1-10.6,2.8-17.2,2c-3.1-0.4-9.6,5.1-11.8,7c-0.2,0.1-0.2,0.4-0.1,0.5c0.1,0.1,0.3,0.2,0.4,0.1c3.7-1.9,7.7-3,11.9-3.1
			c0.6,0,1.1,0.5,1.1,1.1c0,0.3-0.1,0.6-0.3,0.8l-2.8,2.7c-0.3,0.3-0.3,0.8,0,1.1c0.1,0.1,0.1,0.1,0.2,0.2c0.9,0.4,1.5,1.1,1.8,2.1
			c0.1,0.3,0.3,0.6,0.6,0.7c1.2,0.7,2.7,1.1,4.4,1.4c0.2,0,0.3,0.2,0.3,0.4c0,0.2-0.1,0.3-0.3,0.4c-3.1,0.1-5.6,1.2-7.6,3.6
			c-0.6,0.7-1.2,0.7-2,0.1c-0.5-0.4-0.6-1.1-0.2-1.6c0.1-0.1,0.2-0.2,0.3-0.3l1.6-0.9c0.1-0.1,0.2-0.3,0.1-0.4
			c-0.1-0.1-0.2-0.1-0.3-0.1c-2.3,0.1-4.2,0.9-5.7,2.4c-0.3,0.3-0.6,0.4-1.1,0.4c-4,0.1-9,0.5-7.5,6.2c0.1,0.4-0.1,0.8-0.5,1
			c-2.2,1.1-4.5,1.3-7,0.8c-0.4-0.1-0.8,0.1-1,0.5l-0.7,1.2c-0.2,0.3-0.5,0.5-0.9,0.5c-1.5-0.1-2.1,0.6-1.9,2.2
			c0.1,0.4-0.1,0.8-0.4,1c-0.9,0.6-1.7,0.6-2.6-0.2c-0.2-0.2-0.5-0.2-0.7,0c-0.1,0.2-0.2,0.4-0.1,0.6c0.9,1.8,0.3,2.8-1.8,3
			c-0.4,0-0.6,0.4-0.6,0.7c0,0,0,0.1,0,0.1l0.9,2.9c0.3,0.9,0.1,1.8-0.5,2.5c-3.5,4.1-10.1,7.2-14.8,9.7c-0.3,0.2-0.5,0.4-0.6,0.7
			c-1.8,5.7,3.3,10.8,0.8,15.1c-0.6,1-1.3,1.5-2.1,1.6c-0.4,0-0.8-0.2-0.9-0.5c-1.6-3.5-2-8.1-4.2-11c-0.2-0.2-0.4-0.4-0.7-0.4
			l-13.7-1.3c-0.3,0-0.6,0.2-0.6,0.5c0,0.1,0,0.1,0,0.1l0.2,1.4c0.1,0.6-0.3,1.1-0.8,1.2c-0.3,0-0.5,0-0.7-0.1
			c-1-0.6-2.1-0.8-3.2-0.6c-0.4,0.1-0.7,0-1-0.1c-4.4-2.2-8.1-1.5-11.1,2.1c-0.2,0.3-0.6,0.5-0.9,0.6c-3.3,0.7-4.6,2.8-4,6.3
			c0.1,0.3,0,0.7-0.2,1l-3.5,7.3c-0.2,0.3-0.2,0.7,0,1c3.6,7.7,8,11.1,16.9,9.4c0.3-0.1,0.5-0.3,0.6-0.6l0.3-1.9
			c0.1-0.4,0.2-0.7,0.4-1l3.6-4.7c0.2-0.2,0.5-0.4,0.8-0.3l5.5,0.5c0.4,0,0.7,0.4,0.7,0.8c0,0,0,0.1,0,0.1
			c-0.9,4.4-2.7,8.5-5.4,12.1c-0.3,0.3-0.2,0.5,0.2,0.5c1.7,0,3.4,0,5.1,0c3.4,0,6.3,1.4,9.7,1.9c0.8,0.1,0.9,0.4,0.2,0.9l-1.3,1.1
			c-0.2,0.2-0.3,0.5-0.1,0.8l1.2,1.5c0.2,0.3,0.2,0.5,0,0.8c-1.8,1.7-2.1,3.9-0.9,6.5c0.1,0.2,0.3,0.4,0.5,0.5l5.7,2.1
			c0.2,0.1,0.4,0,0.5-0.1c2-1.5,4-1.7,5.9-0.7c-0.1,0.3-0.2,0.5-0.5,0.7"/>
	</g>
	<path class="st3" d="M249.8,137.3c-2.2,2.2-4.7,4.1-7.4,5.7c-0.2,0.1-0.5,0.2-0.8,0.1l-3.2-1.4c-0.4-0.2-0.5-0.4-0.3-0.8
		c2.9-5.9,3.1-10.6,10-13c0.3-0.1,0.6-0.3,0.8-0.6c1.8-2.6,7.1-0.4,9.3-0.2c0.4,0,0.7,0.2,1,0.4l2.7,1.9c0.3,0.2,0.5,0.6,0.4,1
		l-0.7,2.7c-0.1,0.4-0.4,0.6-0.8,0.7C257.1,134.1,252.6,134.6,249.8,137.3z"/>
	
		<ellipse transform="matrix(0.1271 -0.9919 0.9919 0.1271 126.7605 399.3748)" class="st3" cx="290.3" cy="127.7" rx="0.7" ry="1.1"/>
	<path class="st3" d="M308.9,134.2c0,0.5-0.5,0.9-1,0.9c-0.1,0-0.1,0-0.2,0c-1.2-0.3-2.3-1-3.1-1.9c-0.3-0.3-0.3-0.6,0-0.9l2.4-2.4
		c0.5-0.5,1.2-0.5,1.7,0c0.2,0.2,0.4,0.6,0.3,0.9L308.9,134.2z"/>
	<path class="st3" d="M263.1,137.8c1.3-0.9,2.5-0.7,3.5,0.4c0.2,0.3,0.3,0.7,0.1,0.9l-1.4,1.9c-0.3,0.4-0.2,0.9,0.2,1.1
		c0.2,0.1,0.4,0.2,0.5,0.2l3.5-0.3c0.3,0,0.5,0.2,0.5,0.4c0,0,0,0,0,0.1v2.4c0,0.5,0.4,0.9,0.9,0.9c0.4,0,0.8-0.3,0.8-0.7
		c0.5-2.1,0.3-4.3-0.6-6.3c-0.1-0.4,0-0.6,0.3-0.7c2.6-0.7,3.7,1.5,6.1,2.1c0.3,0.1,0.6,0.4,0.6,0.7c0.4,2.4-0.5,3.8-2.8,4.3
		c-0.4,0.1-0.7,0.4-0.6,0.9l0.5,6.4c0,0.3,0.2,0.6,0.5,0.7c1.5,0.6,2.4,1.7,2.7,3.4c0.1,0.7-0.3,1.3-1,1.5c-0.1,0-0.1,0-0.2,0
		c-1.4,0.1-2.2,0.8-2.4,2.3c0,0.3-0.3,0.6-0.6,0.7l-3,0.7c-0.2,0.1-0.5,0-0.6-0.2L269,159c-0.2-0.3-0.7-0.4-1-0.2
		c-0.1,0-0.1,0.1-0.1,0.1l-1.6,2c-0.2,0.3-0.7,0.3-1,0.1c0,0-0.1-0.1-0.1-0.1l-1.4-1.9c-0.2-0.2-0.4-0.3-0.7-0.2
		c-1.2,0.3-2.1,1.1-2.6,2.2c-0.1,0.2-0.4,0.4-0.7,0.4c-2.7-0.2-12,1.1-10-4.1c0.1-0.3,0-0.6-0.3-0.7l-3.1-1.2
		c-0.4-0.2-0.7-0.6-0.5-1.1l1.2-4.5c0.1-0.3,0.4-0.5,0.8-0.5c0,0,0,0,0.1,0c2.9,1.1,6,1.6,9.1,1.5c0.4,0,0.5-0.2,0.4-0.6
		c-0.5-2.5-5.2-2.3-7-2.2c-0.6,0-1.2-0.3-1.6-0.8c-0.5-0.7-0.6-1.3-0.4-1.8c0.2-0.3,0.6-0.5,1.3-0.5c1.5-0.1,3-0.2,4.5-0.2
		c0.3,0,0.5-0.2,0.5-0.5v-0.3c0-0.2-0.1-0.4-0.3-0.4l-3.2-1.2c-0.6-0.3-0.9-1-0.7-1.6c0.2-0.6,0.8-0.9,1.4-0.7
		c1.2,0.3,2-0.1,2.2-1.2c0.1-0.4,0.4-0.7,0.8-0.8l8-2.5c0.4-0.1,0.7,0,0.8,0.4l0.1,0.5c0.1,0.4,0,0.6-0.5,0.6
		c-0.4,0-0.7,0.2-0.8,0.6c0,0.1,0.1,0.2,0.2,0.3C263,137.8,263,137.8,263.1,137.8z"/>
	<path class="st3" d="M278.6,135.8c0-0.3,0.2-0.5,0.5-0.5h0.5c1.8,0,3.3,0.7,3.3,1.5c0,0,0,0,0,0v0.2c0,0.8-1.5,1.4-3.3,1.4h-0.5
		c-0.3,0-0.5-0.2-0.5-0.5c0,0,0,0,0,0L278.6,135.8z"/>
	<path class="st3" d="M287.5,148.3l-1.2-0.6c-0.3-0.2-0.5-0.5-0.3-0.8c0.2-0.6,0.7-0.9,1.3-0.8c0.8,0.1,0.9-0.1,0.4-0.7
		c-0.2-0.3-0.6-0.4-1-0.3c-0.3,0.1-0.7-0.1-0.8-0.5c0-0.1,0-0.1,0-0.2l0.2-3.7c0-0.4,0.3-0.7,0.7-0.6c0.1,0,0.3,0.1,0.4,0.1l2.5,1.8
		c0.3,0.2,0.6,0.1,0.8-0.1c0.1-0.1,0.1-0.3,0.1-0.4l-0.1-2.7c0-0.2,0.1-0.4,0.3-0.5c2.1-1.2,4.4-1.3,6.7-0.2
		c0.3,0.1,0.5,0.5,0.4,0.8c-0.7,2.3-2.2,3.6-4.5,3.9c-0.3,0.1-0.5,0.3-0.5,0.7c0,0.1,0.1,0.3,0.2,0.3l2.4,2c0.2,0.2,0.2,0.5,0,0.7
		c-0.1,0.1-0.1,0.1-0.2,0.1l-3.5,1.4c-0.4,0.2-0.7,0.5-0.7,0.9c-0.2,1.4-1.1,2.2-2.6,2.2c-0.2,0-0.5-0.2-0.5-0.4c0,0,0,0,0,0V149
		C288,148.7,287.8,148.4,287.5,148.3z"/>
	<path class="st3" d="M303.9,141.1c0.3-1.8,1.3-2.7,3.2-2.8c0.4,0,0.7,0.1,0.9,0.4c1,1.2,2.3,2,3.8,2.5c0.5,0.2,0.8,0.7,0.6,1.2
		c-0.1,0.4-0.4,0.6-0.8,0.7l-1.2,0.1c-0.3,0-0.6,0.2-0.8,0.4c-2,2.4-4.5,3.2-7.6,2.5c-0.7-0.2-1.4,0.2-1.5,0.9c0,0.2,0,0.4,0,0.6
		c0.3,1.1-0.2,1.8-1.4,2.2c-1,0.3-2.1-0.3-2.4-1.3c-0.1-0.4-0.1-0.7,0-1.1c0.3-1,0.8-1.8,1.4-2.4c0.3-0.2,0.5-0.5,0.6-0.8l2.2-4.6
		c0.3-0.6,0.6-0.6,1,0l1,1.8c0.1,0.2,0.4,0.3,0.7,0.2C303.7,141.4,303.8,141.2,303.9,141.1z"/>
	<path class="st3" d="M345.5,166.8l2.8,0.6c0.3,0.1,0.4,0.2,0.4,0.5v0.4c0,0.5-0.2,0.8-0.8,0.8h-1.3c-0.3,0-0.5,0.2-0.5,0.5
		c0,0.2,0.1,0.4,0.3,0.5l1.1,0.3c0.4,0.1,0.5,0.4,0.5,0.8l-0.2,1.2c-0.1,0.4-0.3,0.5-0.7,0.3l-1.6-0.8c-0.3-0.1-0.6,0-0.8,0.3
		c-0.1,0.1-0.1,0.3,0,0.4l0.9,3.7c0.1,0.4,0.4,0.6,0.7,0.8c2.2,0.6,3.6,2.1,4.2,4.3c0.1,0.3,0.3,0.5,0.6,0.6l1.9,0.4
		c1,0.2,1.3,0.8,1.1,1.7c-0.6,2.3-2,3.7-4.3,4.2c-0.4,0.1-0.6,0.3-0.8,0.7l-0.3,1c-0.1,0.4-0.4,0.5-0.7,0.2c-1.4-1-1.7-2.4-0.9-4
		c0.1-0.2,0-0.5-0.2-0.7c-0.1-0.1-0.2-0.1-0.3,0c-0.9,0.2-1.6,0-2.2-0.6c-0.9-0.9-2.4-1-3.3-0.1c-0.5,0.5-0.8,1.1-0.7,1.8
		c0.1,2.5,1.1,4.5,3.1,5.8c0.2,0.2,0.4,0.4,0.4,0.7l0.3,3.4c0,0.5-0.2,0.9-0.7,1.1c-0.7,0.2-1.1,0.7-1.2,1.5c0,0.3-0.3,0.5-0.6,0.4
		c-0.1,0-0.2-0.1-0.3-0.2l-3.9-4.4c-0.2-0.2-0.5-0.3-0.7-0.2l-0.6,0.2c-0.1,0-0.2,0.1-0.1,0.3c0,0,0,0.1,0.1,0.1
		c2.1,1.4,2.9,3.5,2.5,6.1c0,0.3-0.3,0.5-0.5,0.5c-1.4,0-2.2-0.7-2.4-2.1c0-0.3-0.3-0.6-0.6-0.6c-2.9-0.5-5.6-1.1-5.5-4.8
		c0-0.3-0.2-0.5-0.5-0.6c-1.9-0.4-2.5-1.5-1.9-3.2c0.2-0.4,0-0.7-0.5-0.7l-9.7,0.1c-0.4,0-0.7-0.3-0.7-0.7c0-0.1,0-0.1,0-0.2l1-3.5
		c0.2-0.7,0.9-1.1,1.5-0.9c0.3,0.1,0.6,0.3,0.7,0.6l1.1,1.8c0.2,0.3,0.4,0.3,0.5-0.1c0.2-0.4,0.4-0.7,0.8-0.9
		c0.8-0.4,3.7-0.1,5.2-0.6c0.2-0.1,0.4-0.4,0.3-0.6c0-0.1-0.1-0.2-0.2-0.2l-0.9-0.5c-0.6-0.3-0.6-0.7,0-1l2.6-1.3
		c0.2-0.1,0.4-0.3,0.5-0.6c0.3-1.1,1.1-1.6,2.4-1.6c0.5,0,1-0.4,1-1l0.2-5.8c0-0.3-0.1-0.5-0.3-0.7c-1.5-1.2-3.1-1.5-5-0.8
		c-0.2,0.1-0.5,0-0.6-0.3c0,0,0-0.1,0-0.1c0-0.3,0.1-0.6,0.4-0.8c0.3-0.2,0.5-0.5,0.5-0.9c0.1-2.9-0.9-5.2-3-7.1
		c-0.6-0.5-0.9-0.4-0.7,0.4l0.3,1.9c0,0.2,0,0.4-0.2,0.6c-0.5,0.5-1.2,0.7-2.1,0.5c-0.3-0.1-0.6-0.2-0.8-0.5l-0.3-0.5
		c-0.2-0.3-0.5-0.5-0.8-0.6c-1-0.2-2-0.4-3.1-0.7c-2.4-0.6-4.9,0.1-7.4-0.1c-0.4,0-0.7-0.2-0.8-0.6c-0.7-2-2.1-3.5-4.1-4.5
		c-0.3-0.2-0.5-0.6-0.3-0.9c0,0,0-0.1,0.1-0.1l0.2-0.3c0.2-0.2,0.5-0.3,0.7-0.1c0,0,0,0,0.1,0c0.6,0.5,1.2,0.8,1.8,0.8
		c0.5,0,0.9-0.4,0.8-0.9c0-0.4-0.3-0.8-0.8-0.8l-2.7-0.4c-0.3,0-0.5-0.3-0.5-0.6c0-0.1,0.1-0.2,0.2-0.3l1.7-1.5
		c0.2-0.2,0.2-0.4,0.2-0.6c-0.8-3.6,4.3-6,6.4-7.9c2.2-1.9,3.9-1.9,6.6-1.6c0.4,0.1,0.7,0.4,0.6,0.8c0,0.2-0.2,0.4-0.4,0.5
		c-3,1.5-5.1,3.7-6.5,6.7c-0.1,0.3-0.2,0.5-0.1,0.8l0.5,5.2c0,0.3,0.2,0.6,0.5,0.7c0.6,0.2,1,0.2,1.3-0.2c0.2-0.2,0.2-0.6,0.1-1
		c-0.2-1-0.4-2.1-0.6-3.2c-0.1-0.4,0-0.7,0.4-0.9l1.9-1.4c0.2-0.2,0.3-0.5,0.1-0.7c0,0,0,0,0,0l-0.8-1c-0.1-0.1-0.1-0.2-0.1-0.4
		c0.3-1,0.9-1.3,1.9-1.2c0.3,0,0.5-0.1,0.6-0.4c0.5-2.3,5.9-2.2,7.5-2.3c0.4,0,0.7,0.2,0.8,0.6c0.5,1.8,0.1,3.3-1.1,4.5
		c-0.2,0.3-0.4,0.6-0.4,0.9l-0.2,2c0,0.3,0.1,0.4,0.3,0.3c3.5-0.8,7.1-1,10.6-0.6c0.5,0.1,0.6,0.3,0.2,0.6l-1.2,1.2
		c-0.4,0.4-0.3,0.7,0.2,0.8l1.8,0.3c0.2,0,0.4,0.3,0.4,0.5c0,0.1,0,0.1-0.1,0.1l-0.7,1.1c-0.3,0.4-0.1,1,0.3,1.2
		c0.2,0.1,0.4,0.1,0.6,0.1c1.1-0.1,2.2,0,3.2,0.3c0.4,0.2,0.6,0.6,0.4,1c-0.1,0.3-0.5,0.5-0.8,0.5c-0.4-0.1-0.9,0-1.3,0.2
		c-0.5,0.3-0.5,0.6,0,0.8c0.5,0.2,1.1,0.3,1.7,0.2c0.3,0,0.6,0.1,0.8,0.3c0.4,0.5,0.4,1,0,1.5c-0.2,0.2-0.1,0.5,0.1,0.6
		c0.2,0.1,0.4,0.1,0.5,0c1.5-0.8,2.9-0.6,4.2,0.6c0.2,0.2,0.2,0.5,0,0.7c-0.1,0.1-0.2,0.1-0.3,0.1l-1.6,0.1c-0.2,0-0.4,0.2-0.3,0.4
		C345.2,166.6,345.3,166.7,345.5,166.8z"/>
	<path class="st3" d="M283.2,159.5c0.4-0.6,1.2-0.8,1.9-0.4c0.1,0,0.1,0.1,0.2,0.1c1.9,1.6,2.8,3.5,2.8,5.8c0,0.4-0.2,0.6-0.5,0.8
		c-3.5,2-3.5-2.4-6.8-1.3c-0.2,0.1-0.4-0.1-0.4-0.2c0-0.1,0-0.2,0-0.3L283.2,159.5z"/>
	<path class="st3" d="M325.5,168.6c0,0.1,0,0.2-0.1,0.2l-0.2,0.1c-2.5,1.3-4.7,2.1-4.9,1.7c0,0,0,0,0,0l-0.1-0.1
		c-0.2-0.4,1.7-1.8,4.2-3.1l0.2-0.1c0.1,0,0.2,0,0.2,0.1L325.5,168.6z"/>
	
		<ellipse transform="matrix(0.9184 -0.3955 0.3955 0.9184 -43.1006 142.7964)" class="st3" cx="324.7" cy="175.9" rx="2.7" ry="1.8"/>
	<path class="st3" d="M328.4,175.4l0.6-0.5c0.4-0.4,1.1-0.3,1.5,0.2c0,0,0,0.1,0.1,0.1c0.6,1,0.1,1.6-1.5,1.8
		c-0.5,0.1-0.9-0.3-1-0.7C328,176,328.2,175.6,328.4,175.4z"/>
	<path class="st3" d="M305,185.8c2.4,1.6,4,3.8,4.7,6.7c0.1,0.3-0.1,0.5-0.3,0.6c-0.2,0-0.4,0-0.5-0.1c-0.8-0.9-1.9-1.3-3.1-1.1
		c-0.4,0-0.7-0.2-0.8-0.6c0,0,0-0.1,0-0.1c0-0.5-0.2-0.7-0.6-0.9c-0.3-0.1-0.7,0-1,0.1c-1.1,0.6-2.3,0.8-3.6,0.6
		c-0.3,0-0.5,0.1-0.6,0.4l-0.6,1.8c-0.1,0.2-0.3,0.3-0.5,0.3c-0.2-0.1-0.3-0.2-0.3-0.4v-1.2c0-0.3-0.1-0.6-0.5-0.8l-2-1.1
		c-0.2-0.1-0.3-0.4-0.2-0.6c0.1-0.1,0.2-0.2,0.3-0.2l1.8-0.5c0.3-0.1,0.5-0.2,0.6-0.5c0.8-1.8,1.4-5.8,3.7-5.8
		c0.3,0,0.5,0.2,0.4,0.5l-0.4,1.4c-0.1,0.2,0.1,0.4,0.3,0.5c0.1,0,0.2,0,0.3,0l1.2-0.7c0.2-0.1,0.4,0,0.5,0.2l0.5,0.9
		C304.5,185.4,304.7,185.6,305,185.8z"/>
	
		<ellipse transform="matrix(8.019890e-02 -0.9968 0.9968 8.019890e-02 95.7007 492.1698)" class="st3" cx="314.5" cy="194.2" rx="1.5" ry="0.7"/>
	<path class="st3" d="M301.9,194.5c0.2-0.2,0.5-0.3,0.9-0.2c0.4,0.1,0.7,0.4,0.9,0.9c0.1,0.3,0,0.5-0.3,0.6l-3.1,1
		c-0.2,0-0.3-0.1-0.4-0.2c0-0.1,0-0.2,0.1-0.3L301.9,194.5z"/>
	<ellipse transform="matrix(0.5592 -0.829 0.829 0.5592 -28.419 343.1116)" class="st3" cx="308.4" cy="198.3" rx="2" ry="0.8"/>
	<path class="st3" d="M287,321.3c-1,0-1.7-0.4-2-1.4c-0.1-0.3-0.4-0.6-0.8-0.6c-3.6-0.5-7-1.5-10.3-2.9c-0.3-0.2-0.7-0.1-0.9,0.1
		l-1.8,1.4c-0.4,0.3-0.7,0.2-1-0.2l-0.2-0.5c-0.1-0.2,0-0.4,0.1-0.6c3.7-2.5,5.4-1,9.3-0.7c1,0.1,1.8,0.3,2.5,0.7
		c3.6,1.8,8.9,4.7,13,4.7c0.1,0,0.2,0.1,0.1,0.2c0,0,0,0.1-0.1,0.1c-2.2,1.4-4.5,2.2-7,2.6c-0.8,0.1-1-0.2-0.6-0.8
		c0.2-0.4,0.3-0.9,0.2-1.4C287.6,321.5,287.4,321.3,287,321.3z"/>
	<path class="st3" d="M299.5,325l-1.8-1.5c-0.3-0.2-0.3-0.4,0.1-0.6c2-1,3.6,1,5.1-0.5c0.3-0.3,0.7-0.3,1.1-0.1l4.5,2.8
		c0.5,0.3,0.6,0.9,0.3,1.4c-0.2,0.4-0.7,0.6-1.1,0.5c-2.3-0.5-4.4-0.2-6.3,0.8c-0.3,0.2-0.6,0.2-0.9,0c-1.9-1.4-4.6-0.4-5.5-1.1
		c-0.2-0.1-0.2-0.4-0.1-0.5c0.1-0.1,0.2-0.1,0.3-0.2l4.1-0.3C300,325.8,300.1,325.5,299.5,325z"/>
	
		<ellipse transform="matrix(0.3778 -0.9259 0.9259 0.3778 -125.0034 468.5953)" class="st3" cx="286.2" cy="327.3" rx="1.3" ry="2.7"/>
	
		<ellipse transform="matrix(0.9997 -2.443218e-02 2.443218e-02 0.9997 -7.9065 7.7985)" class="st3" cx="315.2" cy="327.5" rx="2.5" ry="0.9"/>
</g>
<path class="st1" d="M422.6,330l2,0.4c0.2,0,0.3,0.2,0.2,0.4c0,0.1-0.1,0.2-0.2,0.2c-0.9,0.1-1.6-0.1-2.1-0.7
	C422,330,422.1,329.9,422.6,330z"/>
<ellipse transform="matrix(0.9157 -0.4019 0.4019 0.9157 -84.1587 280.5441)" class="st6" cx="626.5" cy="340.8" rx="1.6" ry="0.6"/>
<ellipse transform="matrix(0.6334 -0.7738 0.7738 0.6334 -145.9304 380.4579)" class="st7" cx="328.6" cy="344.2" rx="1.4" ry="0.8"/>
<path class="st2" d="M839,383c0.1-0.5,0.4-0.6,0.9-0.3c0.2,0.1,0.3,0.3,0.3,0.5c0.2,1.1-0.2,1.7-1.3,2c-0.4,0.1-0.6-0.1-0.7-0.5
	c-0.1-0.5,0-0.9,0.4-1.2C838.8,383.3,838.9,383.2,839,383z"/>
<g>
	<path class="st2" d="M641.5,98c0.7,0.5,0.9,1.4,0.4,2.1l-0.1,0.1c-2,2.8-5.2,4-7.2,2.5l-0.1-0.1c-2-1.4-2.1-4.8-0.1-7.7l0.1-0.1
		c0.5-0.7,1.4-0.9,2.1-0.4L641.5,98z"/>
	<path class="st2" d="M647.4,103.1l0.2-1.8c0-0.3,0.2-0.4,0.5-0.3c1.7,0.9,2.7,2.2,3.1,4.1c0,0.2,0.1,0.3,0.2,0.4l2,1.8
		c0.3,0.2,0.4,0.5,0.3,0.9c-0.2,1.5-1.2,2.1-2.8,1.8c-2.5-0.4-4.7-0.6-6.7-0.5c-0.2,0-0.4-0.1-0.6-0.2l-2.2-1.9
		c-0.1-0.1-0.2-0.2-0.2-0.3c-1.1-2.9-0.3-5.2,2.4-6.7c0.3-0.1,0.5-0.1,0.8,0c1.1,0.5,1.6,1.4,1.7,2.7c0,0.3,0.3,0.5,0.6,0.5
		C647.1,103.5,647.3,103.3,647.4,103.1z"/>
	<path class="st2" d="M752.5,106.1c0.1,0,0.2,0.1,0.2,0.2c0.5,0.4,0.5,1,0.2,1.5c-0.2,0.3-0.5,0.4-0.9,0.4c-3.1-0.1-4.9-1.8-5.4-5
		c-0.1-0.3,0.1-0.5,0.4-0.4l5.1,0.7c0.4,0,0.6,0.4,0.5,0.7c0,0.1-0.1,0.3-0.2,0.3c-0.1,0.1-0.2,0.2-0.2,0.2
		C751.8,105.2,751.8,105.7,752.5,106.1z"/>
	<path class="st2" d="M656.6,103.4c0-0.3,0.2-0.5,0.5-0.5c0.2,0,0.4,0.1,0.5,0.3l0.5,1.2c0.1,0.3,0.3,0.5,0.7,0.6l6.7,1.3
		c0.4,0.1,0.6,0.4,0.6,0.8c-0.3,3.1-4,5-6.2,6.7c-0.7,0.5-1.7,0.4-2.2-0.3c-0.2-0.2-0.3-0.5-0.3-0.8L656.6,103.4z"/>
	<path class="st2" d="M742.7,105.6l-0.2-2c0-0.3,0.2-0.7,0.6-0.7c0,0,0.1,0,0.1,0l1.2,0c0.4,0,0.6,0.2,0.7,0.6
		c0.6,3.4,2.5,5.1,5.7,5.3c0.2,0,0.4,0.2,0.4,0.4c0,0.1-0.1,0.2-0.1,0.3c-1.9,1.6-4.2-0.5-5.9,3.1c-0.1,0.3-0.4,0.4-0.7,0.5
		c-5.2,0.5-8.5-4.3-8.5-8.9c0-0.7,0.5-1.2,1.2-1.2c0.2,0,0.5,0.1,0.7,0.2l4.1,2.8c0.2,0.2,0.5,0.1,0.7-0.1
		C742.6,105.9,742.7,105.7,742.7,105.6z"/>
	<path class="st2" d="M763.9,105.9c0,0.3-0.3,0.4-0.5,0.4c0,0,0,0,0,0l-0.1,0c-4.4-0.6-7.8-1.5-7.8-2.2l0-0.4c0-0.7,3.6-0.8,8-0.2
		c0,0,0,0,0.1,0l0.1,0c0.3,0,0.4,0.3,0.4,0.5L763.9,105.9z"/>
	<path class="st2" d="M638.6,105.8c-0.2,0.3-0.4,0.5-0.8,0.5c-0.8-0.1-1.5-0.5-1.9-1.3c-0.2-0.4-0.1-0.9,0.3-1.1
		c0.1-0.1,0.3-0.1,0.5-0.1C638.5,103.9,639.1,104.6,638.6,105.8z"/>
	<path class="st2" d="M695.3,345.4c-3.1,3.1-9.2,9.1-9.7-0.7c0-0.8-0.5-1.3-1.2-1.4c-1.1-0.1-1.6-0.7-1.6-1.8c0-0.4-0.2-0.7-0.5-1
		c-2.2-1.5-4.4-9.1-5.6-12c-0.1-0.3-0.1-0.7,0.1-1c0.5-0.9,0.3-1.4-0.8-1.5c-0.4,0-0.7-0.4-0.7-0.7l-0.6-7.2c0-0.3-0.3-0.6-0.6-0.5
		c-0.2,0-0.4,0.1-0.5,0.3l-1.8,2.9c-0.2,0.3-0.5,0.4-0.8,0.4c-2-0.3-3.6-1.2-5-2.7c-0.2-0.3-0.2-0.5,0.1-0.6l1.9-0.9
		c0.2-0.1,0.3-0.3,0.2-0.5c-0.1-0.2-0.3-0.3-0.5-0.3c-1.8,0.3-3.2-0.2-3.9-1.6c-0.2-0.4-0.6-0.6-1.1-0.5l-2.7,0.3
		c-0.3,0-0.7-0.2-0.7-0.6c0,0,0,0,0,0l-0.4-2.9c0-0.3-0.2-0.5-0.6-0.5c-3.8-0.2-7.7-0.1-11.5,0.1c-4.8,0.3-8.8-0.7-13.4-1.4
		c-0.4-0.1-0.7-0.3-0.7-0.7l0-1.4c0-0.3-0.2-0.5-0.4-0.7c-1.1-0.6-2.2-0.7-3.4-0.4c-4.4,1.4-6.9-0.3-11.1-1c-0.3,0-0.6-0.3-0.6-0.6
		c-0.3-1.2-1-2.1-2.2-2.4c-0.3-0.1-0.6-0.4-0.7-0.8c-0.9-5.7-7.7-1.6-4.2,1.1c2.5,2,4.1,4.5,4.8,7.5c0.1,0.6,0.7,1,1.4,0.9
		c0.3-0.1,0.6-0.3,0.8-0.6l0.7-1.4c0.2-0.3,0.6-0.5,0.9-0.3c0.1,0.1,0.2,0.1,0.3,0.3c0.7,1.1,0.7,2.3,0.1,3.5
		c-0.2,0.4-0.1,1,0.4,1.2c0.1,0,0.2,0.1,0.3,0.1c4.5,0.8,7.5-0.9,9.1-4.9c0.2-0.5,0.7-0.7,1.2-0.6c0.3,0.1,0.5,0.3,0.6,0.6
		c0.3,0.9,0.9,1.6,1.8,2.1c0.2,0.1,0.3,0.2,0.4,0.4l0.5,1.6c0.1,0.4,0.3,0.6,0.7,0.6c3.1,0.7,7.9,2.4,6.5,6.6
		c-0.1,0.4-0.4,0.6-0.8,0.8c-1.8,0.6-2.6,2-2.4,4c0,0.3-0.1,0.6-0.4,0.8c-2.8,1.8-6.1,3.5-10,5c-2.7,1.1-5,2.9-7,5.5
		c-0.2,0.3-0.6,0.4-0.9,0.2l-1.9-0.8c-0.9-0.4-1.9-0.4-2.9,0l-12.1,4.8c-0.9,0.4-1.6,0.1-2-0.8c-2.2-5.4-5.3-10.6-9.2-15.4
		c-1.9-2.4-4.8-2.4-4.6-6.5c0.1-2.7-3.8-5.3-5.6-7c-2.6-2.4-3.4-5.8-6.4-8.3c0.5-3.6-0.4-5.6-2.6-5.8c2.3-4.4,5-6.8,3.7-12.3
		c-0.1-0.3-0.1-0.6,0.1-0.9c0.2-0.5,0-0.9-0.7-1c-1.1-0.3-1.9,0.1-2.4,1c-0.2,0.3-0.4,0.4-0.7,0.5c-2.8,0.8-5.3,0.4-7.5-1.2
		c-0.4-0.3-1-0.2-1.4,0.2c0,0.1-0.1,0.1-0.1,0.2c-0.5,1.1-1.3,1.5-2.4,1.4c-2.6-0.3-2.5-2.7-6-1.6c-0.2,0.1-0.5,0-0.6-0.3
		c0-0.1,0-0.1,0-0.2c0.4-1.9-0.4-2.8-2.1-2.8c-0.6,0-0.8-0.3-0.6-0.8l0.5-1.5c0.1-0.2,0-0.5-0.1-0.6c-1-1.2-1.1-2.3-0.4-3.3
		c0.4,0,0.7-0.2,1-0.5l4.7,0c0.3,0,0.5-0.1,0.6-0.4l0.8-1.4c0.1-0.2,0.4-0.4,0.7-0.3c2,0.4,3.8,0.1,5.4-0.9
		c3.6-2.2,6.7-2.3,10.6-0.4c4,2,8.2,1.1,12.4,1.1c6.7,1.1,8.6-1.3,13.4-5.1c0.3-0.2,0.5-0.6,0.5-0.9c0.3-2.3,1.1-4.3,2.4-6.2
		c0.2-0.4,0.2-0.7-0.2-1c-1.8-1.4-3.8-2.5-6-3.3c-0.9-0.3-1.4-1.3-1.1-2.3c0.2-0.7,0.8-1.1,1.5-1.2l8.3-0.8c0.4,0,0.7-0.4,0.6-0.8
		c0-0.1-0.1-0.3-0.2-0.4l-3.3-3.9c-0.2-0.3-0.2-0.5-0.1-0.8c0.9-1.7,3.2-2.1,2.4-4.5c-0.1-0.4-0.1-0.7,0.2-1c1.3-1.4,2-3.1,2-5.1
		c0-0.1,0-0.3,0.1-0.4l1.5-2.1c0.1-0.2,0.1-0.4,0-0.7l-2.3-4.1c-0.3-0.5-0.1-1.2,0.4-1.5c0.2-0.1,0.5-0.2,0.7-0.1
		c2.4,0.4,7.4,2.2,8.4-1.1c1-3.3,2.1-6,3.1-7.9c0.2-0.3,0.2-0.7,0.1-1c-0.4-1.4-1.3-2.3-2.8-2.6c-0.4-0.1-0.7-0.5-0.6-0.9l0.2-1.9
		c0-0.3,0.3-0.6,0.6-0.6l4.8-0.7c0.4,0,0.7-0.4,0.7-0.8c0.1-4.4,2.1-8,2.1-12.6c0-2.5,0.6-3.7,2.3-5.3c0.6-0.5,0.6-1.5,0.1-2
		c-0.1-0.1-0.2-0.2-0.3-0.2l-1.8-1.1c-0.3-0.2-0.5-0.6-0.5-1c0.2-1.3,0.9-2.3,2.1-2.8c0.3-0.2,0.6-0.4,0.8-0.8
		c0.7-1.4,0.7-2.8-0.2-3.9l0.6-1.9c0.1-0.3,0-0.6-0.2-0.8l-3.1-2.6c-0.3-0.2-0.6-0.3-1-0.2l-1,0.2c-0.7,0.2-1.1-0.1-1.1-0.8
		l-0.3-3.2c0-0.3-0.2-0.5-0.4-0.6c-2.2-0.9-2.8-2.8-1.7-5.7c2.2-1.9,0.3-4.9,1-7.5c0.1-0.3,0.4-0.6,0.7-0.5l6.1,0.3
		c0.9,0,1.5,0.8,1.5,1.6c0,0.1,0,0.2-0.1,0.4c-1,3.2-0.1,5.8,2.6,7.7c0.1,0.1,0.2,0.3,0.3,0.4l0.7,4.2c0,0.1,0.1,0.3,0.2,0.3
		c1.1,0.9,1.8,2.1,2,3.5c0.1,0.4,0.3,0.8,0.7,1l2.7,1.7c0.6,0.4,0.9,1.2,0.7,1.8c-0.2,0.4-0.5,0.6-1,0.6c-0.3,0-0.5,0-0.8,0.2
		c-0.3,0.3-0.3,0.5,0.1,0.7l1,0.5c0.3,0.1,0.4,0.5,0.3,0.8c0,0-0.1,0.1-0.1,0.1c-0.8,0.8-1.1,1.8-1,3c0,0.4-0.1,0.6-0.6,0.7
		c-1.6,0.1-3.1-0.2-4.4-1.1c-0.1-0.1-0.3-0.1-0.4,0.1c0,0,0,0.1,0,0.1c0,0.1-0.1,0.2-0.1,0.3c-0.1,0.2,0,0.3,0.2,0.3l7.1,2.1
		c0.4,0.1,0.7,0,0.9-0.4c1.8-3.9,2-7.8,0.6-11.8c-0.1-0.4,0-0.6,0.3-0.7c4.2-1.6,4.9,4.6,10.5,4.3c0.2,0,0.3-0.2,0.3-0.3
		c0-0.1-0.1-0.2-0.2-0.3l-3.3-0.6c-0.2,0-0.3-0.2-0.3-0.3l0-1.5c0-0.3-0.2-0.6-0.4-0.8c-2.9-2.1-6-2.7-9.4-1.9
		c-0.4,0.1-0.7,0-0.9-0.3c-1.2-1.2-1.5-2.7-0.9-4.4c0-0.1,0-0.3-0.1-0.4l-3.9-5.4c-0.3-0.4-0.2-0.7,0.1-1c1.6-1.6,1.7-3.2,0.3-5.1
		c-0.1-0.2-0.1-0.4,0-0.5c0.1-0.1,0.3-0.1,0.5,0c3.5,2.4,0.5,7.8,8.6,6.8c0.3,0,0.4-0.2,0.1-0.4c-0.9-0.9-3.4-0.1-4.9-1.7
		c-0.4-0.5-0.4-1.3,0.1-1.7c0.3-0.3,0.7-0.4,1-0.3l1.7,0.4c0.5,0.1,0.6-0.1,0.4-0.5c-0.7-1.1-1.6-1.6-2.9-1.5
		c-0.6,0-0.6-0.2-0.2-0.5l0.3-0.4c0.1-0.1,0.3-0.2,0.5-0.2c3.3,0.1,6.4,1.1,9,3.1c0.3,0.2,0.6,0.3,1,0.3h2c0.4,0,0.6,0.3,0.6,0.6
		c0,0,0,0,0,0l-0.2,3.1c0,0.3,0.2,0.6,0.5,0.6c0.3,0,0.5-0.2,0.6-0.4l0.3-1c0.1-0.3,0.4-0.5,0.7-0.4c0.2,0,0.3,0.2,0.3,0.3l1.5,3.5
		c0.1,0.2,0.4,0.3,0.6,0.2c0.2-0.1,0.3-0.2,0.3-0.4c-0.1-2.3-1-4.1-2.8-5.3c-0.2-0.1-0.3-0.3-0.4-0.6c-0.1-0.7-0.4-1.3-0.9-1.8
		c-0.2-0.2-0.5-0.4-0.9-0.5c-4.9-1.5-7.3-2.3-8.9-7.6c-0.1-0.4,0-0.6,0.4-0.7l10.2-2.3c0.4-0.1,0.5-0.3,0.4-0.7
		c-0.6-1.6-2.5-1-3.8-1.3c-0.4-0.1-0.4-0.3-0.2-0.6c0.7-1-0.2-2-2.7-2.9c-0.1,0-0.1-0.2-0.1-0.3c0-0.1,0.1-0.1,0.1-0.1l3-0.3
		c0.4,0,0.6-0.3,0.6-0.6l0.2-1.1c0-0.2,0.1-0.4,0.3-0.5l6-5.5c0.2-0.2,0.6-0.3,0.9-0.4l1.1,0c0.1,0,0.2-0.1,0.2-0.3
		c0-0.1-0.1-0.2-0.1-0.2l-0.9-0.3c-1-0.4-1-0.7,0.1-1c1-0.2,2-0.3,3-0.2c0.4,0,0.5-0.1,0.3-0.5l-0.3-0.5c-0.3-0.5-0.1-0.7,0.5-0.8
		c1.2,0,2,0.5,2.4,1.5c0.1,0.3,0.5,0.5,0.8,0.3c0.1,0,0.2-0.1,0.3-0.2l0.8-1.1c0.1-0.2,0.3-0.3,0.6-0.3c0.6,0.1,1.2,0.3,1.8,0.7
		c0.2,0.1,0.4,0.1,0.5,0l0.2-0.2c0.2-0.2,0.3-0.6,0.1-0.9l-0.7-1.2c-0.1-0.2-0.1-0.5,0.2-0.6c0.1-0.1,0.2-0.1,0.3-0.1
		c0.9,0.1,1.8,0,2.5-0.5c0.4-0.3,0.4-0.5,0-0.7c-4.8-2.6-3.7-9.6,2.1-9.6c0.3,0,0.5,0.2,0.6,0.5l0.4,3.3c0,0.4,0.4,0.6,0.7,0.6
		c0.2,0,0.3-0.1,0.4-0.2c1.1-1.2,2.4-1.6,4-1.2c0.3,0.1,0.5,0.3,0.6,0.6l0.2,2.6c0,0.3,0.3,0.5,0.6,0.5c0.2,0,0.4-0.2,0.5-0.4
		c2-5.4,7.6-4.2,10.4-0.5c0.2,0.3,0.5,0.3,0.7,0.1l0.7-0.7c0.3-0.3,0.7-0.3,1,0l1.7,1.7c0.3,0.3,0.3,0.6,0,0.9l-0.3,0.4
		c-0.1,0.2-0.1,0.4,0.1,0.6c0.1,0,0.1,0.1,0.2,0.1l1.2,0.1c0.4,0,0.6,0.2,0.6,0.6c1,4.4-2,7.9-2.8,12.1c-0.4,2.3-1.7,4.5-1.7,7
		c0,0.3,0.2,0.5,0.5,0.5c0,0,0,0,0,0l0.4,0c0.2,0,0.4-0.2,0.4-0.4l0.3-2.2c0-0.3,0.2-0.5,0.5-0.6c1.7-0.6,2.8-1.7,3.3-3.3
		c0.1-0.3,0.3-0.6,0.7-0.7l1.3-0.6c0.1,0,0.1-0.1,0.1-0.2c0-0.1-0.1-0.1-0.2-0.1l-2.4,0.6c-0.2,0.1-0.5-0.1-0.5-0.3
		c0-0.2,0-0.4,0.2-0.5l2.4-1.8c0.4-0.3,0.7-0.2,0.8,0.3l0.3,1.4c0.1,0.2,0.3,0.4,0.5,0.3c0.1,0,0.2-0.1,0.2-0.1l0.8-0.9
		c0.3-0.3,0.9-0.4,1.2,0c0.1,0.1,0.2,0.2,0.2,0.3c0.2,0.7,0.7,1.1,1.4,1.3c0.2,0.1,0.4,0,0.5-0.3c0-0.1,0-0.2,0-0.3
		c-0.4-0.7-0.3-1.4,0.4-1.9c0.3-0.2,0.6-0.4,0.9-0.3c2.7,0.2,5.3-0.2,7.8-1.4c0.3-0.1,0.6,0,0.7,0.2c0,0.1,0.1,0.2,0,0.3
		c-0.9,5.5,8.8,1.5,10.6,0.2c0.3-0.3,0.4-0.6,0.2-0.9l-1.1-1.6c-0.2-0.3-0.1-0.7,0.2-0.9c0.2-0.1,0.4-0.2,0.6-0.1l2.3,1
		c0.3,0.1,0.6,0,0.8-0.3c1.8-3.2,6.1,0.1,8.2,0.8c0.4,0.1,0.5,0.4,0.5,0.7c0,1.4,0.7,2.1,2.3,1.9c0.3,0,0.6,0.2,0.7,0.6c0,0,0,0,0,0
		l0.3,3.5c0,0.3,0.3,0.5,0.6,0.5c0.1,0,0.2-0.1,0.3-0.1l1.4-1.2c0.2-0.2,0.4-0.1,0.6,0c0,0,0.1,0.1,0.1,0.1l0.7,1.6
		c0.1,0.3,0.4,0.5,0.7,0.6l4,1.1c0.6,0.2,1.3-0.2,1.5-0.8c0.1-0.5,0-1-0.4-1.3l-2.6-2c-0.2-0.2-0.3-0.5-0.1-0.7
		c0.1-0.2,0.4-0.2,0.6-0.1c2.8,1.5,7.1,2.9,8.3-1.4c0.1-0.4,0.6-0.7,1.1-0.6c0.3,0.1,0.5,0.3,0.6,0.6c0.3,1.2,1.1,1.7,2.4,1.5
		c0.5-0.1,0.9-0.6,0.8-1.1c-0.1-0.4-0.3-0.7-0.7-0.8c-0.3-0.1-0.5-0.3-0.6-0.6c0-0.1,0.1-0.2,0.1-0.2c0,0,0,0,0,0l3.6,0.8
		c0.5,0.1,1-0.2,1.1-0.7c0-0.2,0-0.4-0.1-0.5c-0.8-1.8-2.2-3.1-4-3.9c-0.3-0.1-0.5-0.5-0.3-0.8c0-0.1,0.1-0.2,0.2-0.2l0.8-0.7
		c0.2-0.2,0.4-0.4,0.5-0.7l0.2-0.6c0.1-0.4,0.4-0.5,0.8-0.3l3,1.3c0.4,0.2,0.7,0.1,0.8-0.3c0.7-1.7,1.9-2.3,3.7-1.9
		c0.3,0.1,0.5,0.2,0.7,0.5l1.5,2.1c0.4,0.5,0.6,0.5,0.8-0.2l0.5-2.6c0.1-0.4,0.3-0.7,0.7-0.8c4.5-1.4,7.8-0.1,9.8,3.8
		c0.4,0.8,1.4,1.1,2.2,0.7c0.3-0.2,0.5-0.4,0.7-0.7c0.2-0.5,0.6-0.8,1-1c0.4-0.2,0.8,0,1,0.4l0.8,2c0.1,0.3,0.3,0.4,0.6,0.4
		c3,0,5.6-0.9,7.8-2.7c0.3-0.2,0.6-0.4,1-0.4l7.6-0.1c0.4,0,0.7,0.2,0.9,0.5l2.4,4.2c0.2,0.3,0.5,0.5,0.8,0.4c2-0.3,3.8,0.1,5.5,1.2
		c0.3,0.2,0.6,0.1,0.8-0.2c0-0.1,0.1-0.1,0.1-0.2l0.7-3c0.1-0.3,0.3-0.4,0.6-0.4c3,0.3,5.8-0.2,8.6-1.5c0.3-0.1,0.4-0.4,0.5-0.7
		l0.1-1.9c0-0.2,0.2-0.4,0.5-0.4c0.2,0,0.3,0.1,0.4,0.2c2,3.5,5.1,5.1,9.2,4.7c0.2,0,0.3-0.2,0.3-0.4c0-0.1,0-0.1-0.1-0.2l-4.7-6.1
		c-0.5-0.6-0.3-0.9,0.4-1c6.1-0.5,12-1.3,18.2-0.6c6.6,0.8,13.1,1.7,19.7,2.8c0.4,0.1,0.6,0.3,0.8,0.6c1,2.1,2.7,3.4,5,3.9
		c0.4,0.1,0.7-0.1,0.7-0.5l0-0.3c0-0.3-0.1-0.5-0.3-0.6c-4-1.4-1.9-6.1,0.6-5.4c3.3,0.9,5.5,1.6,7.4,4.7c0.2,0.4,0.2,0.7-0.1,1
		l-2,2.1c-0.2,0.2-0.2,0.6,0,0.8c0.1,0.1,0.4,0.2,0.6,0.1c0.9-0.3,1.5-0.1,1.9,0.6c0.3,0.7,0.1,1.6,0.2,2.6c0,0.2,0.1,0.4,0.4,0.5
		l1.9,0.9c0.3,0.2,0.5,0.6,0.3,0.9c0,0.1-0.1,0.2-0.2,0.2c-0.7,0.7-1.6,0.9-2.7,0.6c-0.1,0-0.3,0-0.4,0l-3.7,0.9
		c-0.3,0.1-0.6,0-0.7-0.3l-1.3-1.9c-0.3-0.4-0.8-0.5-1.2-0.2l-3.6,2.4c-0.3,0.2-0.6,0.2-1,0.1c-0.6-0.2-0.9-0.6-1.1-1.3
		c-0.1-0.2-0.2-0.4-0.5-0.4h-0.5c-0.3,0-0.5,0.2-0.5,0.5c0.3,2.3,1.5,3.8,3.6,4.5c0.3,0.1,0.5,0.3,0.6,0.6c0.2,1.2,0,2.3-0.7,3.2
		c-0.1,0.2-0.2,0.5-0.1,0.7l0.4,1c0.2,0.4,0,1-0.5,1.2c-0.1,0.1-0.3,0.1-0.4,0.1l-4.9-0.4c-0.5,0-0.6,0.2-0.4,0.6
		c0.1,0.3,0.3,0.4,0.5,0.4c4.7-0.2,13,6.4,15.8,10c0.3,0.4,0.2,1-0.2,1.3c-0.2,0.2-0.5,0.2-0.7,0.2c-2.2-0.4-4.2,0-6.1,1.4
		c-0.2,0.1-0.2,0.4-0.2,0.6l0.3,0.8c0.1,0.3,0,0.7-0.4,0.8c0,0,0,0-0.1,0l-1.2,0.3c-0.4,0.1-0.7,0.3-0.8,0.7c-1.4,3.5-2,7.2-1.8,11
		c0,0.3-0.2,0.5-0.5,0.5c-0.1,0-0.2,0-0.2-0.1c-3.6-1.8-6.9-3.6-9.1,1.6c-0.2,0.5-0.5,0.5-0.9,0.2l-1.3-1.1
		c-0.2-0.1-0.3-0.1-0.5-0.1c-3.7,2.1-1.7,8.8-1.2,12.6c0.1,0.8,0.8,1.3,1.6,1.2c0.2,0,0.4-0.1,0.6-0.2l1.3-0.8
		c0.5-0.3,0.8-0.2,0.8,0.4v3.2c0,0.3,0.2,0.5,0.5,0.5c0,0,0.1,0,0.1,0c1.3-0.3,2.3,0.2,2.9,1.3c0.4,0.8,0.2,1.2-0.7,1.2l-1.5,0
		c-0.4,0-0.7,0.3-0.7,0.7c0,0.1,0,0.1,0,0.2c0.8,2.7,2.2,4.8,4.5,6.5c0.3,0.2,0.3,0.5,0,0.7c-1.7,0.9-3,2.2-4.1,3.8
		c-0.2,0.3-0.1,0.6,0.2,0.8l1.5,1c0.3,0.2,0.4,0.5,0.3,0.9c-0.4,1-1.2,1.5-2.2,1.6c-0.4,0.1-0.7,0.4-0.6,0.9c0,0.1,0,0.1,0,0.2
		c0.3,0.9,1,1.6,1.9,2.2c0.3,0.1,0.4,0.5,0.2,0.7c0,0,0,0.1-0.1,0.1c-1.2,1.2-1.9,2.7-2.2,4.3c-0.1,0.3-0.3,0.5-0.6,0.5
		c-0.1,0-0.3-0.1-0.4-0.2c-2.3-3.2-3.9-7-6.8-9.5c-2.2-1.9-3.9-4.3-4.9-7c-1-2.8-3.2-4.8-1.6-8.6c0.1-0.2,0.1-0.4,0-0.7l-0.5-1.8
		c-0.1-0.3,0-0.5,0.3-0.7c1.8-1.1,1.5-2.2,1.8-4c0.7-3.5,1.1-7.1,1.3-10.7c0-0.3,0.2-0.6,0.4-0.8c2.5-2.2,0.6-6.6-1.4-8.4
		c-0.3-0.3-0.3-0.8,0-1.1c0.1-0.1,0.3-0.2,0.5-0.3l0.5,0c0.1,0,0.2-0.1,0.2-0.3c0-0.1-0.1-0.2-0.2-0.2l-1.1-0.4
		c-0.8-0.3-1.8,0.1-2.1,1c-0.1,0.2-0.1,0.5-0.1,0.8c0.2,1.2,0.6,2.3,1.5,3.2c0.2,0.2,0.2,0.6,0,0.8c0,0,0,0,0,0
		c-1.5,1.2-2,2.8-1.4,4.7c0.1,0.3-0.1,0.6-0.4,0.6c-0.1,0-0.2,0-0.3,0c-1.8-0.5-3-1.7-3.4-3.6c-0.2-0.8-1-1.3-1.8-1.1
		c0,0-0.1,0-0.1,0l-5,1.6c-0.3,0.1-0.5,0.4-0.5,0.8c0.3,2.9-0.1,5.6-1.1,8.3c-0.1,0.3-0.1,0.6,0,0.9c0.5,1,1.4,1.4,2.7,1.2
		c0.5-0.1,0.7,0.1,0.6,0.6l-0.1,0.4c0,0.2-0.2,0.3-0.3,0.3c-2.3,0.7-4.3,1.7-6.1,3.3c-0.2,0.2-0.5,0.1-0.7-0.1
		c-0.1-0.1-0.1-0.2-0.1-0.3l-0.1-1.7c0-0.4-0.2-0.6-0.6-0.7l-4.6-0.5c-0.3,0-0.6,0.1-0.9,0.3c-2.7,2.5-5.9,3.7-9.8,3.4
		c-0.1,0-0.2,0-0.3,0.1c-1.1,0.5-2.2,1-3.3,1.5c-0.3,0.1-0.6,0.4-0.7,0.6c-2.2,3.6-3.9,7.5-4.9,11.5c-0.6,2.4,0,5.3-2.9,7.1
		c-0.2,0.1-0.3,0.5-0.1,0.7c0.1,0.1,0.2,0.2,0.4,0.2c1.5,0.1,2.2,0.9,2.2,2.4c0,0.6,0.5,1,1,1c0.3,0,0.5-0.1,0.7-0.3
		c0.6-0.7,1.4-1,2.4-1c0.2,0,0.4,0.1,0.5,0.3l1.1,1.4c0.2,0.3,0.6,0.3,0.9,0.1c0,0,0,0,0,0l1.5-1.5c0.2-0.2,0.5-0.3,0.8-0.2
		c8,2.7,9.5,11.9,10.8,19.2c0.6,3.3-1.5,8-2,11.5c-0.1,0.3-0.2,0.6-0.4,0.9c-2,2.3-5.4,14.1-10.4,10.1c-0.3-0.3-0.6-0.2-0.9,0
		l-3.7,3.5c-0.2,0.2-0.4,0.6-0.3,0.9l0.5,2.1c0.1,0.4,0,0.7-0.2,1l-3.2,4c-0.3,0.4-0.3,1,0.2,1.4c0,0,0.1,0,0.1,0.1
		c3.4,2.1,9,7.3,7.3,11.9c-0.7,1.9-2,2.4-3.7,1.5c-0.3-0.2-0.5-0.1-0.7,0.2l-0.6,0.9c-0.2,0.4-0.8,0.5-1.2,0.3
		c-0.3-0.2-0.4-0.5-0.4-0.9c0.5-2.2-0.1-4-1.6-5.5c-0.4-0.3-0.3-0.6,0.1-0.9l0.6-0.3c0.4-0.2,0.4-0.5,0.1-0.8
		c-1.4-1.1-3-1.7-4.8-1.7c-0.4,0-0.6-0.2-0.6-0.7c0.8-9.1-6.4-3.4-9.2-1.1c-0.3,0.3-0.8,0.2-1.1-0.1c-0.1-0.2-0.2-0.3-0.2-0.5l0.4-5
		c0.1-0.6-0.4-1.2-1.1-1.3c-0.3,0-0.7,0.1-0.9,0.3c-2.5,2.2-4.5,4.8-6,7.7c-0.2,0.4-0.1,0.7,0.3,0.8c1.2,0.3,2.1,1,2.8,2.1
		c0.2,0.3,0.4,0.4,0.7,0.4l8.1-1c0.5-0.1,0.9,0.3,0.9,0.7c0,0.2,0,0.4-0.2,0.6c-1.2,1.6-4.9,2.9-6.6,4.4c-0.3,0.2-0.4,0.5-0.4,0.8
		c0.1,1.6,1,2.5,2.7,2.7c0.2,0,0.4,0.1,0.5,0.3l6.3,9.7c0.3,0.4,0.2,0.8-0.2,1l-1.3,0.9c-0.2,0.1-0.2,0.4-0.1,0.6
		c0.1,0.1,0.2,0.2,0.3,0.2c1.6,0.2,2.1,0.9,1.8,2.2c-4.5,14.6-11.4,16.9-24.8,21.4c-0.4,0.1-0.6,0.4-0.7,0.8l-0.4,1.2
		c-0.1,0.3-0.3,0.5-0.7,0.3c-0.8-0.3-1.4-0.9-1.8-1.7c-0.4-0.9-1-1.3-2-1.2c-4.2,0.4-6.5,2.6-7,6.8c0,0.4,0.2,0.8,0.6,0.9
		c1.1,0.3,1.7,0.9,2.1,2c0.1,0.4,0.4,0.7,0.8,0.9c6.4,2.7,11.8,14.4,1.6,16.8c-0.4,0.1-0.6,0.3-0.8,0.6l-0.6,1.2
		c-0.2,0.4-0.4,0.4-0.8,0.2c-1.6-1.2-3.4-2-5.4-2.4c-0.4-0.1-0.7-0.3-0.9-0.6c-1.7-2.4-4-3.9-6.8-4.6c-0.3-0.1-0.6-0.2-0.8-0.5
		l-1.4-1.4c-0.3-0.3-0.6-0.3-0.8,0.1c-0.9,2.2-4,8.6,0,9.2c0.3,0,0.5,0.2,0.6,0.6c1,6.6,10.4,6.6,8.5,12.9c-0.1,0.3,0,0.6,0.2,0.8
		l2.2,2.5c0.3,0.3,0.3,0.7,0.1,1c-0.7,1.1-1.7,1.3-2.9,0.6c-3.8-2.1-6.3-5.1-7.4-9.1c-1-3.6-2.4-5.5-5.8-6.5
		c-0.3-0.1-0.5-0.3-0.4-0.6c0.2-2.8,1.8-7.2,0.8-9.7c-1.4-3.6-3-7.1-4.6-10.6c-0.1-0.3-0.5-0.4-0.8-0.3c-0.1,0-0.2,0.1-0.2,0.2
		c-1.3,1.6-2.9,2.8-4.9,3.4c-0.3,0.1-0.7-0.1-0.8-0.4l-2.3-5.7c-0.2-0.5-0.6-0.8-1.1-0.9c-1.5-0.3-2.1-1.3-1.7-3.2
		c0.1-0.4-0.2-0.8-0.6-0.9c-2.2-0.5-3.4-1.9-3.8-4.1c-0.2-0.9-1-1.5-1.9-1.4c-0.2,0-0.4,0.1-0.6,0.2c-0.9,0.6-1.8,0.7-2.8,0.4
		c-0.3-0.1-0.6,0-0.8,0.3c-1.6,2.3-4.3,0.2-5.1,3.1c0,0.1-0.1,0.1-0.1,0.2l-4.3,4.6c-0.2,0.3-0.5,0.3-0.8,0.2l-0.4-0.2
		c-0.3-0.2-0.6-0.1-0.9,0.1c-2.8,2.6-5.6,5.3-8.3,8C693.9,336.4,698,341.5,695.3,345.4z"/>
	<path class="st2" d="M750.6,115.1c-0.1-0.2-0.1-0.5,0.1-0.7c0.3-0.3,0.7-0.3,1.1,0c0.6,0.7,0.7,1.3,0.1,1.8
		c-0.3,0.3-0.6,0.3-0.8-0.2L750.6,115.1z"/>
	<path class="st2" d="M754.2,117.9c1.9-3.6,5.1-1,7.4,0.1c0.3,0.2,0.5,0.5,0.3,0.9c-0.1,0.2-0.3,0.3-0.5,0.4l-5.4,1.1
		C753.7,120.8,753.1,120,754.2,117.9z"/>
	<path class="st6" d="M656.7,120.9c0.2-0.2,0.4-0.3,0.7-0.1c0.4,0.2,0.4,0.4,0,0.5l-1.5,0.6c-0.5,0.2-0.7,0.1-0.5-0.5
		C655.6,121.1,656,120.9,656.7,120.9z"/>
	<path class="st6" d="M661.8,123.5c0,0.2-0.2,0.3-0.4,0.2c0,0-0.1,0-0.1-0.1l-0.9-0.7c-0.2-0.1-0.2-0.4-0.1-0.5c0,0,0.1-0.1,0.1-0.1
		c0.4-0.2,0.8-0.2,1.1,0.1C661.8,122.7,661.9,123,661.8,123.5z"/>
	<path class="st6" d="M636.8,133.8c0,0.1-0.1,0.2-0.1,0.3c-0.1,0.1-0.1,0.1-0.2,0c-0.2-0.7,0-1.3,0.5-1.7c0.1-0.1,0.4-0.1,0.5,0
		c0.1,0.1,0.1,0.2,0.1,0.3c-0.1,0.3-0.2,0.5-0.5,0.7C636.9,133.5,636.8,133.6,636.8,133.8z"/>
	<path class="st6" d="M636.7,135.4c0.6,0.1,0.7,0.5,0.5,1.2c-0.1,0.3-0.3,0.4-0.6,0.3c-0.2-0.1-0.4-0.3-0.4-0.5v-0.7
		C636.2,135.4,636.4,135.3,636.7,135.4z"/>
	<path class="st2" d="M645.2,141.5c-0.4-0.1-0.7-0.5-0.6-1.2c0-0.3,0.3-0.5,0.6-0.5c0.2,0,0.3,0.1,0.4,0.2l1,1.3
		c0.2,0.2,0.1,0.4-0.2,0.4c-0.2,0-0.4,0-0.6-0.1C645.5,141.6,645.4,141.6,645.2,141.5z"/>
	<path class="st2" d="M638,150.7c-0.1-0.3,0-0.6,0.3-0.8c0.2-0.1,0.4-0.1,0.6,0.1l1.3,1c0.2,0.2,0.3,0.5,0.1,0.7
		c-0.1,0.1-0.3,0.2-0.4,0.2C639,151.8,638.4,151.5,638,150.7z"/>
	
		<ellipse transform="matrix(0.3923 -0.9198 0.9198 0.3923 299.2943 871.4029)" class="st2" cx="809.2" cy="209.2" rx="0.8" ry="0.9"/>
	<path class="st2" d="M836,239.7c0,0.5-0.1,1-0.3,1.6c-0.4,0.8-0.7,0.8-0.9-0.1c-1.3-4.9-3.5-8.9-5.1-13.9
		c-1.5-4.5-4.4-7.8-6.3-12.1c-0.1-0.3-0.2-0.6-0.1-1c0.3-1.2,0.1-2.3-0.7-3.4c-0.2-0.3-0.1-0.6,0.1-0.8c0.2-0.2,0.5-0.1,0.7,0
		c1.9,1.8,3.4,4,4.4,6.5c2.1,5.3,5.9,9.6,9.6,13.9c0.1,0.1,0.1,0.3,0,0.4c-0.1,0.1-0.2,0.1-0.4,0l-2.7-1.6c-0.5-0.3-1-0.1-1.3,0.3
		c-0.1,0.2-0.2,0.5-0.1,0.7c0.8,3.5,2.5,6.4,5.1,8.8c0.3,0.2,0.4,0.5,0.5,0.7c0.1,0.4-0.1,0.5-0.4,0.3l-1.4-0.9
		c-0.2-0.1-0.5-0.1-0.6,0.1C836,239.5,836,239.6,836,239.7z"/>
	<path class="st2" d="M836.6,254.7l0.9,0.2c0.4,0.1,0.5,0.3,0.6,0.7c0,0.6-0.3,1-1,1.2c-0.5,0.2-0.8,0-1-0.5l-0.5-1.1
		c-0.1-0.3-0.3-0.4-0.6-0.2l-1.2,0.7c-0.1,0.1-0.3,0-0.4-0.1c0-0.1,0-0.1,0-0.2c0.5-1.8,1.3-3.4,2.6-4.8c0.2-0.3,0.4-0.6,0.4-0.9
		c0-1.9-0.4-3.6-1.3-5.3c-0.3-0.5-0.1-0.8,0.4-0.8l0.7,0c0.3,0,0.7,0.1,0.9,0.4c7.2,9.6,13.1-2,18.8-5.3c0.4-0.2,0.5-0.1,0.2,0.2
		c-0.1,0.2-0.2,0.3-0.3,0.5c-0.1,0.2-0.2,0.3-0.4,0.4c-2.3,1.4-4.4,3.6-6.3,6.4c-0.5,0.8-1.4,1.3-2.6,1.5c-0.4,0.1-0.5,0.3-0.4,0.7
		c0.1,0.5,0.4,0.7,0.9,0.8c0.6,0.1,0.7,0.3,0.2,0.7c-1.7,1.3-4.4,2.1-4.2,4.6c0,0.5-0.2,0.6-0.6,0.4l-3.3-2.1
		c-0.2-0.1-0.5-0.1-0.7,0.1l-1.7,1.5C836.4,254.6,836.4,254.7,836.6,254.7z"/>
	<path class="st2" d="M819.3,286.3l-1.8-0.2c-0.4,0-0.6-0.4-0.6-0.8c0,0,0-0.1,0-0.1c0.4-1.8,4.1-5.1,5.4-6.6
		c0.2-0.3,0.5-0.5,0.9-0.5c1.3-0.2,2.4-0.7,3.3-1.4c0.3-0.3,0.7-0.3,1.1-0.2l1.3,0.3c0.4,0.1,0.7,0,0.8-0.4l1.3-2.7
		c0.1-0.2,0.1-0.5,0.1-0.7c-0.1-0.6,0.1-1.2,0.6-1.7c0.2-0.2,0.6-0.2,0.9,0c0.1,0.1,0.1,0.2,0.2,0.3l0.3,1.1
		c0.1,0.3,0.4,0.5,0.7,0.4c0.1,0,0.1-0.1,0.2-0.1c3.5-2.8,4.6-6.2,3.2-10.4c-0.8-2.4-0.4-4.2,1.9-5.2c0.4-0.2,0.6-0.1,0.8,0.3
		c1.3,2.7,3.5,5.7,3.1,8.7c-0.6,4.2-0.4,6.8,0.6,10.6c0.1,0.4,0,0.6-0.4,0.8l-7.6,1.8c-0.3,0.1-0.6,0.2-0.8,0.5l-1.9,2.3
		c-0.6,0.7-1.6,0.9-2.4,0.4c-0.5-0.4-0.8-1-0.6-1.6c0.2-0.5,0.1-1.1-0.2-1.6c-0.2-0.4-0.6-0.5-1-0.3c-0.1,0.1-0.2,0.2-0.3,0.3
		c-0.6,1.2-0.3,2,1,2.3c0.3,0.1,0.5,0.5,0.4,0.8c0,0.1-0.1,0.1-0.1,0.2l-0.6,0.7c-0.2,0.3-0.6,0.4-0.9,0.3c-1.3-0.4-2.1,0-2.2,1.2
		c-0.1,0.7-0.4,0.8-0.9,0.3c-0.5-0.5-0.9-1.2-1.2-2c-0.2-0.7,0.2-1.5,0.9-1.7c0.3-0.1,0.6-0.1,0.9,0c0.6,0.2,1.1,0.2,1.4,0
		c0.3-0.2,0.2-0.4-0.1-0.4c-2.3-0.5-4.5,0-6.5,1.2c-0.4,0.2-0.3,0.4,0.1,0.5c0.9,0.2,1.5,0.7,2,1.4c0.2,0.3,0.2,0.5,0.2,0.9l-1,4.7
		c-0.1,0.3-0.3,0.5-0.6,0.4c-2.2-0.3-2.4-2-1.6-3.8C819.7,286.5,819.6,286.4,819.3,286.3z"/>
	
		<ellipse transform="matrix(8.019892e-02 -0.9968 0.9968 8.019892e-02 460.0564 1067.8184)" class="st2" cx="808.6" cy="284.6" rx="0.6" ry="1.2"/>
	<path class="st6" d="M819.7,299c0.1,0.4,0,0.8-0.4,1.3c-1.2,1.4-2.1,2.8-2.7,4.2c-0.1,0.2-0.2,0.2-0.4,0.2c-0.1,0-0.1-0.1-0.1-0.1
		c-0.1-0.1-0.1-0.2-0.1-0.3c0-0.1,0-0.2,0.1-0.3c1.1-1.6,2.1-3.3,3.1-4.9C819.4,298.6,819.5,298.6,819.7,299z"/>
	<path class="st2" d="M800.7,316.8c0,0.1-0.1,0.1-0.1,0.1h-0.1c-1.2,0-2.1-2-2-4.3c0,0,0,0,0,0l0-1.1c0.1-2.3,1.1-4.2,2.3-4.1
		c0,0,0,0,0,0l0,0c0.1,0,0.1,0.1,0.1,0.1c0,0,0,0,0,0L800.7,316.8z"/>
	<path class="st6" d="M807.9,310.2c0.7-0.7,1.6-1,2.7-1c0.2,0,0.3,0.1,0.3,0.3c0,0.2-0.1,0.3-0.3,0.3l0,0l-2.7,0.5
		C807.8,310.4,807.8,310.3,807.9,310.2z"/>
	<path class="st2" d="M770.1,325.9c-0.2,0-0.3-0.1-0.3-0.3c-0.1-2.6,1.2-3.8,3.9-3.8c0.5,0,0.8,0.2,0.8,0.8l0.1,2.7
		c0,0.4-0.3,0.8-0.7,0.8c0,0,0,0-0.1,0L770.1,325.9z"/>
	<path class="st2" d="M806,335.7c2.1-0.2,3.8,0.6,5.1,2.4c0.8,1.2,0.6,2.8-0.6,3.7c-0.2,0.2-0.5,0.3-0.8,0.4c-1.2,0.3-2.2,1-3,2
		c-0.3,0.4-0.5,0.4-0.5-0.2v-1.4c0-0.4,0.2-0.6,0.6-0.6h1.8c0.4,0,0.7-0.2,0.8-0.6c0.5-1.6,0.2-3-0.9-4.1c-0.3-0.3-0.6-0.4-1-0.2
		c-1.2,0.4-2,0.5-2.4,0.4c-5.7-1.9-7.2-5.5-4.5-10.9c1.6-3.2,5.5,0.6,6,2.8c0.1,0.3,0,0.7-0.3,1l-2,2.1c-0.7,0.8-0.7,2,0,2.7
		C804.9,335.5,805.5,335.7,806,335.7z"/>
	<path class="st6" d="M729.2,344.1c0.1,0.2,0.1,0.4,0,0.5c-0.1,0.1-0.2,0.2-0.4,0.2c-0.1,0-0.2-0.1-0.2-0.3l0.4-6
		c0-0.3,0.2-0.4,0.4-0.3c0.2,0.1,0.3,0.2,0.3,0.3c-0.3,1.6-0.6,3.3-0.7,4.9C729.1,343.7,729.1,343.9,729.2,344.1z"/>
	
		<ellipse transform="matrix(0.2974 -0.9548 0.9548 0.2974 240.6882 1004.9186)" class="st2" cx="803.1" cy="338.9" rx="0.7" ry="1.1"/>
	<path class="st2" d="M807.9,347.3c-0.3-0.1-0.5-0.4-0.4-0.7c0-0.1,0.1-0.2,0.1-0.2c1.6-1.6,3.5-2.8,5.7-3.3
		c0.6-0.1,0.9-0.7,0.8-1.3c-0.1-0.2-0.2-0.4-0.3-0.6c-0.4-0.3-0.6-0.7-0.8-1.2c-0.1-0.5,0-0.5,0.4-0.2c0.8,0.6,1.3,1.4,1.7,2.4
		c0.1,0.4,0,0.6-0.3,0.8l-5.2,2.8c-0.3,0.2-0.4,0.6-0.3,0.9c0,0.1,0.1,0.1,0.1,0.2l0.8,0.8c0.4,0.4,0.3,0.5-0.2,0.4L807.9,347.3z"/>
	<path class="st2" d="M800.1,340.7c0.2-0.5,0.4-0.7,0.8-0.5c0.2,0.1,0.2,0.3,0.2,0.4c-1.4,3.6-3.8,6.5-7,8.7
		c-0.2,0.1-0.3,0.1-0.4-0.1c0-0.1-0.1-0.2-0.1-0.2c0,0,0-0.1,0.1-0.1C796.8,347,799,344.2,800.1,340.7z"/>
	<path class="st2" d="M816,353.2l0,1.9c0,0.3-0.3,0.6-0.6,0.6c-3,0.2-2.9-2.6-3.5-4.6c-0.1-0.4-0.4-0.5-0.7-0.2
		c-0.7,0.5-1.5,0.7-2.4,0.6c-0.3,0-0.6,0.1-0.9,0.3l-0.8,0.8c-0.2,0.2-0.3,0.1-0.3-0.1c0-0.3,0-0.6,0.2-0.8c0.8-0.9,1.9-1.7,3.5-2.5
		c0.3-0.1,0.6-0.1,0.8,0.1l0.6,0.6c0.3,0.3,0.8,0.3,1.2,0c0,0,0.1-0.1,0.1-0.1l2.6-4.2c0.1-0.2,0.4-0.3,0.7-0.1
		c0.1,0.1,0.2,0.2,0.2,0.3c0.2,2.4,1,4.6,2.2,6.6c0.1,0.2,0.1,0.5-0.2,0.7c0,0,0,0-0.1,0l-1,0.4c-0.2,0.1-0.3,0-0.4-0.1l-0.5-0.5
		C816.2,352.6,816,352.7,816,353.2z"/>
	<path class="st2" d="M700.4,354.9c-5.5,2.8-5.3-4-4-6.9c0.1-0.4,0.3-0.7,0.3-0.7c0.4-0.2,0.9-0.2,1.2,0.2
		C700.2,350.2,701,352.6,700.4,354.9z"/>
	<path class="st2" d="M782.5,362.5l0.6-1c0.2-0.3,0.5-0.5,0.9-0.5c1.3,0,2-0.6,2.2-1.9c0-0.4,0.3-0.6,0.6-0.7c2.4-0.4,4.2-1.8,5.2-4
		c0.2-0.3,0.4-0.5,0.8-0.5h2.2c0.4,0,0.7,0.3,0.8,0.7c0.2,1.3,1,1.8,2.3,1.5c0.4-0.1,0.8,0.2,0.9,0.6s-0.2,0.8-0.6,0.9l0,0
		c-1.9,0.5-3.3,1.7-4.1,3.5c-0.1,0.3-0.1,0.5,0.1,0.8c0.6,1,0.9,2.1,0.8,3.2c0,0.4,0.2,0.7,0.6,0.8l1.6,0.3c0.2,0.1,0.4,0.3,0.4,0.5
		c0,0.1-0.1,0.3-0.3,0.3c-2.5,1.1-4,3-4.5,5.8c0,0.2-0.2,0.5-0.4,0.6l-1.4,1.1c-0.3,0.2-0.4,0.5-0.3,0.8c0.4,2.5-0.7,3.7-3.2,3.8
		c-0.1,0-0.3,0-0.4-0.1l-2.7-2.1c-0.3-0.2-0.5-0.2-0.8,0l-1.4,1.3c-0.2,0.2-0.6,0.2-0.8,0L780,377c-0.3-0.2-0.6-0.4-1-0.5
		c-3.1-0.8-4.6-2.9-4.5-6.5c0-0.4-0.2-0.6-0.5-0.7l-1.2-0.5c-0.4-0.2-0.6-0.5-0.4-0.9c0.9-2.5,2.6-3.1,4.9-1.8
		c0.4,0.2,0.8,0.1,1-0.3l1.7-2.9c0.2-0.3,0.5-0.4,0.8-0.3l0.8,0.2C782.1,362.8,782.3,362.7,782.5,362.5z"/>
	<path class="st2" d="M763,376.3l1.1,1c0.2,0.2,0.3,0.4,0.3,0.8l-0.5,4c-0.1,0.4-0.3,0.6-0.8,0.6c-11-1.2-13.1-12.8-20.3-19.6
		c-1.8-1.8-3.7-3.5-5.7-5.2c-0.4-0.3-0.6-0.7-0.6-1.1c0-0.4,0.3-0.8,0.7-0.8c0.1,0,0.3,0,0.4,0.1c3.1,1.4,6.2,2.9,9.2,4.5
		c3.3,1.7,5.7,4.8,9.3,6.6c0.3,0.1,0.5,0.4,0.5,0.6c0.2,0.8,0.8,1.2,1.6,1.4c0.3,0.1,0.5,0.2,0.5,0.5l0.4,1.8
		c0.1,0.3,0.4,0.6,0.7,0.5l2.1-0.3c0.3,0,0.5,0.2,0.6,0.4c0,0,0,0,0,0.1l0.2,3.7C762.8,376,762.9,376.2,763,376.3z"/>
	<path class="st2" d="M822.4,372.7c-0.2,0.4-0.6,0.6-1.1,0.6c-0.6-0.1-0.7-0.3-0.2-0.8l0.9-0.8c0.2-0.2,0.3-0.4,0.2-0.7
		c-0.2-1.4-0.8-2.8-1.7-4.3c-0.2-0.4-0.2-0.8,0.2-1.1c0.2-0.2,0.6-0.1,0.7,0.1c0,0,0,0,0,0c0.4,0.6,1,0.8,1.6,0.5
		c0.4-0.1,0.7,0,0.8,0.3c0.6,1.3,0.3,2.1-0.8,2.6c-0.4,0.2-0.5,0.4-0.2,0.8l0.2,0.2c0.1,0.1,0.1,0.2,0.2,0.3
		c0.1,0.8-0.1,1.4-0.7,1.8C822.6,372.4,822.5,372.5,822.4,372.7z"/>
	<path class="st2" d="M803.4,375.7c-0.1-0.2-0.3-0.3-0.5-0.2c-0.1,0-0.2,0.1-0.2,0.3l-1,5.7c-0.1,0.5-0.4,0.7-0.8,0.5l-1.3-0.4
		c-0.3-0.1-0.4-0.3-0.3-0.6c0.8-3.2-1.2-5.6,0.3-9.4c0.1-0.3,0.3-0.5,0.5-0.6c0.7-0.5,1-1.2,0.8-2c-0.1-0.7,0.3-1.3,0.9-1.5
		c2.4-0.8,4.9-0.7,7.3,0.1c0.4,0.2,0.9,0.1,1.3,0l3.4-1.5c0.2-0.1,0.5,0,0.6,0.2c0,0.1,0,0.2,0,0.3c-0.3,1.5-1.5,2.4-3.1,2.1
		c-3.2-0.5-6.1-0.5-8.8,0.3c-0.8,0.2-1.3,1-1.1,1.9c0.2,0.6,0.7,1.1,1.3,1.1c2.2,0.3,4.3-0.1,6.2-1.2c0.6-0.4,1.5-0.1,1.8,0.5
		c0.2,0.3,0.2,0.7,0.1,1l-0.5,1.5c-0.1,0.4-0.5,0.6-0.9,0.5c-0.1,0-0.3-0.1-0.4-0.3c-0.5-0.8-1.3-0.9-2.4-0.2
		c-0.7,0.4-0.9,1.3-0.5,2c0.1,0.2,0.3,0.4,0.5,0.5c1.3,0.7,2.1,1.8,2.6,3.2c0.1,0.2,0,0.2-0.2,0.3l-3.1,0.4c-0.3,0-0.5-0.1-0.7-0.4
		L803.4,375.7z"/>
	
		<ellipse transform="matrix(8.889429e-02 -0.996 0.996 8.889429e-02 388.6475 1164.0381)" class="st6" cx="830.6" cy="369.6" rx="0.4" ry="1.1"/>
	<path class="st2" d="M856.8,374.9l-0.3,15.1c-1.3,0.2-2.2-0.2-2.6-1.4c-0.1-0.3-0.3-0.4-0.6-0.4l-4-0.1c-0.3,0-0.6-0.3-0.6-0.6
		c0-0.1,0-0.1,0-0.2c0.3-0.8,0.9-1.3,1.8-1.5c0.3-0.1,0.6-0.4,0.5-0.7c0-0.1-0.1-0.3-0.2-0.3c-2.5-2.1-11.4-8.4-14.9-6.4
		c-0.3,0.2-0.6,0.1-0.8-0.1l-1.9-1.6c-0.2-0.1-0.2-0.4,0-0.5c0-0.1,0.1-0.1,0.2-0.1l3.5-0.9c0.2,0,0.3-0.2,0.2-0.4
		c0-0.1-0.1-0.2-0.3-0.2l-3.4-0.6c-0.9-0.2-1.4-1-1.3-1.9c0-0.1,0.1-0.3,0.1-0.4c1.7-3.5,7.5-1.5,7.5,2.9c0,0.3,0.1,0.6,0.3,0.8
		l1.5,1.7c0.2,0.2,0.6,0.3,0.8,0.1l5.6-4c0.4-0.3,0.8-0.3,1.2-0.2L856.8,374.9z"/>
	<ellipse transform="matrix(0.965 -0.2622 0.2622 0.965 -71.6908 208.7823)" class="st2" cx="746.5" cy="373" rx="0.5" ry="0.8"/>
	<path class="st6" d="M813.8,373.9c-0.1,0-0.2,0.1-0.2,0.1c0,0-0.1,0-0.1,0l-0.2-0.4c-0.1-0.1,0-0.2,0.1-0.3c0,0,0.1,0,0.1,0
		l2.9,0.3c0.3,0,0.4,0.2,0.4,0.5c0,0.1,0,0.2,0,0.3c0,0.2-0.1,0.3-0.3,0.2c-0.8-0.3-1.6-0.5-2.4-0.7
		C814,373.8,813.9,373.8,813.8,373.9z"/>
	<path class="st2" d="M767.2,376.2c0.1,0.1,0.1,0.2,0,0.3c0,0,0,0,0,0l-0.1,0c-0.5,0.5-1.5,0.3-2.3-0.5l-0.2-0.2
		c-0.8-0.8-1-1.8-0.5-2.3c0,0,0,0,0,0l0-0.1c0.1-0.1,0.2-0.1,0.3,0c0,0,0,0,0,0L767.2,376.2z"/>
	<path class="st2" d="M749.5,376.6c-0.3-0.3-0.3-0.7-0.2-1.2c0.1-0.5,0.3-0.5,0.5,0l0.4,0.9c0.1,0.2,0,0.4-0.2,0.5
		C749.8,376.8,749.6,376.8,749.5,376.6z"/>
	
		<ellipse transform="matrix(0.3551 -0.9348 0.9348 0.3551 144.9533 962.6818)" class="st2" cx="770.2" cy="376.3" rx="0.7" ry="1.1"/>
	
		<ellipse transform="matrix(0.1788 -0.9839 0.9839 0.1788 305.781 1119.3792)" class="st2" cx="823.5" cy="376.5" rx="0.7" ry="1.5"/>
	
		<ellipse transform="matrix(0.1616 -0.9869 0.9869 0.1616 321.8834 1133.5011)" class="st2" cx="828" cy="377.3" rx="0.5" ry="2.2"/>
	
		<ellipse transform="matrix(0.9998 -1.919744e-02 1.919744e-02 0.9998 -7.0939 15.7867)" class="st2" cx="818.7" cy="377.4" rx="1.5" ry="0.6"/>
	<path class="st2" d="M789.8,388.9c2.8,0,5.5,0,8.2-0.2c0.6,0,0.9,0.2,0.8,0.6c-0.1,0.6-0.6,0.9-1.2,0.9c0,0,0,0,0,0
		c-4.5-0.8-9.1-1-13.9-0.6c-0.9,0.1-2.1-0.1-3.7-0.6c-3.6-1.1-6.9-0.9-10.6-2.5c-0.3-0.1-0.6-0.2-1-0.2c-1.3,0.1-2.6-0.1-3.8-0.6
		c-0.7-0.3-1.1-1.2-0.8-1.9c0.2-0.6,0.8-0.9,1.4-0.9l4.9,0.1c0.3,0,0.5,0.2,0.5,0.5v1c0,0.5,0.2,0.7,0.7,0.7l7.9-0.4
		c0.3,0,0.5,0.1,0.7,0.3c1.5,1.5,3.3,2.4,5.5,2.8c0.3,0,0.5,0.1,0.7,0.3c0.2,0.2,0.5,0.3,0.9,0.1c0.2-0.1,0.5-0.2,0.7-0.2
		c0.5,0,0.8,0.2,1.1,0.5C789.1,388.7,789.4,388.8,789.8,388.9z"/>
	<path class="st6" d="M802.5,384.1c-0.1,0.2-0.3,0.3-0.6,0.2c-0.1,0-0.1-0.1-0.1-0.1c-0.4-0.4-0.4-0.8,0-1.2c0.2-0.2,0.6-0.2,0.8,0
		c0.2,0.2,0.2,0.4,0.1,0.6L802.5,384.1z"/>
</g>
<path class="st6" d="M784.7,386.1c-0.4,0.1-0.8,0-1.2-0.2c-0.2-0.1-0.2-0.3-0.1-0.4c0.1-0.1,0.2-0.2,0.3-0.2l1.6,0.1
	c0.2,0,0.4,0.2,0.4,0.4c0,0.1-0.1,0.2-0.1,0.3C785.1,386.3,784.9,386.3,784.7,386.1z"/>
<ellipse transform="matrix(0.8755 -0.4833 0.4833 0.8755 -83.3447 449.7058)" class="st2" cx="830.9" cy="386.6" rx="1.5" ry="0.8"/>
<path class="st2" d="M813.9,388.4c0.3,0.3,0.3,0.5-0.2,0.5l-0.9,0.1c-0.3,0-0.4-0.1-0.3-0.4C812.9,388,813.3,387.9,813.9,388.4z"/>
<path class="st2" d="M809.7,388.5c0.5-0.2,1-0.1,1.3,0.3c0.3,0.3,0.2,0.4-0.2,0.4c-0.9,0-1.9,0-2.8,0c-2.4,0-4.4,1.4-6.9,0.4
	c-0.3-0.1-0.4-0.5-0.3-0.8c0.1-0.2,0.3-0.3,0.5-0.3l7.6,0.1C809.1,388.6,809.4,388.6,809.7,388.5z"/>
<path class="st2" d="M809.6,392.7c2.3-3.3,6.4-2.5,9.8-3.8c0.2-0.1,0.4,0,0.5,0.3c0,0,0,0,0,0.1c0,0.3,0,0.4-0.2,0.5
	c-1.7,0.4-3.4,0.8-5.1,1.3c-0.3,0.1-0.6,0.3-0.7,0.5c-0.9,1.3-2.3,2-4,1.9C809.4,393.4,809.3,393.1,809.6,392.7z"/>
<ellipse transform="matrix(0.4226 -0.9063 0.9063 0.4226 107.0254 951.9962)" class="st2" cx="800.7" cy="392" rx="0.6" ry="1.8"/>
<g>
	<path class="st4" d="M571.6,296.5c2.2,0.2,3.1,2.1,2.6,5.8c-0.3,0.5-0.3,1,0,1.5c0.3,0.5,0,1.1-0.5,1.4c-0.4,0.2-0.9,0.1-1.2-0.2
		l-4.2-4.4c-0.2-0.2-0.4-0.2-0.6,0c0,0,0,0,0,0.1l-0.2,0.3c-0.2,0.3-0.2,0.5,0.1,0.6c1.9,1.2,3.1,2.3,3.6,3.2
		c2.1,4.3,5.5,7.6,7.6,11.4c4.3,7.7,9.3,14.9,15.1,21.6c1,1.1,3.1,1.5,2.7,3.9c-0.1,0.4,0.1,0.6,0.5,0.6l2,0.3
		c0.2,0,0.3,0.1,0.4,0.2c5.2,4.9,14.7,0.9,20.3-1.3c0.5-0.2,0.7,0,0.7,0.5c-0.4,6.5-3,11.8-7.9,15.9c-0.2,0.2-0.4,0.5-0.5,0.8
		c-1.2,3-3.3,4.9-6.2,5.6c-3.4,0.8-5.3,2.7-7.6,5c-0.3,0.3-0.6,0.4-0.9,0.5c-1.2,0.3-1.7,1.1-1.6,2.4c0.1,0.9-0.6,1.7-1.5,1.8
		c-0.1,0-0.2,0-0.3,0c-1.3-0.1-2.2,0.5-2.6,1.8c-0.7,2.2-1.8,4.3-3.1,6.1c-0.2,0.3-0.2,0.6,0,0.9c1,1.3,0.9,2.7-0.2,3.9
		c-0.3,0.3-0.2,0.6,0,0.9c3.5,3.2,6.2,12.9,0.8,14.9c-0.3,0.1-0.5,0.4-0.5,0.8l-0.1,2c0,0.3-0.2,0.5-0.4,0.6c-2.4,0.8-4.6,2-6.5,3.7
		c-2.9,2.5-4.6,3.6-3.3,7.5c0.5,1.5,0.1,2.7-1.2,3.5c-0.3,0.2-0.5,0.5-0.7,0.9c-0.7,2.4-2.3,3.8-4.9,4.1c-0.4,0-0.8,0.4-0.9,0.8
		l-0.6,3.5c-0.1,0.4-0.2,0.6-0.5,0.8l-1.1,0.8c-0.3,0.2-0.5,0.4-0.6,0.7c-2.3,5.1-5.7,9.4-10.1,12.7c-2.2,1.6-4.5,1.3-6.9,2.9
		c-1.1,0.7-2.2,0.6-3.3-0.3c-0.3-0.2-0.5-0.2-0.8,0c-1.1,0.7-2.2,1.1-3.4,1.4c-2.8,0.7-4.5-1.3-7.5,1c-0.2,0.2-0.6,0.3-0.9,0.2
		c-2.5-0.5-4.2-1.9-4.9-4.4c-0.1-0.4-0.1-0.9,0.2-1.3c1-1.6,0.8-2.9-0.8-4.1c-0.3-0.2-0.4-0.5-0.5-0.8c-0.9-4.3-3.8-5.5-4.9-9.1
		c-1.2-4-1.9-8.2-1.9-12.4c0-0.3-0.2-0.6-0.5-0.7L520,417c-0.2-0.1-0.4-0.2-0.5-0.4l-4.1-7.2c-0.1-0.1-0.1-0.3-0.1-0.4l1.9-9.5
		c0.1-0.4,0.3-0.7,0.6-0.9l1.9-1.3c0.3-0.2,0.5-0.5,0.5-0.9c0.1-2.8,0-5.6-0.2-8.3c-0.4-4.9-6.9-11.3-10.4-14.5
		c-0.2-0.2-0.4-0.5-0.4-0.8c-0.1-3.8,0.8-7.3,2.4-10.6c0.2-0.3,0.1-0.6-0.1-0.9l-2.7-2.7c-0.3-0.3-0.6-0.3-0.9-0.2
		c-2.2,0.6-4.4,0.9-6.6,0.6c-0.3,0-0.5-0.2-0.7-0.5l-1.5-3.4c-0.1-0.3-0.3-0.5-0.6-0.6c-6.9-3.7-12.3,4.7-19.1,3.4
		c-3.5-0.7-7-0.5-10.5,0.5c-4.6,1.3-14-6-16.8-9.6c-2.4-3.1-5.3-5.6-8.8-7.5c-0.4-0.2-0.5-0.5-0.5-1l0.4-2.2c0.1-0.3,0-0.5-0.3-0.7
		l-1.7-1.2c-0.2-0.1-0.3-0.4-0.4-0.6c-0.1-1.1,0.4-1.7,1.5-1.9c0.4-0.1,0.6-0.4,0.6-0.8c-0.2-2.1,0.5-3.8,2.1-5.1
		c0.3-0.2,0.3-0.6,0.1-0.9l-1.6-2.2c-0.1-0.1-0.1-0.2-0.1-0.3c0.1-1.6-0.4-2.9-1.5-4c-0.2-0.2-0.3-0.6-0.1-0.9
		c3.6-5.7,8.8-13.5,15.5-16.4c3.6-1.5,4.4-2,4.2-5.9c-0.2-4.1,4.9-6.3,7.8-7.8c0.4-0.2,0.6-0.5,0.7-0.8l0.9-2.4
		c0.1-0.4,0.5-0.6,0.9-0.5c0.7,0.2,1.4,0.5,2,1.1c0.1,0.1,0.3,0.2,0.5,0.2l8.3-0.1c0.3,0,0.6-0.1,0.9-0.4c3.6-3.4,9.4-3.6,14.4-3
		c0.2,0,0.4,0,0.7-0.1c2.1-0.9,4.1-1,6.1-0.2c0.3,0.1,0.7,0.1,1,0c2-0.9,4.1-1.4,6.3-1.3c0.6,0,0.8,0.3,0.7,0.9l-0.7,2.2
		c-0.1,0.2,0,0.4,0.1,0.6c0.8,1.2,0.6,2.3-0.5,3.2c-0.3,0.2-0.6,0.4-1,0.4h-0.4c-0.1,0-0.2,0.1-0.2,0.2c0,0.1,0.1,0.1,0.1,0.2
		c2.5,0.9,4.2,2,7,2.5c2.3,0.4,4.4,1.3,6.3,2.6c3.3,2.3,7.1,2.9,10.8,4.1c0.4,0.1,0.8,0,1.1-0.3c0.9-1.1,1.3-2.3,1.1-3.8
		c0-0.3,0.2-0.7,0.5-0.8l5.1-1.6c0.3-0.1,0.6,0,0.8,0.3c0.4,0.8,0.8,1.2,1.7,1.4c4.6,0.8,9.2,1.8,13.8,3c1.1,0.3,2.8-0.2,5.3-1.5
		c0.3-0.2,0.6-0.2,1-0.2L571.6,296.5z"/>
	<path class="st4" d="M600.8,412.8c-1.5-4.3-0.1-7.1,4.2-8.3c4.3-1.2,7.1-3.9,8.6-8.1c0.1-0.3,0.4-0.4,0.6-0.3
		c0.1,0,0.2,0.1,0.2,0.2c1.3,1.8,2.1,3.8,2.4,6c0,0.4,0,0.7-0.3,1c-1.3,1.6-2.4,3.9-3.2,6.8c-0.7,2.6-3,8-6.7,16.2
		c-0.1,0.2-0.2,0.3-0.5,0.3l-6.3-0.3c-0.2,0-0.4-0.1-0.5-0.2c-2.3-2.1-3.1-4.7-2.3-7.7c0-0.1,0.1-0.2,0.2-0.3l3.2-3.9
		C600.9,413.6,600.9,413.2,600.8,412.8z"/>
</g>
<ellipse transform="matrix(0.4818 -0.8763 0.8763 0.4818 -34.4469 771.8735)" class="st6" cx="635.4" cy="415.1" rx="0.8" ry="0.6"/>
<g>
	<path class="st6" d="M886.2,377c-1.1,0.1-2-0.1-3-0.5c-0.4-0.1-0.6-0.6-0.4-0.9s0.6-0.6,0.9-0.4c1.4,0.4,2.6,1,3.7,1.9
		c0.2,0.1,0.3,0.3,0.3,0.6c0,0.3,0.1,0.5,0.1,0.7c0,0.3-0.1,0.3-0.2,0.1l-0.6-1C886.8,377.2,886.5,377,886.2,377z"/>
	<path class="st6" d="M877.9,382.6c-0.4,0.1-0.7,0-0.9-0.5c-0.1-0.2,0-0.4,0.2-0.4c0.1,0,0.1,0,0.2,0c3.2,1,5.8,0.3,7.8-2.1
		c0.1-0.1,0.3-0.2,0.5,0c0.1,0,0.1,0.1,0.1,0.2C886.8,383.9,880.1,383.2,877.9,382.6z"/>
	
		<ellipse transform="matrix(0.7302 -0.6833 0.6833 0.7302 -20.6903 714.6887)" class="st6" cx="894.5" cy="383.5" rx="0.8" ry="1.7"/>
	<path class="st6" d="M899,385c0.5-0.1,0.8,0.2,0.9,0.9c0,0.2-0.1,0.4-0.3,0.4c-0.1,0-0.3,0-0.3-0.1l-1-1.4c0-0.1,0-0.2,0.1-0.2
		c0.1,0,0.1,0,0.2,0l0.4,0.4C898.9,385,898.9,385,899,385z"/>
	<path class="st6" d="M933,480.8c0.2,1.4-0.4,2.2-1.8,2.5c-0.4,0.1-0.7,0.3-0.9,0.6c-1.2,2-2.8,3.4-5,4.3c-0.4,0.2-0.8,0-1-0.4
		c-0.1-0.3,0-0.7,0.3-0.9c1.3-1,2-2.3,1.8-4.1c0-0.2-0.1-0.5-0.3-0.6l-1.6-1.2c-0.3-0.2-0.4-0.7-0.1-1c0.1-0.1,0.2-0.2,0.3-0.2
		l2.6-1.1c0.2-0.1,0.4-0.3,0.5-0.6l1-3.5c0.1-0.3,0-0.5-0.1-0.8c-1.1-1.9-0.6-8.1-0.6-10.4c0-0.2,0.2-0.4,0.4-0.4
		c0.2,0,0.3,0.1,0.3,0.2c0.9,2.9,1.2,5.8,1,8.7c0,0.4,0.3,0.8,0.7,0.8c0.3,0,0.6-0.1,0.7-0.4l0.7-1.1c0.1-0.2,0.4-0.3,0.7-0.1
		c0.1,0.1,0.2,0.2,0.2,0.4v3.4c0,0.3,0.2,0.5,0.5,0.6l3.6,0.5c0.7,0.1,1.1,0.7,1,1.3c0,0.4-0.3,0.7-0.6,0.9c-0.8,0.4-1.5,1.1-2,1.9
		c-0.2,0.3-0.4,0.4-0.8,0.3l-1-0.4c-0.3-0.1-0.6,0-0.7,0.3C933,480.6,933,480.7,933,480.8z"/>
	<g>
		<path class="st6" d="M856.8,374.9c2.7,1.1,5.2,1.9,7.5,2.7c2.8,0.9,4.4,2.9,6.5,4.8c0,0,0.1,0.1,0.1,0.1l3.6,1.4
			c0.2,0.1,0.3,0.3,0.2,0.6c-0.1,0.1-0.2,0.2-0.3,0.3l-1.8,0.5c-0.2,0.1-0.3,0.2-0.2,0.4c0,0.1,0.1,0.2,0.3,0.2
			c1.7,0.1,2.5,1,2.2,2.9c-0.1,0.3,0.1,0.7,0.5,0.8c2.1,0.8,3.8,2,5.1,3.8c0.2,0.2,0.1,0.3-0.2,0.3c-5-0.1-8.8-2.3-11.6-6.4
			c-0.2-0.3-0.4-0.5-0.7-0.6c-1.6-0.9-3-0.6-4.1,0.7c-0.2,0.2-0.5,0.4-0.8,0.5l-1.7,0.4c-0.3,0.1-0.4,0.3-0.3,0.6c0,0,0,0.1,0,0.1
			l0.7,1.4c0.1,0.3,0,0.7-0.3,0.8c-0.1,0.1-0.3,0.1-0.4,0l-4.7-1.1L856.8,374.9z"/>
		<path class="st6" d="M838.4,454.4c-2.9,0.2-4.8,1.7-5.8,4.3c-0.1,0.4-0.4,0.5-0.7,0.2l-2.1-1.3c-0.3-0.2-0.4-0.5-0.2-0.8l0.9-1.6
			c0.1-0.2,0.1-0.5,0-0.8c-1-2.1-2.4-3.8-4.2-5.2c-0.3-0.2-0.6-0.3-0.9-0.3h-4.3c-0.3,0-0.7-0.2-0.9-0.5c-0.6-0.9-1.4-1.3-2.4-1.1
			c-4.9,1.2-10.7,1.8-15.2,4c-2.4,1.2-3.9,2.5-6.7,2.6c-3.8,0.1-9.2-0.4-10.3,2.2c-0.1,0.3-0.4,0.5-0.8,0.6
			c-1.4,0.1-7.8-0.9-6.4-3.8c0.2-0.4,0.1-0.7-0.1-1c-1-1.6-0.6-2.7,1.2-3.3c0.4-0.1,0.6-0.4,0.6-0.8c-0.1-6.4-2.5-12.1-1.7-18.5
			c0.7-6.7,4.9-11.2,11.8-11.5c4.4-0.2,7.4-1.9,11.4-3c2-0.6,2.7-2,2.3-4.2c-0.2-0.8,0.3-1.6,1.1-1.8c0.3-0.1,0.7,0,1,0.1l2,1.1
			c0.3,0.2,0.5,0.1,0.7-0.2c1.4-1.9,3.6-3.3,3.4-5.8c0-0.3,0.2-0.7,0.5-0.8c0.9-0.4,1.7-1,2.2-1.9c0.1-0.2,0.3-0.3,0.6-0.4
			c5.5-1.2,5.2,7.7,11.7,3.3c0.4-0.2,0.5-0.7,0.2-1.1c-0.1-0.2-0.3-0.3-0.4-0.3l-1.2-0.4c-0.1,0-0.2-0.2-0.2-0.3
			c0-0.1,0.1-0.2,0.2-0.2c2-0.3,2.7-1.5,2.2-3.6c-0.1-0.3,0.1-0.6,0.4-0.6c0,0,0.1,0,0.1,0l3.7,0c0.4,0,0.7-0.2,0.8-0.6
			c0.2-0.5,0.1-0.8-0.3-1.1c-0.6-0.5-1.8-0.3-2.4-0.8c-0.3-0.3-0.3-0.7-0.1-1c0.2-0.3,0.6-0.3,0.9-0.2l4.9,2.3
			c0.3,0.2,0.7,0.2,1.1,0.2c1.2-0.1,2.1,0.4,2.6,1.6c0.1,0.3,0.5,0.5,0.8,0.4l2.5-0.9c0.3-0.1,0.6,0,0.8,0.4c0,0.1,0,0.1,0,0.2
			c0.1,2-0.7,3.4-2.4,4.3c-0.4,0.2-0.5,0.5-0.4,1c1.4,3.2,3.8,4.3,7.2,3.5c0.3-0.1,0.7,0.1,0.8,0.5l0.8,2.6c0.1,0.3,0.3,0.5,0.7,0.6
			c3,0.8,4.9-0.4,5.7-3.5c1.1-4.4,1.6-8.3,1.3-11.8c0-0.3,0.1-0.5,0.4-0.6c2.5-0.8,3.7,0.4,4.2,2.8c0.5,2.1,1.6,3.9,3.2,5.4
			c0.3,0.3,0.4,0.6,0.5,0.9l1.5,10.4c0,0.3,0.2,0.5,0.4,0.7c8.4,7.5,13.9,14.6,15.1,25.8c0,0.3-0.1,0.6-0.2,0.9
			c-2,2.3-3.5,4.9-4.5,7.7c-2.5,6.5-8.5,12.9-13.4,17.7c-0.2,0.2-0.3,0.4-0.2,0.7l0.2,1.1c0.1,0.4-0.2,0.7-0.5,0.8c0,0-0.1,0-0.1,0
			c-2,0.1-4,0.4-6,1c-0.1,0-0.2,0.1-0.3,0.2l-1.6,2c-0.2,0.3-0.6,0.3-0.8,0.1c0,0-0.1-0.1-0.1-0.1c-2.2-2.9-4.4-3.1-7.9-1.9
			c-3.1,1-8-1.5-5.7-5.4c0.2-0.4,0.1-0.8-0.2-1.1c-1.3-1.1-2.9-1.7-4.6-2c-0.5-0.1-0.6-0.3-0.5-0.8l0.4-1.1c0.1-0.2-0.1-0.5-0.3-0.6
			c0,0-0.1,0-0.1,0l-1.2-0.2c-0.4,0-0.6-0.4-0.5-0.7c0-0.1,0.1-0.3,0.2-0.4l3.8-3.9c0.1-0.1,0.1-0.3,0-0.4
			C838.6,454.4,838.5,454.4,838.4,454.4z"/>
		<path class="st6" d="M913.1,417.6l7.3,6.2c0.3,0.2,0.3,0.7,0.1,0.9l-0.1,0.1c-0.2,0.3-0.7,0.3-0.9,0.1l-7.3-6.2
			c-0.3-0.2-0.3-0.7-0.1-0.9l0.1-0.1C912.4,417.4,912.8,417.4,913.1,417.6z"/>
		
			<ellipse transform="matrix(0.5821 -0.8131 0.8131 0.5821 -32.2507 888.447)" class="st6" cx="848.2" cy="475.6" rx="0.9" ry="0.7"/>
		<path class="st6" d="M852.1,481.1l4.6-0.6c0.3,0,0.6-0.3,0.6-0.6l0.8-3.1c0.1-0.2,0.3-0.3,0.5-0.2c0.2,0.1,0.4,0.4,0.3,0.6l0,0
			c-1.3,5.1-4.1,9.2-8.3,12.3c-0.4,0.3-1,0.2-1.3-0.2c-0.1-0.1-0.2-0.3-0.2-0.5l-0.5-7.4c0-0.3-0.1-0.6-0.3-0.9l-0.6-0.7
			c-0.3-0.4-0.2-0.7,0.3-0.9c1.7-0.5,2.8,0.1,3.5,1.7C851.5,481.1,851.8,481.2,852.1,481.1z"/>
		<path class="st6" d="M921.2,486.7l1.2,0.6c0.3,0.1,0.4,0.5,0.3,0.8c0,0,0,0,0,0c-0.5,0.9-1,1.6-1.8,2.3c-0.3,0.3-0.5,0.5-0.6,0.9
			c-1.2,2.7-4,3.4-5.7,5c-4.1,3.8-8.2,7.7-12.1,11.6c-0.2,0.2-0.6,0.2-0.8,0c0,0-0.1-0.1-0.1-0.1c-0.8-1.7-2.1-2.8-3.9-3.4
			c-0.3-0.1-0.5-0.3-0.4-0.7c1.9-8.8,12.8-7.6,17.8-14.5c1.4-1.9,3-3.5,4.9-4.8c0.2-0.1,0.5-0.1,0.6,0.1c0,0.1,0.1,0.1,0.1,0.2v1.2
			C920.8,486.3,920.9,486.6,921.2,486.7z"/>
		<path class="st6" d="M898.3,506.6c0.1-0.1,0.2-0.2,0.3-0.1c0.1,0,0.1,0.1,0.1,0.2c0.1,0.7-0.1,1.3-0.6,1.8c-0.1,0.1-0.3,0.1-0.4,0
			c-0.1-0.1-0.1-0.2-0.1-0.4L898.3,506.6z"/>
	</g>
</g>
<g>
	<path class="st7" d="M364.3,437.7c-2.3,2-4.5,3.9-6.4,5.9c-3.8,3.8-6.4,12-13.7,6.4c-0.3-0.3-0.8-0.2-1.1,0.1
		c-0.2,0.3-0.2,0.6,0,0.9c2.5,3.7,4.6,7.8,0.4,11.3c-0.2,0.2-0.5,0.3-0.9,0.3l-7.3-0.4c-0.4,0-0.8,0.3-0.8,0.8c0,0,0,0.1,0,0.1
		c0.2,2,0,3.9-0.6,5.8c-0.1,0.3-0.5,0.5-0.8,0.4c0,0,0,0,0,0l-1.8-0.8c-0.9-0.4-1.9-0.1-2.4,0.7c-1,1.5-0.9,2.5,0.4,3.2
		c0.2,0.1,0.5,0.1,0.7,0c0.6-0.3,1.3-0.5,2-0.4c0.5,0,0.6,0.2,0.2,0.6l-4,4c-0.2,0.2-0.4,0.6-0.3,0.9c0.2,2-0.5,3.3-2.4,3.7
		c-0.3,0.1-0.6,0.3-0.7,0.6c-1.4,3.4,3,4.6,5.2,5.3c0.5,0.2,0.8,0.7,0.7,1.3c0,0.1-0.1,0.2-0.2,0.3l-4.5,5.7
		c-0.2,0.2-0.3,0.5-0.3,0.8c0,1.8-0.4,3.4-1.3,5c-0.2,0.3-0.2,0.6,0,0.8l4.7,6.2c0.2,0.2,0.4,0.4,0.7,0.5l5.8,2.2
		c0.3,0.1,0.4,0.4,0.3,0.7c-0.1,0.2-0.3,0.3-0.5,0.3l-8.6,0.1c-0.2,0-0.4,0.2-0.4,0.4c0,0,0,0,0,0c0,0.2,0.1,0.3,0.1,0.4
		c0,0,5.1,0.3,5.7,0.4c0.3,0,0.5,0.3,0.5,0.7c0,0.3-0.3,0.5-0.5,0.5c-2.8,0.2-5.4-0.3-7.9-1.6c-0.4-0.2-0.6-0.7-0.4-1.2
		c0,0,0-0.1,0.1-0.1l1.2-1.7c0.2-0.3,0.2-0.6-0.2-0.8c-2.2-1.3-4.6-2.1-7.1-2.2c-0.3,0-0.6-0.1-0.8-0.3l-5.3-4.9
		c-0.3-0.3-0.5-0.6-0.5-1l-2.2-13c-0.1-0.3-0.2-0.6-0.6-0.7c-1.2-0.5-1.7-1.3-1.7-2.5c0-0.4,0.4-0.8,0.8-0.8c0,0,0,0,0,0l1.2,0.1
		c0.4,0,0.7-0.2,0.8-0.5l1.2-3c0.2-0.4,0.1-0.8-0.1-1.1c-1.2-1.7-1-3.3,0.5-4.8c0.2-0.2,0.2-0.6,0-0.9c-0.1-0.1-0.2-0.2-0.4-0.2
		l-2.6-0.1c-0.2,0-0.4-0.1-0.6-0.4l-2.3-4.4c-0.2-0.3-0.2-0.6,0-0.9c1.6-2.9,1.2-5.4-1.2-7.2c-0.3-0.2-0.3-0.5,0-0.7l1.3-1
		c0.3-0.2,0.5-0.5,0.6-0.8l2.3-8.5c0.1-0.3,0-0.5-0.1-0.8l-1.7-3.1c-0.2-0.3-0.2-0.6,0-0.9l1.3-2.6c0.2-0.3,0.2-0.7,0.2-1.1
		c-0.2-1.8,0.1-3.6,1-5.2c0.2-0.3,0.3-0.7,0.2-1c-0.2-4.1-0.9-8.1-2.2-11.9c-1-3.2,0-5.6,1.5-8.3c0.6-1,0.2-2.3-0.8-2.8
		c-4.7-2.7-9.3-5.8-13.7-9.2c-4.3-3.3-7.1-8-10.5-12.2c-0.2-0.2-0.2-0.5-0.2-0.8l0.2-1.3c0.1-0.4-0.1-0.7-0.5-0.9
		c-2.3-0.9-4-2.5-5-4.8c0-0.1,0-0.2,0-0.3l2.6-14.1c0-0.1,0.1-0.2,0.1-0.2c2.2-1.9,8-6.1,7-9.3c-0.5-1.6-0.4-2.2-0.1-3.7
		c0.1-0.3-0.1-0.6-0.4-0.7l-1.9-0.8c-0.4-0.2-0.5-0.4-0.4-0.8c0.3-1.2,0.3-2.2,0-3.2c0.3-0.2,0.4-0.4,0.5-0.7l4.7,1.9
		c0.4,0.2,0.7,0,0.9-0.4l2.5-5.3c0.2-0.3,0.4-0.5,0.8-0.5l5.6-0.5c0.3,0,0.5-0.2,0.6-0.4l0.9-1.6c0.2-0.5,0.6-0.5,0.9-0.1l0.6,0.6
		c0.3,0.3,0.3,0.6,0,0.9c-1.3,1.4-1.8,3.1-1.5,5.1c0,0.2,0.3,0.4,0.5,0.4c0.1,0,0.2-0.1,0.2-0.1c1.6-1.6,2.5-3.4,2.8-5.6
		c0-0.2,0.2-0.4,0.4-0.3c2.7,0.4,5,1.4,7,3.2c0.3,0.2,0.6,0.4,1,0.4c2.2,0.1,4.3,0.3,6.4,0.8c1,0.2,2.3,0,3-0.6
		c0.7-0.7,1.9-0.8,2.7-0.3c5.5,3.5,10.3,8,16.2,10.7c0.3,0.1,0.6,0.1,0.9-0.1c2.6-2.1,6,0.6,9.2,1.9c0.3,0.1,0.6,0.4,0.8,0.6
		c1,1.4,2.4,2,4.2,1.6c0.3-0.1,0.7,0.1,0.8,0.5l1.4,3.7c0.1,0.1,0,0.3,0,0.4l-3.2,6.8c-0.1,0.3,0,0.7,0.3,0.8
		c0.2,0.1,0.5,0.1,0.6-0.1c1.5-1.2,3.2-1.9,5.2-1.8c0.3,0,0.6,0.3,0.6,0.6c0,0.3-0.2,0.5-0.4,0.6c-2.6,0.9-3.2,2.6-1.9,5
		c0.2,0.4,0.4,0.4,0.5-0.1c1.4-5.3,5.9-6.1,9.8-2.7c1.5,1.3,3.2,2.2,5.2,2.6c0.3,0.1,0.6,0,0.9-0.1c2.6-1,4.7-1.3,6.1-0.7
		c5.1,2.1,10,4.3,14.7,6.8c0.8,0.4,1.2,1.4,1,2.3l-3.2,10.6c-0.1,0.3-0.3,0.6-0.6,0.8c-8.7,4.7-6,5.9-6.2,14.4
		c0,0.3-0.1,0.6-0.3,0.8c-1.6,1.8-3,4.4-4.1,7.7c-0.8,2.4-3.2,2.7-5.7,2.5c-2.2-0.1-4.3,0.3-6.3,1.1c-0.3,0.1-0.5,0.3-0.7,0.6
		C367.1,428,363.1,428.8,364.3,437.7z"/>
	<path class="st7" d="M254.4,370.7c0.1,0,0.1,0.1,0.1,0.2c0,0-0.1,0.1-0.1,0.1l-2.5,0.5c-0.4,0.1-0.7-0.2-0.8-0.5c0-0.1,0-0.2,0-0.3
		l0.1-0.6c0.1-0.4,0.3-0.5,0.7-0.4L254.4,370.7z"/>
	
		<ellipse transform="matrix(0.9516 -0.3074 0.3074 0.9516 -131.416 117.2001)" class="st7" cx="306.4" cy="475.8" rx="1.1" ry="2.2"/>
	<path class="st7" d="M345,499.5c-0.3-0.1-0.5-0.3-0.4-0.6c0,0,0,0,0-0.1c0.2-0.6,0.6-1,1.3-0.9c1,0,2,1,3,1.3
		c0.2,0.1,0.5,0,0.7-0.1l2.2-2c0.2-0.2,0.6-0.2,0.8,0c0.2,0.2,0.2,0.6,0,0.8l-2.2,2.4c-0.1,0.1-0.3,0.2-0.5,0.2L345,499.5z"/>
	<path class="st7" d="M316.7,508.5c-1.1,0.2-1.9-0.1-2.5-1c-0.2-0.3-0.1-0.6,0.1-0.8c0.2-0.1,0.5-0.1,0.7,0l1.8,1.1
		C317.5,508.1,317.4,508.3,316.7,508.5z"/>
	
		<ellipse transform="matrix(0.7034 -0.7108 0.7108 0.7034 -266.304 378.336)" class="st7" cx="320.2" cy="508.3" rx="1.2" ry="0.9"/>
</g>
</svg>
