<?xml version="1.0" encoding="UTF-8"?>
<svg id="Camada_1" data-name="Camada 1" xmlns="http://www.w3.org/2000/svg" viewBox="0 0 870.68 426.8">
  <defs>
    <style>
      .cls-1 {
        fill: #8e65a8;
      }

      .cls-2 {
        fill: #f6da64;
      }

      .cls-3 {
        fill: #53acd1;
      }

      .cls-4 {
        fill: #ec6b56;
      }

      .cls-5 {
        fill: #2ab297;
      }

      .cls-6 {
        fill: #a28e85;
      }

      .cls-7 {
        fill: #f2f2f2;
      }

      .cls-8 {
        fill: #fefefe;
      }
    </style>
  </defs>
  <path class="cls-5" d="m506.38,18.79c.14-.22.44-.27.65-.13.13.09.21.23.21.39v2.02c0,.23-.19.42-.42.42-.13,0-.24-.06-.32-.16-.64-.84-.68-1.69-.12-2.54Z"/>
  <path class="cls-5" d="m518.61,21.05c-.49.46-.78.36-.88-.3l-.25-1.71c-.06-.35.18-.68.53-.74.2-.03.4.03.54.17.94.87.96,1.73.06,2.58Z"/>
  <path class="cls-5" d="m505.07,26.4l.19.63c.02.09-.03.18-.12.21-.07.02-.15-.01-.19-.08-.51-1.05-.63-2-.36-2.83.2-.63.66-.8,1.37-.52.3.12.63.1.91-.05l1.96-1.08c.64-.35.8-.2.49.46l-.34.7c-.15.31-.39.46-.74.46-1.12-.01-2.11.41-2.97,1.28-.23.23-.3.51-.2.82Z"/>
  <path class="cls-5" d="m497.47,29.11l-1.37,2.95c-.14.31-.51.45-.82.3-.07-.03-.13-.07-.18-.12-1.43-1.4-1.46-2.79-.07-4.17l.96-.03c.31-.01.56-.27.55-.58,0-.03,0-.05,0-.08-.24-1.29.24-2.06,1.44-2.33.59-.13,1.17.23,1.3.82.07.3,0,.61-.16.86l-1.64,2.38Z"/>
  <path class="cls-5" d="m495.05,27.54c-1.17-.92-3.88-.73-3.57,1.46.04.27-.14.52-.41.56-.03,0-.06,0-.09,0-.33-.01-.75-.15-1.28-.42.07-2.8,2-3.68,5.78-2.64.23.06.37.31.31.54-.01.05-.03.09-.06.13-.21.33-.44.45-.68.36Z"/>
  <path class="cls-5" d="m514.94,29.02c.23-.21.53-.16.68.11.15.27.09.65-.13.85h0c-.24.23-.48.37-.71.42-.28.05-.54-.13-.6-.4-.04-.18.02-.35.16-.47l.6-.51Z"/>
  <path class="cls-5" d="m497.94,29.32l4.2,2.79c-2.12.25-3.52-.68-4.2-2.79Z"/>
  <path class="cls-5" d="m461.36,38.74c-.73,1.42-1.72,2.15-3.44,2.02-4.96-.35-7.08-.53-9.63-5.22.68-1.15,2.23-1.25,4.66-.29.31.12.61.09.89-.08,2.85-1.73,8.81-.69,7.52,3.57Z"/>
  <path class="cls-5" d="m435.35,46.91l-.46-.97c-.12-.24-.02-.54.22-.66.18-.09.4-.06.55.08.34.3.6.65.77,1.06.14.3,0,.65-.3.79s-.65,0-.79-.3h0Z"/>
  <path class="cls-7" d="m441.93,48.49c-.09.04-.2,0-.24-.08l-.03-.05c-.31-.62.29-1.55,1.34-2.08l.31-.16c1.05-.52,2.15-.44,2.46.18l.03.05c.04.09,0,.2-.08.24l-3.79,1.9Z"/>
  <path class="cls-4" d="m553.51,66.52c-.2.11-.45.05-.56-.15l-.04-.08c-.49-.83-.34-1.82.33-2.22l.26-.15c.67-.4,1.62-.06,2.11.77,0,0,0,0,0,0l.04.08c.11.19.05.44-.14.56l-2,1.19Z"/>
  <path class="cls-3" d="m41.11,72.04c-1.69-.87-2.09-2.18-1.2-3.93.55-1.09,1.88-1.53,2.97-.98.52.26.92.72,1.1,1.27.4,1.19,1.05,2.18,1.96,2.99.2.16.23.45.07.65-.15.18-.4.23-.6.1-1.09-.61-2.18-.64-3.27-.09-.33.16-.71.16-1.03,0Z"/>
  <path class="cls-7" d="m369.14,86.17c0-.15-.19-.13-.55.06-.47-1.19-.71-2.31-.74-3.36-.02-.68.16-.74.55-.18.59.85.83,2.01.74,3.48Z"/>
  <path class="cls-7" d="m539.2,89.54c.25-.53.34-1.1.29-1.71-.03-.33-.17-.61-.42-.82-.83-.7-1.48-1.52-1.95-2.45.41-.81,1.07-.63,1.98.54.05.07.13.11.22.11h1.61c.28,0,.51.22.51.51,0,.02,0,.04,0,.06-.11,1.04.19,1.92.91,2.63.22.21.25.45.08.71l-1.37,2.06c-.19.28-.57.35-.85.16,0,0-.01-.01-.02-.02-.51-.39-.84-.98-.99-1.78Z"/>
  <path class="cls-3" d="m536.83,84.56h.29c.47.93,1.12,1.75,1.95,2.45.25.21.39.49.42.82.05.61-.04,1.18-.29,1.71h-.75l.68-1.06c.21-.32.14-.57-.2-.75-1.23-.65-1.93-1.7-2.1-3.17Z"/>
  <path class="cls-3" d="m461.59,86.63c.2-.59.56-.93,1.08-1,.39-.06.75.21.8.61.04.33-.15.65-.46.77l-.74.28c-.28.1-.58-.05-.68-.33-.04-.11-.04-.23,0-.33Z"/>
  <path class="cls-7" d="m460.85,88.24c-.83,2.26-3.04,3.7-6.63,4.32-.52-4.35,3.36-4.65,6.63-4.32Z"/>
  <ellipse class="cls-5" cx="518.62" cy="89.75" rx="1.94" ry="1.56" transform="translate(-6.28 51.04) rotate(-5.6)"/>
  <path class="cls-4" d="m793.18,95.01c.06-.95.59-1.41,1.6-1.38.26,0,.38.13.36.39l-.21,3.3c-.01.21-.11.27-.29.16-1.04-.62-1.53-1.44-1.46-2.47Z"/>
  <path class="cls-3" d="m451.91,95.79c.12.17.12.36-.01.57-.76-.29-1.52-.22-2.29.2-.28.16-.51.11-.7-.15l-1.2-1.57c-.15-.21-.12-.37.11-.5l1.03-.56c.41-.22.65-.1.72.35.23,1.39,1.01,1.94,2.34,1.66Z"/>
  <ellipse class="cls-3" cx="445.76" cy="97.79" rx="1.47" ry=".38" transform="translate(23.01 269.68) rotate(-34.5)"/>
  <g>
    <path class="cls-5" d="m528.95,62.2l-1.83,8.55c-.07.34-.04.67.11.98.71,1.47,1.17,3.02,1.39,4.63.05.34.21.6.49.79,1.63,1.11,2.82,2.62,3.59,4.55.14.35-.03.74-.38.88-.12.05-.24.06-.37.04l-5.66-1c-.36-.06-.65-.32-.77-.66-.67-1.96-2-2.55-3.99-1.76-.35.13-.74.05-.99-.21l-1.67-1.66c-.28-.28-.29-.72-.04-1.02l1.77-2.06c.25-.29.32-.61.21-.98-.86-2.97-.45-5.81,1.23-8.52.19-.3.21-.61.06-.93-.55-1.27-2.81-4.4-.33-5.2,1.34-.43,1.9-.74,2.31-1.99,1.37-2.86,2.74-4.66,5.99-5.67,3.14-.97,5.48-1.26,7.27-4.78.14-.29.36-.49.65-.62,1.71-.71,3.12-.6,4.22.34,1.09.93.91,1.96-.54,3.09-5.44,4.25-8.96,5.77-12.72,13.21Z"/>
    <g>
      <path class="cls-5" d="m511.12,27.33c-.61.3-.9.81-.89,1.52,0,.3-.23.54-.53.55-.1,0-.2-.03-.28-.08l-1-.63c-.43-.27-.39-.44.1-.53.81-.13,1.45-.54,1.92-1.21.19-.26.51-.41.84-.38,1.97.17,2.88-.73,2.71-2.71-.03-.33.12-.5.45-.52l.67-.06c.32-.02.57-.31.54-.63,0-.11-.05-.22-.11-.31-.62-.85-1.27-.87-1.94-.06-.11.14-.31.16-.45.05-.08-.06-.12-.15-.12-.25-.01-.65.3-1.06.93-1.23.34-.09.64-.02.89.22l1.46,1.4c.22.21.22.43.01.65l-.42.41c-.41.41-.34.73.19.94.19.07.38.15.58.22.39.15.59.58.45.98-.13.34-.48.55-.85.48-2.32-.48-3.7.37-4.14,2.54-.04.17-.22.28-.39.23-.15-.04-.25-.17-.24-.32l.1-.93c.02-.19-.12-.35-.3-.37-.06,0-.13,0-.18.03Z"/>
      <path class="cls-5" d="m443.98,37.07l15.69,12.35c.29.23.34.64.11.92-.01.02-.03.03-.04.05-1.31,1.4-2.91,2.31-4.8,2.73-.37.08-.74-.15-.82-.51-.02-.09-.02-.18,0-.27l.71-4.07c.04-.22-.03-.39-.22-.52l-3.39-2.41c-.33-.23-.77-.15-1,.17-.07.1-.11.21-.13.34l-1.41,12.04c-.06.45-.47.78-.92.73-.22-.03-.43-.14-.56-.33l-4.73-6.34c-.18-.24-.13-.59.12-.77.1-.07.21-.11.33-.11h1.08c.17,0,.31-.14.31-.31,0-.14-.09-.27-.23-.3l-1.65-.42c-.29-.07-.53-.22-.74-.43-2.29-2.33-4.07-4.93-5.35-7.78-1.11-2.5-.32-3.84,2.39-4.03.45-.03.73.17.84.6l.24.94c.06.22.28.35.5.29,0,0,.02,0,.03,0l.81-.27c.39-.13.76-.11,1.12.08.61.31.85.87.72,1.67-.06.38.06.69.35.93l.33.27c.47.39.64.28.5-.31-.53-2.21-.59-3.85-.18-4.92Zm-2.05,11.42l3.79-1.9c.09-.04.12-.15.08-.24l-.03-.05c-.31-.62-1.41-.7-2.46-.18l-.31.16c-1.05.53-1.65,1.46-1.34,2.08l.03.05c.04.09.15.12.24.08Z"/>
      <path class="cls-5" d="m559.82,90.34c.89,1.19.96,2.5.21,3.95-.18.33-.45.59-.78.75-1.21.57-1.91,1.51-2.08,2.84-.05.41.14.81.49,1.04l1.77,1.13c.67.43.86,1.32.43,2-.06.1-.14.19-.23.27-1.71,1.6-2.34,2.78-2.32,5.31.04,4.58-2.02,8.14-2.1,12.59,0,.39-.29.71-.67.76l-4.75.69c-.32.05-.58.3-.62.63l-.23,1.85c-.06.42.21.82.62.92,1.46.39,2.38,1.27,2.76,2.64.09.33.05.69-.11.99-1.07,1.98-2.11,4.63-3.14,7.95-1.01,3.27-5.95,1.5-8.39,1.12-.61-.1-1.17.32-1.27.92-.04.25,0,.5.13.72l2.33,4.14c.11.21.09.46-.04.65l-1.46,2.06c-.08.12-.13.26-.13.4-.03,1.98-.71,3.68-2.02,5.11-.27.29-.33.63-.2,1,.88,2.38-1.49,2.8-2.37,4.47-.15.29-.11.56.1.81l3.3,3.87c.24.29.21.73-.09.97-.11.09-.24.14-.37.16l-8.34.79c-.97.09-1.69.94-1.61,1.92.06.69.52,1.28,1.17,1.51,2.22.8,4.23,1.91,6.04,3.34.35.27.4.59.15.96-1.25,1.89-2.04,3.97-2.39,6.23-.06.37-.25.71-.55.95-4.8,3.77-6.67,6.11-13.39,5.06l.27-4.43c.02-.34-.13-.57-.45-.68-3.83-1.37-7.41-3.21-10.75-5.52-.24-.16-.53-.26-.82-.27-2.33-.09-4.46.46-6.39,1.65-.7.44-1.62.23-2.05-.46-.06-.1-.11-.21-.15-.32-.69-2.02-1.91-3.71-3.65-5.07-.74-.57-1.79-.45-2.36.28-.01.01-.02.03-.03.04l-3.28,4.42c-.13.18-.31.32-.52.4-.95.37-1.43,1.05-1.46,2.06-.01.41-.12.8-.33,1.15l-1.51,2.53c-.21.35-.26.72-.17,1.11.35,1.45,1.21,2.47,2.57,3.04.23.08.36.33.28.56-.07.21-.28.33-.5.29-1.51-.17-2.82.3-3.93,1.43-.27.27-.6.42-.97.47-.72-3.48-4.86-.91-6.08.59-.24.3-.65.41-1.01.27l-1.91-.74c-.17-.06-.35.02-.41.19-.02.06-.03.13,0,.19.67,2.38,1.91,4.32,3.72,5.83.22.18.25.51.07.73-.09.11-.23.18-.37.19l-1.59.12c-.31.02-.56.25-.61.56-.14.78-.55,1.43-1.24,1.95-.66.52-1.61.41-2.13-.25-.41-.52-.44-1.26-.06-1.81l.6-.89c.23-.35.14-.54-.28-.57-1.3-.07-2.36-.66-3.19-1.79-.18-.24-.28-.51-.31-.81-.14-1.59-1-2.57-2.58-2.95-.29-.07-.5-.32-.52-.62l-.2-3.1c-.02-.32-.14-.59-.37-.82-4.34-4.37-10.26-5.87-14.92-10.19-.24-.22-.52-.3-.83-.24-1.09.21-1.94.81-2.53,1.79-.25.42-.18.78.21,1.08,1.61,1.25,3.2,2.53,4.76,3.83,3.33,2.77,7.2,4.6,10.84,6.97.26.17.41.35.46.54.03.14.02.27-.02.39-.09.23-.33.36-.56.29l-1.61-.46c-.48-.13-.69.05-.62.54l.36,2.7c.05.37-.03.7-.24,1-.68.96-1.6,1.58-2.77,1.87-.47.11-.61-.05-.42-.5,1.14-2.67.53-4.48-2.16-5.78-5.28-2.54-9.92-5.96-13.91-10.27-.25-.27-.55-.38-.9-.34-2.17.21-4.05,1.08-5.66,2.59-.86.82-2.14,1.02-3.21.51-1.57-.74-3.19-.9-4.86-.48-.33.08-.51.29-.56.62l-.53,3.89c-.04.26-.23.46-.48.53l-3.7.94c-.25.06-.44.28-.46.54-.09,1.12-.62,1.94-1.61,2.46-.38.2-.53.51-.44.94.98,4.74-4.86,8.87-9.21,7.2-.3-.11-.64-.03-.86.21-1.48,1.61-3.27,2.03-5.38,1.27-.33-.12-.59-.33-.77-.64l-.25-.42c-.17-.29-.43-.45-.76-.48l-3.6-.34c-.81-.08-1.41-.8-1.34-1.61,0-.04,0-.09.02-.13.23-1.21-.23-1.9-1.37-2.07-.44-.07-.74-.47-.67-.91,0-.07.03-.13.05-.19.78-1.88,1.75-3.43,1.85-5.55.09-1.93.23-3.63.42-5.08.17-1.27,1.29-2.2,2.57-2.11l14.23.98c.3.02.59-.12.76-.37,3.27-4.91.72-6.82-2.05-10.59-.19-.26-.45-.43-.77-.5-1.87-.43-4.35-.19-3.99-2.98.05-.37.25-.57.62-.6l7.06-.69c.34-.41.64-.56.9-.46,4.88-2.04,8.55-5.32,12.12-9.97,2.24-2.92,7.03-3.32,10.51-3.59.28-.02.49-.26.48-.54,0-.15-.09-.29-.21-.38l-2.05-1.57c-.25-.19-.36-.52-.27-.82.42-1.41.35-2.79-.21-4.15-.12-.3.02-.64.32-.76.04-.01.07-.03.11-.03l1.25-.24c.21-.04.35-.25.31-.46-.02-.12-.1-.22-.21-.27l-1.04-.51c-.23-.1-.32-.37-.21-.6.09-.18.28-.28.47-.26,1.17.13,2.25-.12,3.24-.73.19-.12.45-.06.56.14.06.09.07.21.05.31-.28,1.14-.11,2.15.52,3.03.13.19.08.45-.11.58-.09.06-.2.09-.31.07l-.75-.15c-.42-.08-.69.08-.81.49-1.12,3.83,3.1,6.31,6.35,5.17,1.86-.66,3.4-.73,3.55,1.64.02.32.3.56.62.54.05,0,.1-.01.14-.03.61-.19,1.02-.59,1.24-1.2.1-.25.29-.44.54-.54l7.49-2.88c.24-.09.51-.04.7.13l1.45,1.31c.12.1.28.16.43.15l7.15-.56c.48-.04.84-.47.8-.95-.02-.24-.14-.46-.32-.61-.78-.62-1.71-.91-2.8-.87-.87.03-1.6-.64-1.65-1.51-.12-1.86,2-6.66,4.55-5.68.47.18.69.54.68,1.09-.01.3.11.52.37.66.81.45,1.38.29,1.71-.5.3-.71.41-1.64.33-2.77-.02-.28-.17-.45-.44-.52l-1.78-.42c-.86-.21-1.38-1.07-1.18-1.93.12-.51.49-.93.99-1.12,2.61-.98,5.26-1.27,7.95-.88.51.08,1.04.48,1.18.91.11.33-.05.58-.4.63l-.3.04c-.4.05-.57.28-.5.68.22,1.28.88,2.27,1.97,2.98.21.16.51.11.67-.1.14-.19.12-.44-.03-.61-2.36-2.87.02-4.6,1.21-7.08.29-.61.04-1.35-.57-1.64-.22-.11-.47-.14-.72-.11-3.39.52-6.53,1.15-9.41,1.89-6.7,1.71-8.79-5.85-8.16-10.86.02-.13.09-.25.2-.32l6.32-4.12c.3-.19.41-.47.33-.82-.13-.56-.14-1.11-.04-1.65.52-2.86-2.78-3.11-4.67-3.01-.36.01-.57.2-.64.56l-.24,1.34c-.05.31-.21.56-.48.73l-1.3.84c-.26.17-.34.51-.17.77.05.08.13.15.21.2l.65.35c.37.2.39.43.06.7l-5.43,4.4c-.29.23-.48.56-.54.92-.22,1.36-1.01,2.15-2.37,2.37-.37.06-.63.4-.6.78l.36,3.82c.04.37.21.67.52.88,1.34.91,2.15,2.2,2.44,3.85.08.47-.11.64-.56.49-.3-.09-.56-.08-.79.05-.1.05-.14.17-.09.27.03.07.1.11.17.11l2.1.19c.22.03.38.22.35.44-.02.15-.11.27-.25.33-2.06.75-3.25,2.27-3.56,4.55-.01.1,0,.2.05.28l1,1.68c.16.27.13.6-.06.84l-2.67,3.36c-.19.24-.54.29-.79.12-1.29-.9-2.18-.6-2.69.91-.1.29-.3.54-.58.68-1.35.69-2.48.46-3.38-.69-.13-.18-.38-.22-.56-.09-.11.08-.18.22-.16.37.06.86-.37,1.31-1.28,1.36-.57.03-1.06-.41-1.09-.98,0-.14.01-.28.06-.42.33-.92,1.03-1.35,2.09-1.3.78.03,1.43-.58,1.46-1.36.02-.55-.28-1.06-.78-1.31l-1.07-.52c-.25-.12-.43-.31-.54-.58l-2.62-6.56c-.1-.25-.28-.34-.54-.25-2.35.77-4.19,2.17-5.54,4.21-.15.22-.4.35-.66.33-3.2-.22-7.54-3.62-4.95-6.94.19-.23.2-.56.04-.82l-1.4-2.19c-.13-.19-.08-.45.12-.58.1-.06.22-.09.33-.06.97.23,1.88.15,2.74-.24.28-.13.4-.45.27-.73-.07-.16-.22-.28-.39-.31l-2.94-.65c-.44-.1-.72-.53-.63-.97.01-.06.03-.12.06-.18.65-1.43,1.53-2.21,2.65-2.34,2.29.17,3.58-.47,3.88-1.92,1.52-1.38,5.17-1.24,5.49-1.64.19-.23.13-.39-.16-.47l-1.25-.32c-.24-.06-.37-.3-.31-.54.02-.07.06-.14.11-.2l4.86-4.99c.21-.21.34-.45.39-.74.48-2.58,3.82-11.54,7.14-10.64.33.09.68-.06.84-.37.19-.37.1-.83-.27-1.4.13-.21.13-.4.01-.57.67-1.35.52-2.32-.47-2.89-.38-.22-.41-.49-.1-.8l.29-.3c.37-.37.65-.31.84.18l.26.68c.1.27.29.41.58.43.51.05.81-.13.91-.53,3.59-.62,5.8-2.06,6.63-4.32l2.11,1.45c.36.25.64.17.84-.22l2.02-3.97c.19-.37.48-.62.89-.75l2.64-.8c.3-.09.61.08.7.37.06.2,0,.42-.15.57l-1.13,1.05c-.25.24-.29.52-.12.83.38.67.86.74,1.43.2.23-.22.39-.49.46-.8.29-1.25,1.06-2.12,2.31-2.61.34-.14.73.03.87.38.08.19.06.41-.05.59l-1.04,1.77c-.14.24-.06.56.18.7.08.05.17.07.26.07h1.43c.45,0,.68-.23.68-.68,0-.83.5-1.23,1.52-1.2,1.64.05,2.99.55,4.06,1.49.22.19.24.52.05.73-.07.08-.17.14-.27.17l-4.09,1.04c-.24.06-.38.31-.32.55.04.14.13.25.26.3,2.09.89,4.19.87,6.29-.04.31-.14.58-.07.79.2l.97,1.29c.25.33.58.44.98.34,6.32-1.53,11.22,3.22,16.4,5.19.32.12.53.34.64.67.28.83.79,1.5,1.54,2,.22.14.29.43.15.65,0,0,0,0,0,.01l-2.11,3.2c-.16.24-.38.39-.66.45-4.57,1-8.85.37-12.85-1.9-.74-.42-1.29-.32-1.66.3-.21.36-.1.82.26,1.03.09.06.2.09.31.1,2.76.3,4.65,6.67,5.92,8.97.15.26.37.39.67.39h5.94c1.15,0,1.23-.29.24-.87l-4.15-2.46c-.4-.23-.54-.75-.3-1.15.1-.18.27-.31.46-.38,1.55-.52,2.69-.14,3.44,1.15.18.32.43.57.76.74,1.25.66,2.4.6,3.44-.19.35-.27.44-.6.25-1l-1.06-2.28c-.14-.31-.03-.67.26-.85l3.84-2.38c.15-.09.32-.11.48-.06l2.62.82c.48.15.73-.03.76-.53.09-1.81-.39-3.48-1.44-5-.12-.17-.16-.38-.13-.58l.26-1.95c.03-.25-.06-.5-.25-.66l-1.45-1.23c-.2-.17-.22-.47-.05-.66.07-.08.17-.14.28-.16,2.37-.37,4.41.26,6.1,1.87.44.41.45,1.1.04,1.54-.06.06-.12.11-.19.16l-.92.61c-.45.3-.57.91-.27,1.36.08.12.19.22.32.29,1.44.85,2.86.84,4.27-.03.3-.19.48-.52.47-.87-.03-1.35.64-2.08,2.02-2.19.33-.03.63-.18.86-.42,1.77-1.93,3.85-3.38,6.25-4.35,1-.4,1.8-1.5,3.32-.95.16.06.24.25.17.4-.04.09-.12.16-.22.19-.16.03-.33.07-.5.12-.62.14-1.01.74-.87,1.36.14.62.74,1.01,1.36.87h0c1.01-.17,1.76-.69,2.24-1.55.18-.32.45-.47.81-.46,1.79.05,3.45-.3,4.97-1.05h.75c.15.8.48,1.39.99,1.78.27.2.65.15.85-.12,0,0,.01-.01.02-.02l1.37-2.06c.17-.26.14-.5-.08-.71-.72-.71-1.02-1.59-.91-2.63.03-.28-.17-.53-.45-.57-.02,0-.04,0-.06,0h-1.61c-.09,0-.17-.04-.22-.11-.91-1.17-1.57-1.35-1.98-.54h-.29l-.56-1.05c-.28-.53-.09-1.18.44-1.46.34-.18.75-.17,1.08.03l3.24,1.99c.08.05.19.08.29.07l4.5-.34c.4-.03.75.08,1.06.33,1.4,1.12,3.02,1.49,4.87,1.12.31-.06.64-.02.92.13.6.31,1.09.73,1.47,1.27.18.26.41.47.68.64l5,3.05Zm-57.1,80.97c1.11.59,2.26.69,3.43.28.12-.05.26-.05.38,0l1.84.69c.39.15.83-.04.98-.43,0-.01,0-.02.01-.03l1.19-3.5c.14-.42-.08-.88-.51-1.03-.16-.05-.33-.06-.48-.01-1.82.51-6.42,1.27-7.19,3.02-.17.37-.01.81.35,1.01Z"/>
      <path class="cls-5" d="m372.62,108c.56-.43,1-.98,1.33-1.65.17-.33.43-.57.78-.7l2.46-.93c.35-.13.66-.07.93.17l1.49,1.31c.33.29.64.27.94-.05l1.37-1.49c.08-.08.2-.13.31-.13l3.65-.08c.32,0,.51.15.58.46.23,1.14.9,1.95,1.99,2.43.29.13.44.45.35.76-1.26,4.38-6.45,6.55-10.55,7.22-2.72.45-5.29-1.01-8.4-.79-.44.03-.77-.04-1-.23-.35-.29-.47-.69-.34-1.21.1-.39.35-.57.76-.52s.8-.08,1.17-.37c.65-.52.58-.9-.22-1.14l-2.11-.64c-.25-.07-.4-.34-.33-.59.04-.16.16-.28.32-.33l2.38-.78c.26-.08.41-.36.33-.62-.04-.13-.13-.23-.24-.3-.98-.53-2.01-.67-3.08-.44-.38.09-.75-.14-.85-.51-.08-.31.06-.62.34-.78l3.31-1.98c.47-.28,1.08-.13,1.36.33.07.11.11.23.13.36l.51,3.09c.04.23.15.27.33.13Z"/>
    </g>
  </g>
  <path class="cls-4" d="m811.36,111.59c.17.08.27.2.31.37.07.31-.03.39-.3.22l-3.22-2c-.17-.11-.22-.34-.11-.51.06-.1.17-.16.29-.17,1.11-.03,1.96.51,2.54,1.62.11.21.28.37.49.47Z"/>
  <path class="cls-3" d="m20.82,118.06c-.04-.07,0-.15.06-.19,0,0,0,0,0,0l.11-.06c2.88-1.63,5.31-2.77,5.44-2.55l.15.26c.12.23-2.12,1.72-4.99,3.35l-.11.06c-.07.04-.15.02-.19-.05l-.47-.82Z"/>
  <path class="cls-3" d="m435.06,117.67c-.3,1.45-1.59,2.09-3.88,1.92,1.06-1.33,2.35-1.97,3.88-1.92Z"/>
  <ellipse class="cls-3" cx="17.28" cy="118.68" rx="2.37" ry=".48" transform="translate(-35.45 10.96) rotate(-17.8)"/>
  <path class="cls-1" d="m2.83,121.26c.07.07.06.19-.01.25-.04.03-.09.05-.14.05l-2.45-.32c-.15-.02-.25-.16-.23-.3.01-.1.08-.17.17-.21,1.04-.39,1.93-.21,2.66.53Z"/>
  <path class="cls-3" d="m462.15,127.63c-.15.22-.31.23-.48.02l-.42-.51c-.18-.21-.16-.53.05-.72.17-.15.41-.17.6-.05.55.31.63.73.25,1.26Z"/>
  <path class="cls-5" d="m468.01,134.76c-.03.11-.07.22-.11.35-.04.13-.18.19-.31.15-.07-.02-.12-.07-.14-.14-.46-1.23-.08-2.06,1.14-2.47.21-.07.45.04.52.25.03.09.03.19,0,.28-.21.51-.53.97-.96,1.37-.06.06-.1.13-.13.21Z"/>
  <path class="cls-5" d="m409.53,136.24l2.77.26c.64.06,1.12.63,1.06,1.27-.03.32-.19.62-.45.82l-2.1,1.63c-.37.29-.38.59-.04.9,3.07,2.89,5.83,6.04,8.28,9.47.17.24.41.42.69.51.95.32,1.77.83,2.47,1.54.21.21.21.54,0,.76-.02.02-.05.05-.08.06-.83.57-1.1,1.29-.83,2.18.2.65-.17,1.34-.82,1.53-.04.01-.07.02-.11.03l-14.45,3.02c-.17.04-.34-.08-.38-.25-.02-.1,0-.21.08-.28,1.49-1.6,3.41-2.66,5.78-3.18.34-.07.55-.24.64-.51.08-.28-.02-.43-.31-.44l-4.71-.32c-.26-.02-.46-.25-.45-.51.01-.15.09-.29.22-.37,1.17-.78,1.45-1.84.84-3.19-.17-.37,0-.8.36-.97.08-.04.17-.06.26-.06l1.86-.11c.58-.03,1.03-.53,1-1.12,0-.05,0-.09-.02-.14-.41-2.11-1.72-3.01-3.95-2.69-.31.05-.59-.16-.64-.46,0-.03,0-.06,0-.09v-1.68c0-.29-.11-.52-.33-.71-1.61-1.37-2.23-3.14-1.84-5.3.56-3.12,2.41-4.65,5.56-4.58.41.01.62.23.62.64,0,.77-.37,1.34-1.1,1.72-.66.35-.62.55.13.62Z"/>
  <path class="cls-4" d="m794.45,135.38l.12-1.57c0-.21.19-.36.39-.35.13,0,.25.09.32.21.39.73.33,1.38-.18,1.97-.49.58-.71.49-.65-.26Z"/>
  <path class="cls-3" d="m403.07,137.24l-.57-.27c-.27-.13-.39-.46-.26-.73.03-.06.07-.11.11-.16l.8-.79c.39-.39.59-.31.59.24v1.29c0,.26-.22.47-.48.46-.07,0-.13-.02-.19-.04Z"/>
  <path class="cls-5" d="m459.08,138.16c-.09-.72.16-1.28.73-1.69.23-.16.54-.1.7.12.09.12.11.27.07.42l-.34,1.24c-.08.32-.4.51-.72.43-.24-.06-.42-.27-.44-.52Z"/>
  <path class="cls-5" d="m395.14,151.67l-.32-3.89c-.03-.33.21-.63.54-.68,1.65-.25,2.98-1.01,4.01-2.28.24-.29.54-.49.91-.59,5.14-1.35,4.89,3.82,3.44,6.66-1.41,2.76-4.8,3.55-7.68,4.32-.61.16-1.24-.2-1.41-.81-.06-.22-.05-.45.03-.67l.35-1.02c.11-.33.16-.68.13-1.04Z"/>
  <path class="cls-3" d="m416.08,162.46c-.26-.1-.56.05-.9.46-.72-.68-1.13-1.29-1.22-1.84-.08-.48.11-.63.56-.46.61.23,1.13.85,1.56,1.84Z"/>
  <path class="cls-8" d="m502.72,171.31c-.36-.2-.52-.64-.35-1.01.77-1.75,5.37-2.51,7.19-3.02.43-.12.88.13,1,.56.05.16.04.33-.01.48l-1.19,3.5c-.13.39-.56.6-.96.47-.01,0-.02,0-.03-.01l-1.84-.69c-.12-.05-.26-.05-.38,0-1.17.41-2.32.31-3.43-.28Z"/>
  <path class="cls-8" d="m519.67,183.81c-4.22.02-8.38.92-12.4-1.08-3.88-1.92-7-1.81-10.55.35-1.59.97-3.4,1.27-5.43.89-.28-.05-.56.08-.71.33l-.82,1.4c-.14.24-.35.36-.62.35l-4.7-.03c1.11-1.13,2.42-1.6,3.93-1.43.24.04.47-.11.51-.35.04-.22-.08-.43-.29-.5-1.36-.57-2.22-1.59-2.57-3.04-.09-.39-.04-.76.17-1.11l1.51-2.53c.21-.35.32-.74.33-1.15.03-1.01.51-1.69,1.46-2.06.21-.08.39-.22.52-.4l3.28-4.42c.54-.74,1.6-.9,2.35-.35.01,0,.03.02.04.03,1.74,1.36,2.96,3.05,3.65,5.07.26.78,1.1,1.19,1.88.93.11-.04.22-.09.32-.15,1.93-1.19,4.06-1.74,6.39-1.65.29.01.58.11.82.27,3.34,2.31,6.92,4.15,10.75,5.52.32.11.47.34.45.68l-.27,4.43Z"/>
  <ellipse class="cls-5" cx="440.23" cy="181.68" rx="1" ry="1.81" transform="translate(-21.21 63.84) rotate(-8.1)"/>
  <rect class="cls-5" x="437.35" y="185.74" width="5.46" height="2.72" rx="1.13" ry="1.13" transform="translate(236.98 620.03) rotate(-87.9)"/>
  <path class="cls-5" d="m449.34,194.32c-.37-.1-.59-.49-.48-.87.08-.29.34-.49.64-.51l6.12-.43c.38-.03.53.14.44.51l-.57,2.55c-.09.36-.31.49-.67.38l-5.48-1.63Z"/>
  <path class="cls-1" d="m383.57,217.03c-.14.75-.61,1.1-1.4,1.05-.38-.03-.53-.22-.44-.59.15-.61.56-.97,1.22-1.09.51-.09.71.12.62.63Z"/>
  <path class="cls-1" d="m377.95,217.84l-2.21.42c-.28.06-.56-.13-.61-.42-.04-.23.07-.45.27-.56,1.27-.68,2.47-.61,3.59.22.13.09.16.27.08.4-.03.04-.06.07-.11.09-.29.15-.54.12-.75-.07-.07-.07-.16-.1-.26-.08Z"/>
  <g>
    <path class="cls-3" d="m273.47,23.59l1.36-6.37c.14-.68.8-1.11,1.49-.97.15.03.29.09.41.17,2.61,1.66,4.31,4,5.08,7.01.04.17.22.27.39.23.17-.04.27-.22.23-.39l-.78-3.26c-.09-.37.13-.74.5-.84.03,0,.05-.01.08-.01l6.46-.9c.54-.04.95-.51.9-1.06-.04-.54-.51-.95-1.06-.9-1.87.03-3.69.35-5.46.94-.3.11-.6.09-.89-.05-2.51-1.17-5.07-1.83-7.68-1.99-.35-.23-.26-.6.27-1.11.78-.74,2.46-.83,3.5-1,.33-.05.41-.21.24-.5l-.17-.29c-.03-.05-.08-.08-.14-.09l-2.37-.39c-.37-.06-.61-.4-.55-.77,0-.03.01-.07.02-.1.64-1.89.19-3.23-1.35-4-.22-.11-.31-.37-.21-.59.05-.11.16-.2.28-.23,1.16-.34,1.91-1.08,2.26-2.22.1-.34.42-.58.77-.58h5.17c.38-.02.73.17.94.48,1.07,1.61,2.68,2.11,4.17.79.27-.23.42-.58.41-.94-.04-1.59.59-2.78,1.89-3.55.29-.17.67-.14.94.08l2.52,2.08c.28.23.63.35.99.34,1.33-.04,2.21-.72,2.62-2.05.11-.34.43-.57.78-.55l6.02.37c.28.01.55.12.77.3,1.83,1.51,3.54,1,5.22,1.33,2.12.42,4.24.86,6.35,1.31,3.51.75,9.25,5.13,7.46,9.3-.22.52-.76.83-1.32.76-2.91-.33-5.34.52-7.29,2.53-.07.07-.16.11-.25.13l-3.34.66c-.43.09-.71.5-.62.92,0,.03.01.06.02.09l.22.72c.11.33-.01.51-.36.54l-5.59.55c-.39.04-.74.22-.99.5-1.41,1.61-3.04,2.87-4.87,3.8-2.88,1.46-5.09,3.39-8.95,2.83-.49-.07-.76.13-.82.62l-.6,4.66c-.03.18-.13.33-.28.42-.95.57-1.46,1.45-1.55,2.63-.02.31-.3.55-.62.52-.01,0-.03,0-.04,0-2.91-.45-4.92.59-6.03,3.13-.12.28-.3.51-.55.69-2.87,2.13-4.62.82-7.52.06-.6-.16-.72.01-.37.52.98,1.43,2.15,2.66,3.51,3.71.49.38.58,1.09.2,1.59-.17.21-.41.36-.68.41-2.72.51-5.06-.2-7.02-2.14-.33-.33-.68-.35-1.05-.06l-1.63,1.26c-.23.17-.47.2-.73.07-2.83-1.33-5.81-2.15-8.92-2.47-.58-.06-1-.57-.94-1.15,0-.03,0-.06.01-.09l.2-1.06c.07-.38.3-.59.68-.62,3.24-.3,7.03-1.16,6.54-5.39-.05-.43.12-.55.51-.35l4.82,2.47c.48.24,1.06.05,1.3-.42.07-.14.11-.29.11-.45l-.03-2.21c0-.42-.35-.76-.76-.75-.04,0-.08,0-.12.01l-2.1.35c-.47.08-.61-.1-.41-.53,1.91-4.16,5.11-5.71,9.6-4.66.31.1.65-.06.75-.37s-.06-.65-.37-.75c-1.22-.55-1.75-1.46-1.59-2.71Z"/>
    <path class="cls-3" d="m273.37,15.42c.47,2.11.1,3.73-1.11,4.86-.27.25-.36.56-.27.91l.57,2.1c0,.9-.29,1.51-.88,1.83-.79.44-1.57-.01-2.48-.11-.32-.04-.62.19-.66.52,0,.05,0,.1,0,.15.14,1.03-.28,1.58-1.27,1.66-.39.03-.73.19-1.01.48-1.18,1.21-2.6,2.1-4.26,2.68-.33.11-.66.11-.99-.01l-2.84-1.05c-.32-.13-.51-.36-.58-.69l-.75-3.78c-.07-.37.11-.74.44-.91l1.18-.61c.35-.19.54-.48.55-.88l.24-6.43c0-.28.15-.45.43-.51l2.26-.46c.48-.1.58-.35.29-.75l-.79-1.1c-.3-.41-.21-.99.2-1.29.19-.14.42-.2.64-.17l2.63.27c.35.03.66-.21.69-.56,0-.08,0-.16-.02-.23-.6-2.1.17-3.07,2.32-2.9.36.03.55-.14.56-.5l.04-1.1c.01-.25.22-.44.47-.43.08,0,.15.03.22.07,1.41.95,2.22,2.32,2.41,4.12.03.29-.07.5-.32.64-.26.15-.48.33-.66.55-.13.15-.21.35-.23.58-.19,2.23.8,3.25,2.98,3.05Z"/>
    <path class="cls-3" d="m390.54,34.29c-1.13-.49-2.24-.72-3.34-.68-.36.01-.54.2-.54.56.02,2.88-.51,5.68-1.6,8.39-.12.29-.31.54-.56.76-.21.19-.46.38-.73.57-.28.19-.42.53-.35.87.43,2.1-.11,3.85-1.63,5.25-.19.17-.2.46-.03.65.06.06.13.11.22.14l2.13.63c.27.08.48.31.52.6l.5,3.66c.04.31-.17.59-.47.63-.03,0-.06,0-.1,0-.49-.02-.91-.22-1.26-.59-.23-.23-.5-.32-.81-.26-1.42.27-2.22,1.26-2.41,2.97-.04.38.07.71.32.99l2.21,2.45c.21.23.23.57.05.82-.75,1.07-1.78,1.53-3.09,1.36-.53-.06-1.01.32-1.08.85-.03.29.06.58.27.79l.93.93c.32.33.33.66.04,1.01-.93,1.11-2.1,1.69-3.5,1.73-.34.02-.6.3-.59.63,0,.21.12.4.31.5l1.61.92c.25.14.35.47.2.72-.07.13-.2.23-.35.26-1.13.25-2.26.23-3.38-.08-.99-.28-1.35.08-1.07,1.08l1.3,4.59c.06.2-.05.4-.25.46-.1.03-.21.02-.3-.04l-4.06-2.42c-.17-.1-.39-.07-.53.07l-.31.31c-.07.07-.07.18,0,.25,0,0,.02.02.03.03.79.49,1.43,1.12,1.9,1.9.1.18.26.32.44.43,1.53.89,2.85,2.03,3.96,3.42.15.18.12.46-.06.6-.03.02-.06.04-.09.06l-.94.46c-.29.15-.43.38-.41.7l.13,1.99c.02.38-.25.72-.63.78-1.51.23-2.85-.04-4-.83.09-1.47-.15-2.63-.74-3.48-.39-.56-.57-.5-.55.18.03,1.05.27,2.17.74,3.36-.75,1.07-1.56,1.35-2.43.82-.22-.13-.34-.33-.36-.59l-.19-2.33c-.03-.25-.25-.42-.5-.39-.17.02-.31.13-.37.29l-1.1,3.47c-.09.27.07.57.34.66.06.02.12.03.19.02,2.39-.12,4.64.33,6.75,1.34.22.1.32.36.21.58-.05.11-.15.2-.27.24l-4.24,1.27s-.09.04-.13.07c-4.06,3.12-8.7,4.32-13.93,3.59-1.33-.19-2.57.74-2.75,2.07,0,.02,0,.03,0,.05l-.4,3.46c-.03.27-.19.42-.46.43l-5.11.14c-.49.01-.65.25-.49.72l.43,1.26c.14.39.01.65-.38.78-2.25.76-3.98.2-5.2-1.67-.25-.39-.56-.43-.91-.12-.56.49-.73,1.14-.5,1.93.11.38,0,.78-.27,1.06-.64.64-1.43.88-2.36.72-.32-.05-.64.04-.88.25l-4.47,3.88c-.18.16-.3.36-.35.58l-.84,3.59c-.08.35-.38.62-.74.65-2.07.22-2.64,1.39-1.72,3.5.15.35.09.76-.16,1.05l-4.74,5.54c-.21.25-.48.34-.8.27-1.2-.23-1.97-.94-2.31-2.12-.1-.35-.39-.6-.75-.65l-1.74-.25c-4.78-.16-6.75-7.02-8.76-10.71-.19-.36-.12-.65.22-.87,1.18-.78,1.48-1.99.89-3.62-.11-.31-.27-.58-.5-.81-.87-.93-1.1-2.03-.68-3.3.05-.16.06-.33.01-.49l-1.14-4.17c-.09-.33-.01-.69.2-.95l3.09-3.75c.12-.14.28-.24.46-.27l2.14-.43c.44-.09.66-.35.66-.8v-2.85c0-.47-.23-.74-.7-.79l-2.93-.34c-.89-.11-1.52-.91-1.42-1.8.01-.09.03-.18.06-.27l1.37-4.65c.09-.29.28-.45.59-.48,2.09-.21,5.51.03,6.63-2.15.17-.33.05-.73-.28-.9-.09-.04-.18-.07-.28-.08l-6.44-.41c-.56-.04-.98-.52-.94-1.07.01-.19.08-.36.18-.52l2.53-3.63c.16-.24.1-.56-.13-.72-.03-.02-.07-.04-.11-.06l-.72-.26c-.45-.16-.67-.66-.51-1.1.07-.2.22-.37.41-.47l.99-.52c.38-.19.58-.5.6-.92l.46-8.46c.02-.35-.18-.67-.5-.81-1.89-.83-2.16-2.05-.81-3.68.24-.3.33-.7.23-1.08-1.04-3.92-9.99-2.94-13.34-3.3-.31-.03-.62,0-.91.11l-1.66.62c-.49.18-.78.02-.89-.48-.23-1.09-.75-2.03-1.55-2.8-.25-.24-.32-.61-.19-.93l.45-1.02c.13-.31-.01-.67-.32-.8,0,0-.02,0-.03-.01l-1.2-.44c-.51-.19-.77-.76-.58-1.27.08-.22.24-.4.44-.52,2.87-1.6,4.16-.37,6.68-.8.89-.15,1.74-.35,2.56-.6.35-.1.54-.47.43-.81-.09-.27-.34-.46-.62-.47l-6.22-.04c-.65,0-.78-.27-.4-.79l.74-1.03c.21-.28.15-.68-.13-.9-.01,0-.02-.02-.04-.02l-2.59-1.68c-.23-.14-.3-.45-.15-.68.08-.12.2-.2.34-.22,2.09-.31,3.93-1.19,5.52-2.62,1.88-1.7,6.3-.65,8.91-.92.27-.03.51-.18.66-.4l2.31-3.5c.09-.13.22-.22.37-.26l1.72-.45c.22-.05.36-.28.3-.5-.02-.1-.09-.19-.17-.24-.36-.25-.76-.38-1.2-.39-.41-.01-.67-.22-.8-.61l-.34-1.11c-.17-.55.03-.82.6-.83,2.17-.03,3.77-1,4.8-2.9.17-.32.56-.47.9-.33l1.84.76c.3.13.6.13.9,0,2.05-.84,3.42-2.28,4.09-4.33.09-.29.4-.45.69-.36.08.02.15.07.21.12l1.8,1.64c.19.17.45.26.71.25,1.22-.06,2.02-.73,2.39-2,.01-.06.02-.12.01-.18l-.38-2.32c-.07-.42.21-.82.63-.89.06-.01.12-.01.18,0l9.09.58c.71.05.86.36.47.95l-1.88,2.83c-.17.25-.1.58.15.75.03.02.05.03.08.05l2.82,1.29c.34.15.74.02.93-.31l3.01-5.31c.24-.43.79-.58,1.22-.33.14.08.26.2.34.34,1.78,3.17.21,6.93,4.58,8.04.71.18,1.62-.08,2.05-.58.35-.41.26-.87-.23-1.11l-2.45-1.18c-.32-.15-.57-.38-.74-.69-.96-1.71-1.55-3.54-1.78-5.48-.04-.29.17-.55.46-.59.17-.02.33.04.45.16l1.7,1.75c.24.26.63.3.93.11l3.18-2.02c.52-.33,1.22-.18,1.55.35.05.08.09.16.12.25l1.7,5.06c.11.35.49.54.84.42.04-.01.08-.03.12-.05.28-.16.46-.4.55-.71.41-1.42-.92-2.52-.05-4.73.12-.29.02-.63-.23-.82l-2.43-1.85c-.17-.13-.18-.28-.03-.44l.28-.27s.09-.06.15-.03c1.28.64,2.63.97,4.05.98.37,0,.67-.27.7-.64.37-4.79,13.43-1.96,16.03-.42.32.19.43.6.24.92-.14.24-.41.36-.68.32-2.01-.31-4.04-.3-6.07.02-.12,0-.21.09-.21.21,0,.12.09.21.21.21,2.36.41,5.7.53,10.03.34.41-.02,1.16.19,2.27.62.37.13.6.39.7.76.17.66.02,1.16-.47,1.51-.23.17-.28.49-.11.71.03.05.07.09.12.12l2.11,1.43c.63.43.8,1.3.37,1.93-.24.36-.64.58-1.07.6l-7.7.4c-.28.01-.55.13-.75.33l-.9.91c-.32.33-.32.85,0,1.17.24.24.61.31.92.17,1.68-.78,2.98-.46,3.89.95.2.32.57.5.95.46l3.91-.32c.59-.05,1.11.38,1.16.97.02.22-.03.44-.14.63-1.5,2.61-5.16,2.74-5.43,5.74-.04.43.12.53.48.29,2.65-1.78,5.31-3.77,7.97-4.93,2.94-1.29,11.59-3.79,12.13,1.15.03.31-.03.59-.19.86-1.68,2.67-4.24,3.94-7.69,3.79-.19,0-.32.09-.38.29-.04.15.02.23.17.25l3.21.3c.27.02.47.26.44.53-.02.2-.16.38-.36.44l-3.32.92Z"/>
    <ellipse class="cls-3" cx="254.1" cy="13.99" rx="1.19" ry="1.65" transform="translate(90.68 209.08) rotate(-53.2)"/>
    <path class="cls-8" d="m274.51,15.2c2.61.16,5.17.82,7.68,1.99.29.14.59.16.89.05,1.77-.59,3.59-.91,5.46-.94.54-.04,1.01.36,1.06.9.04.54-.36,1.01-.9,1.06l-6.46.9c-.38.05-.64.4-.59.77,0,.03,0,.05.01.08l.78,3.26c.04.17-.06.35-.23.39-.17.04-.35-.06-.39-.23-.77-3.01-2.47-5.35-5.08-7.01-.59-.37-1.37-.2-1.73.39-.08.13-.14.27-.17.41l-1.36,6.37c-.15-.06-.32-.03-.49.09-.1.07-.17.04-.22-.07-.05-.13-.11-.24-.2-.32l-.57-2.1c-.09-.35,0-.66.27-.91,1.21-1.13,1.58-2.75,1.11-4.86.36.31.74.24,1.14-.22Z"/>
    <path class="cls-3" d="m240.05,20.03l-.35-3.72c-.03-.38.24-.72.62-.75.04,0,.08,0,.13,0,4.12.41,6.33,2.63,6.64,6.67.03.37-.06.72-.27,1.03-1.05,1.61-2.43,4.47-4.53,4.38-.41-.01-.61-.22-.61-.63-.03-2.79-1.51-4.01-4.44-3.66-.3.04-.58-.17-.62-.47,0-.01,0-.03,0-.05l-.13-2.72c-.01-.24.17-.44.41-.45.17,0,.34.09.41.25.49,1.03,1.24,1.34,2.25.92.32-.13.52-.45.49-.8Z"/>
    <path class="cls-3" d="m228.34,18.77c-.09.77-.5,1.04-1.24.8l-3.9-1.26c-.45-.14-.69-.62-.55-1.07.11-.36.45-.6.82-.59l4.65.08c.31,0,.45.16.41.47l-.19,1.57Z"/>
    <path class="cls-3" d="m218.21,21.03l-.96.05c-.47.02-.87-.34-.89-.81-.02-.32.15-.62.43-.77.46-.25.97-.29,1.52-.11.31.1.62.12.94.05,2.86-.57,5.29.21,7.28,2.34.29.31.25.57-.11.78-1.64.94-6.83,4.35-8.2,2.29-.19-.29-.25-.6-.16-.94l.6-2.33c.1-.39-.05-.57-.45-.55Z"/>
    <path class="cls-3" d="m203.44,24.87c-1.69,1.97-3.6,3.29-5.73,3.96-.46.14-.82.12-1.07-.07-.13-.11-.25-.27-.35-.48-.15-.32-.39-.47-.74-.46-1.08.03-2-.32-2.75-1.05-.24-.24-.25-.63-.02-.87.05-.05.11-.1.18-.13,4.33-2.03,8.65-1.87,12.56-5.23.28-.24.6-.32.95-.24.77.17,1.44.54,2.01,1.1.23.23.51.3.83.21l1.94-.56c.2-.06.41.02.51.19l.28.45c.21.34.2.67-.04.98-1.92,2.49-4.38,4.22-7.39,5.17-.16.05-.27.16-.32.32l-.12.37c-.1.28-.4.43-.69.34-.08-.03-.15-.07-.2-.13l-.21-.22c-.2-.2-.22-.41-.06-.64l1.5-2.19c.22-.3.14-.72-.17-.93-.29-.2-.67-.15-.9.11Z"/>
    <path class="cls-3" d="m248.95,29.27c-.24.02-.45-.16-.47-.4l-.07-.83c-.27-3.1.45-5.7,1.61-5.81l.2-.02c1.16-.11,2.32,2.33,2.59,5.44,0,0,0,0,0,.01l.07.83c.02.24-.15.46-.4.48,0,0,0,0,0,0l-3.53.3Z"/>
    <ellipse class="cls-3" cx="238.5" cy="26.81" rx="1.05" ry="1.31" transform="translate(19.05 123.99) rotate(-30.3)"/>
    <ellipse class="cls-3" cx="231.71" cy="27.58" rx="1.92" ry=".67" transform="translate(121.13 233.06) rotate(-68.5)"/>
    <path class="cls-3" d="m211.93,27.13c-.18,0-.35-.01-.51-.06-.38-.1-.4-.25-.06-.45.42-.25.87-.35,1.36-.3.23.02.4.23.38.46,0,.09-.04.17-.1.24-.28.33-.64.36-1.07.11Z"/>
    <path class="cls-3" d="m201.83,33.88l2.59-3.36c.24-.3.67-.37.99-.16l.97.65c.23.15.53.09.68-.14,0-.01.01-.02.02-.03.27-.47.39-.99.37-1.56-.03-.61.45-1.12,1.06-1.14.39-.01.75.18.97.5,1.27,1.91,2.01,4.03,2.24,6.37.1,1.05,1.03,1.82,2.08,1.72.65-.06,1.22-.45,1.52-1.03.65-1.25.7-2.46.16-3.64-.12-.27,0-.59.28-.71.09-.04.2-.06.3-.04,1.31.22,2.2-.28,2.68-1.49.13-.33.38-.5.74-.5h.45c.31,0,.57.25.57.57,0,.04,0,.08-.01.12l-.83,3.72c-.37,1.63.23,2.15,1.8,1.58l.67-.25c.71-.27,1.5.1,1.76.81.21.57.02,1.21-.46,1.58l-5.79,4.4c-.3.23-.72.23-1.02,0-5.55-4.11-12.15,3.86-14.96-1.47-.17-.33-.04-.73.29-.9.09-.04.18-.07.28-.08l7.2-.33c.98-.05,1.01-.23.08-.55-2.83-.99-5.71-1.22-8.62-.7-.27.04-.55-.04-.76-.22l-1.88-1.62c-.28-.24-.31-.65-.07-.94,0,0,0,0,0,0,.73-.82,1.58-1.09,2.54-.8.45.13.82.01,1.11-.36Z"/>
    <ellipse class="cls-3" cx="199.13" cy="31.03" rx="2.73" ry=".75" transform="translate(10.78 102.74) rotate(-29.7)"/>
    <path class="cls-3" d="m249.8,32.49l-2.73-.3c-.17-.02-.31-.17-.3-.35.01-.3.17-.46.47-.48,1.27-.09,2.54-.05,3.8.1.59.07,1,.27,1.25.6.37.49.36,1.04-.03,1.67-.19.31-.41.33-.66.08l-.86-.87c-.26-.26-.57-.41-.94-.45Z"/>
    <path class="cls-3" d="m233.38,40.62l-4.13-1.28c-.34-.11-.59-.42-.61-.78l-.2-3.11c-.03-.62.44-1.16,1.07-1.19.19-.01.38.03.55.11l2.48,1.2c.25.12.56.02.68-.23,0-.02.02-.04.02-.06l.58-1.71c.12-.36.51-.56.87-.44.04.01.09.03.13.06l4.5,2.62c.29.17.45.49.4.82-.32,2.03-4.99,7-6.37,8.32-.23.22-.51.31-.83.26-.91-.13-1.31-.64-1.18-1.53.02-.11.08-.21.16-.29l2.08-1.87c.22-.2.23-.53.04-.75-.06-.07-.15-.12-.24-.15Z"/>
    <path class="cls-3" d="m248.25,40.31c-2.73-.4-4-2.06-3.8-4.98.04-.82.73-1.45,1.55-1.41.63.03,1.17.46,1.35,1.07.56,1.81,1.84,2.71,3.85,2.69.37,0,.61.17.72.52l1.11,3.55c.06.17-.03.35-.19.41-.11.04-.23.02-.32-.06l-.89-.71c-.17-.14-.42-.12-.56.05-.07.09-.1.2-.09.32.72,5.72,4.28,5.43,9.43,5.36,2.29-.03,4.72.2,7.28.69.69.15,1.12.82.97,1.51-.12.56-.61.97-1.18,1l-1.21.03c-.44.01-.67.24-.7.68l-.12,1.87c-.02.28-.19.53-.45.63-1.18.47-2.12.16-2.81-.94-.16-.25-.46-.35-.73-.24-3.42,1.32-14.88-.68-16.61-4.31-.16-.34-.12-.66.12-.95.79-.97,1.31-2.07,1.57-3.28.07-.31.16-.62.29-.91.31-.73.82-1.24,1.55-1.53.28-.11.43-.43.32-.71-.07-.19-.25-.33-.45-.35Z"/>
    <ellipse class="cls-3" cx="256.2" cy="35.53" rx="1.43" ry="1.19" transform="translate(66.13 210.95) rotate(-50.6)"/>
    <path class="cls-3" d="m210.89,263.01c-.18,1.1-1.21,1.84-2.31,1.66-.28-.05-.54-.15-.77-.3-2.25-1.46-4.7-1.98-7.33-1.55-.46.07-.73-.12-.82-.58l-.37-1.93c-.07-.41-.31-.66-.72-.73l-1.62-.31c-.37-.07-.55-.29-.55-.66v-1.02c0-.31-.14-.54-.42-.69-2.76-1.47-4.27-5.23-7.55-5.22-3.91,0-7.52-.95-10.81-2.88-2.78-1.62-3.46-5.57-7.93-2.4-.27.19-.57.24-.89.14-6.27-2.05-11.86-5.1-18.11-7-.14-.05-.27-.13-.37-.25l-3.97-4.79c-.18-.21-.24-.5-.18-.76l.3-1.3c.08-.34-.02-.62-.29-.85-5.48-4.53-7.82-11.21-11.63-17.02-1.64-2.5-3.12-6.17-5.58-8.84-.15-.16-.4-.18-.56-.03-.03.03-.05.06-.08.09l-2.25,3.59c-.1.17-.08.38.04.53.81,1.01,1.51,2.06,2.08,3.17,1.16,2.21,3.66,4.48,4.21,6.75.61,2.52,1.78,4.82,3.53,6.91.24.3.19.73-.11.97-.24.19-.57.2-.82.04-2.73-1.88-4.57-4.39-5.52-7.54-.11-.35-.3-.63-.59-.85l-4.62-3.59c-.42-.33-.45-.69-.08-1.08l.88-.95c.27-.28.3-.59.1-.92-2.31-3.95-4.02-8.16-5.13-12.61-.08-.3-.28-.56-.57-.7-3.13-1.5-9.17-3.87-9.03-7.55.15-4.11-.45-8.13-1.8-12.04-.11-.3-.11-.6-.02-.91,1.11-3.71,1.6-7.52,1.48-11.42,0-.29.07-.57.21-.82,1.67-2.86,3.17-5.79,4.52-8.78.73-1.61.57-3.43.94-5.24.09-.41.49-.68.91-.6.23.05.42.19.52.4.8,1.56,2.09,2.1,3.86,1.62.7-.19,1.1-.92.91-1.61-.03-.11-.07-.21-.13-.31l-4.81-8.12c-.17-.29-.4-.53-.68-.73l-3.15-2.22c-.3-.22-.49-.55-.51-.92-.09-2.27.85-6.46-1.84-7.4-.57-.2-.87-.82-.67-1.39.04-.1.08-.19.15-.28,2.24-3.04,2.56-6.37.97-10-.65-1.47-1.25-1.78-2.8-1.86-.43-.03-.69-.25-.77-.68l-.77-4.28c-.06-.33-.2-.62-.41-.88l-4.63-5.45c-.19-.23-.28-.49-.26-.78l.29-4.42c.03-.47-.19-.79-.64-.94l-10.44-3.49c-.2-.06-.37-.21-.47-.4-1.7-3.25-5.31-2.67-8.33-5.68-.15-.13-.37-.13-.51,0-.05.06-.09.13-.09.21l-.34,3.48c-.05.41-.27.65-.66.74l-7.43,1.7c-.43.09-.86-.18-.95-.61-.04-.18-.01-.37.07-.54,1.21-2.31,3.03-3.84,5.45-4.58.55-.19.84-.79.65-1.34-.17-.48-.65-.77-1.15-.69l-6.29,1.2c-.29.06-.48.31-.46.6l.2,2.71c.03.38-.22.74-.59.85l-4.08,1.19c-.27.08-.48.29-.56.55-.78,2.39-2.03,3.95-3.76,4.67-10.53,4.41-19.48,9.01-30.92,11.07-.11.01-.21-.06-.22-.17-.01-.09.03-.17.11-.21l12.98-4.91c.41-.16.69-.45.82-.87l.32-1.03c.08-.25.24-.43.49-.52,4.47-1.8,8.6-2.2,11.28-6.6.18-.3.13-.55-.15-.76-1.04-.78-2.16-1-3.35-.65-.34.1-.6,0-.77-.32-.86-1.57-2.18-2.04-3.96-1.42-.48.17-1-.08-1.17-.56-.1-.29-.05-.6.12-.85,1.31-1.76,2.11-3.73,2.4-5.92.06-.47-.12-.6-.55-.39l-3.38,1.63c-.85.41-1.3.15-1.35-.8l-.16-3.19c-.03-.46.19-.69.66-.69h2.22c.22,0,.39-.17.4-.38,0-.13-.06-.25-.17-.33l-1.8-1.33c-.29-.21-.41-.6-.28-.94l1.15-3.1c.14-.37.46-.66.84-.77,1.77-.5,3.28-1.39,4.54-2.67.24-.24.53-.38.86-.43,4.9-.69,12.62.13,13.78-6.57.19-1.08-.26-1.55-1.35-1.42-2.21.27-10.77.6-10.82-2.57-.01-1.07.64-1.56,1.97-1.47.57.05,1.07-.36,1.12-.93.05-.49-.26-.94-.72-1.08-.37-.13-.73-.19-1.1-.19-.62.02-1.15-.46-1.17-1.09-.02-.56.37-1.05.92-1.15l9.93-2.23c.74-.17,1.47.29,1.64,1.03.03.12.04.24.03.35-.05,1.56.7,2.56,2.26,2.99.1.03.21.02.31-.03l3.53-1.83c.34-.17.5-.45.47-.83-.1-1.44-.75-2.51-1.95-3.21-.34-.19-.48-.48-.42-.87.47-3.15.27-6.27-.6-9.38-.16-.57.18-1.17.75-1.33.09-.02.18-.04.27-.04,6.45-.11,12.36-1.99,17.71-5.62.24-.17.57-.19.83-.05l2.99,1.55c.37.19.83.05,1.03-.32.05-.09.08-.19.08-.3l.18-2.57c.02-.29.27-.5.55-.49.02,0,.03,0,.05,0,2.96.47,5.76.07,8.4-1.21.27-.14.6-.02.74.25.07.14.08.31.01.46l-.72,1.76c-.2.48.03,1.02.51,1.21.02,0,.05.02.07.03l5.48,1.69c.32.09.51.3.57.63l.51,2.77c.07.36.4.6.77.56l2.8-.35c.42-.05.8.23.87.65l.37,2.31c.05.35.35.62.71.66,2.23.21,4.21,1,5.93,2.35.31.25.66.31,1.04.19l.97-.32c.36-.11.64-.02.84.29,1.74,2.62,2.93,5.64,6.42,5.9.34.02.64.25.75.57.79,2.14,2.15,3.86,4.08,5.17.3.2.59.18.86-.05l3.28-2.82c.2-.17.45-.23.7-.19,2.74.47,5.25-.05,7.52-1.57.2-.14.46-.18.7-.1l.95.3c.41.13.63.56.5.96-.06.19-.19.35-.36.45-1.57.87-3.29,1.28-5.15,1.23-.43,0-.74.18-.92.57l-.64,1.37c-.17.37-.05.54.36.49,4.94-.57,9.37-2.39,13.28-5.44.28-.22.64-.3.99-.23.89.19,1.43.72,1.62,1.61.04.19,0,.39-.13.54l-2.16,2.62c-.27.33-.22.8.11,1.07.04.04.09.07.14.09,1.18.58,2.43.78,3.76.6.06-.01.12,0,.18.01l5.93,1.5c.28.07.52.27.64.54l.5,1.13c.16.35.43.57.8.64,3.3.67,5.89,2.44,7.77,5.31.21.33.13.57-.22.73-.89.41-1.5,1.07-1.81,1.98-.11.32.06.66.38.77.01,0,.02,0,.03.01l6.53,1.85c.16.05.34.02.48-.09,3.99-3.13,4.93,3.12,5.99,5.19.25.49.49.49.73,0l2.42-4.92c.13-.26.43-.4.72-.31.99.31,1.99.25,2.98-.16.38-.15.56-.57.42-.95-.11-.29-.39-.47-.7-.46h-1.99c-.36,0-.51-.18-.46-.54.04-.24.21-.39.51-.45,1.65-.32,3.12,0,4.42.96.09.07.16.17.2.29l.91,2.97c.09.29.32.5.61.56,1.73.37,3.07,1.29,4,2.74.19.31.6.4.9.21.02-.01.03-.02.05-.03,1.51-1.14,2.95-1.13,4.33.04.26.22.65.19.87-.07.02-.02.03-.04.05-.06,1.07-1.61,2.58-2.5,4.52-2.66.29-.03.54.08.73.31l1.47,1.77c.21.24.2.48,0,.71-.95,1.06-1.24,2.25-.87,3.58.11.39.36.54.75.43,1.34-.37,2.07-1.25,2.2-2.65.03-.32.23-.6.53-.72l3.28-1.32c.38-.15.61-.43.68-.83l.81-4.51c.05-.32-.15-.62-.46-.67,0,0,0,0,0,0l-1.78-.28c-.33-.05-.5-.25-.51-.58l-.13-4.19c-.01-.33.22-.62.54-.69,1.39-.3,1.93-1.2,1.64-2.69-.05-.23.04-.39.25-.48l5.48-2.4c1.02-.44,2.2.02,2.64,1.04.12.27.17.56.17.85-.05,1.83-.89,2.99-2.5,3.49-.76.23-1.19,1.04-.96,1.79.13.42.44.76.85.92,1.17.46,1.6,1.34,1.29,2.63-.07.3-.02.62.13.89.78,1.37,1.18,2.84,1.19,4.41,0,.56.26.72.76.47,1.11-.55,2.25-.63,3.43-.22.33.11.52.35.55.7.09.83-.26,1.43-1.05,1.78-.28.13-.46.35-.55.65l-1.35,4.67c-.07.26.07.53.33.61.18.06.38,0,.5-.15l2.97-3.38c.08-.09.19-.15.31-.16,1.79-.17,2.35-1.29,1.68-3.36-.14-.42.06-.88.47-1.06l5.19-2.33c.32-.14.69,0,.82.32,0,.01.01.03.02.04l.39,1.14c.15.43.44.66.89.69l2.91.2c.37.02.65.34.63.7,0,.17-.09.34-.21.46l-3.54,3.34c-.22.2-.34.49-.33.79l.07,3.55c0,.53-.37.98-.89,1.09-2.34.47-3.77,1.85-4.29,4.14-.09.36-.46.59-.82.5-.24-.06-.44-.25-.5-.5l-.64-2.76c-.2-.86-1.05-1.39-1.91-1.19-.38.09-.72.32-.95.64-1.15,1.63-2.54,1.82-4.19.55-.29-.21-.7-.15-.91.13-.15.2-.17.46-.06.68.53,1.04.21,1.94-.97,2.69-.21.13-.45.18-.68.13l-2.43-.5c-.22-.05-.43.09-.47.31-.03.16.03.32.16.41l1.01.73c.48.34.59,1,.25,1.48-.18.25-.45.41-.75.44-1.68.19-2.39,1.18-2.14,2.95.11.78-.44,1.5-1.22,1.61-.34.05-.69-.03-.98-.22l-1.07-.7c-.35-.23-.7-.23-1.05,0-1.47,1.01-3.14,1.29-5.03.82-.34-.08-.66-.04-.96.12-.19.1-.35.22-.47.36-.26.3-.19.47.2.51,1.42.15,2.52.79,3.3,1.9.16.24.11.56-.13.72-.03.02-.05.03-.08.05l-4.23,1.94c-.33.15-.65.15-.98,0-2.57-1.13-5.69,2.26-6.48,4.32-.11.29-.3.53-.56.72l-1.77,1.28c-.17.12-.28.31-.3.51l-.6,6c-.03.26.15.49.41.52,0,0,.02,0,.02,0,2.19.15,3.35,1.4,3.48,3.76.01.31-.09.57-.3.78l-1.52,1.57c-.26.26-.25.68,0,.93.18.18.44.24.68.16,2.33-.74,4.26-.44,5.81.9,2.56,2.2,5.17,3.82,8.16,5.37,1.8.93,3.48.65,5.47.8.42.03.75.39.72.82-.02.27-.17.51-.41.63l-1.18.64c-.37.21-.39.44-.06.71,1.17.93,1.8,2.18,1.9,3.73.03.37-.11.67-.41.89l-.69.52c-.24.18-.35.49-.28.78l1.35,5.13c.09.33.3.55.63.65,3.25.96,4.29-1.35,4.41-4.2.12-2.6.62-5.13,1.49-7.6.12-.33.4-.57.75-.64l1.54-.32c.37-.08.67-.37.76-.74.44-1.83,1.68-2.52,3.71-2.07.61.13,1.21-.25,1.35-.85.03-.13.03-.27.01-.41-.31-2.18.26-4.03,1.71-5.55.26-.27.26-.55.01-.83l-2.9-3.17c-.18-.2-.17-.51.02-.69.02-.02.04-.04.07-.05l5.1-3.3c.27-.18.34-.42.21-.72-.81-1.74-.77-3.45.11-5.13.11-.21.13-.46.04-.69l-.78-2.09c-.11-.28.03-.59.31-.7.07-.03.15-.04.23-.03,2.53.17,5.03.31,7.49.42,2.07.08,3.39,1.19,5.08,2.18.37.21.52.53.47.96l-.28,2.04c-.05.36.2.69.56.74.02,0,.04,0,.07,0l2.67.08c.39,0,.7.34.69.73,0,.1-.03.2-.07.3-1.51,3.14-1.74,6.4-.69,9.77.13.41.4.55.81.41,2.64-.91,5.15-2.12,7.52-3.63.3-.2.54-.46.72-.77l2.1-3.71c.14-.25.45-.33.7-.19.06.03.1.07.14.12l1.86,2.31c.22.26.2.65-.03.9l-1.29,1.34c-.24.25-.22.64.02.88,0,0,.02.02.03.02l1.44,1.22c.22.19.35.47.35.76l.08,9.17c0,.35.17.59.49.74l1.31.58c.24.11.45.29.59.51.96,1.47,4.62,3.17,4.85,3.97.06.19-.05.38-.24.44-.04.01-.08.02-.13.01l-3.04-.22c-.51-.03-.61.15-.31.56l.28.38c.13.17.34.25.55.21,3.73-.85,5.99.61,6.78,4.38-.78.15-1.28.44-1.51.89-.09.17-.09.37-.01.55l.7,1.43c.2.41.07.61-.38.62l-4.97.11c-.35,0-.66.13-.92.38-4.44,4.13-10.59,2.79-17.24,2.04-3.08-.35-9.6,5.13-11.84,7.02-.15.13-.17.35-.05.51.11.14.29.17.44.08,3.73-1.94,7.69-2.98,11.88-3.12.61-.02,1.12.46,1.13,1.06,0,.31-.11.6-.32.82l-2.8,2.73c-.31.3-.31.8-.01,1.1.06.06.13.11.21.15.91.45,1.51,1.14,1.81,2.08.11.33.31.57.61.74,1.21.65,2.66,1.13,4.37,1.42.19.03.29.16.3.38.02.23-.08.34-.31.35-3.07.05-5.59,1.25-7.55,3.58-.57.67-1.25.69-2.05.08-.49-.37-.58-1.07-.21-1.56.09-.11.2-.21.32-.28l1.55-.94c.14-.09.18-.29.09-.43-.06-.09-.16-.14-.26-.14-2.27.11-4.18.91-5.71,2.42-.29.29-.64.43-1.05.44-4.05.11-9.02.47-7.48,6.19.1.4-.09.82-.46,1-2.21,1.07-4.54,1.34-6.97.83-.38-.08-.78.1-.97.45l-.66,1.21c-.17.31-.5.5-.85.48-1.51-.08-2.14.65-1.87,2.18.07.38-.09.77-.4,1-.87.63-1.73.56-2.58-.21-.21-.19-.53-.17-.72.04-.14.16-.17.39-.07.58.93,1.75.33,2.76-1.82,3.03-.37.04-.63.38-.59.74,0,.04.01.09.03.13l.94,2.88c.27.85.09,1.78-.49,2.47-3.48,4.1-10.07,7.16-14.81,9.67-.29.16-.49.4-.59.71-1.79,5.67,3.27,10.77.76,15.09-.57.99-1.26,1.53-2.06,1.62-.39.04-.76-.17-.92-.53-1.58-3.45-1.97-8.05-4.22-10.95-.19-.25-.43-.39-.74-.42l-13.65-1.3c-.31-.03-.58.2-.61.5,0,.05,0,.1,0,.15l.24,1.36c.11.57-.27,1.12-.84,1.22-.26.05-.52,0-.75-.14-.99-.63-2.08-.83-3.25-.62-.37.07-.71.02-1.04-.14-4.36-2.19-8.06-1.5-11.11,2.06-.25.29-.58.49-.94.57-3.27.73-4.6,2.82-4,6.27.06.35,0,.68-.15.99l-3.54,7.27c-.16.32-.16.69-.01,1.01,3.59,7.74,8.03,11.13,16.9,9.44.33-.06.51-.25.56-.58l.29-1.87c.06-.39.21-.73.44-1.04l3.59-4.68c.19-.24.49-.37.8-.34l5.55.51c.39.03.68.37.65.77,0,.03,0,.05-.01.07-.88,4.43-2.68,8.46-5.4,12.07-.26.34-.18.51.25.52,1.71.02,3.4.03,5.06.04,3.4.01,6.3,1.37,9.68,1.92.79.13.88.45.25.95l-1.33,1.06c-.23.19-.27.53-.09.76l1.21,1.55c.21.27.19.52-.05.75-1.79,1.75-2.09,3.9-.9,6.47.11.25.3.42.55.52l5.7,2.13c.18.06.38.04.54-.07,2.05-1.45,4.02-1.68,5.92-.69-.07.31-.23.54-.48.69"/>
    <path class="cls-3" d="m182.31,50.66c-2.23,2.17-4.71,4.08-7.42,5.72-.25.15-.55.16-.81.05l-3.21-1.35c-.38-.16-.48-.43-.3-.81,2.86-5.91,3.07-10.56,10.03-13.05.31-.11.56-.3.75-.57,1.8-2.56,7.05-.43,9.35-.21.37.03.71.16,1.02.38l2.72,1.92c.32.23.47.63.37,1.02l-.71,2.72c-.11.41-.37.63-.79.66-3.71.32-8.18.78-11,3.52Z"/>
    <ellipse class="cls-3" cx="222.77" cy="40.99" rx=".73" ry="1.06" transform="translate(153.81 256.75) rotate(-82.7)"/>
    <path class="cls-3" d="m241.35,47.52c-.03.51-.47.91-.99.88-.06,0-.12-.01-.18-.03-1.22-.33-2.26-.96-3.13-1.9-.27-.29-.27-.58.02-.86l2.42-2.39c.48-.46,1.25-.45,1.71.03.23.24.36.57.34.9l-.19,3.37Z"/>
    <path class="cls-3" d="m195.58,51.12c1.31-.87,2.49-.73,3.53.42.24.27.26.66.05.95l-1.38,1.88c-.26.36-.18.86.17,1.12.16.12.35.17.55.15l3.47-.32c.26-.03.49.16.52.43,0,.02,0,.04,0,.05v2.45c0,.48.39.87.88.86.41,0,.76-.29.84-.68.47-2.15.27-4.26-.58-6.33-.15-.35-.03-.58.34-.68,2.64-.7,3.72,1.55,6.08,2.15.34.08.6.36.65.71.4,2.38-.55,3.8-2.84,4.26-.4.08-.67.45-.64.85l.55,6.42c.03.35.21.59.53.72,1.47.61,2.37,1.75,2.71,3.4.14.68-.29,1.34-.96,1.48-.07.01-.13.02-.2.02-1.43.07-2.24.83-2.42,2.3-.04.33-.29.61-.62.69l-2.98.74c-.22.06-.46-.03-.59-.23l-1.78-2.61c-.22-.32-.65-.4-.97-.18-.06.04-.11.08-.15.13l-1.58,1.96c-.23.29-.66.34-.96.11-.05-.04-.09-.08-.12-.13l-1.41-1.91c-.16-.21-.42-.29-.66-.22-1.19.35-2.08,1.07-2.65,2.17-.13.25-.39.39-.66.37-2.74-.24-12.01,1.1-9.98-4.08.11-.27-.02-.58-.29-.69l-3.06-1.23c-.42-.17-.65-.63-.54-1.07l1.16-4.54c.09-.34.43-.54.77-.45.02,0,.05.01.07.02,2.93,1.15,5.96,1.65,9.07,1.5.36-.02.5-.21.43-.56-.5-2.52-5.24-2.3-7.02-2.18-.63.04-1.25-.25-1.62-.77-.53-.75-.65-1.35-.35-1.81.2-.31.63-.49,1.29-.54,1.51-.12,3.02-.18,4.53-.18.27,0,.48-.21.48-.48v-.34c0-.19-.12-.35-.29-.42l-3.18-1.2c-.63-.26-.93-.97-.67-1.6.23-.56.82-.87,1.4-.74,1.21.3,1.95-.11,2.24-1.24.09-.37.38-.67.75-.78l8.04-2.5c.43-.13.7.02.83.45l.14.5c.13.43-.03.63-.48.62-.45-.01-.71.18-.8.57-.03.12.05.25.18.27.06.01.12,0,.18-.03Z"/>
    <path class="cls-3" d="m211.14,49.15c0-.29.24-.52.53-.52h.54c1.81.01,3.27.67,3.26,1.47,0,0,0,0,0,0v.2c-.01.8-1.48,1.43-3.28,1.42h-.54c-.29,0-.53-.24-.53-.53,0,0,0,0,0-.01l.02-2.04Z"/>
    <path class="cls-3" d="m220.02,61.58l-1.22-.59c-.31-.16-.45-.51-.34-.84.23-.65.68-.92,1.34-.82.75.11.89-.12.4-.7-.24-.29-.56-.39-.97-.3-.34.08-.69-.13-.77-.47-.02-.06-.02-.13-.02-.19l.22-3.7c.02-.37.33-.66.69-.64.13,0,.26.05.37.13l2.48,1.83c.26.2.64.15.84-.12.08-.11.13-.25.12-.39l-.13-2.73c-.01-.22.1-.43.3-.53,2.14-1.18,4.36-1.26,6.66-.23.3.13.46.47.37.78-.66,2.28-2.18,3.59-4.55,3.94-.32.05-.53.35-.48.66.02.13.09.26.19.35l2.38,2.04c.22.19.24.53.05.75-.05.06-.12.11-.2.14l-3.49,1.42c-.42.17-.66.48-.73.93-.2,1.41-1.05,2.16-2.56,2.23-.25.02-.46-.18-.48-.43,0-.01,0-.02,0-.03v-1.73c0-.32-.18-.61-.47-.76Z"/>
    <path class="cls-3" d="m236.34,54.39c.27-1.75,1.33-2.69,3.18-2.82.37-.03.67.1.91.38,1.01,1.19,2.29,2.03,3.82,2.51.49.15.76.68.6,1.17-.11.35-.43.61-.79.65l-1.2.12c-.32.03-.59.17-.8.42-2.01,2.37-4.53,3.2-7.56,2.48-.68-.17-1.37.25-1.54.93-.05.19-.05.4,0,.59.25,1.11-.2,1.83-1.36,2.16-1.02.29-2.08-.3-2.37-1.32-.1-.35-.1-.72,0-1.07.29-.98.77-1.76,1.44-2.35.27-.24.48-.52.63-.85l2.18-4.62c.3-.64.62-.65.95-.03l.97,1.81c.13.25.43.34.67.22.14-.07.24-.21.27-.38Z"/>
    <path class="cls-3" d="m277.99,80.09l2.83.57c.28.05.42.22.42.51v.4c0,.5-.25.75-.75.75h-1.29c-.28.01-.5.25-.49.53,0,.21.14.39.34.46l1.09.34c.39.12.55.38.47.79l-.24,1.18c-.09.43-.32.54-.71.35l-1.63-.8c-.29-.14-.65-.02-.79.27-.06.12-.07.26-.04.4l.89,3.66c.09.36.37.64.73.75,2.2.63,3.6,2.07,4.19,4.32.09.31.33.54.64.61l1.93.41c.96.21,1.32.79,1.07,1.74-.59,2.27-2.04,3.66-4.33,4.17-.39.09-.64.33-.75.72l-.27,1.04c-.11.43-.35.52-.71.25-1.43-1.05-1.72-2.37-.87-3.96.13-.24.04-.54-.2-.66-.1-.05-.22-.07-.33-.05-.89.19-1.61,0-2.16-.59-.89-.95-2.38-.98-3.33-.06-.49.48-.76,1.14-.74,1.82.09,2.53,1.13,4.48,3.12,5.84.23.16.39.41.42.7l.33,3.42c.05.53-.18.89-.67,1.08-.66.25-1.05.74-1.17,1.48-.05.29-.32.49-.61.44-.12-.02-.23-.08-.31-.17l-3.94-4.43c-.18-.2-.47-.28-.73-.19l-.59.2c-.11.03-.16.15-.13.25.02.05.05.09.09.12,2.09,1.42,2.94,3.46,2.53,6.11-.04.28-.28.48-.55.47-1.4-.03-2.2-.73-2.4-2.08-.05-.31-.28-.56-.59-.61-2.92-.52-5.65-1.08-5.52-4.79.01-.28-.18-.52-.45-.58-1.89-.44-2.51-1.52-1.86-3.23.17-.45.02-.67-.46-.66l-9.66.07c-.39,0-.7-.31-.7-.7,0-.06,0-.13.02-.19l.96-3.51c.18-.67.86-1.06,1.53-.89.31.08.58.29.75.57l1.11,1.84c.21.34.38.32.52-.05.16-.42.42-.72.77-.91.82-.44,3.71-.13,5.19-.65.24-.09.37-.36.28-.6-.04-.1-.11-.19-.2-.24l-.9-.52c-.61-.35-.6-.67.03-.98l2.62-1.3c.24-.12.41-.33.49-.58.35-1.09,1.14-1.63,2.39-1.61.54,0,.99-.43,1.01-.97l.2-5.76c0-.26-.1-.5-.3-.66-1.47-1.21-3.14-1.47-5.01-.78-.22.08-.47-.03-.55-.25-.02-.04-.03-.09-.03-.14-.01-.34.13-.61.42-.81.32-.22.49-.53.51-.92.12-2.85-.88-5.22-3-7.11-.61-.54-.85-.41-.73.4l.29,1.95c.03.22-.04.44-.19.59-.51.5-1.2.68-2.09.53-.34-.06-.6-.24-.77-.53l-.28-.45c-.19-.31-.46-.51-.83-.59-1.02-.21-2.04-.44-3.06-.68-2.38-.55-4.88.12-7.37-.12-.4-.03-.67-.24-.8-.61-.75-2.02-2.1-3.53-4.07-4.52-.33-.16-.46-.56-.3-.88.02-.03.04-.07.06-.1l.2-.27c.17-.24.5-.29.73-.12.02.01.04.03.06.05.55.54,1.16.8,1.82.77.49-.02.86-.43.84-.92-.02-.42-.33-.77-.75-.83l-2.72-.4c-.29-.04-.49-.31-.45-.6.02-.12.08-.24.17-.32l1.67-1.51c.17-.15.25-.39.2-.61-.78-3.63,4.27-6.02,6.43-7.9,2.21-1.92,3.88-1.91,6.59-1.56.39.05.66.41.61.8-.03.23-.18.44-.39.54-2.95,1.45-5.14,3.68-6.55,6.69-.12.27-.17.54-.14.83l.54,5.21c.04.33.21.55.52.67.6.23,1.03.17,1.29-.16.17-.22.22-.57.15-1.05-.17-1.05-.36-2.1-.57-3.16-.08-.38.04-.69.36-.92l1.91-1.4c.23-.16.28-.47.12-.7,0,0-.01-.02-.02-.03l-.8-.98c-.08-.1-.11-.24-.07-.36.3-.96.94-1.34,1.92-1.15.27.05.53-.12.59-.39.54-2.33,5.89-2.22,7.45-2.32.39-.02.74.23.84.6.49,1.77.13,3.27-1.08,4.5-.25.25-.39.56-.43.91l-.24,1.98c-.03.25.09.35.34.29,3.51-.81,7.06-1.02,10.65-.62.5.05.57.26.22.62l-1.17,1.16c-.41.42-.33.68.25.79l1.76.32c.24.05.41.28.36.52,0,.05-.03.1-.05.14l-.67,1.14c-.25.42-.11.97.32,1.22.17.1.37.14.56.12,1.09-.12,2.16,0,3.22.34.39.15.57.59.42.97-.13.32-.46.51-.8.47-.45-.09-.87-.02-1.26.22-.5.29-.49.56.04.8.51.23,1.07.29,1.66.2.29-.04.58.07.77.3.4.49.41.99.02,1.5-.16.19-.14.48.06.65.15.13.37.14.53.04,1.54-.83,2.93-.62,4.18.63.19.2.19.53-.02.72-.09.08-.2.13-.32.14l-1.6.07c-.2.01-.36.19-.35.39,0,.16.13.3.29.34Z"/>
    <path class="cls-3" d="m215.7,72.78c.4-.64,1.24-.85,1.88-.45.06.04.11.08.17.12,1.85,1.55,2.79,3.5,2.82,5.85,0,.36-.15.63-.46.81-3.48,2-3.49-2.38-6.76-1.33-.19.06-.39-.05-.45-.24-.03-.1-.01-.2.04-.29l2.76-4.47Z"/>
    <path class="cls-3" d="m258.01,81.93c.04.09,0,.2-.08.24l-.18.1c-2.51,1.33-4.72,2.1-4.92,1.72,0,0,0,0,0,0l-.06-.11c-.2-.38,1.68-1.77,4.19-3.1l.19-.09c.09-.05.19-.01.24.07l.62,1.17Z"/>
    <ellipse class="cls-3" cx="257.23" cy="89.24" rx="2.73" ry="1.77" transform="translate(-14.32 109.02) rotate(-23.3)"/>
    <path class="cls-3" d="m260.92,88.77l.64-.5c.45-.36,1.1-.29,1.46.16.02.03.05.06.07.1.61.97.12,1.58-1.48,1.82-.49.08-.94-.25-1.02-.74-.05-.32.07-.64.33-.84Z"/>
    <path class="cls-3" d="m237.47,99.1c2.43,1.56,4,3.79,4.72,6.68.07.25-.08.51-.33.58-.18.05-.36,0-.48-.15-.82-.93-1.85-1.3-3.09-1.13-.39.05-.74-.22-.8-.6,0-.04,0-.08,0-.13.03-.46-.19-.74-.64-.85-.35-.08-.68-.03-.99.14-1.09.61-2.28.83-3.56.65-.28-.04-.55.13-.63.39l-.6,1.81c-.08.22-.32.35-.54.28-.18-.06-.29-.22-.29-.41v-1.21c0-.34-.15-.59-.45-.75l-2-1.06c-.23-.12-.32-.41-.2-.64.06-.12.17-.2.3-.23l1.76-.46c.29-.07.49-.24.62-.5.84-1.78,1.35-5.79,3.66-5.81.35,0,.48.16.39.5l-.38,1.41c-.05.21.07.42.28.47.09.02.19.01.28-.03l1.25-.69c.2-.1.44-.03.55.16l.52.9c.16.28.38.51.65.68Z"/>
    <ellipse class="cls-3" cx="247.02" cy="107.55" rx="1.51" ry=".74" transform="translate(120 345.15) rotate(-85.4)"/>
    <path class="cls-3" d="m234.35,107.82c.25-.23.53-.31.85-.22.41.1.71.39.92.86.14.31.05.52-.27.63l-3.07,1.01c-.16.05-.34-.05-.38-.22-.03-.11,0-.23.08-.3l1.87-1.76Z"/>
    <ellipse class="cls-3" cx="240.93" cy="111.6" rx="1.97" ry=".76" transform="translate(13.68 248.94) rotate(-56)"/>
    <path class="cls-3" d="m219.44,234.64c-.99.03-1.65-.44-1.98-1.41-.12-.33-.41-.57-.75-.61-3.57-.48-6.99-1.45-10.26-2.92-.34-.15-.66-.12-.95.1l-1.83,1.37c-.42.31-.74.23-.97-.25l-.23-.49c-.09-.2-.03-.43.15-.56,3.67-2.49,5.38-1.03,9.3-.66.95.09,1.79.32,2.51.68,3.65,1.83,8.9,4.69,12.99,4.68.09,0,.15.08.15.17,0,.05-.03.09-.07.12-2.18,1.36-4.5,2.22-6.96,2.59-.77.11-.96-.16-.56-.83.25-.41.32-.86.23-1.37-.08-.42-.34-.62-.77-.61Z"/>
    <path class="cls-3" d="m231.98,238.35l-1.82-1.47c-.27-.22-.25-.41.06-.56,1.98-.98,3.61,1,5.1-.49.29-.29.75-.34,1.1-.12l4.5,2.85c.49.3.64.93.34,1.42-.23.38-.69.57-1.12.46-2.25-.49-4.35-.21-6.3.84-.31.17-.6.16-.89-.05-1.92-1.35-4.63-.37-5.53-1.1-.17-.13-.2-.38-.07-.55.07-.09.18-.15.29-.15l4.09-.29c.75-.05.84-.32.25-.79Z"/>
    <ellipse class="cls-3" cx="218.66" cy="240.63" rx="1.34" ry="2.69" transform="translate(-86.75 352.16) rotate(-67.8)"/>
    <ellipse class="cls-3" cx="247.68" cy="240.78" rx="2.46" ry=".92" transform="translate(-5.81 6.12) rotate(-1.4)"/>
  </g>
  <path class="cls-7" d="m355.08,243.28l1.97.43c.17.04.27.2.24.37-.02.12-.12.22-.25.23-.85.13-1.57-.09-2.15-.66-.35-.35-.29-.47.19-.37Z"/>
  <ellipse class="cls-6" cx="558.94" cy="254.14" rx="1.59" ry=".55" transform="translate(-55.01 246.1) rotate(-23.7)"/>
  <ellipse class="cls-2" cx="261.05" cy="257.56" rx="1.42" ry=".8" transform="translate(-103.61 296.44) rotate(-50.7)"/>
  <path class="cls-4" d="m771.47,296.28c.13-.5.43-.6.89-.31.18.11.3.3.34.5.19,1.09-.23,1.74-1.27,1.95-.39.08-.63-.08-.7-.47-.09-.48.05-.87.43-1.18.16-.13.26-.3.31-.49Z"/>
  <g>
    <path class="cls-4" d="m573.95,11.28c.69.48.86,1.44.38,2.13l-.09.12c-1.96,2.82-5.2,3.95-7.23,2.54l-.08-.06c-2.03-1.41-2.08-4.84-.12-7.66l.09-.13c.48-.69,1.44-.86,2.13-.38l4.92,3.44Z"/>
    <path class="cls-4" d="m579.85,16.37l.21-1.84c.03-.34.2-.43.51-.27,1.67.87,2.72,2.23,3.13,4.08.03.17.12.32.25.44l2,1.85c.25.23.35.52.3.86-.23,1.48-1.16,2.1-2.77,1.85-2.51-.39-4.73-.57-6.67-.55-.21,0-.42-.07-.58-.21l-2.24-1.89c-.09-.08-.15-.17-.19-.28-1.11-2.95-.3-5.19,2.42-6.72.25-.14.51-.14.76-.01,1.06.55,1.64,1.44,1.74,2.67.04.31.32.54.63.5.26-.03.46-.23.5-.48Z"/>
    <path class="cls-4" d="m685.03,19.44c.08.04.16.09.24.16.45.36.52,1.03.15,1.48-.21.26-.54.4-.87.39-3.09-.14-4.89-1.82-5.41-5.04-.05-.35.09-.5.44-.45l5.06.68c.35.05.59.37.55.72-.02.13-.08.25-.17.35-.07.09-.15.17-.23.25-.55.59-.47,1.07.24,1.46Z"/>
    <path class="cls-4" d="m589.05,16.72c-.01-.29.21-.53.5-.54.22,0,.42.12.5.32l.47,1.23c.12.33.35.52.69.59l6.69,1.29c.37.08.63.42.59.79-.31,3.08-4.04,5.05-6.16,6.71-.68.53-1.66.42-2.19-.26-.19-.24-.3-.53-.33-.84l-.76-9.29Z"/>
    <path class="cls-4" d="m675.14,18.94l-.19-1.95c-.03-.35.22-.65.57-.69.03,0,.06,0,.08,0l1.24.05c.4.01.63.22.7.61.57,3.38,2.49,5.14,5.74,5.28.21,0,.37.19.36.39,0,.11-.05.21-.13.28-1.87,1.63-4.2-.49-5.93,3.09-.14.29-.37.45-.7.48-5.24.48-8.48-4.33-8.47-8.93,0-.66.54-1.19,1.2-1.19.24,0,.47.07.67.21l4.11,2.82c.22.15.52.1.67-.12.07-.1.1-.21.08-.33Z"/>
    <path class="cls-4" d="m696.38,19.19c-.03.26-.26.44-.52.41,0,0,0,0,0,0l-.11-.02c-4.37-.55-7.84-1.54-7.76-2.2l.05-.39c.05-.67,3.63-.77,8.01-.22.02,0,.04,0,.06,0l.11.02c.25.04.43.27.4.52l-.23,1.87Z"/>
    <path class="cls-4" d="m571.08,19.12c-.16.35-.43.5-.82.47-.82-.07-1.45-.5-1.89-1.29-.22-.39-.09-.89.31-1.12.15-.08.32-.12.49-.1,1.83.18,2.47.86,1.91,2.04Z"/>
    <path class="cls-4" d="m627.76,258.75c-3.06,3.09-9.22,9.13-9.66-.73-.03-.81-.45-1.27-1.25-1.38-1.05-.14-1.59-.75-1.61-1.82-.01-.38-.21-.74-.52-.95-2.25-1.54-4.42-9.13-5.59-11.96-.15-.35-.12-.68.08-1,.53-.87.27-1.37-.8-1.49-.39-.04-.69-.35-.72-.74l-.59-7.19c-.03-.32-.31-.57-.64-.54-.19.02-.35.12-.45.28l-1.76,2.87c-.17.28-.49.43-.82.38-1.97-.29-3.63-1.19-4.99-2.7-.25-.27-.2-.49.13-.65l1.9-.89c.22-.08.32-.33.24-.54-.08-.2-.29-.31-.49-.26-1.85.33-3.16-.21-3.94-1.62-.24-.43-.6-.61-1.09-.55l-2.71.34c-.34.05-.66-.2-.71-.55,0,0,0,0,0,0l-.35-2.89c-.04-.33-.23-.5-.56-.52-3.84-.18-7.67-.14-11.49.11-4.81.32-8.81-.67-13.44-1.36-.43-.06-.66-.31-.67-.74l-.03-1.42c-.01-.29-.17-.54-.42-.67-1.11-.59-2.25-.71-3.4-.36-4.37,1.35-6.87-.3-11.13-.98-.31-.05-.57-.29-.64-.6-.28-1.25-1.03-2.06-2.24-2.45-.34-.11-.6-.4-.66-.76-.93-5.68-7.73-1.65-4.23,1.14,2.53,2.03,4.13,4.54,4.8,7.53.13.62.74,1.02,1.37.88.34-.07.63-.29.78-.6l.69-1.35c.17-.34.59-.48.93-.3.11.06.21.15.28.25.69,1.13.72,2.3.09,3.51-.24.45-.06,1.01.39,1.25.09.05.18.08.28.09,4.51.77,7.54-.86,9.09-4.87.19-.5.74-.74,1.24-.55.28.11.5.34.58.63.27.94.86,1.63,1.75,2.06.17.08.3.24.36.42l.49,1.57c.11.35.34.57.7.64,3.12.68,7.92,2.41,6.5,6.63-.12.36-.4.64-.75.77-1.75.64-2.56,1.96-2.42,3.96.03.35-.11.61-.4.8-2.81,1.81-6.14,3.47-10.01,5-2.71,1.07-5.05,2.91-7.02,5.52-.21.28-.58.38-.9.25l-1.9-.8c-.91-.39-1.94-.4-2.86-.03l-12.13,4.84c-.94.37-1.6.09-1.99-.84-2.25-5.45-5.3-10.57-9.16-15.38-1.92-2.39-4.83-2.38-4.62-6.54.13-2.69-3.83-5.27-5.61-6.96-2.57-2.44-3.37-5.75-6.36-8.32.45-3.65-.41-5.58-2.6-5.79,2.28-4.44,5.02-6.79,3.71-12.3-.07-.32-.05-.63.06-.93.19-.53-.02-.86-.65-1-1.07-.25-1.87.07-2.41.98-.16.27-.39.44-.69.53-2.75.79-5.25.38-7.5-1.23-.43-.31-1.04-.22-1.35.22-.04.05-.07.11-.1.16-.49,1.06-1.3,1.51-2.43,1.36-2.58-.34-2.54-2.7-5.98-1.57-.23.08-.48-.05-.56-.28-.02-.07-.03-.15-.01-.22.36-1.9-.35-2.82-2.14-2.75-.61.02-.81-.26-.61-.83l.53-1.54c.07-.22.03-.46-.11-.64-.97-1.22-1.1-2.32-.39-3.29.37-.05.7-.2.97-.47l4.7.03c.27,0,.48-.11.62-.35l.82-1.4c.15-.25.43-.38.71-.33,2.03.38,3.84.08,5.43-.89,3.55-2.16,6.67-2.27,10.55-.35,4.02,2,8.18,1.1,12.4,1.08,6.72,1.05,8.59-1.29,13.39-5.06.3-.24.49-.58.55-.95.35-2.26,1.14-4.34,2.39-6.23.25-.37.2-.69-.15-.96-1.81-1.43-3.82-2.54-6.04-3.34-.92-.33-1.4-1.34-1.07-2.26.23-.65.82-1.11,1.51-1.17l8.34-.79c.38-.04.66-.38.62-.76-.01-.14-.07-.27-.16-.37l-3.3-3.87c-.21-.25-.25-.52-.1-.81.88-1.67,3.25-2.09,2.37-4.47-.13-.37-.07-.71.2-1,1.31-1.43,1.99-3.13,2.02-5.11,0-.14.05-.28.13-.4l1.46-2.06c.13-.19.15-.44.04-.65l-2.33-4.14c-.3-.53-.11-1.21.42-1.51.22-.12.47-.17.72-.13,2.44.38,7.38,2.15,8.39-1.12,1.03-3.32,2.07-5.97,3.14-7.95.16-.3.2-.66.11-.99-.38-1.37-1.3-2.25-2.76-2.64-.41-.1-.68-.5-.62-.92l.23-1.85c.04-.33.3-.58.62-.63l4.75-.69c.38-.05.66-.37.67-.76.08-4.45,2.14-8.01,2.1-12.59-.02-2.53.61-3.71,2.32-5.31.58-.55.62-1.46.07-2.04-.08-.09-.17-.16-.27-.23l-1.77-1.13c-.35-.23-.54-.63-.49-1.04.17-1.33.87-2.27,2.08-2.84.33-.16.6-.42.78-.75.75-1.45.68-2.76-.21-3.95l.63-1.86c.09-.27,0-.57-.21-.76l-3.08-2.63c-.26-.22-.62-.3-.95-.22l-.96.25c-.69.18-1.06-.08-1.13-.79l-.29-3.18c-.02-.29-.16-.48-.43-.59-2.2-.88-2.76-2.77-1.69-5.66,2.22-1.91.34-4.93.99-7.53.08-.34.39-.56.74-.54l6.07.31c.85.05,1.51.78,1.46,1.63,0,.12-.03.24-.06.36-.96,3.22-.08,5.78,2.63,7.69.15.1.24.26.27.43l.69,4.23c.02.13.09.25.19.33,1.13.91,1.8,2.07,2.01,3.48.07.45.29.79.68,1.03l2.68,1.68c.6.37.89,1.16.67,1.76-.16.41-.54.64-.98.59-.29-.03-.54.04-.77.23-.32.26-.3.48.07.65l1.02.5c.28.14.4.48.25.76-.02.05-.06.09-.09.14-.78.84-1.11,1.84-.99,3.01.05.42-.14.65-.56.68-1.59.13-3.07-.24-4.42-1.1-.14-.09-.34-.05-.43.09-.02.03-.03.06-.04.09-.03.11-.07.22-.1.32-.06.16,0,.26.16.31l7.08,2.12c.4.12.69-.01.86-.4,1.78-3.87,1.98-7.81.59-11.8-.13-.36-.01-.61.35-.74,4.24-1.6,4.88,4.57,10.54,4.26.16-.02.28-.16.27-.33-.01-.13-.1-.23-.23-.26l-3.27-.55c-.15-.03-.26-.16-.27-.32l-.04-1.49c-.01-.33-.15-.6-.42-.79-2.87-2.07-6-2.72-9.39-1.93-.37.09-.67,0-.92-.28-1.15-1.25-1.47-2.7-.94-4.37.05-.14.02-.31-.07-.43l-3.88-5.39c-.27-.37-.23-.72.1-1.03,1.64-1.57,1.73-3.25.27-5.05-.13-.15-.12-.39.03-.52.13-.12.33-.12.47-.02,3.49,2.41.54,7.81,8.57,6.84.33-.04.38-.18.14-.41-.93-.92-3.4-.1-4.87-1.69-.44-.49-.41-1.25.09-1.69.28-.26.67-.36,1.04-.29l1.74.38c.52.11.64-.07.37-.52-.66-1.09-1.62-1.6-2.89-1.53-.55.03-.63-.15-.24-.54l.35-.36c.13-.13.29-.19.47-.19,3.35.08,6.36,1.1,9.03,3.05.27.2.61.31.95.31h2c.35,0,.64.29.64.64,0,.01,0,.03,0,.04l-.18,3.1c-.02.31.22.57.53.59.26.01.5-.16.58-.42l.27-1.02c.08-.29.38-.45.67-.37.15.04.28.15.34.29l1.52,3.48c.1.22.36.32.58.22.16-.07.26-.23.26-.4-.05-2.29-.98-4.06-2.79-5.32-.21-.14-.33-.33-.37-.58-.11-.69-.42-1.27-.91-1.76-.25-.25-.54-.42-.88-.53-4.89-1.53-7.35-2.26-8.94-7.61-.11-.36.02-.58.38-.67l10.25-2.35c.39-.09.51-.32.37-.69-.59-1.58-2.5-1-3.8-1.33-.35-.09-.43-.29-.24-.59.66-1.05-.25-2.01-2.72-2.89-.1-.04-.14-.15-.1-.25.03-.06.08-.1.14-.11l2.96-.33c.37-.05.58-.25.63-.62l.15-1.12c.03-.21.14-.41.3-.55l6.03-5.48c.24-.22.55-.35.88-.36l1.12-.04c.13,0,.23-.12.22-.26,0-.09-.07-.17-.15-.21l-.89-.34c-1.02-.39-1-.71.06-.96.99-.23,2-.29,3.03-.19.43.05.54-.12.33-.5l-.26-.49c-.26-.49-.11-.75.45-.76,1.16-.03,1.97.48,2.43,1.53.15.32.52.47.85.32.11-.05.2-.12.26-.22l.76-1.12c.15-.22.35-.31.61-.28.64.09,1.23.33,1.76.73.16.12.38.11.52-.03l.2-.21c.23-.23.28-.58.11-.86l-.72-1.23c-.12-.21-.05-.48.15-.6.09-.05.19-.07.29-.06.93.14,1.77-.03,2.51-.51.39-.25.38-.49-.03-.72-4.79-2.62-3.66-9.55,2.07-9.56.34,0,.53.17.57.5l.41,3.31c.04.36.36.61.72.57.16-.02.3-.09.41-.21,1.08-1.19,2.4-1.6,3.97-1.23.34.08.53.29.56.64l.25,2.59c.03.31.31.53.62.5.21-.02.39-.16.46-.36,2.01-5.45,7.6-4.24,10.39-.48.22.3.46.32.72.05l.7-.69c.28-.27.72-.27,1,0l1.66,1.65c.27.27.29.56.04.86l-.33.41c-.14.17-.11.42.06.56.06.05.13.08.21.09l1.24.13c.35.03.57.22.64.57,1,4.38-1.97,7.86-2.77,12.06-.43,2.27-1.73,4.46-1.72,7.05,0,.28.22.5.49.5.01,0,.03,0,.04,0l.4-.03c.21-.02.38-.18.41-.39l.33-2.16c.04-.27.22-.49.48-.58,1.67-.57,2.76-1.67,3.27-3.32.1-.33.35-.6.67-.73l1.35-.56c.09-.04.13-.15.09-.24-.03-.08-.12-.12-.2-.1l-2.41.61c-.23.06-.47-.09-.54-.32-.05-.17.02-.35.17-.45l2.38-1.78c.4-.3.66-.21.78.28l.34,1.36c.06.24.31.39.55.32.08-.02.15-.06.21-.12l.82-.89c.32-.35.87-.37,1.22-.04.1.09.18.21.22.34.24.67.71,1.11,1.41,1.34.21.07.44-.05.5-.26.03-.11.02-.22-.03-.32-.39-.71-.27-1.35.38-1.94.27-.25.58-.35.94-.32,2.72.22,5.3-.23,7.75-1.36.26-.12.56,0,.68.25.04.09.06.19.04.29-.85,5.47,8.85,1.49,10.61.2.34-.25.39-.55.15-.89l-1.14-1.63c-.21-.3-.14-.72.17-.93.19-.13.43-.16.64-.07l2.27.98c.29.13.63,0,.79-.27,1.81-3.15,6.13.1,8.2.79.35.12.53.37.52.74-.02,1.42.74,2.06,2.27,1.91.34-.03.63.22.66.56,0,0,0,0,0,0l.32,3.49c.02.3.28.52.58.5.12,0,.23-.06.32-.14l1.41-1.24c.18-.16.45-.14.61.04.03.03.05.07.07.11l.66,1.56c.13.3.38.53.7.62l4,1.09c.64.18,1.3-.2,1.47-.84.13-.47-.04-.96-.41-1.26l-2.58-2.02c-.21-.17-.25-.47-.09-.69.15-.19.41-.24.62-.13,2.83,1.47,7.06,2.9,8.34-1.4.14-.44.61-.69,1.05-.55.27.08.48.3.56.57.32,1.19,1.12,1.69,2.4,1.5.51-.08.86-.56.78-1.07-.06-.37-.33-.67-.69-.76-.35-.09-.53-.29-.55-.61,0-.09.06-.17.15-.17.01,0,.03,0,.04,0l3.62.76c.48.1.95-.21,1.05-.69.04-.18.02-.37-.06-.54-.82-1.81-2.15-3.1-3.99-3.87-.32-.14-.47-.51-.33-.83.04-.09.09-.16.16-.22l.83-.72c.23-.2.4-.44.49-.73l.21-.62c.13-.39.39-.51.78-.35l3.01,1.26c.39.17.67.05.83-.35.69-1.67,1.93-2.29,3.74-1.86.3.07.54.23.71.48l1.53,2.11c.38.53.63.47.76-.17l.5-2.63c.07-.41.31-.67.71-.8,4.52-1.38,7.78-.11,9.78,3.8.4.79,1.37,1.1,2.15.7.3-.15.54-.4.7-.7.24-.47.57-.79.99-.96.39-.15.82.04.98.42l.8,1.97c.1.25.35.42.62.42,2.95.05,5.56-.86,7.83-2.72.3-.25.64-.37,1.03-.38l7.61-.05c.39,0,.69.16.89.51l2.43,4.18c.19.32.46.45.82.4,1.96-.25,3.8.13,5.53,1.15.26.16.61.07.77-.2.03-.05.05-.11.07-.17l.67-3.02c.06-.26.3-.43.56-.41,2.98.27,5.83-.24,8.56-1.53.26-.12.43-.37.45-.66l.12-1.86c.01-.25.22-.44.47-.43.15,0,.29.09.37.23,1.98,3.5,5.06,5.06,9.23,4.69.19-.01.33-.18.31-.37,0-.07-.03-.13-.07-.18l-4.71-6.09c-.46-.6-.32-.93.43-1,6.12-.55,12.03-1.34,18.17-.57,6.57.82,13.14,1.75,19.69,2.78.37.06.63.25.8.58,1.05,2.07,2.7,3.38,4.97,3.94.43.11.67-.06.72-.49l.04-.26c.03-.27-.08-.46-.34-.55-4-1.44-1.89-6.14.59-5.43,3.29.94,5.55,1.64,7.39,4.69.21.35.18.68-.09.98l-1.96,2.1c-.22.24-.19.62.05.83.15.13.36.18.55.13.92-.28,1.55-.08,1.88.6.35.7.08,1.63.17,2.55.02.23.14.4.35.51l1.87.93c.35.17.49.59.32.94-.04.08-.09.15-.16.21-.74.67-1.63.87-2.66.62-.14-.03-.29-.03-.43,0l-3.67.88c-.27.07-.56-.04-.72-.28l-1.28-1.89c-.26-.38-.78-.49-1.18-.23l-3.63,2.38c-.3.19-.62.24-.95.13-.56-.17-.94-.6-1.14-1.31-.07-.25-.23-.37-.48-.37h-.48c-.35,0-.5.17-.46.52.28,2.31,1.48,3.81,3.59,4.49.29.09.51.34.57.64.23,1.19,0,2.28-.66,3.25-.14.21-.17.48-.07.7l.41.96c.19.45-.02.96-.47,1.15-.13.05-.26.08-.4.07l-4.92-.35c-.49-.03-.63.17-.4.61.14.26.31.39.51.38,4.66-.2,13,6.39,15.75,10.02.31.41.23.99-.18,1.3-.21.16-.48.22-.75.17-2.2-.45-4.24.01-6.13,1.38-.18.13-.25.36-.17.57l.29.79c.12.32-.04.68-.36.8-.02,0-.05.02-.07.02l-1.22.3c-.39.1-.66.34-.81.72-1.39,3.53-2.01,7.21-1.85,11.04,0,.28-.21.5-.49.51-.08,0-.16-.02-.23-.05-3.59-1.81-6.87-3.64-9.11,1.56-.2.45-.49.52-.86.2l-1.27-1.09c-.16-.13-.33-.15-.51-.05-3.67,2.07-1.72,8.78-1.25,12.6.1.77.8,1.32,1.57,1.22.2-.03.4-.1.57-.2l1.35-.85c.52-.33.78-.19.78.43v3.18c0,.27.22.49.48.49.03,0,.07,0,.1-.01,1.3-.27,2.25.17,2.86,1.32.41.77.18,1.17-.69,1.19l-1.55.03c-.4,0-.71.33-.71.73,0,.06.01.13.03.19.75,2.69,2.24,4.84,4.46,6.46.34.25.32.47-.05.66-1.69.87-3.05,2.15-4.06,3.84-.2.34-.13.62.2.83l1.5.98c.34.22.43.52.27.89-.41.95-1.16,1.5-2.24,1.64-.42.06-.71.44-.65.86,0,.05.02.1.04.15.35.93.98,1.65,1.89,2.16.26.14.36.47.21.74-.02.04-.05.08-.08.11-1.16,1.22-1.89,2.66-2.18,4.31-.05.31-.34.51-.64.46-.15-.02-.28-.11-.37-.23-2.31-3.19-3.9-6.99-6.81-9.52-2.22-1.94-3.85-4.29-4.89-7.04-1.05-2.79-3.15-4.77-1.64-8.58.08-.21.1-.45.04-.67l-.48-1.75c-.09-.31,0-.54.28-.71,1.78-1.08,1.47-2.21,1.82-3.97.71-3.53,1.15-7.09,1.32-10.68.02-.33.16-.61.41-.83,2.49-2.18.62-6.57-1.41-8.39-.32-.29-.34-.79-.05-1.12.13-.15.32-.24.52-.25l.53-.04c.14-.01.25-.14.23-.29,0-.1-.07-.18-.16-.21l-1.13-.41c-.84-.31-1.77.13-2.08.97-.09.24-.12.5-.08.76.15,1.19.64,2.27,1.47,3.22.21.24.19.59-.04.8,0,0-.02.01-.03.02-1.51,1.2-1.98,2.76-1.43,4.67.08.28-.08.56-.36.65-.1.03-.2.03-.29,0-1.84-.51-2.98-1.71-3.42-3.62-.19-.8-.99-1.3-1.8-1.11-.04,0-.07.02-.11.03l-5.01,1.58c-.33.11-.54.43-.51.77.26,2.85-.12,5.62-1.13,8.29-.11.31-.1.61.03.9.48,1.05,1.37,1.44,2.67,1.19.51-.09.71.11.6.61l-.09.42c-.04.17-.16.3-.32.34-2.29.65-4.32,1.74-6.11,3.27-.2.17-.51.14-.67-.06-.06-.07-.1-.17-.11-.26l-.13-1.72c-.03-.4-.25-.62-.64-.66l-4.62-.47c-.35-.04-.64.06-.89.3-2.69,2.53-5.94,3.67-9.75,3.44-.09,0-.18.02-.27.06-1.15.53-2.23,1.04-3.26,1.52-.3.14-.55.36-.73.64-2.22,3.61-3.86,7.46-4.93,11.55-.64,2.42-.01,5.26-2.88,7.05-.23.15-.29.45-.15.68.08.13.22.21.38.22,1.47.08,2.22.88,2.24,2.39,0,.56.47,1.01,1.03,1.01.28,0,.55-.12.74-.33.65-.69,1.43-1.01,2.36-.96.22.01.42.12.55.29l1.11,1.39c.2.26.59.3.86.09.01-.01.03-.02.04-.04l1.51-1.46c.23-.22.49-.28.8-.18,8.04,2.69,9.46,11.93,10.82,19.21.62,3.34-1.46,7.99-2.01,11.48-.05.33-.19.62-.41.87-2.02,2.33-5.42,14.13-10.39,10.11-.31-.25-.61-.24-.9.03l-3.73,3.51c-.25.23-.35.58-.27.91l.54,2.12c.09.36.02.69-.21.98l-3.21,4.01c-.33.42-.26,1.03.15,1.36.03.02.06.04.09.06,3.4,2.11,9.03,7.35,7.28,11.93-.74,1.92-1.98,2.41-3.72,1.48-.29-.15-.53-.09-.71.19l-.56.86c-.25.39-.77.51-1.16.26-.3-.19-.45-.55-.37-.89.47-2.2-.07-4.04-1.61-5.53-.35-.35-.31-.63.12-.86l.62-.34c.42-.22.45-.48.08-.79-1.37-1.15-2.97-1.72-4.79-1.73-.44,0-.64-.23-.59-.66.85-9.15-6.35-3.36-9.15-1.12-.33.26-.81.21-1.07-.11-.12-.15-.18-.35-.16-.54l.43-5.01c.06-.65-.42-1.22-1.07-1.28-.33-.03-.66.08-.9.3-2.48,2.23-4.49,4.81-6.02,7.74-.22.41-.11.68.34.81,1.21.33,2.13,1.04,2.76,2.14.17.29.41.41.74.37l8.13-.96c.47-.05.89.28.94.74.02.21-.03.43-.16.6-1.16,1.55-4.86,2.93-6.59,4.4-.27.23-.39.51-.37.85.09,1.57.97,2.48,2.65,2.73.2.03.39.15.5.32l6.27,9.67c.26.41.19.75-.2,1.04l-1.27.92c-.19.14-.24.4-.11.6.07.1.18.17.31.18,1.56.21,2.14.94,1.75,2.21-4.55,14.58-11.43,16.91-24.75,21.44-.37.13-.6.38-.71.75l-.37,1.22c-.1.35-.32.46-.66.34-.85-.31-1.43-.88-1.76-1.69-.36-.9-1.02-1.31-1.99-1.22-4.15.36-6.47,2.62-6.96,6.77-.04.4.21.77.59.87,1.05.27,1.75.94,2.08,1.99.13.42.4.71.8.88,6.43,2.69,11.77,14.37,1.59,16.82-.35.08-.61.28-.77.61l-.6,1.22c-.18.37-.44.44-.77.2-1.63-1.16-3.44-1.95-5.43-2.38-.35-.08-.67-.28-.88-.58-1.7-2.41-3.97-3.94-6.8-4.6-.31-.07-.58-.22-.8-.45l-1.36-1.35c-.34-.34-.6-.29-.79.15-.94,2.23-3.99,8.58.03,9.17.35.05.55.24.61.59,1.05,6.61,10.43,6.61,8.54,12.87-.09.31-.03.58.18.82l2.24,2.48c.29.32.32.66.09,1.03-.67,1.09-1.65,1.29-2.93.58-3.85-2.11-6.32-5.13-7.42-9.06-1.02-3.62-2.38-5.49-5.79-6.46-.32-.09-.47-.3-.44-.63.19-2.83,1.81-7.19.79-9.7-1.44-3.57-2.98-7.11-4.61-10.62-.13-.29-.48-.42-.77-.28-.08.04-.15.09-.21.16-1.31,1.65-2.94,2.79-4.91,3.42-.34.11-.7-.07-.84-.4l-2.32-5.71c-.2-.48-.55-.77-1.06-.86-1.53-.29-2.11-1.34-1.74-3.16.08-.39-.17-.78-.56-.87-2.16-.49-3.43-1.86-3.81-4.1-.15-.91-1.01-1.52-1.92-1.37-.22.04-.44.12-.63.24-.87.56-1.79.68-2.77.36-.33-.11-.59-.02-.79.27-1.62,2.29-4.33.16-5.09,3.1-.02.07-.06.13-.11.19l-4.3,4.55c-.25.26-.53.31-.84.16l-.37-.18c-.32-.15-.61-.11-.88.14-2.83,2.62-5.61,5.28-8.34,7.98-3.51,3.47.56,8.55-2.18,12.48Z"/>
    <path class="cls-4" d="m683.06,28.45c-.11-.23-.07-.5.11-.68.35-.35.7-.33,1.06.04.65.67.69,1.27.13,1.8-.33.31-.6.26-.81-.15l-.49-1.01Z"/>
    <path class="cls-4" d="m686.72,31.19c1.94-3.58,5.12-.98,7.43.12.33.15.46.54.3.87-.09.18-.26.32-.45.36l-5.43,1.13c-2.4.5-3.02-.33-1.85-2.48Z"/>
    <path class="cls-6" d="m589.18,34.26c.17-.22.4-.27.69-.14.43.19.43.37,0,.55l-1.46.62c-.5.21-.65.06-.46-.45.18-.47.59-.66,1.23-.58Z"/>
    <path class="cls-6" d="m594.29,36.82c-.05.18-.23.29-.41.24-.04-.01-.08-.03-.11-.05l-.93-.67c-.17-.12-.2-.35-.08-.52.03-.05.08-.09.13-.11.43-.23.81-.21,1.14.06.3.25.39.6.26,1.05Z"/>
    <path class="cls-6" d="m569.28,47.13c-.02.11-.05.2-.1.27-.07.11-.12.1-.16-.03-.19-.69-.04-1.26.46-1.7.14-.13.36-.12.49.02.08.09.11.22.08.34-.08.28-.25.51-.51.7-.14.1-.23.23-.26.4Z"/>
    <path class="cls-6" d="m569.22,48.72c.55.13.71.54.48,1.22-.08.26-.35.41-.61.33-.22-.06-.36-.27-.35-.49v-.69c0-.33.16-.45.48-.37Z"/>
    <path class="cls-4" d="m577.65,54.83c-.45-.13-.66-.52-.64-1.17.01-.29.26-.52.55-.51.16,0,.3.08.4.21l.95,1.28c.18.24.12.38-.18.43-.21.03-.4,0-.57-.06-.13-.06-.3-.12-.51-.18Z"/>
    <path class="cls-4" d="m570.51,64.03c-.13-.29.01-.64.31-.76.19-.08.4-.06.56.06l1.28.96c.23.18.27.5.09.73-.1.13-.26.21-.43.2-.87-.05-1.48-.45-1.81-1.19Z"/>
    <ellipse class="cls-4" cx="741.66" cy="122.5" rx=".77" ry=".92" transform="translate(338 756.64) rotate(-66.9)"/>
    <path class="cls-4" d="m768.49,153.02c.04.53-.06,1.04-.29,1.55-.38.83-.69.8-.94-.08-1.33-4.88-3.46-8.87-5.07-13.88-1.47-4.54-4.42-7.82-6.32-12.08-.14-.31-.17-.63-.09-.96.29-1.2.07-2.32-.68-3.37-.19-.26-.13-.62.13-.81.23-.16.54-.14.74.05,1.95,1.8,3.41,3.95,4.38,6.46,2.06,5.3,5.86,9.56,9.56,13.95.11.1.11.27,0,.38-.09.1-.25.11-.36.03l-2.69-1.59c-.45-.27-1.04-.12-1.32.34-.13.21-.17.47-.11.71.79,3.51,2.5,6.44,5.11,8.8.26.23.41.47.45.7.09.43-.06.53-.43.29l-1.41-.89c-.21-.13-.48-.06-.61.14-.05.08-.07.17-.06.26Z"/>
    <path class="cls-4" d="m769.09,168.04l.86.22c.36.09.55.33.56.7.02.57-.31.98-.99,1.21-.49.17-.83.01-1.02-.46l-.47-1.13c-.13-.31-.33-.38-.61-.21l-1.21.72c-.14.08-.33.03-.41-.11-.04-.07-.05-.14-.03-.22.47-1.83,1.34-3.43,2.62-4.78.25-.25.37-.56.38-.91.03-1.85-.39-3.62-1.26-5.31-.25-.5-.1-.76.45-.78l.72-.02c.33-.01.65.14.86.41,7.25,9.64,13.12-2.01,18.84-5.3.41-.23.48-.15.23.24-.11.17-.2.33-.28.48-.08.17-.21.31-.4.42-2.33,1.42-4.44,3.56-6.33,6.43-.53.8-1.39,1.29-2.59,1.48-.39.07-.53.29-.43.67.12.48.42.75.9.8.62.07.68.29.19.67-1.66,1.27-4.38,2.05-4.25,4.62.03.49-.17.61-.59.35l-3.34-2.06c-.22-.14-.52-.12-.72.06l-1.74,1.53c-.15.13-.13.23.06.28Z"/>
    <path class="cls-4" d="m751.8,199.64l-1.84-.2c-.38-.05-.65-.38-.61-.76,0-.03,0-.06.02-.08.43-1.78,4.14-5.07,5.41-6.64.23-.28.55-.47.91-.53,1.25-.19,2.37-.67,3.34-1.44.33-.25.69-.33,1.09-.24l1.33.31c.38.09.66-.04.84-.39l1.34-2.68c.11-.21.15-.45.11-.69-.09-.65.11-1.22.6-1.72.24-.24.63-.25.88,0,.08.08.13.17.16.28l.31,1.1c.08.29.37.46.66.38.07-.02.14-.05.2-.1,3.55-2.77,4.62-6.24,3.22-10.39-.79-2.36-.37-4.22,1.86-5.2.37-.16.64-.06.81.31,1.27,2.69,3.52,5.66,3.1,8.71-.58,4.18-.36,6.81.61,10.64.1.4-.05.65-.45.75l-7.61,1.83c-.33.08-.6.25-.81.51l-1.9,2.34c-.58.71-1.64.89-2.37.4-.53-.35-.76-.97-.59-1.58.15-.53.09-1.06-.2-1.57-.2-.35-.65-.47-1-.27-.13.07-.23.18-.29.31-.57,1.19-.26,1.97.95,2.34.33.1.52.46.42.79-.02.07-.06.14-.11.2l-.57.72c-.21.27-.55.38-.87.28-1.31-.37-2.05.03-2.22,1.2-.1.68-.4.78-.9.31-.54-.52-.93-1.17-1.18-1.96-.22-.72.18-1.48.9-1.7.29-.09.59-.08.87.03.61.23,1.06.22,1.36-.03.27-.23.23-.37-.12-.44-2.32-.45-4.48-.04-6.49,1.23-.35.23-.32.39.09.48.87.2,1.55.67,2.05,1.41.18.26.24.54.17.85l-1,4.74c-.06.28-.33.46-.62.42-2.16-.32-2.44-2.04-1.62-3.81.13-.26.05-.41-.24-.44Z"/>
    <ellipse class="cls-4" cx="741.11" cy="197.95" rx=".65" ry="1.17" transform="translate(484.36 920.8) rotate(-85.4)"/>
    <path class="cls-6" d="m752.18,212.27c.14.36,0,.8-.43,1.31-1.21,1.44-2.1,2.83-2.65,4.16-.06.15-.23.23-.39.17-.05-.02-.1-.06-.13-.1-.07-.09-.1-.19-.1-.32,0-.09.04-.2.12-.32,1.05-1.62,2.08-3.27,3.08-4.94.19-.33.36-.31.5.04Z"/>
    <path class="cls-4" d="m733.14,230.07c0,.07-.05.12-.12.12h-.05c-1.19-.05-2.07-1.96-1.98-4.28,0,0,0,0,0,0l.04-1.14c.09-2.32,1.13-4.16,2.32-4.11,0,0,0,0,0,0h.05c.07,0,.12.06.12.13h0s-.38,9.29-.38,9.29Z"/>
    <path class="cls-6" d="m740.37,223.57c.74-.68,1.63-1,2.66-.97.16-.01.3.11.31.27.01.16-.11.3-.27.31h0l-2.65.49c-.13.03-.14,0-.05-.1Z"/>
    <path class="cls-4" d="m702.55,239.23c-.17,0-.31-.14-.31-.31-.08-2.55,1.22-3.83,3.9-3.83.51,0,.78.25.79.76l.09,2.73c.01.42-.32.77-.74.78-.02,0-.03,0-.05,0l-3.68-.13Z"/>
    <path class="cls-4" d="m738.51,248.99c2.09-.22,3.79.6,5.11,2.45.84,1.18.56,2.81-.62,3.65-.24.17-.52.3-.8.39-1.17.33-2.16.99-2.95,2-.34.42-.51.36-.51-.18v-1.35c0-.42.21-.63.62-.63h1.85c.43,0,.71-.2.84-.61.52-1.59.22-2.96-.89-4.12-.27-.28-.59-.36-.96-.23-1.21.41-2.01.55-2.42.42-5.74-1.88-7.25-5.5-4.52-10.87,1.61-3.17,5.53.58,6,2.8.08.35-.03.71-.28.96l-2.03,2.08c-.74.75-.73,1.96.02,2.7.41.4.97.6,1.54.54Z"/>
    <path class="cls-6" d="m661.68,257.41c.08.19.09.36.03.52-.06.14-.22.21-.36.16-.11-.04-.18-.15-.18-.27l.4-6.02c.02-.27.16-.37.43-.3.21.06.3.17.27.34-.33,1.61-.56,3.25-.69,4.92-.02.23.01.44.1.65Z"/>
    <ellipse class="cls-4" cx="735.6" cy="252.25" rx=".71" ry="1.08" transform="translate(276.01 879.56) rotate(-72.7)"/>
    <path class="cls-4" d="m740.39,260.59c-.32-.09-.5-.42-.41-.74.03-.09.08-.18.14-.25,1.59-1.65,3.5-2.75,5.71-3.31.57-.14.91-.72.77-1.29-.05-.22-.18-.41-.35-.55-.37-.32-.63-.71-.76-1.17-.13-.46-.01-.54.37-.25.78.61,1.34,1.4,1.68,2.35.13.36.02.63-.32.81l-5.24,2.78c-.32.17-.45.57-.28.9.03.06.07.12.12.16l.78.78c.38.38.31.5-.2.35l-2.01-.57Z"/>
    <path class="cls-4" d="m732.59,253.98c.15-.51.41-.67.77-.48.15.09.22.27.16.44-1.45,3.63-3.79,6.54-7.02,8.74-.19.13-.32.09-.41-.11-.04-.08-.07-.16-.1-.25-.01-.04.01-.08.07-.12,3.25-1.91,5.42-4.65,6.53-8.22Z"/>
    <path class="cls-4" d="m748.5,266.53l-.03,1.91c0,.33-.26.6-.59.63-3.01.22-2.86-2.65-3.53-4.57-.13-.4-.37-.48-.72-.25-.73.49-1.54.68-2.44.58-.35-.04-.65.06-.9.31l-.75.76c-.17.17-.27.13-.29-.11-.03-.32.04-.57.21-.76.79-.87,1.94-1.7,3.45-2.49.26-.14.59-.09.8.12l.56.57c.33.32.85.32,1.17,0,.04-.04.08-.09.11-.14l2.64-4.18c.14-.22.44-.29.66-.14.12.08.2.2.22.34.24,2.39.96,4.61,2.16,6.65.14.24.06.54-.18.68-.02.01-.05.03-.07.04l-.99.39c-.15.06-.29.03-.41-.09l-.5-.49c-.38-.38-.57-.3-.58.24Z"/>
    <path class="cls-4" d="m632.89,268.19c-5.48,2.79-5.29-3.99-4.03-6.85.15-.44.26-.69.35-.74.38-.23.87-.15,1.15.18,2.3,2.71,3.14,5.18,2.53,7.41Z"/>
    <path class="cls-4" d="m714.98,275.77l.6-.95c.21-.33.51-.5.9-.49,1.31.03,2.04-.61,2.18-1.94.04-.39.25-.62.64-.69,2.43-.44,4.17-1.78,5.2-4.03.15-.33.41-.49.78-.49h2.25c.38,0,.71.28.77.66.21,1.27.98,1.77,2.33,1.5.4-.09.8.16.89.57s-.16.8-.57.89h0c-1.95.48-3.31,1.66-4.1,3.55-.12.27-.1.54.06.8.61.98.89,2.06.84,3.24-.01.44.2.71.63.8l1.6.33c.25.05.41.3.35.55-.03.14-.13.26-.26.32-2.49,1.1-3.98,3.02-4.48,5.75-.05.25-.18.47-.37.62l-1.43,1.14c-.26.21-.37.49-.32.82.37,2.47-.72,3.73-3.25,3.76-.14,0-.27-.04-.38-.12l-2.71-2.09c-.28-.21-.55-.2-.8.05l-1.4,1.32c-.23.22-.6.23-.84.02l-1.57-1.34c-.28-.25-.6-.42-.97-.51-3.1-.76-4.6-2.92-4.5-6.47,0-.35-.15-.6-.48-.73l-1.18-.49c-.43-.17-.57-.48-.4-.92.94-2.49,2.56-3.09,4.86-1.81.37.21.84.08,1.05-.28l1.73-2.94c.19-.32.47-.43.83-.34l.84.22c.26.07.54-.04.68-.27Z"/>
    <path class="cls-4" d="m695.52,289.58l1.15,1.03c.22.2.31.45.27.75l-.53,4.02c-.06.45-.31.64-.75.59-11.04-1.25-13.12-12.76-20.34-19.65-1.85-1.77-3.74-3.49-5.67-5.16-.37-.33-.58-.68-.61-1.06-.03-.42.28-.79.71-.83.13-.01.26.01.38.07,3.11,1.41,6.17,2.91,9.19,4.52,3.27,1.74,5.7,4.78,9.35,6.6.27.14.46.36.55.65.24.77.77,1.23,1.58,1.36.31.05.49.23.55.53l.38,1.8c.07.34.39.56.73.51l2.14-.29c.28-.04.54.16.58.43,0,.02,0,.04,0,.06l.15,3.68c0,.15.07.29.19.39Z"/>
    <path class="cls-4" d="m754.89,285.99c-.23.45-.58.64-1.05.57-.61-.08-.68-.33-.23-.75l.88-.81c.21-.19.29-.43.24-.72-.23-1.35-.8-2.77-1.7-4.26-.25-.41-.16-.77.25-1.08.23-.18.57-.13.75.11,0,0,0,.01.01.02.43.61.97.79,1.64.52.38-.15.66-.04.84.33.61,1.25.34,2.11-.81,2.58-.44.17-.49.43-.16.76l.25.24c.08.09.13.19.15.3.15.78-.08,1.37-.69,1.78-.16.11-.28.24-.37.41Z"/>
    <path class="cls-4" d="m735.93,289.05c-.09-.18-.3-.25-.48-.17-.1.05-.17.14-.19.26l-.96,5.68c-.08.51-.36.68-.85.53l-1.34-.42c-.31-.09-.42-.29-.35-.6.76-3.19-1.23-5.55.29-9.39.11-.25.27-.46.5-.62.71-.51.99-1.16.82-1.97-.14-.66.25-1.32.9-1.53,2.42-.75,4.86-.72,7.31.09.44.15.88.14,1.31-.05l3.41-1.46c.21-.09.46,0,.55.21.04.08.05.18.03.27-.34,1.53-1.51,2.36-3.12,2.08-3.16-.55-6.09-.46-8.78.27-.82.21-1.31,1.04-1.1,1.86.16.61.67,1.06,1.29,1.14,2.23.29,4.31-.1,6.25-1.18.64-.35,1.45-.12,1.81.52.18.32.21.69.1,1.03l-.47,1.51c-.11.37-.51.58-.88.46-.15-.05-.28-.14-.37-.27-.54-.79-1.34-.86-2.4-.21-.68.42-.9,1.31-.48,1.99.12.2.29.37.49.49,1.25.74,2.12,1.82,2.61,3.23.05.15,0,.24-.17.26l-3.14.36c-.3.03-.52-.09-.65-.36l-1.94-4.01Z"/>
    <ellipse class="cls-6" cx="763.09" cy="282.9" rx=".38" ry="1.12" transform="translate(413.47 1017.82) rotate(-84.9)"/>
    <path class="cls-4" d="m789.3,288.22l-.26,15.09c-1.31.23-2.19-.22-2.64-1.36-.11-.28-.32-.42-.62-.43l-4-.13c-.34,0-.6-.29-.59-.62,0-.07.02-.15.04-.22.32-.77.92-1.26,1.8-1.46.34-.07.56-.41.48-.75-.03-.13-.1-.25-.2-.34-2.46-2.13-11.35-8.37-14.89-6.44-.29.16-.57.13-.83-.08l-1.92-1.57c-.16-.14-.18-.39-.04-.55.05-.06.11-.1.18-.12l3.47-.93c.17-.04.27-.2.24-.37-.03-.13-.13-.22-.26-.24l-3.4-.65c-.87-.17-1.43-1.01-1.27-1.87.03-.13.07-.26.13-.39,1.7-3.52,7.47-1.45,7.51,2.92,0,.31.11.59.32.82l1.53,1.67c.22.24.58.28.84.09l5.59-3.95c.36-.26.75-.33,1.18-.21l7.61,2.09Z"/>
    <ellipse class="cls-4" cx="679.02" cy="286.36" rx=".47" ry=".78" transform="translate(-51.33 188.05) rotate(-15.2)"/>
    <path class="cls-6" d="m746.3,287.17c-.08.03-.16.06-.25.09-.03.02-.06,0-.08-.03l-.22-.36c-.06-.1-.02-.23.08-.29.04-.02.08-.03.13-.02l2.85.34c.28.03.42.19.43.47v.28c0,.21-.09.27-.28.19-.78-.32-1.58-.55-2.41-.69-.09-.01-.17,0-.25.02Z"/>
    <path class="cls-4" d="m699.71,289.5c.07.07.07.18,0,.25,0,0,0,0,0,0l-.06.05c-.51.49-1.54.25-2.31-.54l-.17-.17c-.77-.79-.98-1.83-.47-2.33,0,0,0,0,0,0l.05-.05c.07-.07.18-.07.25,0,0,0,0,0,0,0l2.7,2.78Z"/>
    <path class="cls-4" d="m681.97,289.95c-.26-.31-.33-.72-.2-1.23.13-.51.3-.52.5-.03l.36.86c.08.2,0,.43-.21.51-.16.07-.34.02-.45-.11Z"/>
    <ellipse class="cls-4" cx="702.71" cy="289.6" rx=".74" ry="1.13" transform="translate(182.45 843.67) rotate(-69.2)"/>
    <ellipse class="cls-4" cx="755.95" cy="289.83" rx=".7" ry="1.51" transform="translate(335.62 981.78) rotate(-79.7)"/>
    <ellipse class="cls-4" cx="760.54" cy="290.63" rx=".53" ry="2.19" transform="translate(350.82 994.21) rotate(-80.7)"/>
    <ellipse class="cls-4" cx="751.2" cy="290.7" rx="1.45" ry=".58" transform="translate(-5.44 14.47) rotate(-1.1)"/>
    <path class="cls-4" d="m722.25,302.17c2.76.03,5.51-.05,8.25-.23.59-.04.86.16.8.6-.09.56-.6.94-1.15.85,0,0-.02,0-.03,0-4.49-.76-9.11-.96-13.88-.6-.91.07-2.15-.13-3.73-.62-3.61-1.11-6.94-.86-10.57-2.46-.31-.13-.64-.18-.97-.15-1.3.12-2.56-.07-3.77-.57-.74-.31-1.09-1.15-.79-1.89.23-.55.77-.91,1.37-.9l4.94.07c.35,0,.52.18.52.53v.97c0,.47.23.69.7.66l7.87-.44c.27-.01.51.08.7.27,1.52,1.52,3.35,2.44,5.48,2.77.25.04.47.15.65.33.25.25.54.28.87.11.23-.13.48-.19.74-.18.46,0,.83.17,1.11.48.24.26.54.39.89.4Z"/>
    <path class="cls-6" d="m734.99,297.4c-.09.22-.34.33-.56.24-.05-.02-.1-.05-.14-.09-.41-.41-.42-.81-.01-1.2.22-.21.57-.21.78,0,.15.15.2.38.11.58l-.18.46Z"/>
  </g>
  <path class="cls-6" d="m717.18,299.38c-.4.06-.81,0-1.22-.21-.15-.09-.21-.28-.13-.43.06-.1.16-.16.28-.17l1.63.07c.21.01.37.19.36.4,0,.11-.06.21-.15.28-.35.26-.6.28-.77.06Z"/>
  <ellipse class="cls-4" cx="763.4" cy="299.89" rx="1.52" ry=".8" transform="translate(-49.86 406.29) rotate(-28.9)"/>
  <path class="cls-4" d="m746.38,301.68c.35.3.29.48-.16.54l-.89.13c-.35.05-.44-.09-.29-.4.32-.67.77-.76,1.34-.27Z"/>
  <path class="cls-4" d="m742.14,301.85c.54-.15.97-.06,1.28.27.28.29.22.44-.19.44-.95.01-1.88.02-2.79.02-2.38,0-4.41,1.41-6.87.42-.29-.13-.42-.47-.29-.75.09-.2.29-.33.51-.34l7.57.05c.27,0,.53-.04.78-.11Z"/>
  <path class="cls-4" d="m742.12,306.01c2.34-3.3,6.36-2.49,9.84-3.76.21-.07.44.04.51.25,0,.02.01.05.02.08.04.27-.04.43-.25.48-1.69.4-3.38.82-5.06,1.26-.3.08-.56.26-.73.51-.94,1.33-2.27,1.96-4,1.87-.53-.03-.64-.26-.33-.69Z"/>
  <ellipse class="cls-4" cx="733.17" cy="305.32" rx=".65" ry="1.82" transform="translate(146.6 840.77) rotate(-65)"/>
  <g>
    <path class="cls-1" d="m504.1,209.82c2.19.21,3.05,2.14,2.6,5.79-.29.45-.3.96-.01,1.51.25.5.05,1.12-.46,1.37-.4.2-.88.12-1.19-.21l-4.16-4.41c-.15-.16-.41-.17-.57-.01-.02.02-.03.03-.05.05l-.21.29c-.19.26-.15.47.12.64,1.93,1.21,3.12,2.29,3.59,3.22,2.11,4.26,5.48,7.57,7.62,11.43,4.29,7.73,9.33,14.92,15.13,21.59.99,1.13,3.11,1.46,2.72,3.87-.06.37.1.58.47.64l2,.33c.16.03.31.1.43.21,5.25,4.9,14.7.94,20.3-1.31.47-.19.7-.03.67.48-.36,6.52-3.01,11.82-7.94,15.91-.24.2-.43.45-.55.75-1.19,3.02-3.26,4.89-6.19,5.62-3.39.84-5.27,2.74-7.6,5.01-.26.26-.57.43-.93.52-1.16.27-1.68,1.08-1.55,2.41.08.91-.59,1.72-1.51,1.8-.1,0-.2,0-.29,0-1.26-.12-2.23.47-2.65,1.75-.73,2.23-1.77,4.28-3.14,6.15-.2.27-.21.65-.01.93.98,1.34.92,2.65-.18,3.94-.26.3-.24.59.05.86,3.53,3.18,6.21,12.85.75,14.89-.32.12-.53.42-.55.76l-.1,2.02c-.01.28-.15.46-.42.55-2.45.8-4.63,2.03-6.55,3.7-2.87,2.48-4.56,3.6-3.28,7.45.5,1.49.09,2.68-1.22,3.55-.32.21-.55.52-.65.88-.72,2.43-2.35,3.8-4.89,4.09-.43.05-.78.37-.85.8l-.62,3.52c-.07.35-.25.63-.54.83l-1.12.76c-.27.18-.48.42-.61.71-2.3,5.13-5.68,9.36-10.14,12.68-2.17,1.61-4.54,1.34-6.88,2.91-1.06.71-2.17.6-3.33-.33-.27-.22-.55-.24-.85-.05-1.08.67-2.21,1.14-3.39,1.42-2.75.66-4.49-1.35-7.47.99-.25.2-.57.28-.89.22-2.55-.47-4.18-1.93-4.89-4.38-.13-.43-.06-.9.19-1.28,1.03-1.56.76-2.91-.8-4.06-.26-.19-.44-.47-.51-.78-.91-4.26-3.78-5.47-4.87-9.05-1.23-4.03-1.86-8.15-1.91-12.38,0-.34-.17-.56-.5-.67l-1.22-.38c-.23-.07-.41-.22-.54-.43l-4.15-7.18c-.07-.12-.1-.27-.07-.41l1.89-9.48c.07-.38.27-.68.59-.89l1.93-1.33c.32-.23.49-.53.5-.92.08-2.79.02-5.56-.19-8.31-.37-4.91-6.93-11.26-10.37-14.53-.22-.21-.35-.5-.36-.8-.06-3.75.75-7.29,2.43-10.62.17-.33.12-.62-.14-.87l-2.73-2.69c-.26-.25-.56-.33-.91-.22-2.17.65-4.38.85-6.64.61-.29-.03-.54-.21-.66-.48l-1.51-3.36c-.12-.27-.31-.47-.56-.6-6.93-3.74-12.31,4.74-19.12,3.41-3.55-.7-7.04-.55-10.47.45-4.63,1.34-14.03-6.03-16.75-9.57-2.38-3.1-5.31-5.6-8.8-7.49-.38-.21-.53-.52-.45-.95l.39-2.18c.05-.29-.04-.51-.29-.68l-1.68-1.16c-.2-.14-.33-.36-.36-.6-.11-1.11.38-1.74,1.49-1.91.36-.06.62-.38.59-.75-.18-2.1.52-3.8,2.11-5.09.29-.23.34-.64.13-.94l-1.61-2.24c-.07-.1-.11-.22-.1-.34.11-1.57-.39-2.9-1.5-3.99-.23-.23-.28-.59-.1-.87,3.6-5.74,8.77-13.53,15.48-16.39,3.59-1.53,4.44-1.99,4.21-5.94-.23-4.07,4.89-6.3,7.81-7.84.35-.19.6-.47.73-.84l.88-2.39c.14-.37.53-.58.91-.49.74.17,1.39.53,1.95,1.07.15.14.34.22.55.22l8.28-.06c.33,0,.62-.12.86-.35,3.6-3.43,9.41-3.6,14.39-2.98.22.03.45,0,.65-.1,2.07-.94,4.12-.99,6.15-.16.34.14.68.13,1.01-.02,2-.92,4.11-1.37,6.32-1.34.61,0,.83.31.65.9l-.67,2.17c-.06.2-.03.41.08.58.81,1.21.64,2.29-.49,3.25-.3.25-.64.37-1.02.37h-.42c-.12,0-.2.11-.19.23,0,.08.05.14.12.17,2.51.9,4.19,1.95,7,2.46,2.3.41,4.39,1.29,6.28,2.62,3.26,2.3,7.1,2.91,10.79,4.07.39.12.81,0,1.08-.31.92-1.07,1.28-2.34,1.07-3.83-.05-.35.16-.67.49-.77l5.08-1.59c.34-.11.59,0,.75.32.4.77.77,1.24,1.7,1.39,4.64.81,9.23,1.8,13.78,2.99,1.09.28,2.84-.21,5.27-1.48.31-.17.65-.22,1-.16l7.08,1.14Z"/>
    <path class="cls-1" d="m533.27,326.12c-1.5-4.35-.09-7.12,4.24-8.31,4.27-1.18,7.14-3.89,8.61-8.13.09-.26.37-.4.63-.31.1.03.18.1.25.18,1.3,1.82,2.11,3.83,2.42,6.02.05.36-.04.68-.27.96-1.31,1.6-2.37,3.86-3.18,6.78-.71,2.57-2.95,7.97-6.72,16.19-.09.21-.25.3-.47.29l-6.3-.33c-.19,0-.36-.08-.5-.21-2.28-2.13-3.06-4.7-2.33-7.71.03-.12.09-.23.17-.33l3.23-3.88c.3-.36.37-.76.22-1.21Z"/>
  </g>
  <ellipse class="cls-6" cx="567.85" cy="328.38" rx=".81" ry=".58" transform="translate(6.52 667.79) rotate(-61.2)"/>
  <g>
    <path class="cls-6" d="m818.72,290.36c-1.05.09-2.05-.07-2.99-.48-.38-.14-.58-.55-.45-.93s.55-.58.93-.45c1.43.39,2.64,1.01,3.65,1.87.17.15.28.34.31.57.05.27.07.52.06.74-.01.3-.09.32-.24.06l-.59-1.02c-.14-.24-.41-.39-.69-.36Z"/>
    <path class="cls-6" d="m810.43,295.88c-.44.13-.73-.03-.88-.48-.06-.18.04-.37.22-.43.07-.02.15-.02.22,0,3.17,1.03,5.78.35,7.82-2.06.12-.14.34-.16.48-.04.06.05.09.11.11.19.84,4.11-5.83,3.45-7.97,2.82Z"/>
    <ellipse class="cls-6" cx="827" cy="296.86" rx=".81" ry="1.67" transform="translate(20.32 645.17) rotate(-43.1)"/>
    <path class="cls-6" d="m831.49,298.32c.48-.05.78.24.89.88.03.21-.12.4-.33.43-.13.02-.26-.03-.34-.14l-1.03-1.38c-.05-.08-.02-.19.06-.23.06-.03.13-.03.19.01l.36.36c.06.05.13.08.2.07Z"/>
    <path class="cls-6" d="m865.51,394.15c.18,1.42-.4,2.25-1.75,2.48-.39.07-.68.27-.88.61-1.15,1.97-2.82,3.4-5,4.3-.37.17-.8,0-.97-.36-.15-.32-.04-.71.26-.91,1.35-.98,1.96-2.33,1.84-4.06-.02-.24-.14-.46-.33-.61l-1.59-1.24c-.32-.24-.38-.69-.13-1.01.08-.1.18-.18.3-.23l2.62-1.08c.25-.1.43-.31.5-.56l1.03-3.51c.08-.27.05-.53-.1-.78-1.13-1.9-.58-8.08-.56-10.4.01-.2.18-.36.38-.36.15,0,.28.1.33.25.89,2.85,1.24,5.77,1.03,8.74-.03.42.29.79.72.82.28.02.55-.12.7-.36l.7-1.11c.15-.22.44-.28.67-.13.13.09.21.24.21.39v3.4c0,.29.22.54.51.58l3.63.45c.66.08,1.12.69,1.04,1.34-.05.39-.28.72-.63.91-.85.44-1.51,1.08-1.99,1.92-.19.31-.45.41-.79.28l-.97-.37c-.3-.11-.63.04-.75.34-.03.09-.04.18-.03.27Z"/>
    <g>
      <path class="cls-6" d="m789.3,288.22c2.71,1.05,5.23,1.94,7.55,2.67,2.83.89,4.4,2.94,6.48,4.84.04.04.09.07.14.09l3.63,1.38c.23.09.33.35.24.57-.05.12-.15.22-.28.26l-1.84.5c-.17.06-.26.25-.2.42.04.12.15.21.27.22,1.74.1,2.47,1.05,2.18,2.85-.05.35.14.68.47.81,2.05.8,3.77,2.05,5.14,3.75.17.21.12.3-.15.29-4.97-.15-8.83-2.27-11.59-6.37-.17-.25-.4-.46-.66-.61-1.59-.86-2.97-.61-4.12.74-.21.25-.49.42-.8.49l-1.65.37c-.25.06-.41.31-.35.56,0,.03.02.05.03.08l.65,1.42c.14.3.01.66-.29.8-.12.06-.26.07-.39.04l-4.72-1.08.26-15.09Z"/>
      <path class="cls-6" d="m770.93,367.73c-2.93.21-4.85,1.65-5.77,4.34-.13.37-.35.45-.68.24l-2.07-1.35c-.32-.21-.39-.47-.2-.8l.88-1.58c.13-.24.14-.52.03-.77-.97-2.07-2.35-3.79-4.16-5.17-.27-.21-.61-.32-.95-.32h-4.27c-.34,0-.67-.17-.86-.45-.65-.93-1.44-1.29-2.39-1.06-4.87,1.16-10.71,1.75-15.16,3.98-2.37,1.18-3.89,2.5-6.71,2.56-3.84.09-9.25-.36-10.35,2.25-.15.35-.41.54-.79.58-1.4.13-7.76-.91-6.42-3.85.16-.35.14-.69-.06-1.02-.97-1.63-.57-2.72,1.19-3.26.35-.11.59-.43.58-.8-.06-6.38-2.45-12.15-1.74-18.51.73-6.65,4.9-11.21,11.8-11.48,4.43-.18,7.36-1.88,11.37-3.03,1.99-.57,2.74-1.97,2.26-4.19-.17-.8.34-1.59,1.14-1.75.34-.07.68-.02.99.13l2.03,1.06c.29.15.54.09.74-.18,1.36-1.88,3.58-3.31,3.37-5.77-.03-.35.17-.67.49-.81.93-.39,1.66-1.01,2.2-1.86.14-.21.34-.35.58-.4,5.52-1.16,5.22,7.74,11.66,3.35.36-.25.45-.74.21-1.1-.1-.15-.25-.26-.43-.31l-1.2-.36c-.13-.03-.21-.17-.18-.3.03-.1.11-.17.21-.19,1.98-.33,2.7-1.52,2.16-3.58-.07-.27.1-.55.37-.62.04-.01.08-.02.13-.02l3.66-.02c.41,0,.69-.2.84-.59.17-.46.08-.84-.26-1.13-.61-.53-1.75-.27-2.39-.84-.31-.26-.35-.72-.09-1.03.22-.26.59-.34.89-.18l4.93,2.33c.34.16.7.22,1.07.18,1.23-.12,2.09.4,2.56,1.57.13.32.48.47.8.35l2.5-.95c.3-.12.65.04.76.35.02.06.03.12.04.18.08,1.96-.72,3.39-2.41,4.28-.42.22-.54.55-.35.99,1.39,3.17,3.79,4.34,7.2,3.53.34-.08.68.12.77.45l.76,2.61c.09.33.31.55.66.64,3,.77,4.9-.38,5.71-3.47,1.15-4.39,1.59-8.31,1.32-11.78-.03-.31.11-.52.4-.61,2.52-.84,3.65.4,4.24,2.79.53,2.12,1.6,3.92,3.21,5.4.28.25.45.57.51.94l1.53,10.43c.05.29.18.54.4.73,8.38,7.51,13.86,14.6,15.14,25.79.04.31-.05.62-.25.86-1.95,2.34-3.45,4.89-4.5,7.66-2.46,6.54-8.49,12.86-13.4,17.71-.21.2-.28.44-.21.72l.24,1.06c.08.37-.16.73-.52.81-.03,0-.06.01-.1.01-2.03.11-4.02.43-5.97.95-.11.03-.21.1-.29.19l-1.64,2.02c-.21.26-.58.3-.84.1-.04-.03-.07-.07-.1-.11-2.24-2.9-4.42-3.06-7.92-1.95-3.14,1-7.97-1.48-5.7-5.39.21-.37.12-.84-.21-1.11-1.32-1.06-2.86-1.72-4.61-1.97-.45-.06-.61-.31-.46-.75l.37-1.13c.08-.24-.05-.49-.29-.57-.03,0-.05-.01-.08-.02l-1.16-.18c-.35-.05-.59-.37-.54-.72.02-.13.08-.26.17-.36l3.84-3.87c.12-.11.12-.29.01-.41-.06-.07-.15-.1-.24-.09Z"/>
      <rect class="cls-6" x="848.06" y="329.11" width="1.42" height="10.94" rx=".67" ry=".67" transform="translate(43.12 762.7) rotate(-49.5)"/>
      <ellipse class="cls-6" cx="780.73" cy="388.92" rx=".91" ry=".71" transform="translate(10.02 797.33) rotate(-54.4)"/>
      <path class="cls-6" d="m784.56,394.47l4.58-.61c.31-.04.56-.27.63-.57l.79-3.07c.06-.23.29-.34.51-.25.22.1.35.36.29.6h0c-1.29,5.12-4.07,9.23-8.35,12.34-.4.3-.97.21-1.27-.19-.11-.14-.17-.31-.18-.49l-.46-7.36c-.02-.33-.13-.63-.34-.88l-.58-.74c-.33-.41-.24-.7.27-.85,1.69-.5,2.85.06,3.46,1.67.11.31.33.44.65.4Z"/>
      <path class="cls-6" d="m853.72,400.06l1.2.59c.3.15.42.51.27.8,0,0,0,0,0,0-.45.87-1.04,1.64-1.76,2.3-.27.25-.47.55-.62.88-1.22,2.7-3.98,3.4-5.69,4.99-4.11,3.84-8.16,7.71-12.13,11.6-.21.21-.55.21-.76,0-.04-.04-.07-.08-.09-.13-.84-1.65-2.13-2.78-3.88-3.38-.33-.11-.46-.34-.39-.69,1.92-8.81,12.83-7.56,17.81-14.46,1.36-1.89,3-3.49,4.91-4.82.19-.13.45-.08.58.11.05.07.07.15.07.23v1.21c0,.32.19.61.48.76Z"/>
      <path class="cls-6" d="m830.77,419.94c.05-.12.19-.18.31-.13.08.03.14.11.15.19.11.71-.09,1.3-.58,1.79-.12.13-.31.14-.44.02-.1-.09-.13-.24-.07-.36l.63-1.51Z"/>
    </g>
  </g>
  <g>
    <path class="cls-2" d="m296.78,351.01c-2.35,1.97-4.48,3.92-6.41,5.87-3.79,3.84-6.42,12.05-13.7,6.36-.34-.27-.83-.21-1.1.12-.21.27-.23.64-.03.93,2.45,3.67,4.56,7.79.36,11.33-.24.2-.54.3-.85.28l-7.33-.39c-.44-.03-.81.31-.83.75,0,.05,0,.09,0,.14.24,1.97.03,3.91-.62,5.8-.11.33-.47.5-.8.39-.02,0-.03-.01-.05-.02l-1.79-.8c-.86-.38-1.88-.09-2.41.69-.99,1.45-.88,2.53.35,3.24.24.14.48.15.73.03.63-.31,1.3-.45,2-.42.53.02.61.22.24.6l-3.96,4.03c-.24.24-.35.58-.31.92.24,2.04-.55,3.26-2.36,3.67-.33.08-.61.31-.73.62-1.37,3.43,3,4.57,5.19,5.28.54.17.83.75.66,1.28-.04.11-.09.22-.17.32l-4.45,5.72c-.19.24-.28.51-.28.81,0,1.78-.43,3.43-1.3,4.96-.17.29-.16.58.05.85l4.71,6.15c.18.23.41.4.69.51l5.8,2.18c.27.1.41.39.32.66-.07.21-.27.34-.49.35l-8.58.14c-.24,0-.44.2-.43.45,0,.01,0,.03,0,.04.02.16.06.28.13.36,0,0,5.06.29,5.72.4.31.05.52.34.47.65-.04.26-.26.46-.52.49-2.81.21-5.45-.32-7.9-1.61-.42-.22-.58-.74-.37-1.15.02-.04.04-.07.07-.11l1.25-1.69c.22-.3.17-.55-.15-.75-2.19-1.34-4.55-2.07-7.08-2.2-.3-.02-.59-.14-.81-.34l-5.33-4.88c-.29-.26-.46-.58-.53-.95l-2.24-12.99c-.06-.33-.25-.57-.56-.7-1.15-.48-1.73-1.33-1.72-2.55,0-.43.35-.78.78-.77.01,0,.02,0,.03,0l1.18.06c.35.02.68-.19.81-.52l1.22-3c.16-.39.12-.76-.13-1.11-1.21-1.69-1.05-3.29.49-4.81.24-.24.24-.62,0-.86-.11-.11-.25-.17-.4-.18l-2.61-.13c-.24-.01-.45-.15-.56-.36l-2.33-4.36c-.17-.31-.17-.62,0-.93,1.6-2.95,1.19-5.36-1.23-7.23-.31-.23-.31-.47,0-.71l1.28-.97c.29-.22.47-.5.56-.84l2.3-8.54c.07-.28.04-.54-.09-.79l-1.73-3.09c-.16-.28-.16-.62-.02-.91l1.31-2.63c.17-.34.23-.7.18-1.07-.23-1.85.11-3.56,1.01-5.15.18-.32.26-.66.24-1.02-.22-4.09-.94-8.06-2.15-11.93-1.01-3.21-.02-5.59,1.5-8.26.57-.99.23-2.26-.77-2.84-4.68-2.7-9.26-5.75-13.73-9.16-4.31-3.28-7.07-7.99-10.47-12.24-.17-.21-.23-.48-.18-.75l.25-1.3c.08-.43-.08-.72-.48-.88-2.31-.95-3.99-2.53-5.03-4.75-.04-.08-.05-.18-.03-.27l2.59-14.06c.02-.1.07-.18.14-.25,2.17-1.91,7.95-6.14,7-9.31-.49-1.63-.37-2.18-.12-3.71.05-.34-.08-.58-.4-.71l-1.88-.78c-.37-.15-.51-.43-.41-.83.29-1.17.27-2.25-.04-3.24.25-.15.41-.38.48-.69l4.71,1.88c.43.17.73.04.92-.37l2.52-5.33c.15-.33.42-.52.79-.55l5.59-.5c.28-.02.52-.19.65-.43l.86-1.58c.25-.46.55-.51.92-.14l.63.63c.28.29.28.57,0,.86-1.33,1.37-1.82,3.06-1.49,5.09.04.24.28.41.52.36.09-.02.17-.06.24-.12,1.56-1.56,2.48-3.43,2.75-5.6.03-.25.16-.35.41-.32,2.66.38,5.01,1.44,7.04,3.17.26.23.6.35.95.36,2.19.05,4.34.33,6.43.83,1.01.25,2.32.03,2.97-.62.72-.72,1.85-.84,2.71-.29,5.46,3.49,10.31,7.99,16.23,10.67.31.14.6.1.86-.12,2.55-2.11,5.98.58,9.17,1.91.33.14.59.35.79.64.99,1.44,2.39,1.99,4.19,1.65.34-.06.68.13.81.45l1.4,3.68c.05.14.05.29-.01.42l-3.23,6.83c-.14.3,0,.66.29.8.21.1.45.06.63-.09,1.46-1.25,3.18-1.86,5.16-1.84.34,0,.61.29.61.63,0,.25-.16.47-.4.56-2.57.93-3.21,2.61-1.9,5.04.23.43.4.41.53-.06,1.44-5.26,5.93-6.13,9.79-2.71,1.49,1.32,3.24,2.18,5.25,2.59.29.06.59.03.86-.07,2.65-1.03,4.67-1.27,6.07-.71,5.14,2.06,10.04,4.31,14.71,6.76.84.44,1.24,1.41.97,2.32l-3.19,10.57c-.1.33-.3.58-.61.75-8.66,4.74-5.96,5.89-6.17,14.37,0,.3-.12.59-.33.82-1.63,1.79-3,4.35-4.11,7.67-.81,2.44-3.18,2.66-5.71,2.54-2.17-.09-4.28.26-6.33,1.06-.29.12-.53.3-.72.55-4.02,5.36-8.05,6.17-6.84,15.05Z"/>
    <path class="cls-2" d="m186.89,284.01c.07.02.1.1.08.17-.02.04-.05.08-.1.08l-2.46.45c-.37.07-.74-.17-.81-.54-.02-.09-.02-.18,0-.27l.12-.57c.07-.39.3-.51.68-.36l2.49,1.04Z"/>
    <ellipse class="cls-2" cx="238.87" cy="389.14" rx="1.12" ry="2.22" transform="translate(-108.04 92.26) rotate(-17.9)"/>
    <path class="cls-2" d="m277.48,412.86c-.28-.06-.45-.32-.4-.6,0-.02.01-.05.02-.07.22-.64.64-.96,1.26-.95.97.02,1.98,1.04,3.02,1.34.25.07.46.02.65-.14l2.25-1.97c.21-.21.56-.21.77,0,.21.21.21.56,0,.77l-2.17,2.43c-.13.15-.33.22-.53.18l-4.86-.99Z"/>
    <path class="cls-2" d="m249.16,421.8c-1.06.19-1.89-.13-2.49-.97-.2-.27-.13-.64.14-.84.19-.14.45-.15.66-.03l1.82,1.06c.66.38.62.64-.13.78Z"/>
    <ellipse class="cls-2" cx="252.67" cy="421.58" rx="1.19" ry=".9" transform="translate(-224.72 304.64) rotate(-45.3)"/>
  </g>
</svg>